# Generated from 2N7000_TO-92.step
mtllib 2N7000_TO-92.mtl
v -0.74577 -1.33000 2.50000
v 3.28577 -1.33000 2.50000
v -0.74577 -1.33000 7.30000
v 3.28577 -1.33000 7.30000
v -1.00360 -0.81423 7.30000
v -1.00360 -0.81423 2.50000
v -1.13181 -0.25205 2.50000
v -1.13181 -0.25205 7.30000
v -1.12310 0.32450 2.50000
v -1.12310 0.32450 7.30000
v -0.97796 0.88256 2.50000
v -0.97796 0.88256 7.30000
v -0.70466 1.39030 2.50000
v -0.70466 1.39030 7.30000
v -0.31880 1.81878 2.50000
v -0.31880 1.81878 7.30000
v 0.15765 2.14357 7.30000
v 0.15765 2.14357 2.50000
v 0.69750 2.34616 2.50000
v 0.69750 2.34616 7.30000
v 1.27000 2.41500 2.50000
v 1.27000 2.41500 7.30000
v 1.84250 2.34616 2.50000
v 1.84250 2.34616 7.30000
v 2.38235 2.14357 2.50000
v 2.38235 2.14357 7.30000
v 2.85880 1.81878 7.30000
v 2.85880 1.81878 2.50000
v 3.24466 1.39030 2.50000
v 3.24466 1.39030 7.30000
v 3.51796 0.88256 7.30000
v 3.51796 0.88256 2.50000
v 3.66310 0.32450 2.50000
v 3.66310 0.32450 7.30000
v 3.67181 -0.25205 2.50000
v 3.67181 -0.25205 7.30000
v 3.54360 -0.81423 2.50000
v 3.54360 -0.81423 7.30000
v 2.78000 -0.19000 2.50000
v 2.78000 0.19000 2.50000
v 2.30000 -0.19000 2.50000
v 2.30000 0.19000 2.50000
v 0.24000 -0.19000 2.50000
v 0.24000 0.19000 2.50000
v -0.24000 -0.19000 2.50000
v -0.24000 0.19000 2.50000
v -0.24000 0.19000 -2.50000
v 0.24000 0.19000 -2.50000
v 0.24000 -0.19000 -2.50000
v -0.24000 -0.19000 -2.50000
v 2.30000 0.19000 -2.50000
v 2.78000 0.19000 -2.50000
v 2.78000 -0.19000 -2.50000
v 2.30000 -0.19000 -2.50000

g Solid_0
usemtl Solid_0
f 1 2 3
f 3 2 4
f 1 3 5
f 6 1 5
f 7 5 8
f 7 6 5
f 9 8 10
f 9 7 8
f 11 10 12
f 11 9 10
f 13 12 14
f 13 11 12
f 15 16 17
f 15 14 16
f 15 13 14
f 18 15 17
f 19 17 20
f 19 18 17
f 21 20 22
f 21 19 20
f 23 22 24
f 23 21 22
f 25 26 27
f 25 24 26
f 25 23 24
f 28 25 27
f 29 30 31
f 29 27 30
f 29 28 27
f 32 29 31
f 33 32 31
f 33 31 34
f 35 33 34
f 35 34 36
f 37 35 36
f 37 38 4
f 37 36 38
f 2 37 4
f 39 37 2
f 39 35 37
f 40 33 35
f 40 32 33
f 40 35 39
f 41 39 2
f 29 40 42
f 29 32 40
f 28 29 42
f 43 2 1
f 43 42 41
f 43 41 2
f 25 28 42
f 44 42 43
f 45 43 1
f 6 45 1
f 23 25 42
f 7 46 45
f 7 45 6
f 21 42 44
f 21 23 42
f 9 46 7
f 19 21 44
f 11 46 9
f 18 19 44
f 13 44 46
f 13 46 11
f 15 18 44
f 15 44 13
f 34 31 36
f 30 27 31
f 38 3 4
f 26 24 27
f 3 8 5
f 36 12 38
f 8 12 10
f 38 12 3
f 3 12 8
f 22 17 24
f 20 17 22
f 31 17 36
f 27 17 31
f 24 17 27
f 36 17 12
f 12 16 14
f 17 16 12
f 46 44 47
f 47 44 48
f 44 43 48
f 48 43 49
f 43 45 49
f 49 45 50
f 45 46 50
f 50 46 47
f 42 40 51
f 51 40 52
f 40 39 52
f 52 39 53
f 39 41 53
f 53 41 54
f 41 42 54
f 54 42 51
f 47 48 50
f 50 48 49
f 51 52 54
f 54 52 53
