# Generated from AMS1117_SOT-223.step
mtllib AMS1117_SOT-223.mtl
v -1.65654 -3.15654 0.10000
v -1.65654 3.15654 0.10000
v 1.65654 3.15654 0.10000
v 1.65654 -3.15654 0.10000
v -1.75000 2.68345 0.76500
v -1.75000 3.25000 0.76500
v -1.75000 1.91675 0.76500
v -1.75000 0.38335 0.76500
v -1.75000 -1.91675 0.76500
v -1.75000 -0.38335 0.76500
v -1.75000 -2.68345 0.76500
v -1.75000 -3.25000 0.76500
v 1.75000 -3.25000 0.76500
v 1.75000 -1.15005 0.76500
v 1.75000 1.15005 0.76500
v 1.75000 3.25000 0.76500
v -1.75000 2.68345 1.03500
v -1.75000 3.25000 1.03500
v -1.75000 -3.25000 1.03500
v -1.75000 -2.68345 1.03500
v -2.25000 1.91675 0.76500
v -2.25000 2.68345 0.76500
v -2.25000 -2.68345 0.76500
v -2.25000 -1.91675 0.76500
v -1.75000 0.38335 1.03500
v -1.75000 1.91675 1.03500
v -1.75000 -1.91675 1.03500
v -1.75000 -0.38335 1.03500
v -2.25000 -0.38335 0.76500
v -2.25000 0.38335 0.76500
v 1.75000 -3.25000 1.03500
v 1.75000 -1.15005 1.03500
v 1.75000 3.25000 1.03500
v 1.75000 1.15005 1.03500
v 2.25000 1.15005 0.76500
v 2.25000 -1.15005 0.76500
v -1.73500 2.68345 1.03500
v -1.73500 3.23500 1.03500
v -2.92000 2.68345 0.27000
v -2.92000 2.68345 0.00000
v -3.50000 2.68345 0.00000
v -3.50000 2.68345 0.27000
v -2.87550 2.68345 0.27501
v -2.81542 2.68345 0.01178
v -2.83322 2.68345 0.28981
v -2.71607 2.68345 0.04654
v -2.79530 2.68345 0.31363
v -2.62696 2.68345 0.10254
v -2.76363 2.68345 0.34530
v -2.55254 2.68345 0.17696
v -2.49654 2.68345 0.26607
v -2.73981 2.68345 0.38322
v -2.46178 2.68345 0.36542
v -2.72501 2.68345 0.42550
v -2.45000 2.68345 0.47000
v -2.72000 2.68345 0.47000
v -2.72000 2.68345 0.56500
v -2.45000 2.68345 0.56500
v -2.44499 2.68345 0.60950
v -2.70822 2.68345 0.66958
v -2.43019 2.68345 0.65178
v -2.67346 2.68345 0.76893
v -2.40637 2.68345 0.68970
v -2.61746 2.68345 0.85804
v -2.37470 2.68345 0.72137
v -2.54304 2.68345 0.93246
v -2.45393 2.68345 0.98846
v -2.29450 2.68345 0.75999
v -2.33678 2.68345 0.74519
v -2.35458 2.68345 1.02322
v -2.25000 2.68345 1.03500
v -2.92000 -2.68345 0.00000
v -2.92000 -2.68345 0.27000
v -3.50000 -2.68345 0.00000
v -3.50000 -2.68345 0.27000
v -2.81542 -2.68345 0.01178
v -2.87550 -2.68345 0.27501
v -2.71607 -2.68345 0.04654
v -2.83322 -2.68345 0.28981
v -2.62696 -2.68345 0.10254
v -2.79530 -2.68345 0.31363
v -2.76363 -2.68345 0.34530
v -2.55254 -2.68345 0.17696
v -2.49654 -2.68345 0.26607
v -2.73981 -2.68345 0.38322
v -2.46178 -2.68345 0.36542
v -2.72501 -2.68345 0.42550
v -2.45000 -2.68345 0.47000
v -2.72000 -2.68345 0.47000
v -2.72000 -2.68345 0.56500
v -2.45000 -2.68345 0.56500
v -2.44499 -2.68345 0.60950
v -2.70822 -2.68345 0.66958
v -2.43019 -2.68345 0.65178
v -2.67346 -2.68345 0.76893
v -2.40637 -2.68345 0.68970
v -2.61746 -2.68345 0.85804
v -2.37470 -2.68345 0.72137
v -2.54304 -2.68345 0.93246
v -2.29450 -2.68345 0.75999
v -2.45393 -2.68345 0.98846
v -2.33678 -2.68345 0.74519
v -2.35458 -2.68345 1.02322
v -2.25000 -2.68345 1.03500
v -1.73500 -2.68345 1.03500
v -1.73500 -3.23500 1.03500
v -2.92000 1.91675 0.00000
v -2.92000 1.91675 0.27000
v -3.50000 1.91675 0.00000
v -3.50000 1.91675 0.27000
v -2.81542 1.91675 0.01178
v -2.87550 1.91675 0.27501
v -2.71607 1.91675 0.04654
v -2.83322 1.91675 0.28981
v -2.62696 1.91675 0.10254
v -2.79530 1.91675 0.31363
v -2.76363 1.91675 0.34530
v -2.55254 1.91675 0.17696
v -2.49654 1.91675 0.26607
v -2.73981 1.91675 0.38322
v -2.46178 1.91675 0.36542
v -2.72501 1.91675 0.42550
v -2.45000 1.91675 0.47000
v -2.72000 1.91675 0.47000
v -2.72000 1.91675 0.56500
v -2.45000 1.91675 0.56500
v -2.44499 1.91675 0.60950
v -2.70822 1.91675 0.66958
v -2.43019 1.91675 0.65178
v -2.67346 1.91675 0.76893
v -2.40637 1.91675 0.68970
v -2.61746 1.91675 0.85804
v -2.37470 1.91675 0.72137
v -2.54304 1.91675 0.93246
v -2.29450 1.91675 0.75999
v -2.45393 1.91675 0.98846
v -2.33678 1.91675 0.74519
v -2.35458 1.91675 1.02322
v -2.25000 1.91675 1.03500
v -2.29450 -1.91675 0.75999
v -2.33678 -1.91675 0.74519
v -2.37470 -1.91675 0.72137
v -2.40637 -1.91675 0.68970
v -2.43019 -1.91675 0.65178
v -2.44499 -1.91675 0.60950
v -2.45000 -1.91675 0.56500
v -2.92000 -1.91675 0.27000
v -2.92000 -1.91675 0.00000
v -3.50000 -1.91675 0.00000
v -3.50000 -1.91675 0.27000
v -2.87550 -1.91675 0.27501
v -2.81542 -1.91675 0.01178
v -2.83322 -1.91675 0.28981
v -2.71607 -1.91675 0.04654
v -2.79530 -1.91675 0.31363
v -2.62696 -1.91675 0.10254
v -2.76363 -1.91675 0.34530
v -2.55254 -1.91675 0.17696
v -2.49654 -1.91675 0.26607
v -2.73981 -1.91675 0.38322
v -2.46178 -1.91675 0.36542
v -2.72501 -1.91675 0.42550
v -2.45000 -1.91675 0.47000
v -2.72000 -1.91675 0.47000
v -2.72000 -1.91675 0.56500
v -2.70822 -1.91675 0.66958
v -2.67346 -1.91675 0.76893
v -2.61746 -1.91675 0.85804
v -2.54304 -1.91675 0.93246
v -2.45393 -1.91675 0.98846
v -2.35458 -1.91675 1.02322
v -2.25000 -1.91675 1.03500
v -1.73500 0.38335 1.03500
v -1.73500 1.91675 1.03500
v -2.92000 0.38335 0.27000
v -2.92000 0.38335 0.00000
v -3.50000 0.38335 0.00000
v -3.50000 0.38335 0.27000
v -2.87550 0.38335 0.27501
v -2.81542 0.38335 0.01178
v -2.83322 0.38335 0.28981
v -2.71607 0.38335 0.04654
v -2.79530 0.38335 0.31363
v -2.62696 0.38335 0.10254
v -2.76363 0.38335 0.34530
v -2.55254 0.38335 0.17696
v -2.49654 0.38335 0.26607
v -2.73981 0.38335 0.38322
v -2.46178 0.38335 0.36542
v -2.72501 0.38335 0.42550
v -2.45000 0.38335 0.47000
v -2.72000 0.38335 0.47000
v -2.72000 0.38335 0.56500
v -2.45000 0.38335 0.56500
v -2.44499 0.38335 0.60950
v -2.70822 0.38335 0.66958
v -2.43019 0.38335 0.65178
v -2.67346 0.38335 0.76893
v -2.40637 0.38335 0.68970
v -2.61746 0.38335 0.85804
v -2.37470 0.38335 0.72137
v -2.54304 0.38335 0.93246
v -2.45393 0.38335 0.98846
v -2.29450 0.38335 0.75999
v -2.33678 0.38335 0.74519
v -2.35458 0.38335 1.02322
v -2.25000 0.38335 1.03500
v -2.92000 -0.38335 0.00000
v -2.92000 -0.38335 0.27000
v -3.50000 -0.38335 0.00000
v -3.50000 -0.38335 0.27000
v -2.81542 -0.38335 0.01178
v -2.87550 -0.38335 0.27501
v -2.71607 -0.38335 0.04654
v -2.83322 -0.38335 0.28981
v -2.62696 -0.38335 0.10254
v -2.79530 -0.38335 0.31363
v -2.76363 -0.38335 0.34530
v -2.55254 -0.38335 0.17696
v -2.49654 -0.38335 0.26607
v -2.73981 -0.38335 0.38322
v -2.46178 -0.38335 0.36542
v -2.72501 -0.38335 0.42550
v -2.45000 -0.38335 0.47000
v -2.72000 -0.38335 0.47000
v -2.72000 -0.38335 0.56500
v -2.45000 -0.38335 0.56500
v -2.44499 -0.38335 0.60950
v -2.70822 -0.38335 0.66958
v -2.43019 -0.38335 0.65178
v -2.67346 -0.38335 0.76893
v -2.40637 -0.38335 0.68970
v -2.61746 -0.38335 0.85804
v -2.37470 -0.38335 0.72137
v -2.54304 -0.38335 0.93246
v -2.29450 -0.38335 0.75999
v -2.45393 -0.38335 0.98846
v -2.33678 -0.38335 0.74519
v -2.35458 -0.38335 1.02322
v -2.25000 -0.38335 1.03500
v -1.73500 -0.38335 1.03500
v -1.73500 -1.91675 1.03500
v 1.73500 -3.23500 1.03500
v 1.73500 -1.15005 1.03500
v 2.92000 -1.15005 0.27000
v 2.92000 -1.15005 0.00000
v 3.50000 -1.15005 0.00000
v 3.50000 -1.15005 0.27000
v 2.87550 -1.15005 0.27501
v 2.81542 -1.15005 0.01178
v 2.83322 -1.15005 0.28981
v 2.71607 -1.15005 0.04654
v 2.79530 -1.15005 0.31363
v 2.62696 -1.15005 0.10254
v 2.76363 -1.15005 0.34530
v 2.55254 -1.15005 0.17696
v 2.49654 -1.15005 0.26607
v 2.73981 -1.15005 0.38322
v 2.46178 -1.15005 0.36542
v 2.72501 -1.15005 0.42550
v 2.45000 -1.15005 0.47000
v 2.72000 -1.15005 0.47000
v 2.72000 -1.15005 0.56500
v 2.45000 -1.15005 0.56500
v 2.44499 -1.15005 0.60950
v 2.70822 -1.15005 0.66958
v 2.43019 -1.15005 0.65178
v 2.67346 -1.15005 0.76893
v 2.40637 -1.15005 0.68970
v 2.61746 -1.15005 0.85804
v 2.37470 -1.15005 0.72137
v 2.54304 -1.15005 0.93246
v 2.45393 -1.15005 0.98846
v 2.29450 -1.15005 0.75999
v 2.33678 -1.15005 0.74519
v 2.35458 -1.15005 1.02322
v 2.25000 -1.15005 1.03500
v 2.92000 1.15005 0.00000
v 2.92000 1.15005 0.27000
v 3.50000 1.15005 0.00000
v 3.50000 1.15005 0.27000
v 2.81542 1.15005 0.01178
v 2.87550 1.15005 0.27501
v 2.71607 1.15005 0.04654
v 2.83322 1.15005 0.28981
v 2.62696 1.15005 0.10254
v 2.79530 1.15005 0.31363
v 2.76363 1.15005 0.34530
v 2.55254 1.15005 0.17696
v 2.49654 1.15005 0.26607
v 2.73981 1.15005 0.38322
v 2.46178 1.15005 0.36542
v 2.72501 1.15005 0.42550
v 2.45000 1.15005 0.47000
v 2.72000 1.15005 0.47000
v 2.72000 1.15005 0.56500
v 2.45000 1.15005 0.56500
v 2.44499 1.15005 0.60950
v 2.70822 1.15005 0.66958
v 2.43019 1.15005 0.65178
v 2.67346 1.15005 0.76893
v 2.40637 1.15005 0.68970
v 2.61746 1.15005 0.85804
v 2.37470 1.15005 0.72137
v 2.54304 1.15005 0.93246
v 2.29450 1.15005 0.75999
v 2.45393 1.15005 0.98846
v 2.33678 1.15005 0.74519
v 2.35458 1.15005 1.02322
v 2.25000 1.15005 1.03500
v 1.73500 1.15005 1.03500
v 1.73500 3.23500 1.03500
v -1.64154 3.14154 1.70000
v -1.64154 -3.14154 1.70000
v 1.64154 -3.14154 1.70000
v 1.64154 3.14154 1.70000

g Solid_0
usemtl Solid_0
f 1 2 3
f 1 3 4
f 5 6 2
f 7 5 2
f 8 7 2
f 1 9 10
f 1 10 8
f 1 8 2
f 11 9 1
f 12 11 1
f 13 1 4
f 13 12 1
f 14 13 4
f 3 15 14
f 3 14 4
f 16 15 3
f 6 3 2
f 6 16 3
f 17 18 6
f 17 6 5
f 19 20 11
f 19 11 12
f 7 21 5
f 5 21 22
f 11 23 9
f 9 23 24
f 25 26 7
f 25 7 8
f 27 28 10
f 27 10 9
f 10 29 8
f 8 29 30
f 31 12 13
f 31 19 12
f 32 31 13
f 32 13 14
f 33 34 15
f 33 15 16
f 15 35 36
f 15 36 14
f 18 16 6
f 18 33 16
f 37 38 18
f 37 18 17
f 39 40 41
f 39 41 42
f 43 44 40
f 43 40 39
f 45 46 44
f 45 44 43
f 47 48 46
f 47 46 45
f 49 48 47
f 50 48 49
f 51 49 52
f 51 50 49
f 53 52 54
f 53 51 52
f 55 54 56
f 55 56 57
f 55 53 54
f 58 55 57
f 59 57 60
f 59 58 57
f 61 60 62
f 61 59 60
f 63 62 64
f 63 61 62
f 65 63 64
f 66 65 64
f 67 68 69
f 67 69 65
f 67 65 66
f 70 68 67
f 71 22 68
f 71 68 70
f 17 22 71
f 17 5 22
f 72 73 74
f 74 73 75
f 76 77 72
f 72 77 73
f 78 79 76
f 76 79 77
f 80 81 78
f 78 81 79
f 80 82 81
f 80 83 82
f 82 84 85
f 83 84 82
f 85 86 87
f 84 86 85
f 87 88 89
f 89 88 90
f 86 88 87
f 88 91 90
f 90 92 93
f 91 92 90
f 93 94 95
f 92 94 93
f 95 96 97
f 94 96 95
f 96 98 97
f 98 99 97
f 100 101 102
f 102 101 98
f 98 101 99
f 100 103 101
f 23 104 100
f 100 104 103
f 23 20 104
f 11 20 23
f 19 105 20
f 106 105 19
f 107 108 109
f 109 108 110
f 111 112 107
f 107 112 108
f 113 114 111
f 111 114 112
f 115 116 113
f 113 116 114
f 115 117 116
f 115 118 117
f 117 119 120
f 118 119 117
f 120 121 122
f 119 121 120
f 122 123 124
f 124 123 125
f 121 123 122
f 123 126 125
f 125 127 128
f 126 127 125
f 128 129 130
f 127 129 128
f 130 131 132
f 129 131 130
f 131 133 132
f 133 134 132
f 135 136 137
f 137 136 133
f 133 136 134
f 135 138 136
f 21 139 135
f 135 139 138
f 21 26 139
f 7 26 21
f 21 135 22
f 22 135 68
f 68 137 69
f 135 137 68
f 69 133 65
f 137 133 69
f 65 131 63
f 133 131 65
f 63 129 61
f 131 129 63
f 61 127 59
f 129 127 61
f 59 126 58
f 127 126 59
f 23 100 24
f 24 100 140
f 140 102 141
f 100 102 140
f 141 98 142
f 102 98 141
f 142 96 143
f 98 96 142
f 143 94 144
f 96 94 143
f 144 92 145
f 94 92 144
f 145 91 146
f 92 91 145
f 147 148 149
f 147 149 150
f 151 152 148
f 151 148 147
f 153 154 152
f 153 152 151
f 155 156 154
f 155 154 153
f 157 156 155
f 158 156 157
f 159 157 160
f 159 158 157
f 161 160 162
f 161 159 160
f 163 162 164
f 163 164 165
f 163 161 162
f 146 163 165
f 145 165 166
f 145 146 165
f 144 166 167
f 144 145 166
f 143 167 168
f 143 144 167
f 142 143 168
f 169 142 168
f 170 140 141
f 170 141 142
f 170 142 169
f 171 140 170
f 172 24 140
f 172 140 171
f 27 24 172
f 27 9 24
f 173 174 26
f 173 26 25
f 175 176 177
f 175 177 178
f 179 180 176
f 179 176 175
f 181 182 180
f 181 180 179
f 183 184 182
f 183 182 181
f 185 184 183
f 186 184 185
f 187 185 188
f 187 186 185
f 189 188 190
f 189 187 188
f 191 190 192
f 191 192 193
f 191 189 190
f 194 191 193
f 195 193 196
f 195 194 193
f 197 196 198
f 197 195 196
f 199 198 200
f 199 197 198
f 201 199 200
f 202 201 200
f 203 204 205
f 203 205 201
f 203 201 202
f 206 204 203
f 207 30 204
f 207 204 206
f 25 30 207
f 25 8 30
f 208 209 210
f 210 209 211
f 212 213 208
f 208 213 209
f 214 215 212
f 212 215 213
f 216 217 214
f 214 217 215
f 216 218 217
f 216 219 218
f 218 220 221
f 219 220 218
f 221 222 223
f 220 222 221
f 223 224 225
f 225 224 226
f 222 224 223
f 224 227 226
f 226 228 229
f 227 228 226
f 229 230 231
f 228 230 229
f 231 232 233
f 230 232 231
f 232 234 233
f 234 235 233
f 236 237 238
f 238 237 234
f 234 237 235
f 236 239 237
f 29 240 236
f 236 240 239
f 29 28 240
f 10 28 29
f 27 241 28
f 242 241 27
f 29 236 30
f 30 236 204
f 204 238 205
f 236 238 204
f 205 234 201
f 238 234 205
f 201 232 199
f 234 232 201
f 199 230 197
f 232 230 199
f 197 228 195
f 230 228 197
f 195 227 194
f 228 227 195
f 31 106 19
f 243 106 31
f 244 243 31
f 244 31 32
f 245 246 247
f 245 247 248
f 249 250 246
f 249 246 245
f 251 252 250
f 251 250 249
f 253 254 252
f 253 252 251
f 255 254 253
f 256 254 255
f 257 255 258
f 257 256 255
f 259 258 260
f 259 257 258
f 261 260 262
f 261 262 263
f 261 259 260
f 264 261 263
f 265 263 266
f 265 264 263
f 267 266 268
f 267 265 266
f 269 268 270
f 269 267 268
f 271 269 270
f 272 271 270
f 273 274 275
f 273 275 271
f 273 271 272
f 276 274 273
f 277 36 274
f 277 274 276
f 32 36 277
f 32 14 36
f 278 279 280
f 280 279 281
f 282 283 278
f 278 283 279
f 284 285 282
f 282 285 283
f 286 287 284
f 284 287 285
f 286 288 287
f 286 289 288
f 288 290 291
f 289 290 288
f 291 292 293
f 290 292 291
f 293 294 295
f 295 294 296
f 292 294 293
f 294 297 296
f 296 298 299
f 297 298 296
f 299 300 301
f 298 300 299
f 301 302 303
f 300 302 301
f 302 304 303
f 304 305 303
f 306 307 308
f 308 307 304
f 304 307 305
f 306 309 307
f 35 310 306
f 306 310 309
f 35 34 310
f 15 34 35
f 33 311 34
f 312 311 33
f 35 306 36
f 36 306 274
f 274 308 275
f 306 308 274
f 275 304 271
f 308 304 275
f 271 302 269
f 304 302 271
f 269 300 267
f 267 300 265
f 302 300 269
f 300 298 265
f 265 297 264
f 298 297 265
f 18 312 33
f 38 312 18
f 313 38 37
f 174 313 37
f 173 313 174
f 314 241 242
f 314 242 105
f 314 105 106
f 314 313 241
f 241 313 173
f 139 26 71
f 71 26 17
f 17 174 37
f 26 174 17
f 138 139 71
f 138 71 70
f 136 70 67
f 136 138 70
f 134 67 66
f 134 136 67
f 132 66 64
f 132 134 66
f 130 64 62
f 130 132 64
f 128 62 60
f 128 130 62
f 125 60 57
f 125 128 60
f 124 125 56
f 56 125 57
f 108 112 39
f 39 112 43
f 43 114 45
f 112 114 43
f 45 116 47
f 114 116 45
f 47 117 49
f 116 117 47
f 49 120 52
f 117 120 49
f 52 122 54
f 54 122 56
f 120 122 52
f 122 124 56
f 110 108 42
f 42 108 39
f 109 110 41
f 41 110 42
f 107 109 40
f 40 109 41
f 111 107 40
f 111 40 44
f 113 44 46
f 113 111 44
f 115 46 48
f 115 113 46
f 118 48 50
f 118 115 48
f 119 50 51
f 119 118 50
f 121 51 53
f 121 119 51
f 123 53 55
f 123 121 53
f 126 123 58
f 58 123 55
f 104 20 172
f 172 20 27
f 27 105 242
f 20 105 27
f 103 104 172
f 103 172 171
f 101 171 170
f 101 103 171
f 99 170 169
f 99 101 170
f 97 169 168
f 97 99 169
f 95 167 166
f 95 168 167
f 95 97 168
f 93 95 166
f 90 166 165
f 90 93 166
f 89 90 164
f 164 90 165
f 73 77 147
f 147 77 151
f 151 79 153
f 77 79 151
f 153 81 155
f 79 81 153
f 155 82 157
f 81 82 155
f 157 85 160
f 82 85 157
f 160 87 162
f 85 87 160
f 162 89 164
f 87 89 162
f 75 73 150
f 150 73 147
f 74 75 149
f 149 75 150
f 72 74 148
f 148 74 149
f 76 72 148
f 76 148 152
f 78 152 154
f 78 76 152
f 80 154 156
f 80 78 154
f 83 156 158
f 83 80 156
f 84 159 161
f 84 158 159
f 84 83 158
f 86 84 161
f 88 161 163
f 88 86 161
f 91 88 146
f 146 88 163
f 240 28 207
f 207 28 25
f 25 241 173
f 28 241 25
f 239 240 207
f 239 207 206
f 237 206 203
f 237 239 206
f 235 203 202
f 235 237 203
f 233 202 200
f 233 235 202
f 231 200 198
f 231 233 200
f 229 198 196
f 229 231 198
f 226 196 193
f 226 229 196
f 225 226 192
f 192 226 193
f 209 213 175
f 175 213 179
f 179 215 181
f 213 215 179
f 181 217 183
f 215 217 181
f 183 218 185
f 217 218 183
f 185 221 188
f 218 221 185
f 188 223 190
f 221 223 188
f 190 225 192
f 223 225 190
f 211 209 178
f 178 209 175
f 210 211 177
f 177 211 178
f 208 210 176
f 176 210 177
f 212 208 176
f 212 176 180
f 214 180 182
f 214 212 180
f 216 182 184
f 216 214 182
f 219 184 186
f 219 216 184
f 220 186 187
f 220 219 186
f 222 187 189
f 222 220 187
f 224 189 191
f 224 222 189
f 227 224 194
f 194 224 191
f 315 106 243
f 315 314 106
f 244 315 243
f 316 311 312
f 316 315 311
f 311 315 244
f 32 34 311
f 32 311 244
f 277 310 34
f 277 34 32
f 310 277 276
f 309 310 276
f 307 276 273
f 307 309 276
f 305 273 272
f 305 307 273
f 303 272 270
f 303 305 272
f 301 270 268
f 301 303 270
f 299 268 266
f 299 301 268
f 296 266 263
f 296 299 266
f 263 295 296
f 263 262 295
f 279 283 245
f 245 283 249
f 249 285 251
f 283 285 249
f 251 287 253
f 285 287 251
f 253 288 255
f 255 288 258
f 287 288 253
f 288 291 258
f 258 293 260
f 260 293 262
f 291 293 258
f 293 295 262
f 248 281 279
f 248 279 245
f 248 247 280
f 248 280 281
f 280 247 246
f 280 246 278
f 282 246 250
f 282 278 246
f 284 250 252
f 284 282 250
f 286 252 254
f 286 284 252
f 289 254 256
f 289 286 254
f 290 257 259
f 290 256 257
f 290 289 256
f 292 290 259
f 294 259 261
f 294 292 259
f 261 297 294
f 261 264 297
f 313 312 38
f 313 316 312
f 313 315 316
f 313 314 315
