# Generated from Cap_ceramic_0805.step
mtllib Cap_ceramic_0805.mtl
v -1.00000 0.62400 0.03110
v -1.00000 0.58500 0.00000
v -1.00000 0.62500 0.04000
v -1.00000 0.62104 0.02264
v -1.00000 0.61627 0.01506
v -1.00000 0.60994 0.00873
v -1.00000 0.60236 0.00396
v -1.00000 0.59390 0.00100
v -1.00000 0.62500 1.21000
v -1.00000 0.62104 1.22736
v -1.00000 0.62400 1.21890
v -1.00000 -0.60994 0.00873
v -1.00000 -0.61627 0.01506
v -1.00000 -0.60236 0.00396
v -1.00000 -0.59390 0.00100
v -1.00000 0.60994 1.24127
v -1.00000 0.59390 1.24900
v -1.00000 0.60236 1.24604
v -1.00000 -0.62400 0.03110
v -1.00000 -0.62500 0.04000
v -1.00000 -0.62104 0.02264
v -1.00000 -0.58500 0.00000
v -1.00000 0.58500 1.25000
v -1.00000 0.61627 1.23494
v -1.00000 -0.62500 1.21000
v -1.00000 -0.58500 1.25000
v -1.00000 -0.60236 1.24604
v -1.00000 -0.59390 1.24900
v -1.00000 -0.62400 1.21890
v -1.00000 -0.61627 1.23494
v -1.00000 -0.62104 1.22736
v -1.00000 -0.60994 1.24127
v -0.60000 -0.62500 0.04000
v -0.60000 -0.62500 1.21000
v -0.60000 -0.62400 0.03110
v -0.60000 -0.62104 0.02264
v -0.60000 -0.61627 0.01506
v -0.60000 -0.60994 0.00873
v -0.60000 -0.60236 0.00396
v -0.60000 -0.59390 0.00100
v -0.60000 -0.58500 0.00000
v -0.60000 -0.59390 1.24900
v -0.60000 -0.58500 1.25000
v -0.60000 -0.60236 1.24604
v -0.60000 -0.60994 1.24127
v -0.60000 -0.61627 1.23494
v -0.60000 -0.62104 1.22736
v -0.60000 -0.62400 1.21890
v -0.60000 0.58500 0.00000
v -0.60000 0.58500 1.25000
v -0.60000 0.59390 0.00100
v -0.60000 0.60236 0.00396
v -0.60000 0.60994 0.00873
v -0.60000 0.61627 0.01506
v -0.60000 0.62104 0.02264
v -0.60000 0.62400 0.03110
v -0.60000 0.62500 0.04000
v -0.60000 0.62400 1.21890
v -0.60000 0.62500 1.21000
v -0.60000 0.62104 1.22736
v -0.60000 0.61627 1.23494
v -0.60000 0.60994 1.24127
v -0.60000 0.60236 1.24604
v -0.60000 0.59390 1.24900
v -0.60000 0.57627 0.05506
v -0.60000 0.56994 0.04873
v -0.60000 0.58104 0.06264
v -0.60000 0.56236 0.04396
v -0.60000 0.55390 0.04100
v -0.60000 0.58400 0.07110
v -0.60000 0.58500 0.08000
v -0.60000 0.54500 0.04000
v -0.60000 -0.54500 0.04000
v -0.60000 0.58500 1.17000
v -0.60000 -0.55390 0.04100
v -0.60000 0.58400 1.17890
v -0.60000 0.58104 1.18736
v -0.60000 -0.56236 0.04396
v -0.60000 0.57627 1.19494
v -0.60000 -0.56994 0.04873
v -0.60000 0.56994 1.20127
v -0.60000 -0.57627 0.05506
v -0.60000 -0.58104 0.06264
v -0.60000 -0.58400 0.07110
v -0.60000 0.56236 1.20604
v -0.60000 0.55390 1.20900
v -0.60000 0.54500 1.21000
v -0.60000 -0.58500 0.08000
v -0.60000 -0.56994 1.20127
v -0.60000 -0.56236 1.20604
v -0.60000 -0.55390 1.20900
v -0.60000 -0.54500 1.21000
v -0.60000 -0.58500 1.17000
v -0.60000 -0.58400 1.17890
v -0.60000 -0.58104 1.18736
v -0.60000 -0.57627 1.19494
v 0.60000 -0.58400 0.07110
v 0.60000 -0.58500 0.08000
v 0.60000 -0.58104 0.06264
v 0.60000 -0.57627 0.05506
v 0.60000 -0.56994 0.04873
v 0.60000 -0.56236 0.04396
v 0.60000 -0.55390 0.04100
v 0.60000 -0.54500 0.04000
v 0.60000 0.54500 0.04000
v 0.60000 0.55390 0.04100
v 0.60000 0.56236 0.04396
v 0.60000 0.56994 0.04873
v 0.60000 0.57627 0.05506
v 0.60000 0.58104 0.06264
v 0.60000 0.58400 0.07110
v 0.60000 0.58500 0.08000
v 0.60000 0.58500 1.17000
v 0.60000 0.58400 1.17890
v 0.60000 0.58104 1.18736
v 0.60000 0.57627 1.19494
v 0.60000 0.56994 1.20127
v 0.60000 0.56236 1.20604
v 0.60000 0.55390 1.20900
v 0.60000 0.54500 1.21000
v 0.60000 -0.54500 1.21000
v 0.60000 -0.55390 1.20900
v 0.60000 -0.56236 1.20604
v 0.60000 -0.56994 1.20127
v 0.60000 -0.57627 1.19494
v 0.60000 -0.58104 1.18736
v 0.60000 -0.58400 1.17890
v 0.60000 -0.58500 1.17000
v 0.60000 0.62400 0.03110
v 0.60000 0.62500 0.04000
v 0.60000 0.62104 0.02264
v 0.60000 0.61627 0.01506
v 0.60000 0.60994 0.00873
v 0.60000 0.60236 0.00396
v 0.60000 0.59390 0.00100
v 0.60000 0.58500 0.00000
v 0.60000 -0.58500 0.00000
v 0.60000 0.62500 1.21000
v 0.60000 0.62400 1.21890
v 0.60000 0.62104 1.22736
v 0.60000 0.61627 1.23494
v 0.60000 -0.60994 0.00873
v 0.60000 -0.60236 0.00396
v 0.60000 -0.59390 0.00100
v 0.60000 0.60994 1.24127
v 0.60000 -0.61627 0.01506
v 0.60000 0.60236 1.24604
v 0.60000 -0.62104 0.02264
v 0.60000 -0.62400 0.03110
v 0.60000 0.59390 1.24900
v 0.60000 -0.62500 0.04000
v 0.60000 0.58500 1.25000
v 0.60000 -0.58500 1.25000
v 0.60000 -0.62500 1.21000
v 0.60000 -0.62400 1.21890
v 0.60000 -0.59390 1.24900
v 0.60000 -0.60236 1.24604
v 0.60000 -0.62104 1.22736
v 0.60000 -0.60994 1.24127
v 0.60000 -0.61627 1.23494
v 1.00000 -0.62500 0.04000
v 1.00000 -0.62500 1.21000
v 1.00000 -0.62400 0.03110
v 1.00000 -0.62104 0.02264
v 1.00000 -0.61627 0.01506
v 1.00000 -0.60994 0.00873
v 1.00000 -0.60236 0.00396
v 1.00000 -0.59390 0.00100
v 1.00000 -0.58500 0.00000
v 1.00000 -0.59390 1.24900
v 1.00000 -0.58500 1.25000
v 1.00000 -0.60236 1.24604
v 1.00000 -0.60994 1.24127
v 1.00000 -0.61627 1.23494
v 1.00000 -0.62104 1.22736
v 1.00000 -0.62400 1.21890
v 1.00000 0.58500 0.00000
v 1.00000 0.58500 1.25000
v 1.00000 0.59390 0.00100
v 1.00000 0.60236 0.00396
v 1.00000 0.60994 0.00873
v 1.00000 0.61627 0.01506
v 1.00000 0.62104 0.02264
v 1.00000 0.62400 0.03110
v 1.00000 0.62500 0.04000
v 1.00000 0.62400 1.21890
v 1.00000 0.62500 1.21000
v 1.00000 0.62104 1.22736
v 1.00000 0.61627 1.23494
v 1.00000 0.60994 1.24127
v 1.00000 0.60236 1.24604
v 1.00000 0.59390 1.24900

g Solid_0
usemtl Solid_0
f 1 2 3
f 4 2 1
f 5 2 4
f 6 2 5
f 7 2 6
f 8 2 7
f 9 10 11
f 12 13 14
f 14 13 15
f 16 17 18
f 19 20 21
f 21 20 13
f 15 20 22
f 13 20 15
f 3 23 9
f 10 23 24
f 24 23 16
f 2 23 3
f 9 23 10
f 16 23 17
f 22 25 2
f 23 25 26
f 20 25 22
f 2 25 23
f 26 27 28
f 29 30 25
f 31 30 29
f 27 30 32
f 25 30 26
f 26 30 27
f 33 34 20
f 20 34 25
f 35 20 19
f 35 33 20
f 36 19 21
f 36 35 19
f 37 21 13
f 37 36 21
f 38 13 12
f 38 37 13
f 39 12 14
f 39 38 12
f 40 14 15
f 40 39 14
f 41 15 22
f 41 40 15
f 42 43 26
f 42 26 28
f 44 28 27
f 44 42 28
f 45 27 32
f 45 44 27
f 46 32 30
f 46 45 32
f 47 30 31
f 47 46 30
f 48 31 29
f 48 47 31
f 34 29 25
f 34 48 29
f 2 49 22
f 22 49 41
f 50 23 26
f 50 26 43
f 51 49 2
f 51 2 8
f 52 8 7
f 52 51 8
f 53 7 6
f 53 52 7
f 54 6 5
f 54 53 6
f 55 5 4
f 55 54 5
f 56 4 1
f 56 55 4
f 57 1 3
f 57 56 1
f 58 9 11
f 58 59 9
f 60 11 10
f 60 58 11
f 61 10 24
f 61 60 10
f 62 24 16
f 62 61 24
f 63 16 18
f 63 62 16
f 64 18 17
f 64 63 18
f 50 17 23
f 50 64 17
f 59 57 3
f 59 3 9
f 65 56 57
f 65 55 56
f 65 54 55
f 66 53 54
f 66 52 53
f 66 51 52
f 66 49 51
f 66 54 65
f 67 65 57
f 68 49 66
f 69 49 68
f 70 67 57
f 71 70 57
f 72 49 69
f 73 49 72
f 73 41 49
f 59 74 71
f 59 71 57
f 75 41 73
f 76 74 59
f 77 76 59
f 78 41 75
f 79 77 59
f 79 59 58
f 79 58 60
f 61 79 60
f 80 38 39
f 80 39 40
f 80 40 41
f 80 41 78
f 81 79 61
f 62 81 61
f 82 37 38
f 82 38 80
f 63 81 62
f 36 37 82
f 35 36 82
f 64 81 63
f 33 83 84
f 33 82 83
f 33 35 82
f 50 81 64
f 50 85 81
f 50 86 85
f 87 86 50
f 88 33 84
f 43 87 50
f 43 89 90
f 43 90 91
f 43 91 92
f 43 92 87
f 34 93 94
f 34 94 95
f 34 95 96
f 48 34 96
f 42 89 43
f 44 89 42
f 47 48 96
f 45 89 44
f 46 96 89
f 46 89 45
f 46 47 96
f 34 33 88
f 34 88 93
f 97 88 84
f 97 98 88
f 99 84 83
f 99 97 84
f 100 83 82
f 100 99 83
f 101 82 80
f 101 100 82
f 102 80 78
f 102 101 80
f 103 78 75
f 103 102 78
f 104 75 73
f 104 103 75
f 72 105 73
f 73 105 104
f 106 105 72
f 106 72 69
f 107 69 68
f 107 106 69
f 108 68 66
f 108 107 68
f 109 66 65
f 109 108 66
f 110 65 67
f 110 109 65
f 111 67 70
f 111 110 67
f 112 70 71
f 112 111 70
f 113 112 71
f 113 71 74
f 114 74 76
f 114 113 74
f 115 76 77
f 115 114 76
f 116 77 79
f 116 115 77
f 117 79 81
f 117 116 79
f 118 81 85
f 118 117 81
f 119 85 86
f 119 118 85
f 120 86 87
f 120 119 86
f 120 87 92
f 120 92 121
f 122 121 92
f 122 92 91
f 123 91 90
f 123 122 91
f 124 90 89
f 124 123 90
f 125 89 96
f 125 124 89
f 126 96 95
f 126 125 96
f 127 95 94
f 127 126 95
f 128 94 93
f 128 127 94
f 98 128 88
f 88 128 93
f 129 109 130
f 131 109 129
f 132 109 131
f 133 108 132
f 134 108 133
f 135 108 134
f 136 108 135
f 132 108 109
f 109 110 130
f 136 107 108
f 136 106 107
f 110 111 130
f 111 112 130
f 136 105 106
f 136 104 105
f 137 104 136
f 113 138 112
f 112 138 130
f 137 103 104
f 113 114 138
f 114 115 138
f 137 102 103
f 115 116 138
f 138 116 139
f 139 116 140
f 116 141 140
f 142 101 143
f 143 101 144
f 144 101 137
f 137 101 102
f 116 117 141
f 117 145 141
f 146 100 142
f 142 100 101
f 117 147 145
f 146 148 100
f 148 149 100
f 117 150 147
f 99 151 97
f 100 151 99
f 149 151 100
f 117 152 150
f 118 152 117
f 119 152 118
f 119 120 152
f 151 98 97
f 120 153 152
f 124 153 123
f 123 153 122
f 122 153 121
f 121 153 120
f 128 154 127
f 127 154 126
f 126 154 125
f 154 155 125
f 124 156 153
f 124 157 156
f 155 158 125
f 124 159 157
f 125 160 124
f 124 160 159
f 158 160 125
f 151 154 98
f 98 154 128
f 161 162 151
f 151 162 154
f 163 151 149
f 163 161 151
f 164 149 148
f 164 163 149
f 165 148 146
f 165 164 148
f 166 146 142
f 166 165 146
f 167 142 143
f 167 166 142
f 168 143 144
f 168 167 143
f 169 144 137
f 169 168 144
f 170 171 153
f 170 153 156
f 172 156 157
f 172 170 156
f 173 157 159
f 173 172 157
f 174 159 160
f 174 173 159
f 175 160 158
f 175 174 160
f 176 158 155
f 176 175 158
f 162 155 154
f 162 176 155
f 136 177 137
f 137 177 169
f 178 152 153
f 178 153 171
f 179 177 136
f 179 136 135
f 180 135 134
f 180 179 135
f 181 134 133
f 181 180 134
f 182 133 132
f 182 181 133
f 183 132 131
f 183 182 132
f 184 131 129
f 184 183 131
f 185 129 130
f 185 184 129
f 186 138 139
f 186 187 138
f 188 139 140
f 188 186 139
f 189 140 141
f 189 188 140
f 190 141 145
f 190 189 141
f 191 145 147
f 191 190 145
f 192 147 150
f 192 191 147
f 178 150 152
f 178 192 150
f 187 185 130
f 187 130 138
f 177 184 185
f 177 183 184
f 177 182 183
f 177 181 182
f 177 180 181
f 177 179 180
f 188 187 186
f 165 166 167
f 165 167 168
f 192 190 191
f 161 163 164
f 161 164 165
f 161 168 169
f 161 165 168
f 178 185 187
f 178 188 189
f 178 189 190
f 178 177 185
f 178 187 188
f 178 190 192
f 162 169 177
f 162 178 171
f 162 161 169
f 162 177 178
f 172 171 170
f 174 176 162
f 174 175 176
f 174 172 173
f 174 162 171
f 174 171 172
