# Generated from Cap_470uF_electrolytic.step
mtllib Cap_470uF_electrolytic.mtl
v 4.87589 -0.32726 -1.90000
v 4.80118 -0.28804 -1.90000
v 4.95781 -0.34745 -1.90000
v 4.65000 -0.00000 -1.90000
v 4.73802 -0.23209 -1.90000
v 4.66017 -0.08376 -1.90000
v 4.69009 -0.16265 -1.90000
v 5.04219 -0.34745 -1.90000
v 5.12411 -0.32726 -1.90000
v 5.19882 -0.28804 -1.90000
v 5.26198 -0.23209 -1.90000
v 5.30991 -0.16265 -1.90000
v 5.33983 -0.08376 -1.90000
v 5.35000 -0.00000 -1.90000
v 5.33983 0.08376 -1.90000
v 5.30991 0.16265 -1.90000
v 5.26198 0.23209 -1.90000
v 5.19882 0.28804 -1.90000
v 5.12411 0.32726 -1.90000
v 5.04219 0.34745 -1.90000
v 4.95781 0.34745 -1.90000
v 4.87589 0.32726 -1.90000
v 4.80118 0.28804 -1.90000
v 4.73802 0.23209 -1.90000
v 4.69009 0.16265 -1.90000
v 4.66017 0.08376 -1.90000
v 4.66017 -0.08376 0.20000
v 4.65000 -0.00000 0.20000
v 4.69009 -0.16265 0.20000
v 4.73802 -0.23209 0.20000
v 4.80118 -0.28804 0.20000
v 4.87589 -0.32726 0.20000
v 4.95781 -0.34745 0.20000
v 5.04219 -0.34745 0.20000
v 5.12411 -0.32726 0.20000
v 5.19882 -0.28804 0.20000
v 5.26198 -0.23209 0.20000
v 5.30991 -0.16265 0.20000
v 5.33983 -0.08376 0.20000
v 5.35000 -0.00000 0.20000
v 5.33983 0.08376 0.20000
v 5.30991 0.16265 0.20000
v 5.26198 0.23209 0.20000
v 5.19882 0.28804 0.20000
v 5.12411 0.32726 0.20000
v 5.04219 0.34745 0.20000
v 4.95781 0.34745 0.20000
v 4.87589 0.32726 0.20000
v 4.80118 0.28804 0.20000
v 4.73802 0.23209 0.20000
v 4.69009 0.16265 0.20000
v 4.66017 0.08376 0.20000
v 5.93275 0.68282 0.20000
v 6.00000 -0.00000 0.20000
v 5.73358 1.33939 0.20000
v 5.30189 2.09747 0.20000
v 5.93275 -0.68282 0.20000
v 4.69614 2.72525 0.20000
v 3.95395 3.18371 0.20000
v 3.12144 3.44439 0.20000
v 2.25031 3.49108 0.20000
v 5.73358 -1.33939 0.20000
v 5.30189 -2.09747 0.20000
v 4.69614 -2.72525 0.20000
v 3.95395 -3.18371 0.20000
v 1.39470 3.32089 0.20000
v 0.26198 0.23209 0.20000
v 0.60776 2.94439 0.20000
v 0.19882 0.28804 0.20000
v -0.06163 2.38496 0.20000
v 0.30991 0.16265 0.20000
v 0.12411 0.32726 0.20000
v -0.57188 1.67737 0.20000
v 0.33983 0.08376 0.20000
v 0.04219 0.34745 0.20000
v 0.35000 -0.00000 0.20000
v -0.04219 0.34745 0.20000
v 0.33983 -0.08376 0.20000
v 0.30991 -0.16265 0.20000
v -0.89128 0.86557 0.20000
v -0.12411 0.32726 0.20000
v -0.19882 0.28804 0.20000
v -0.26198 0.23209 0.20000
v -0.30991 0.16265 0.20000
v 3.12144 -3.44439 0.20000
v -1.00000 0.00000 0.20000
v -0.33983 -0.08376 0.20000
v -0.35000 0.00000 0.20000
v -0.30991 -0.16265 0.20000
v -0.33983 0.08376 0.20000
v 2.25031 -3.49108 0.20000
v -0.89128 -0.86557 0.20000
v -0.26198 -0.23209 0.20000
v -0.19882 -0.28804 0.20000
v -0.12411 -0.32726 0.20000
v -0.04219 -0.34745 0.20000
v 1.39470 -3.32089 0.20000
v 0.26198 -0.23209 0.20000
v -0.57188 -1.67737 0.20000
v 0.04219 -0.34745 0.20000
v 0.12411 -0.32726 0.20000
v 0.60776 -2.94439 0.20000
v 0.19882 -0.28804 0.20000
v -0.06163 -2.38496 0.20000
v 5.73358 -1.33939 0.00000
v 5.30189 -2.09747 0.00000
v 4.69614 -2.72525 0.00000
v 3.95395 -3.18371 0.00000
v 3.12144 -3.44439 0.00000
v 2.25031 -3.49108 0.00000
v 1.39470 -3.32089 0.00000
v 0.60776 -2.94439 0.00000
v -0.06163 -2.38496 0.00000
v -0.57188 -1.67737 0.00000
v -0.89128 -0.86557 0.00000
v -1.00000 0.00000 0.00000
v -0.89128 0.86557 0.00000
v -0.57188 1.67737 0.00000
v -0.06163 2.38496 0.00000
v 0.60776 2.94439 0.00000
v 1.39470 3.32089 0.00000
v 2.25031 3.49108 0.00000
v 3.12144 3.44439 0.00000
v 3.95395 3.18371 0.00000
v 4.69614 2.72525 0.00000
v 5.30189 2.09747 0.00000
v 5.73358 1.33939 0.00000
v 5.93275 0.68282 0.00000
v 6.00000 0.00000 0.00000
v 5.93275 -0.68282 0.00000
v -0.35000 0.00000 -2.00000
v -0.33983 -0.08376 -2.00000
v -0.30991 -0.16265 -2.00000
v -0.26198 -0.23209 -2.00000
v -0.19882 -0.28804 -2.00000
v -0.12411 -0.32726 -2.00000
v -0.04219 -0.34745 -2.00000
v 0.04219 -0.34745 -2.00000
v 0.12411 -0.32726 -2.00000
v 0.19882 -0.28804 -2.00000
v 0.26198 -0.23209 -2.00000
v 0.30991 -0.16265 -2.00000
v 0.33983 -0.08376 -2.00000
v 0.35000 -0.00000 -2.00000
v 0.33983 0.08376 -2.00000
v 0.30991 0.16265 -2.00000
v 0.26198 0.23209 -2.00000
v 0.19882 0.28804 -2.00000
v 0.12411 0.32726 -2.00000
v 0.04219 0.34745 -2.00000
v -0.04219 0.34745 -2.00000
v -0.12411 0.32726 -2.00000
v -0.19882 0.28804 -2.00000
v -0.26198 0.23209 -2.00000
v -0.30991 0.16265 -2.00000
v -0.33983 0.08376 -2.00000
v -0.09508 4.03802 -0.00000
v 0.98416 4.55436 -0.00000
v -1.01309 3.27081 -0.00000
v 2.15757 4.78777 -0.00000
v -1.71286 2.30040 -0.00000
v 3.35226 4.72373 -0.00000
v -2.15090 1.18707 -0.00000
v 4.49399 4.36623 -0.00000
v -2.30000 0.00000 -0.00000
v 5.51185 3.73748 -0.00000
v 6.34260 2.87653 -0.00000
v -2.15090 -1.18707 -0.00000
v 6.93462 1.83688 -0.00000
v -1.71286 -2.30040 -0.00000
v -1.01309 -3.27081 -0.00000
v -0.09508 -4.03802 -0.00000
v 0.98416 -4.55436 -0.00000
v 6.34260 -2.87653 -0.00000
v 6.93462 -1.83688 -0.00000
v 2.15757 -4.78777 -0.00000
v 5.51185 -3.73748 -0.00000
v 3.35226 -4.72373 -0.00000
v 4.49399 -4.36623 -0.00000
v 7.20777 0.93643 -0.00000
v 7.30000 0.00000 -0.00000
v 7.20777 -0.93643 -0.00000
v 6.97574 -1.85391 0.00501
v 6.97574 1.85391 0.00501
v 7.01479 -1.87009 0.01981
v 6.41207 -2.92854 0.01981
v 7.04983 -1.88460 0.04363
v 6.46778 -2.97024 0.07530
v 7.07909 -1.89672 0.07530
v 7.10110 -1.90584 0.11322
v 6.50271 -2.99639 0.20000
v 6.49869 -2.99338 0.15550
v 7.11940 -1.91342 0.20000
v 7.11477 -1.91150 0.15550
v 5.56630 -3.80505 0.01981
v 5.60997 -3.85923 0.07530
v 5.63734 -3.89321 0.20000
v 5.63420 -3.88930 0.15550
v 4.53004 -4.44517 0.01981
v 4.55895 -4.50847 0.07530
v 4.57499 -4.54360 0.15550
v 4.57708 -4.54816 0.20000
v 3.36766 -4.80913 0.01981
v 3.38002 -4.87762 0.07530
v 3.38688 -4.91562 0.15550
v 3.38777 -4.92056 0.20000
v 2.14330 -4.98726 0.20000
v 2.15138 -4.87433 0.01981
v 2.14642 -4.94374 0.07530
v 2.14366 -4.98226 0.15550
v 0.95676 -4.63670 0.01981
v 0.93478 -4.70273 0.07530
v 0.92259 -4.73937 0.15550
v 0.92100 -4.74413 0.20000
v -0.14199 -4.11102 0.01981
v -0.17961 -4.16956 0.07530
v -0.20049 -4.20205 0.15550
v -0.20320 -4.20627 0.20000
v -1.07661 -3.32994 0.01981
v -1.12754 -3.37736 0.07530
v -1.15580 -3.40367 0.15550
v -1.15947 -3.40709 0.20000
v -1.78902 -2.34198 0.01981
v -1.85010 -2.37533 0.07530
v -1.88839 -2.39625 0.20000
v -1.88399 -2.39384 0.15550
v -2.23498 -1.20853 0.01981
v -2.30241 -1.22574 0.07530
v -2.33983 -1.23529 0.15550
v -2.34469 -1.23653 0.20000
v -2.38678 -0.00000 0.01981
v -2.45637 -0.00000 0.07530
v -2.49499 -0.00000 0.15550
v -2.50000 0.00000 0.20000
v -2.23498 1.20853 0.01981
v -2.30241 1.22574 0.07530
v -2.33983 1.23529 0.15550
v -2.34469 1.23653 0.20000
v -1.78902 2.34198 0.01981
v -1.85010 2.37533 0.07530
v -1.88399 2.39384 0.15550
v -1.88839 2.39625 0.20000
v -1.07661 3.32994 0.01981
v -1.12754 3.37736 0.07530
v -1.15580 3.40367 0.15550
v -1.15947 3.40709 0.20000
v -0.14199 4.11102 0.01981
v -0.17961 4.16956 0.07530
v -0.20049 4.20205 0.15550
v -0.20320 4.20627 0.20000
v 0.92100 4.74413 0.20000
v 0.95676 4.63670 0.01981
v 0.93478 4.70273 0.07530
v 0.92259 4.73937 0.15550
v 2.15138 4.87433 0.01981
v 2.14642 4.94374 0.07530
v 2.14330 4.98726 0.20000
v 2.14366 4.98226 0.15550
v 3.36766 4.80913 0.01981
v 3.38002 4.87762 0.07530
v 3.38777 4.92056 0.20000
v 3.38688 4.91562 0.15550
v 4.57708 4.54816 0.20000
v 4.53004 4.44517 0.01981
v 4.55895 4.50847 0.07530
v 4.57499 4.54360 0.15550
v 5.56630 3.80505 0.01981
v 5.60997 3.85923 0.07530
v 5.63734 3.89321 0.20000
v 5.63420 3.88930 0.15550
v 6.41207 2.92854 0.01981
v 7.01479 1.87009 0.01981
v 7.04983 1.88460 0.04363
v 6.46778 2.97024 0.07530
v 7.07909 1.89672 0.07530
v 7.10110 1.90584 0.11322
v 6.49869 2.99338 0.15550
v 7.11477 1.91150 0.15550
v 7.11940 1.91342 0.20000
v 6.50271 2.99639 0.20000
v 7.40393 0.97545 0.20000
v 7.40393 -0.97545 0.20000
v 7.38678 -0.00000 0.01981
v 7.50000 0.00000 0.20000
v 7.49499 -0.00000 0.15550
v 7.34647 0.96402 0.05858
v 7.45637 -0.00000 0.07530
v 7.34647 -0.96402 0.05858
v 6.61679 2.83759 1.06498
v 7.11940 1.91342 1.06498
v 5.92907 3.63888 1.06498
v 5.00509 4.32720 1.06498
v 3.94766 4.78584 1.06498
v 2.81370 4.99014 1.06498
v 1.66372 4.92956 1.06498
v 0.55864 4.60773 1.06498
v -0.44326 4.04194 1.06498
v -1.28918 3.26223 1.06498
v -1.93449 2.30981 1.06498
v -2.34506 1.23506 1.06498
v -2.49910 0.09488 1.06498
v -2.38843 -1.05034 1.06498
v -2.01894 -2.13990 1.06498
v -1.41022 -3.11612 1.06498
v -0.59449 -3.92736 1.06498
v 0.38518 -4.53074 1.06498
v 1.47717 -4.89426 1.06498
v 2.62391 -4.99845 1.06498
v 3.76472 -4.83740 1.06498
v 4.83879 -4.41929 1.06498
v 5.78839 -3.76650 1.06498
v 6.56229 -2.91508 1.06498
v 7.11940 -1.91342 1.06498
v 7.36185 -1.16723 1.06498
v 7.48459 -0.39229 1.06498
v 7.43844 0.78217 1.06498
v 7.11088 -1.90989 1.13876
v 7.08862 -1.90067 1.20237
v 6.49160 -2.87573 1.26934
v 7.06883 -1.89247 1.23774
v 7.04515 -1.88266 1.26934
v 4.77658 -4.36120 1.26934
v 3.70850 -4.76888 1.26934
v 1.43937 -4.80394 1.26934
v 0.36074 -4.43017 1.26934
v -1.39863 -3.00057 1.26934
v -1.98506 -2.02163 1.26934
v -2.41539 0.20420 1.26934
v -2.23608 1.33127 1.26934
v -1.13635 3.31357 1.26934
v -0.27511 4.06222 1.26934
v 1.84172 4.87538 1.26934
v 2.98387 4.89577 1.26934
v 5.13108 4.15695 1.26934
v 6.01908 3.43785 1.26934
v 6.60733 2.70786 1.26934
v 7.11088 1.90989 1.13876
v 7.08862 1.90067 1.20237
v 7.06883 1.89247 1.23774
v 7.04515 1.88266 1.26934
v 6.19268 -3.34011 1.17478
v 5.72155 -3.71812 1.26934
v 4.84994 -4.38978 1.17478
v 3.23109 -4.92521 1.17478
v 2.57566 -4.91904 1.26934
v 1.52774 -4.88334 1.17478
v -0.06071 -4.27026 1.17478
v -0.60246 -3.81806 1.26934
v -1.34938 -3.15825 1.17478
v -2.18821 -1.67718 1.17478
v -2.33018 -0.93386 1.26934
v -2.47919 -0.00000 1.17478
v -2.18821 1.67718 1.17478
v -1.80194 2.38665 1.26934
v -1.34938 3.15825 1.17478
v -0.06071 4.27026 1.17478
v 0.73562 4.59236 1.26934
v 1.52774 4.88334 1.17478
v 3.23109 4.92521 1.17478
v 4.10054 4.65200 1.26934
v 4.84994 4.38978 1.17478
v 6.19268 3.34011 1.17478
v 7.35906 0.76960 1.26934
v 7.28370 -1.14846 1.26934
v 7.40446 -0.38599 1.26934
v 7.47918 0.00000 1.17478
v 6.97982 -1.85560 1.36745
v 6.97982 1.85560 1.36745
v 6.93892 1.83866 1.48000
v 6.60733 2.70786 1.93066
v 6.97982 1.85560 1.83255
v 6.93892 1.83866 1.72000
v 7.04515 1.88266 1.93066
v 6.93892 -1.83866 1.48000
v 6.39831 -2.80853 1.48000
v 6.92500 -1.83290 1.60000
v 6.93892 -1.83866 1.72000
v 6.39831 -2.80853 1.72000
v 6.97982 -1.85560 1.83255
v 7.04515 -1.88266 1.93066
v 6.49160 -2.87573 1.93066
v 6.49160 -2.87573 1.93066
v 5.64626 -3.63122 1.48000
v 5.64626 -3.63122 1.72000
v 5.72155 -3.71811 1.93066
v 5.72155 -3.71812 1.93066
v 4.72337 -4.25926 1.48000
v 4.72337 -4.25926 1.72000
v 4.77658 -4.36120 1.93066
v 4.77657 -4.36118 1.93066
v 3.70850 -4.76888 1.93066
v 3.68026 -4.65743 1.48000
v 3.68026 -4.65743 1.72000
v 2.57566 -4.91904 1.93066
v 3.70850 -4.76888 1.93066
v 2.57389 -4.80409 1.48000
v 2.57389 -4.80409 1.72000
v 2.57566 -4.91904 1.93066
v 1.46416 -4.69167 1.48000
v 1.46416 -4.69167 1.72000
v 1.43937 -4.80393 1.93066
v 1.43937 -4.80394 1.93066
v 0.41074 -4.32662 1.48000
v 0.41074 -4.32662 1.72000
v 0.36074 -4.43016 1.93066
v 0.36074 -4.43017 1.93066
v -0.60246 -3.81806 1.93066
v -0.52995 -3.72882 1.48000
v -0.52995 -3.72882 1.72000
v -0.60245 -3.81805 1.93066
v -1.39863 -3.00057 1.93066
v -1.30752 -2.93044 1.48000
v -1.30752 -2.93044 1.72000
v -1.98506 -2.02163 1.93066
v -1.39863 -3.00057 1.93066
v -1.88024 -1.97438 1.48000
v -1.88024 -1.97438 1.72000
v -1.98506 -2.02163 1.93066
v -2.21730 -0.91203 1.48000
v -2.21730 -0.91203 1.72000
v -2.33018 -0.93386 1.93066
v -2.33018 -0.93386 1.93066
v -2.30051 0.19943 1.48000
v -2.30051 0.19943 1.72000
v -2.41538 0.20420 1.93066
v -2.41539 0.20420 1.93066
v -2.23608 1.33127 1.93066
v -2.12540 1.30016 1.48000
v -2.12540 1.30016 1.72000
v -2.23608 1.33127 1.93066
v -1.80194 2.38665 1.93066
v -1.70140 2.33087 1.48000
v -1.70140 2.33087 1.72000
v -1.80193 2.38665 1.93066
v -1.05137 3.23612 1.48000
v -1.05137 3.23612 1.72000
v -1.13635 3.31356 1.93066
v -1.13635 3.31357 1.93066
v -0.21025 3.96727 1.48000
v -0.21025 3.96727 1.72000
v -0.27510 4.06221 1.93066
v -0.27511 4.06222 1.93066
v 0.73562 4.59236 1.93066
v 0.77686 4.48503 1.48000
v 0.77686 4.48503 1.72000
v 0.73563 4.59235 1.93066
v 1.84172 4.87538 1.93066
v 1.85710 4.76145 1.48000
v 1.85710 4.76145 1.72000
v 2.98387 4.89577 1.93066
v 1.84172 4.87538 1.93066
v 2.97256 4.78136 1.48000
v 2.97256 4.78136 1.72000
v 2.98387 4.89577 1.93066
v 4.06313 4.54327 1.48000
v 4.06313 4.54327 1.72000
v 4.10054 4.65200 1.93066
v 4.10054 4.65199 1.93066
v 5.06958 4.05980 1.48000
v 5.06958 4.05980 1.72000
v 5.13107 4.15694 1.93066
v 5.13108 4.15695 1.93066
v 6.01908 3.43785 1.93066
v 5.93685 3.35749 1.48000
v 5.93685 3.35749 1.72000
v 6.01909 3.43783 1.93066
v 6.24111 3.01476 1.71999
v 6.49875 2.63631 1.60000
v 6.92500 1.83290 1.60000
v 6.09307 3.18976 1.48000
v 6.38063 2.83291 1.48000
v 7.24550 0.75161 1.48000
v 7.24550 0.75161 1.72000
v 7.35906 0.76960 1.93066
v 7.35906 0.76960 1.93066
v 7.17190 -1.12162 1.48000
v 7.17190 -1.12162 1.72000
v 7.28370 -1.14846 1.93066
v 7.28370 -1.14846 1.93066
v 7.40446 -0.38599 1.93066
v 7.30095 0.18863 1.72000
v 7.24550 -0.75161 1.48000
v 7.28152 0.47094 1.48000
v 7.30373 -0.09433 1.48000
v 7.27135 -0.56473 1.72000
v 7.21233 -0.93734 1.72000
v 7.29887 -0.23575 1.72000
v 7.08535 -1.89931 1.99096
v 6.56229 -2.91508 2.13502
v 7.10908 -1.90914 2.05394
v 7.11685 -1.91236 2.09443
v 7.11940 -1.91342 2.13502
v 3.76472 -4.83740 2.13502
v 4.83879 -4.41929 2.13502
v 0.38518 -4.53074 2.13502
v 1.47717 -4.89426 2.13502
v -2.01894 -2.13990 2.13502
v -1.41022 -3.11612 2.13502
v -2.34506 1.23506 2.13502
v -2.49910 0.09488 2.13502
v -0.44326 4.04194 2.13502
v -1.28918 3.26223 2.13502
v 2.81370 4.99014 2.13502
v 1.66372 4.92956 2.13502
v 5.92907 3.63888 2.13502
v 5.00509 4.32720 2.13502
v 7.08535 1.89931 1.99096
v 7.10908 1.90914 2.05394
v 7.11685 1.91236 2.09443
v 7.11940 1.91342 2.13502
v 6.61679 2.83759 2.13502
v 6.19268 -3.34011 2.02522
v 5.78839 -3.76650 2.13502
v 4.84994 -4.38978 2.02522
v 3.23109 -4.92521 2.02522
v 2.62391 -4.99845 2.13502
v 1.52774 -4.88334 2.02522
v -0.06071 -4.27026 2.02522
v -0.59449 -3.92736 2.13502
v -1.34938 -3.15825 2.02522
v -2.18821 -1.67718 2.02522
v -2.38843 -1.05034 2.13502
v -2.47919 -0.00000 2.02522
v -2.18821 1.67718 2.02522
v -1.93449 2.30981 2.13502
v -1.34938 3.15825 2.02522
v -0.06071 4.27026 2.02522
v 0.55864 4.60773 2.13502
v 1.52774 4.88334 2.02522
v 3.23109 4.92521 2.02522
v 3.94766 4.78584 2.13502
v 4.84994 4.38978 2.02522
v 6.19268 3.34011 2.02522
v 7.35913 1.17851 2.13502
v 7.45023 0.70373 2.13502
v 7.49305 0.19376 2.09138
v 7.48865 0.16765 2.06399
v 7.48220 0.13378 2.03836
v 7.49505 0.22238 2.13502
v 7.47551 0.09501 2.01843
v 7.47072 0.05728 2.00644
v 7.46790 0.00100 2.00000
v 7.46790 -0.00100 2.00000
v 7.47064 -0.05649 2.00626
v 7.47531 -0.09369 2.01789
v 7.48169 -0.13103 2.03665
v 7.48785 -0.16340 2.06025
v 7.49231 -0.18879 2.08549
v 7.49464 -0.20762 2.11004
v 7.49505 -0.22238 2.13502
v 7.40108 -0.98967 2.13502
v 7.28259 -1.45836 2.13502
v 7.11940 1.91342 9.80000
v 6.50271 2.99639 9.80000
v 5.63734 3.89321 9.80000
v 4.57708 4.54816 9.80000
v 3.38777 4.92056 9.80000
v 2.14330 4.98726 9.80000
v 0.92100 4.74413 9.80000
v -0.20320 4.20627 9.80000
v -1.15947 3.40709 9.80000
v -1.88839 2.39625 9.80000
v -2.34469 1.23653 9.80000
v -2.50000 0.00000 9.80000
v -2.34469 -1.23653 9.80000
v -1.88839 -2.39625 9.80000
v -1.15947 -3.40709 9.80000
v -0.20320 -4.20627 9.80000
v 0.92100 -4.74413 9.80000
v 2.14330 -4.98726 9.80000
v 3.38777 -4.92056 9.80000
v 4.57708 -4.54816 9.80000
v 5.63734 -3.89321 9.80000
v 6.50271 -2.99639 9.80000
v 7.11940 -1.91342 9.80000
v 7.49390 -0.24691 2.20991
v 7.49435 -0.23768 2.17164
v 7.49375 -0.25000 2.24900
v 7.49375 -0.25000 3.75100
v 7.49387 -0.24755 3.78585
v 7.49375 0.25000 3.75100
v 7.49375 0.25000 2.24900
v 7.49390 0.24691 2.20991
v 7.49435 0.23768 2.17164
v 7.49387 -0.24755 6.21415
v 7.49423 -0.24017 3.82028
v 7.49423 -0.24017 6.17972
v 7.49510 -0.22125 6.13285
v 7.49510 -0.22125 3.86715
v 7.49375 -0.25000 6.24900
v 7.49628 -0.19277 6.09017
v 7.49628 -0.19277 3.90983
v 7.49759 -0.15536 6.05362
v 7.49759 -0.15536 3.94638
v 7.49879 -0.10999 6.02512
v 7.49879 -0.10999 3.97488
v 7.49966 -0.05797 6.00661
v 7.49966 -0.05797 3.99339
v 7.50000 -0.00100 4.00000
v 7.50000 -0.00100 6.00000
v 7.50000 -0.00033 6.00000
v 7.50000 -0.00033 4.00000
v 7.50000 0.00033 4.00000
v 7.50000 0.00033 6.00000
v 7.50000 0.00100 6.00000
v 7.50000 0.00100 4.00000
v 7.40393 -0.97545 9.80000
v 7.49990 0.03173 6.00190
v 7.49990 0.03173 3.99810
v 7.49962 0.06134 6.00742
v 7.49962 0.06134 3.99258
v 7.49872 0.11299 3.97339
v 7.49872 0.11299 6.02661
v 7.49751 0.15790 3.94434
v 7.49751 0.15790 6.05566
v 7.49620 0.19479 3.90735
v 7.49375 -0.25000 7.75100
v 7.49620 0.19479 6.09265
v 7.49504 0.22270 3.86435
v 7.49387 -0.24755 7.78585
v 7.49423 -0.24017 7.82028
v 7.49504 0.22270 6.13565
v 7.49412 0.24244 3.81190
v 7.49510 -0.22125 7.86715
v 7.49412 0.24244 6.18810
v 7.49375 0.25000 6.24900
v 7.50000 0.00000 9.80000
v 7.49620 0.19479 7.90735
v 7.49504 0.22270 7.86435
v 7.49751 0.15790 7.94434
v 7.49872 0.11299 7.97339
v 7.49962 0.06134 7.99258
v 7.49990 0.03173 7.99810
v 7.50000 0.00100 8.00000
v 7.49966 -0.05797 7.99339
v 7.50000 -0.00100 8.00000
v 7.49879 -0.10999 7.97488
v 7.49759 -0.15536 7.94638
v 7.49628 -0.19277 7.90983
v 7.50000 -0.00033 8.00000
v 7.50000 0.00033 8.00000
v 7.40393 0.97545 9.80000
v 7.49412 0.24244 7.81190
v 7.49375 0.25000 7.75100
v 6.34260 2.87653 10.00000
v 6.93462 1.83688 10.00000
v 6.97574 1.85391 9.99499
v 7.11477 -1.91150 9.84450
v 6.49869 2.99338 9.84450
v 7.11477 1.91150 9.84450
v 6.48685 2.98452 9.88678
v 7.10110 1.90584 9.88678
v 6.46778 2.97024 9.92470
v 7.07909 1.89672 9.92470
v 6.44242 2.95126 9.95637
v 7.04983 1.88460 9.95637
v 6.41207 2.92854 9.98019
v 7.01479 1.87009 9.98019
v 6.37823 2.90320 9.99499
v 5.63420 3.88930 9.84450
v 5.62492 3.87779 9.88678
v 5.60997 3.85923 9.92470
v 5.59010 3.83457 9.95637
v 5.56630 3.80505 9.98019
v 5.53978 3.77213 9.99499
v 5.51185 3.73748 10.00000
v 4.57499 4.54360 9.84450
v 4.56885 4.53014 9.88678
v 4.55895 4.50847 9.92470
v 4.54579 4.47966 9.95637
v 4.53004 4.44517 9.98019
v 4.51248 4.40672 9.99499
v 4.49399 4.36623 10.00000
v 3.38688 4.91562 9.84450
v 3.38425 4.90106 9.88678
v 3.38002 4.87762 9.92470
v 3.37440 4.84645 9.95637
v 3.36766 4.80913 9.98019
v 3.36016 4.76753 9.99499
v 2.15757 4.78777 10.00000
v 3.35226 4.72373 10.00000
v 2.14366 4.98226 9.84450
v 2.14472 4.96750 9.88678
v 2.14642 4.94374 9.92470
v 2.14868 4.91215 9.95637
v 2.15138 4.87433 9.98019
v 2.15440 4.83216 9.99499
v 0.98416 4.55436 10.00000
v 0.92259 4.73937 9.84450
v 0.92726 4.72534 9.88678
v 0.93478 4.70273 9.92470
v 0.94478 4.67268 9.95637
v 0.95676 4.63670 9.98019
v 0.97011 4.59659 9.99499
v -0.20049 4.20205 9.84450
v -0.19250 4.18961 9.88678
v -0.17961 4.16956 9.92470
v -0.16249 4.14292 9.95637
v -0.14199 4.11102 9.98019
v -0.11914 4.07546 9.99499
v -1.01309 3.27081 10.00000
v -0.09508 4.03802 10.00000
v -1.15580 3.40367 9.84450
v -1.14498 3.39359 9.88678
v -1.12754 3.37736 9.92470
v -1.10436 3.35578 9.95637
v -1.07661 3.32994 9.98019
v -1.04567 3.30113 9.99499
v -1.88399 2.39384 9.84450
v -1.87101 2.38675 9.88678
v -1.85010 2.37533 9.92470
v -1.82230 2.36016 9.95637
v -1.78902 2.34198 9.98019
v -1.75192 2.32172 9.99499
v -1.71286 2.30040 10.00000
v -2.33983 1.23529 9.84450
v -2.32550 1.23163 9.88678
v -2.30241 1.22574 9.92470
v -2.27172 1.21791 9.95637
v -2.23498 1.20853 9.98019
v -2.19402 1.19808 9.99499
v -2.15090 1.18707 10.00000
v -2.49499 0.00000 9.84450
v -2.48019 0.00000 9.88678
v -2.45637 0.00000 9.92470
v -2.42470 0.00000 9.95637
v -2.38678 0.00000 9.98019
v -2.34450 0.00000 9.99499
v -2.15090 -1.18707 10.00000
v -2.30000 0.00000 10.00000
v -2.33983 -1.23529 9.84450
v -2.32550 -1.23163 9.88678
v -2.30241 -1.22574 9.92470
v -2.27172 -1.21791 9.95637
v -2.23498 -1.20853 9.98019
v -2.19402 -1.19808 9.99499
v -1.71286 -2.30040 10.00000
v -1.88399 -2.39384 9.84450
v -1.87101 -2.38675 9.88678
v -1.85010 -2.37533 9.92470
v -1.82230 -2.36016 9.95637
v -1.78902 -2.34198 9.98019
v -1.75192 -2.32172 9.99499
v -1.01309 -3.27081 10.00000
v -1.15580 -3.40367 9.84450
v -1.14498 -3.39359 9.88678
v -1.12754 -3.37736 9.92470
v -1.10436 -3.35578 9.95637
v -1.07661 -3.32994 9.98019
v -1.04567 -3.30113 9.99499
v -0.20049 -4.20205 9.84450
v -0.19250 -4.18961 9.88678
v -0.17961 -4.16956 9.92470
v -0.16249 -4.14292 9.95637
v -0.14199 -4.11102 9.98019
v -0.11914 -4.07546 9.99499
v 0.98416 -4.55436 10.00000
v -0.09508 -4.03802 10.00000
v 0.92259 -4.73937 9.84450
v 0.92726 -4.72534 9.88678
v 0.93478 -4.70273 9.92470
v 0.94478 -4.67268 9.95637
v 0.95676 -4.63670 9.98019
v 0.97011 -4.59659 9.99499
v 2.14366 -4.98226 9.84450
v 2.14472 -4.96750 9.88678
v 2.14642 -4.94374 9.92470
v 2.14868 -4.91215 9.95637
v 2.15138 -4.87433 9.98019
v 2.15440 -4.83216 9.99499
v 3.35226 -4.72373 10.00000
v 2.15757 -4.78777 10.00000
v 3.38688 -4.91562 9.84450
v 3.38425 -4.90106 9.88678
v 3.38002 -4.87762 9.92470
v 3.37440 -4.84645 9.95637
v 3.36766 -4.80913 9.98019
v 3.36016 -4.76753 9.99499
v 4.49399 -4.36623 10.00000
v 4.57499 -4.54360 9.84450
v 4.56885 -4.53014 9.88678
v 4.55895 -4.50847 9.92470
v 4.54579 -4.47966 9.95637
v 4.53004 -4.44517 9.98019
v 4.51248 -4.40672 9.99499
v 5.63420 -3.88930 9.84450
v 5.62492 -3.87779 9.88678
v 5.60997 -3.85923 9.92470
v 5.59010 -3.83457 9.95637
v 5.56630 -3.80505 9.98019
v 5.53978 -3.77213 9.99499
v 5.51185 -3.73748 10.00000
v 6.49869 -2.99338 9.84450
v 6.48685 -2.98452 9.88678
v 7.10110 -1.90584 9.88678
v 6.46778 -2.97024 9.92470
v 7.07909 -1.89672 9.92470
v 6.44242 -2.95126 9.95637
v 7.04983 -1.88460 9.95637
v 6.41207 -2.92854 9.98019
v 7.01479 -1.87009 9.98019
v 6.97574 -1.85391 9.99499
v 6.37823 -2.90320 9.99499
v 6.93462 -1.83688 10.00000
v 6.34260 -2.87653 10.00000
v 7.20777 0.93643 10.00000
v 7.39901 -0.97447 9.84450
v 7.38450 -0.97159 9.88678
v 7.36113 -0.96694 9.92470
v 7.33007 -0.96076 9.95637
v 7.29288 -0.95336 9.98019
v 7.25142 -0.94512 9.99499
v 7.20777 -0.93643 10.00000
v 7.49499 0.00000 9.84450
v 7.48019 0.00000 9.88678
v 7.45637 0.00000 9.92470
v 7.42470 0.00000 9.95637
v 7.38678 0.00000 9.98019
v 7.34450 0.00000 9.99499
v 7.30000 0.00000 10.00000
v 7.39901 0.97447 9.84450
v 7.38450 0.97159 9.88678
v 7.36113 0.96694 9.92470
v 7.33007 0.96076 9.95637
v 7.29288 0.95336 9.98019
v 7.25142 0.94512 9.99499
v 1.39470 3.32089 10.00000
v 0.60776 2.94439 10.00000
v 2.25031 3.49108 10.00000
v -0.06163 2.38496 10.00000
v 3.12144 3.44439 10.00000
v -0.57188 1.67737 10.00000
v 3.95395 3.18371 10.00000
v -0.89128 0.86557 10.00000
v 4.69614 2.72525 10.00000
v -1.00000 0.00000 10.00000
v 5.30189 2.09747 10.00000
v -0.89128 -0.86557 10.00000
v 5.73358 1.33939 10.00000
v -0.57188 -1.67737 10.00000
v -0.06163 -2.38496 10.00000
v 0.60776 -2.94439 10.00000
v 1.39470 -3.32089 10.00000
v 5.30189 -2.09747 10.00000
v 5.73358 -1.33939 10.00000
v 4.69614 -2.72525 10.00000
v 2.25031 -3.49108 10.00000
v 3.95395 -3.18371 10.00000
v 3.12144 -3.44439 10.00000
v 5.93275 0.68282 10.00000
v 6.00000 0.00000 10.00000
v 5.93275 -0.68282 10.00000
v 5.73358 -1.33939 9.90000
v 5.33743 -2.04915 9.90000
v 4.78824 -2.64839 9.90000
v 4.11564 -3.10479 9.90000
v 3.35590 -3.39373 9.90000
v 2.55000 -3.49964 9.90000
v 2.45000 -3.49964 9.90000
v 1.68640 -3.40412 9.90000
v 2.55000 -3.49964 9.80000
v 2.51667 -3.49996 9.80000
v 2.48333 -3.49996 9.80000
v 2.45000 -3.49964 9.80000
v 0.96213 -3.14403 9.90000
v 0.31221 -2.73195 9.90000
v -0.23195 -2.18779 9.90000
v -0.64403 -1.53787 9.90000
v -0.90412 -0.81360 9.90000
v -0.99964 -0.05000 9.90000
v -0.99964 0.05000 9.90000
v -0.99964 -0.05000 9.80000
v -0.99984 -0.03333 9.80000
v -0.90412 0.81360 9.90000
v -0.99996 -0.01667 9.80000
v -1.00000 0.00000 9.80000
v -0.99996 0.01667 9.80000
v -0.99984 0.03333 9.80000
v -0.99964 0.05000 9.80000
v -0.64403 1.53787 9.90000
v -0.23195 2.18779 9.90000
v 0.31221 2.73195 9.90000
v 0.96213 3.14403 9.90000
v 1.68640 3.40412 9.90000
v 2.45000 3.49964 9.90000
v 2.55000 3.49964 9.90000
v 2.45000 3.49964 9.80000
v 2.48333 3.49996 9.80000
v 2.51667 3.49996 9.80000
v 3.35590 3.39373 9.90000
v 2.55000 3.49964 9.80000
v 4.11564 3.10479 9.90000
v 4.78824 2.64839 9.90000
v 5.33743 2.04915 9.90000
v 5.73358 1.33939 9.90000
v 5.87639 0.92196 9.90000
v 5.96555 0.48987 9.90000
v 5.99964 0.05000 9.90000
v 5.99964 -0.05000 9.90000
v 5.96555 -0.48987 9.90000
v 5.99964 0.05000 9.80000
v 5.99996 0.01667 9.80000
v 5.99996 -0.01667 9.80000
v 5.99964 -0.05000 9.80000
v 5.87639 -0.92196 9.90000
v 2.55000 -0.05000 9.90000
v 2.55000 -0.05000 9.80000
v 2.55000 0.05000 9.90000
v 2.55000 0.05000 9.80000
v 2.45000 0.05000 9.80000
v 2.45000 -0.05000 9.80000
v 2.45000 -0.05000 9.90000
v 2.45000 0.05000 9.90000
v 2.50000 0.00000 9.60000
v 5.93275 0.68282 9.60000
v 5.73358 1.33939 9.60000
v 6.00000 0.00000 9.60000
v 5.93275 -0.68282 9.60000
v 5.73358 -1.33939 9.60000
v 5.73358 1.33939 9.70000
v 5.93275 0.68282 9.70000
v 6.00000 -0.00000 9.70000
v 5.93275 -0.68282 9.70000
v 5.73358 -1.33939 9.70000
v -0.89128 -0.86557 9.60000
v -1.00000 0.00000 9.60000
v -0.89128 0.86557 9.60000
v -0.57188 1.67737 9.60000
v -0.06163 2.38496 9.60000
v 0.60776 2.94439 9.60000
v 1.39470 3.32089 9.60000
v 2.25031 3.49108 9.60000
v 3.12144 3.44439 9.60000
v 3.95395 3.18371 9.60000
v 4.69614 2.72525 9.60000
v 5.30189 2.09747 9.60000
v -0.57188 -1.67737 9.60000
v -0.06163 -2.38496 9.60000
v 0.60776 -2.94439 9.60000
v 1.39470 -3.32089 9.60000
v 5.30189 -2.09747 9.60000
v 2.25031 -3.49108 9.60000
v 4.69614 -2.72525 9.60000
v 3.12144 -3.44439 9.60000
v 3.95395 -3.18371 9.60000
v 5.30189 -2.09747 9.70000
v 4.69614 -2.72525 9.70000
v 3.95395 -3.18371 9.70000
v 3.12144 -3.44439 9.70000
v 2.25031 -3.49108 9.70000
v 1.39470 -3.32089 9.70000
v 0.60776 -2.94439 9.70000
v -0.06163 -2.38496 9.70000
v -0.57188 -1.67737 9.70000
v -0.89128 -0.86557 9.70000
v -1.00000 0.00000 9.70000
v -0.89128 0.86557 9.70000
v -0.57188 1.67737 9.70000
v -0.06163 2.38496 9.70000
v 0.60776 2.94439 9.70000
v 1.39470 3.32089 9.70000
v 2.25031 3.49108 9.70000
v 3.12144 3.44439 9.70000
v 3.95395 3.18371 9.70000
v 4.69614 2.72525 9.70000
v 5.30189 2.09747 9.70000

g Solid_0
usemtl Solid_0
f 1 2 3
f 4 5 6
f 6 5 7
f 3 5 8
f 8 5 9
f 9 5 10
f 10 5 11
f 11 5 12
f 12 5 13
f 13 5 14
f 14 5 15
f 15 5 16
f 16 5 17
f 17 5 18
f 18 5 19
f 19 5 20
f 20 5 21
f 21 5 22
f 22 5 23
f 23 5 24
f 24 5 25
f 25 5 26
f 26 5 4
f 2 5 3
f 27 28 4
f 27 4 6
f 29 6 7
f 29 27 6
f 30 7 5
f 30 5 2
f 30 29 7
f 31 30 2
f 32 2 1
f 32 31 2
f 33 1 3
f 33 3 8
f 33 32 1
f 34 8 9
f 34 33 8
f 35 34 9
f 36 9 10
f 36 35 9
f 37 10 11
f 37 36 10
f 38 11 12
f 38 37 11
f 39 38 12
f 39 12 13
f 39 13 14
f 40 39 14
f 41 40 14
f 41 14 15
f 42 41 15
f 42 15 16
f 42 16 17
f 43 42 17
f 44 43 17
f 44 17 18
f 44 18 19
f 45 44 19
f 46 45 19
f 46 19 20
f 47 46 20
f 47 20 21
f 47 21 22
f 48 47 22
f 49 48 22
f 49 22 23
f 50 49 23
f 50 23 24
f 50 24 25
f 51 50 25
f 52 25 26
f 52 26 4
f 52 51 25
f 28 52 4
f 43 44 53
f 54 42 53
f 53 42 43
f 53 45 55
f 44 45 53
f 54 41 42
f 45 46 55
f 54 40 41
f 55 47 56
f 46 47 55
f 54 39 40
f 47 48 56
f 54 38 39
f 57 38 54
f 48 49 56
f 56 49 58
f 57 37 38
f 58 50 59
f 49 50 58
f 57 36 37
f 59 51 60
f 60 51 61
f 50 51 59
f 57 35 36
f 57 62 35
f 34 62 33
f 35 62 34
f 32 63 31
f 33 63 32
f 62 63 33
f 31 64 30
f 63 64 31
f 30 65 29
f 64 65 30
f 66 67 68
f 68 69 70
f 67 69 68
f 61 71 66
f 51 71 61
f 66 71 67
f 70 72 73
f 69 72 70
f 51 74 71
f 52 74 51
f 28 74 52
f 72 75 73
f 28 76 74
f 75 77 73
f 27 78 28
f 29 78 27
f 28 78 76
f 29 79 78
f 77 80 73
f 81 80 77
f 82 80 81
f 82 83 80
f 83 84 80
f 65 85 29
f 84 86 80
f 87 86 88
f 89 86 87
f 90 86 84
f 88 86 90
f 85 91 29
f 29 91 79
f 89 92 86
f 93 92 89
f 94 92 93
f 95 92 94
f 96 92 95
f 91 97 79
f 79 97 98
f 96 99 92
f 100 99 96
f 101 99 100
f 97 102 98
f 98 102 103
f 102 104 103
f 101 104 99
f 103 104 101
f 62 105 63
f 63 106 64
f 105 106 63
f 64 107 65
f 106 107 64
f 65 108 85
f 107 108 65
f 85 109 91
f 108 109 85
f 91 110 97
f 109 110 91
f 97 111 102
f 110 111 97
f 102 112 104
f 111 112 102
f 104 113 99
f 112 113 104
f 99 114 92
f 113 114 99
f 92 115 86
f 114 115 92
f 86 116 80
f 115 116 86
f 80 117 73
f 116 117 80
f 117 118 73
f 73 118 70
f 118 119 70
f 70 119 68
f 119 120 68
f 68 120 66
f 120 121 66
f 66 121 61
f 61 122 60
f 121 122 61
f 60 123 59
f 122 123 60
f 59 124 58
f 123 124 59
f 124 125 58
f 56 126 55
f 58 126 56
f 125 126 58
f 126 127 55
f 127 128 55
f 55 128 53
f 53 129 54
f 128 129 53
f 54 130 57
f 129 130 54
f 57 105 62
f 130 105 57
f 87 88 131
f 87 131 132
f 89 132 133
f 89 87 132
f 93 133 134
f 93 89 133
f 94 134 135
f 94 93 134
f 95 135 136
f 95 136 137
f 95 94 135
f 96 95 137
f 100 137 138
f 100 138 139
f 100 96 137
f 101 100 139
f 103 139 140
f 103 140 141
f 103 101 139
f 98 141 142
f 98 103 141
f 79 98 142
f 79 142 143
f 78 79 143
f 76 78 143
f 76 143 144
f 74 76 144
f 74 144 145
f 71 74 145
f 71 145 146
f 67 71 146
f 67 146 147
f 69 67 147
f 69 147 148
f 69 148 149
f 72 69 149
f 72 149 150
f 75 72 150
f 75 150 151
f 77 75 151
f 77 151 152
f 81 77 152
f 81 152 153
f 82 81 153
f 83 82 153
f 83 153 154
f 84 154 155
f 84 83 154
f 90 155 156
f 90 156 131
f 90 84 155
f 88 90 131
f 121 157 158
f 120 159 157
f 120 157 121
f 122 158 160
f 122 121 158
f 119 161 159
f 119 159 120
f 123 160 162
f 123 122 160
f 118 163 161
f 118 161 119
f 124 162 164
f 124 123 162
f 117 163 118
f 165 163 117
f 125 164 166
f 125 124 164
f 116 165 117
f 126 166 167
f 126 125 166
f 168 165 116
f 115 168 116
f 169 126 167
f 127 126 169
f 170 115 114
f 170 168 115
f 171 170 114
f 171 114 113
f 172 171 113
f 172 113 112
f 173 172 112
f 173 112 111
f 174 105 175
f 174 106 105
f 174 107 106
f 176 111 110
f 176 173 111
f 177 107 174
f 177 108 107
f 178 110 109
f 178 176 110
f 179 178 109
f 179 109 108
f 179 108 177
f 180 127 169
f 180 128 127
f 181 129 128
f 181 128 180
f 182 130 129
f 182 129 181
f 175 105 130
f 175 130 182
f 131 134 132
f 132 134 133
f 135 134 136
f 136 134 137
f 137 134 138
f 138 134 139
f 139 134 140
f 140 134 141
f 141 134 142
f 142 134 143
f 143 134 144
f 144 134 145
f 145 134 146
f 146 134 147
f 147 134 148
f 148 134 149
f 149 134 150
f 150 134 151
f 151 134 152
f 152 134 153
f 153 134 154
f 154 134 155
f 155 134 156
f 156 134 131
f 183 174 175
f 167 184 169
f 185 186 183
f 187 186 185
f 183 186 174
f 187 188 186
f 189 188 187
f 190 188 189
f 191 192 193
f 190 192 188
f 194 192 190
f 193 192 194
f 174 195 177
f 186 195 174
f 188 196 186
f 186 196 195
f 197 198 191
f 192 198 188
f 191 198 192
f 188 198 196
f 177 199 179
f 195 199 177
f 196 200 195
f 195 200 199
f 198 201 196
f 197 201 198
f 202 201 197
f 196 201 200
f 179 203 178
f 199 203 179
f 200 204 199
f 199 204 203
f 200 205 204
f 206 205 202
f 207 205 206
f 202 205 201
f 201 205 200
f 178 208 176
f 203 208 178
f 203 209 208
f 204 209 203
f 205 209 204
f 205 210 209
f 207 210 205
f 176 211 173
f 208 211 176
f 210 212 209
f 208 212 211
f 209 212 208
f 207 213 210
f 210 213 212
f 214 213 207
f 173 215 172
f 211 215 173
f 211 216 215
f 212 216 211
f 213 217 212
f 218 217 214
f 212 217 216
f 214 217 213
f 215 219 172
f 172 219 171
f 216 220 215
f 215 220 219
f 216 221 220
f 217 221 216
f 218 221 217
f 222 221 218
f 171 223 170
f 219 223 171
f 220 223 219
f 220 224 223
f 225 226 222
f 221 226 220
f 222 226 221
f 220 226 224
f 170 227 168
f 223 227 170
f 224 228 223
f 223 228 227
f 224 229 228
f 230 229 225
f 225 229 226
f 226 229 224
f 227 231 168
f 168 231 165
f 227 232 231
f 228 232 227
f 228 233 232
f 229 233 228
f 234 233 230
f 230 233 229
f 232 235 231
f 165 235 163
f 231 235 165
f 232 236 235
f 233 236 232
f 234 237 233
f 233 237 236
f 238 237 234
f 163 239 161
f 235 239 163
f 235 240 239
f 236 240 235
f 236 241 240
f 237 241 236
f 238 241 237
f 242 241 238
f 161 243 159
f 240 243 239
f 239 243 161
f 240 244 243
f 241 245 240
f 242 245 241
f 240 245 244
f 246 245 242
f 159 247 157
f 243 247 159
f 244 247 243
f 244 248 247
f 245 249 244
f 246 249 245
f 244 249 248
f 250 249 246
f 251 249 250
f 157 252 158
f 247 252 157
f 248 253 247
f 247 253 252
f 249 253 248
f 251 254 249
f 249 254 253
f 158 255 160
f 252 255 158
f 252 256 255
f 253 256 252
f 257 258 251
f 251 258 254
f 254 258 253
f 253 258 256
f 160 259 162
f 255 259 160
f 255 260 259
f 256 260 255
f 261 262 257
f 263 262 261
f 257 262 258
f 258 262 256
f 256 262 260
f 162 264 164
f 259 264 162
f 259 265 264
f 260 265 259
f 263 266 262
f 262 266 260
f 260 266 265
f 164 267 166
f 264 267 164
f 264 268 267
f 265 268 264
f 266 268 265
f 269 270 263
f 263 270 266
f 266 270 268
f 166 271 167
f 184 271 272
f 272 271 273
f 267 271 166
f 167 271 184
f 273 274 275
f 275 274 276
f 271 274 273
f 268 274 267
f 267 274 271
f 276 277 278
f 278 277 279
f 280 277 269
f 279 277 280
f 274 277 276
f 269 277 270
f 270 277 268
f 268 277 274
f 184 180 169
f 272 180 184
f 278 281 276
f 279 281 278
f 182 183 175
f 182 185 183
f 282 194 190
f 282 193 194
f 180 283 181
f 181 283 182
f 284 285 281
f 282 285 284
f 273 286 272
f 275 286 273
f 276 286 275
f 180 286 283
f 285 286 281
f 272 286 180
f 287 286 285
f 281 286 276
f 283 286 287
f 185 288 187
f 187 288 189
f 189 288 190
f 282 288 285
f 285 288 287
f 287 288 283
f 283 288 182
f 182 288 185
f 190 288 282
f 289 290 279
f 289 279 280
f 291 280 269
f 291 289 280
f 292 269 263
f 292 291 269
f 293 263 261
f 293 292 263
f 294 261 257
f 294 293 261
f 295 257 251
f 295 294 257
f 296 251 250
f 296 295 251
f 297 250 246
f 297 296 250
f 298 246 242
f 298 297 246
f 299 242 238
f 299 298 242
f 300 299 238
f 301 238 234
f 301 300 238
f 302 301 234
f 302 234 230
f 303 302 230
f 303 230 225
f 304 303 225
f 304 225 222
f 305 304 222
f 305 222 218
f 306 305 218
f 306 218 214
f 307 306 214
f 307 214 207
f 308 307 207
f 308 207 206
f 309 308 206
f 309 206 202
f 310 202 197
f 310 309 202
f 311 197 191
f 311 310 197
f 312 191 193
f 312 311 191
f 313 312 193
f 314 313 193
f 314 193 282
f 315 282 284
f 315 314 282
f 316 284 281
f 316 315 284
f 290 281 279
f 290 316 281
f 312 313 317
f 312 317 318
f 319 318 320
f 319 320 321
f 319 312 318
f 309 310 322
f 323 309 322
f 306 307 324
f 325 306 324
f 303 304 326
f 327 303 326
f 300 301 328
f 329 300 328
f 297 298 330
f 331 297 330
f 294 295 332
f 333 294 332
f 291 292 334
f 335 291 334
f 290 289 336
f 337 290 336
f 338 337 336
f 339 338 336
f 340 339 336
f 341 319 342
f 341 311 312
f 341 312 319
f 341 342 311
f 343 342 322
f 343 310 311
f 343 311 342
f 343 322 310
f 344 323 345
f 344 308 309
f 344 309 323
f 344 345 308
f 346 345 324
f 346 307 308
f 346 308 345
f 346 324 307
f 347 348 305
f 347 325 348
f 347 305 306
f 347 306 325
f 349 305 348
f 349 326 304
f 349 348 326
f 349 304 305
f 350 303 327
f 350 351 302
f 350 327 351
f 350 302 303
f 352 302 351
f 352 351 328
f 352 328 301
f 352 301 302
f 353 329 354
f 353 300 329
f 353 354 299
f 353 299 300
f 355 354 330
f 355 299 354
f 355 330 298
f 355 298 299
f 356 331 357
f 356 297 331
f 356 357 296
f 356 296 297
f 358 357 332
f 358 296 357
f 358 332 295
f 358 295 296
f 359 333 360
f 359 294 333
f 359 360 293
f 359 293 294
f 361 360 334
f 361 293 360
f 361 334 292
f 361 292 293
f 362 335 336
f 362 289 291
f 362 291 335
f 362 336 289
f 316 290 337
f 316 337 338
f 363 338 339
f 363 339 340
f 363 316 338
f 364 314 315
f 364 315 365
f 317 313 314
f 318 314 364
f 318 317 314
f 320 318 364
f 321 320 364
f 366 363 365
f 366 315 316
f 366 316 363
f 366 365 315
f 367 319 321
f 336 368 340
f 336 369 368
f 370 371 372
f 370 373 371
f 374 375 367
f 376 375 374
f 367 375 319
f 377 378 376
f 379 378 377
f 376 378 375
f 380 381 379
f 382 381 380
f 379 381 378
f 319 383 342
f 375 383 319
f 378 384 375
f 375 384 383
f 382 385 381
f 381 385 378
f 386 385 382
f 378 385 384
f 342 387 322
f 322 387 323
f 383 387 342
f 383 388 387
f 384 388 383
f 385 388 384
f 389 390 386
f 391 390 389
f 385 390 388
f 386 390 385
f 323 392 345
f 387 392 323
f 388 393 387
f 387 393 392
f 394 395 391
f 390 395 388
f 391 395 390
f 388 395 393
f 392 396 345
f 393 396 392
f 393 397 396
f 393 398 397
f 395 398 393
f 394 398 395
f 345 399 324
f 397 399 396
f 396 399 345
f 397 400 399
f 394 401 398
f 402 401 394
f 398 401 397
f 397 401 400
f 324 403 325
f 325 403 348
f 399 403 324
f 400 404 399
f 399 404 403
f 400 405 404
f 406 405 402
f 407 405 406
f 402 405 401
f 401 405 400
f 348 408 326
f 403 408 348
f 403 409 408
f 404 409 403
f 405 409 404
f 407 410 405
f 411 410 407
f 405 410 409
f 326 412 327
f 408 412 326
f 409 413 408
f 408 413 412
f 414 415 411
f 411 415 410
f 410 415 409
f 409 415 413
f 412 416 327
f 413 417 412
f 415 417 413
f 412 417 416
f 415 418 417
f 414 418 415
f 416 419 327
f 327 419 351
f 417 419 416
f 417 420 419
f 418 421 417
f 414 421 418
f 422 421 414
f 417 421 420
f 351 423 328
f 328 423 329
f 419 423 351
f 420 424 419
f 419 424 423
f 421 425 420
f 422 425 421
f 420 425 424
f 426 425 422
f 427 425 426
f 423 428 329
f 329 428 354
f 423 429 428
f 424 429 423
f 424 430 429
f 425 430 424
f 427 430 425
f 431 430 427
f 428 432 354
f 429 432 428
f 429 433 432
f 430 434 429
f 429 434 433
f 431 434 430
f 354 435 330
f 432 435 354
f 433 436 432
f 432 436 435
f 434 437 433
f 431 437 434
f 433 437 436
f 438 437 431
f 330 439 331
f 331 439 357
f 435 439 330
f 435 440 439
f 436 440 435
f 436 441 440
f 437 441 436
f 438 441 437
f 442 441 438
f 443 441 442
f 357 444 332
f 439 444 357
f 440 444 439
f 440 445 444
f 441 446 440
f 447 446 443
f 440 446 445
f 443 446 441
f 332 448 333
f 444 448 332
f 445 448 444
f 445 449 448
f 450 451 447
f 447 451 446
f 446 451 445
f 445 451 449
f 448 452 333
f 448 453 452
f 449 453 448
f 450 454 451
f 451 454 449
f 449 454 453
f 333 455 360
f 452 455 333
f 453 456 452
f 452 456 455
f 457 458 450
f 450 458 454
f 454 458 453
f 453 458 456
f 360 459 334
f 334 459 335
f 455 459 360
f 455 460 459
f 456 460 455
f 458 460 456
f 458 461 460
f 462 461 457
f 463 461 462
f 457 461 458
f 459 464 335
f 459 465 464
f 461 465 460
f 460 465 459
f 463 466 461
f 461 466 465
f 463 467 466
f 466 467 465
f 370 467 463
f 370 468 467
f 369 468 469
f 469 468 372
f 336 468 369
f 372 468 370
f 467 470 465
f 335 470 336
f 464 470 335
f 465 470 464
f 467 471 470
f 470 471 336
f 468 471 467
f 336 471 468
f 368 363 340
f 364 367 321
f 369 472 368
f 469 472 369
f 368 472 363
f 372 473 469
f 371 473 372
f 469 473 472
f 373 474 371
f 475 474 373
f 371 474 473
f 367 476 374
f 374 476 376
f 364 476 367
f 376 477 377
f 377 477 379
f 476 477 376
f 379 478 380
f 380 478 479
f 477 478 379
f 480 481 475
f 474 481 473
f 475 481 474
f 365 482 364
f 364 482 476
f 363 483 365
f 472 483 363
f 473 483 472
f 481 483 473
f 483 484 365
f 481 484 483
f 479 485 480
f 365 485 482
f 482 486 476
f 476 486 477
f 485 486 482
f 478 486 479
f 477 486 478
f 479 486 485
f 485 487 480
f 484 487 365
f 480 487 481
f 481 487 484
f 365 487 485
f 382 380 488
f 489 488 490
f 489 490 491
f 489 491 492
f 489 382 488
f 493 391 389
f 493 389 494
f 495 406 402
f 495 402 496
f 497 411 498
f 497 414 411
f 499 426 500
f 499 427 426
f 501 438 502
f 501 442 438
f 503 447 504
f 503 450 447
f 505 462 506
f 505 463 462
f 507 373 370
f 508 507 370
f 509 508 370
f 510 370 511
f 510 509 370
f 512 489 513
f 512 386 382
f 512 382 489
f 512 513 386
f 514 513 494
f 514 389 386
f 514 386 513
f 514 494 389
f 515 493 516
f 515 394 391
f 515 391 493
f 515 516 394
f 517 516 496
f 517 402 394
f 517 394 516
f 517 496 402
f 518 495 519
f 518 407 406
f 518 406 495
f 518 519 407
f 520 498 411
f 520 519 498
f 520 411 407
f 520 407 519
f 521 414 497
f 521 522 422
f 521 497 522
f 521 422 414
f 523 422 522
f 523 522 500
f 523 500 426
f 523 426 422
f 524 499 525
f 524 427 499
f 524 525 431
f 524 431 427
f 526 525 502
f 526 431 525
f 526 502 438
f 526 438 431
f 527 501 528
f 527 442 501
f 527 528 443
f 527 443 442
f 529 528 504
f 529 443 528
f 529 504 447
f 529 447 443
f 530 503 531
f 530 450 503
f 530 531 457
f 530 457 450
f 532 531 506
f 532 457 531
f 532 506 462
f 532 462 457
f 533 505 511
f 533 370 463
f 533 511 370
f 533 463 505
f 534 373 507
f 534 507 508
f 534 508 509
f 534 509 510
f 475 373 534
f 535 475 534
f 536 475 535
f 536 537 475
f 538 475 537
f 539 536 535
f 540 475 538
f 541 475 540
f 542 475 541
f 480 542 543
f 480 543 544
f 480 544 545
f 480 545 546
f 480 546 547
f 480 547 548
f 480 475 542
f 549 480 548
f 550 480 549
f 551 479 480
f 551 480 550
f 552 479 551
f 380 479 552
f 488 380 552
f 490 488 552
f 491 490 552
f 492 491 552
f 553 510 511
f 554 511 505
f 554 553 511
f 555 505 506
f 555 554 505
f 556 506 531
f 556 555 506
f 557 531 503
f 557 556 531
f 558 503 504
f 558 557 503
f 559 504 528
f 559 558 504
f 560 528 501
f 560 559 528
f 561 501 502
f 561 560 501
f 562 502 525
f 562 561 502
f 563 499 500
f 563 525 499
f 563 562 525
f 564 500 522
f 564 563 500
f 565 564 522
f 565 522 497
f 566 565 497
f 566 497 498
f 567 566 498
f 567 498 519
f 568 567 519
f 568 519 495
f 569 568 495
f 569 495 496
f 570 569 496
f 570 496 516
f 571 516 493
f 571 570 516
f 572 493 494
f 572 571 493
f 573 494 513
f 573 572 494
f 574 513 489
f 574 573 513
f 575 489 492
f 575 574 489
f 576 551 577
f 550 577 551
f 578 551 576
f 575 492 552
f 579 551 578
f 580 551 579
f 535 581 582
f 535 582 583
f 535 583 584
f 535 584 539
f 585 551 580
f 585 580 586
f 585 586 587
f 588 586 589
f 588 587 586
f 590 552 551
f 590 551 585
f 591 588 589
f 591 589 592
f 593 592 594
f 593 591 592
f 595 593 594
f 595 594 596
f 597 598 599
f 597 596 598
f 597 595 596
f 600 597 599
f 601 599 602
f 601 602 603
f 601 600 599
f 604 601 603
f 605 603 606
f 605 604 603
f 607 552 590
f 607 575 552
f 608 606 609
f 608 605 606
f 610 608 609
f 610 611 612
f 610 609 611
f 613 612 614
f 613 610 612
f 615 614 616
f 615 613 614
f 534 581 535
f 617 607 590
f 618 616 619
f 618 615 616
f 620 607 617
f 621 607 620
f 622 619 623
f 622 618 619
f 624 607 621
f 625 622 623
f 626 581 534
f 626 623 581
f 626 625 623
f 627 628 629
f 627 630 628
f 627 631 630
f 627 632 631
f 627 633 632
f 627 634 633
f 627 607 624
f 627 635 636
f 627 637 635
f 627 638 637
f 627 639 638
f 627 624 639
f 627 636 640
f 627 640 641
f 627 641 634
f 642 626 534
f 642 627 629
f 642 643 644
f 642 629 643
f 642 644 626
f 553 642 534
f 553 534 510
f 542 541 540
f 545 544 543
f 545 543 542
f 545 542 540
f 546 540 538
f 546 545 540
f 547 538 537
f 547 546 538
f 548 537 536
f 548 547 537
f 549 536 539
f 549 548 536
f 550 549 539
f 645 646 647
f 648 574 575
f 649 650 553
f 649 553 554
f 651 652 650
f 651 650 649
f 653 654 652
f 653 652 651
f 655 654 653
f 655 656 654
f 657 658 656
f 657 656 655
f 659 647 658
f 659 658 657
f 659 645 647
f 660 649 554
f 660 554 555
f 661 649 660
f 661 651 649
f 662 653 651
f 662 651 661
f 663 653 662
f 663 655 653
f 664 657 655
f 664 655 663
f 665 666 645
f 665 659 657
f 665 657 664
f 665 645 659
f 667 660 555
f 667 555 556
f 668 660 667
f 668 661 660
f 669 661 668
f 669 662 661
f 670 662 669
f 670 663 662
f 671 663 670
f 671 664 663
f 672 664 671
f 672 673 666
f 672 665 664
f 672 666 665
f 674 667 556
f 674 556 557
f 675 668 667
f 675 667 674
f 676 668 675
f 676 669 668
f 677 670 669
f 677 669 676
f 678 671 670
f 678 670 677
f 679 672 671
f 679 671 678
f 679 680 681
f 679 681 673
f 679 673 672
f 682 674 557
f 682 557 558
f 682 675 674
f 683 675 682
f 684 676 675
f 684 675 683
f 685 676 684
f 685 677 676
f 685 678 677
f 686 678 685
f 687 688 680
f 687 680 679
f 687 679 678
f 687 678 686
f 689 558 559
f 689 682 558
f 690 682 689
f 690 683 682
f 691 683 690
f 691 684 683
f 692 684 691
f 692 685 684
f 692 686 685
f 693 686 692
f 694 687 686
f 694 686 693
f 694 688 687
f 695 559 560
f 695 689 559
f 696 691 690
f 696 689 695
f 696 690 689
f 697 691 696
f 698 692 691
f 698 693 692
f 698 691 697
f 699 693 698
f 700 694 693
f 700 688 694
f 700 701 702
f 700 702 688
f 700 693 699
f 703 695 560
f 703 560 561
f 704 696 695
f 704 695 703
f 704 697 696
f 705 697 704
f 706 698 697
f 706 697 705
f 707 698 706
f 707 699 698
f 708 701 700
f 708 700 699
f 708 699 707
f 709 704 703
f 709 703 561
f 709 561 562
f 710 704 709
f 711 705 704
f 711 704 710
f 712 706 705
f 712 705 711
f 713 707 706
f 713 706 712
f 714 715 701
f 714 701 708
f 714 708 707
f 714 707 713
f 716 562 563
f 716 709 562
f 717 710 709
f 717 711 710
f 717 709 716
f 718 711 717
f 719 713 712
f 719 712 711
f 719 711 718
f 720 713 719
f 721 722 715
f 721 715 714
f 721 714 713
f 721 713 720
f 723 716 563
f 723 563 564
f 723 717 716
f 724 718 717
f 724 717 723
f 725 718 724
f 726 719 718
f 726 718 725
f 727 720 719
f 727 721 720
f 727 719 726
f 728 729 730
f 728 730 722
f 728 722 721
f 728 721 727
f 731 723 564
f 731 564 565
f 732 724 723
f 732 723 731
f 733 726 725
f 733 724 732
f 733 725 724
f 734 726 733
f 735 726 734
f 735 728 727
f 735 727 726
f 736 728 735
f 736 737 729
f 736 729 728
f 738 731 565
f 738 565 566
f 739 732 731
f 739 731 738
f 740 732 739
f 740 733 732
f 741 734 733
f 741 733 740
f 742 735 734
f 742 734 741
f 743 744 737
f 743 736 735
f 743 737 736
f 743 735 742
f 745 739 738
f 745 738 566
f 745 566 567
f 746 739 745
f 746 740 739
f 747 740 746
f 748 741 740
f 748 740 747
f 749 742 741
f 749 741 748
f 750 744 743
f 750 743 742
f 750 742 749
f 751 567 568
f 751 745 567
f 752 746 745
f 752 745 751
f 752 747 746
f 753 747 752
f 754 748 747
f 754 747 753
f 755 749 748
f 755 748 754
f 756 757 758
f 756 758 744
f 756 744 750
f 756 750 749
f 756 749 755
f 759 752 751
f 759 751 568
f 759 568 569
f 760 752 759
f 761 753 752
f 761 752 760
f 762 754 753
f 762 753 761
f 763 754 762
f 763 755 754
f 763 756 755
f 764 757 756
f 764 756 763
f 765 569 570
f 765 759 569
f 765 760 759
f 766 761 760
f 766 760 765
f 767 761 766
f 768 761 767
f 768 762 761
f 769 762 768
f 769 763 762
f 769 764 763
f 770 764 769
f 770 771 772
f 770 772 757
f 770 757 764
f 773 570 571
f 773 765 570
f 774 765 773
f 774 766 765
f 775 767 766
f 775 766 774
f 776 767 775
f 776 769 768
f 776 768 767
f 777 769 776
f 778 769 777
f 778 770 769
f 778 779 771
f 778 771 770
f 780 774 773
f 780 572 573
f 780 571 572
f 780 773 571
f 781 774 780
f 782 775 774
f 782 774 781
f 782 776 775
f 783 777 776
f 783 776 782
f 784 778 777
f 784 777 783
f 785 779 778
f 785 778 784
f 786 780 573
f 786 573 574
f 787 781 780
f 787 780 786
f 788 781 787
f 788 782 781
f 789 783 782
f 789 782 788
f 790 783 789
f 790 784 783
f 791 792 779
f 791 779 785
f 791 785 784
f 791 784 790
f 793 786 574
f 793 574 648
f 794 648 795
f 794 787 786
f 794 786 793
f 794 793 648
f 796 795 797
f 796 788 787
f 796 787 794
f 796 794 795
f 798 797 799
f 798 789 788
f 798 788 796
f 798 796 797
f 800 799 801
f 800 801 802
f 800 790 789
f 800 791 790
f 800 789 798
f 800 798 799
f 803 802 804
f 803 804 805
f 803 805 792
f 803 792 791
f 803 791 800
f 803 800 802
f 607 648 575
f 646 806 647
f 807 648 607
f 808 795 648
f 808 797 795
f 808 648 807
f 809 797 808
f 810 799 797
f 810 801 799
f 810 797 809
f 811 801 810
f 812 813 804
f 812 802 801
f 812 804 802
f 812 801 811
f 814 607 627
f 814 807 607
f 815 808 807
f 815 807 814
f 816 809 808
f 816 808 815
f 817 809 816
f 817 810 809
f 818 810 817
f 818 811 810
f 819 820 813
f 819 813 812
f 819 812 811
f 819 811 818
f 821 553 650
f 821 642 553
f 821 627 642
f 821 814 627
f 822 650 652
f 822 821 650
f 822 815 814
f 822 814 821
f 823 652 654
f 823 816 815
f 823 815 822
f 823 822 652
f 824 654 656
f 824 817 816
f 824 816 823
f 824 823 654
f 825 656 658
f 825 817 824
f 825 818 817
f 825 824 656
f 826 658 647
f 826 806 820
f 826 647 806
f 826 820 819
f 826 819 818
f 826 825 658
f 826 818 825
f 539 577 550
f 584 576 577
f 584 577 539
f 583 576 584
f 582 578 576
f 582 576 583
f 581 580 579
f 581 579 578
f 581 578 582
f 602 599 598
f 602 598 596
f 623 586 580
f 623 580 581
f 611 609 606
f 611 606 603
f 619 589 586
f 619 586 623
f 612 603 602
f 612 596 594
f 612 602 596
f 612 611 603
f 616 592 589
f 616 589 619
f 614 594 592
f 614 592 616
f 614 612 594
f 600 595 597
f 600 593 595
f 600 591 593
f 600 588 591
f 600 587 588
f 600 585 587
f 590 585 600
f 601 590 600
f 610 605 608
f 613 605 610
f 615 605 613
f 618 605 615
f 622 605 618
f 625 605 622
f 626 601 604
f 626 604 605
f 626 590 601
f 626 605 625
f 636 635 637
f 636 637 638
f 636 638 639
f 636 639 624
f 636 624 621
f 636 621 620
f 636 620 617
f 640 636 617
f 644 640 617
f 644 641 640
f 644 617 590
f 644 590 626
f 634 641 644
f 632 633 634
f 643 634 644
f 631 632 634
f 629 634 643
f 628 634 629
f 630 631 634
f 630 634 628
f 702 827 688
f 701 828 702
f 702 828 827
f 688 829 680
f 827 829 688
f 715 830 701
f 701 830 828
f 680 831 681
f 829 831 680
f 722 832 715
f 715 832 830
f 681 833 673
f 831 833 681
f 722 834 832
f 722 730 834
f 673 835 666
f 833 835 673
f 730 836 834
f 666 837 645
f 835 837 666
f 730 729 836
f 729 838 836
f 837 839 645
f 839 646 645
f 838 737 840
f 729 737 838
f 737 744 840
f 840 744 841
f 841 758 842
f 744 758 841
f 758 757 842
f 842 757 843
f 844 805 845
f 846 805 844
f 845 805 804
f 843 772 847
f 757 772 843
f 846 792 805
f 848 792 846
f 847 771 849
f 772 771 847
f 771 779 849
f 849 779 848
f 848 779 792
f 850 806 839
f 839 806 646
f 851 820 850
f 850 820 806
f 852 813 851
f 851 813 820
f 845 804 852
f 852 804 813
f 853 854 845
f 845 854 844
f 844 855 846
f 854 855 844
f 846 856 848
f 855 856 846
f 848 857 849
f 856 857 848
f 849 858 847
f 857 858 849
f 858 859 847
f 847 860 843
f 859 860 847
f 861 862 858
f 862 863 858
f 858 863 859
f 863 864 859
f 843 865 842
f 860 865 843
f 842 866 841
f 865 866 842
f 841 867 840
f 866 867 841
f 840 868 838
f 867 868 840
f 838 869 836
f 868 869 838
f 869 870 836
f 870 871 836
f 872 873 870
f 836 874 834
f 871 874 836
f 873 875 870
f 870 876 871
f 875 876 870
f 876 877 871
f 877 878 871
f 878 879 871
f 834 880 832
f 874 880 834
f 832 881 830
f 880 881 832
f 830 882 828
f 881 882 830
f 828 883 827
f 882 883 828
f 827 884 829
f 883 884 827
f 884 885 829
f 829 886 831
f 885 886 829
f 887 888 885
f 888 889 885
f 885 889 886
f 831 890 833
f 886 890 831
f 889 891 886
f 833 892 835
f 890 892 833
f 835 893 837
f 892 893 835
f 837 894 839
f 893 894 837
f 894 895 839
f 895 896 839
f 839 896 850
f 850 897 851
f 896 897 850
f 897 898 851
f 898 899 851
f 851 900 852
f 899 900 851
f 901 902 898
f 898 903 899
f 902 903 898
f 903 904 899
f 852 905 845
f 900 905 852
f 905 853 845
f 900 899 906
f 857 906 858
f 905 900 906
f 853 905 906
f 856 906 857
f 854 853 906
f 855 906 856
f 855 854 906
f 858 906 861
f 861 906 907
f 908 893 892
f 908 892 890
f 908 890 886
f 894 893 908
f 895 894 908
f 896 895 908
f 897 896 908
f 898 897 908
f 909 902 901
f 909 891 889
f 907 903 902
f 907 904 903
f 907 902 909
f 910 888 887
f 910 889 888
f 910 909 889
f 910 907 909
f 911 907 910
f 878 910 879
f 862 861 907
f 877 910 878
f 876 911 910
f 876 910 877
f 863 907 911
f 863 862 907
f 875 911 876
f 873 911 875
f 864 863 911
f 872 911 873
f 908 886 909
f 909 886 891
f 912 859 911
f 911 859 864
f 912 870 869
f 912 869 868
f 912 868 867
f 866 912 867
f 865 912 866
f 860 912 865
f 859 912 860
f 885 913 887
f 887 913 910
f 870 912 872
f 872 912 911
f 913 885 884
f 913 884 883
f 913 883 882
f 913 882 881
f 913 881 880
f 913 880 874
f 913 874 871
f 913 871 910
f 910 871 879
f 898 908 901
f 901 908 909
f 906 899 907
f 907 899 904
f 914 915 916
f 914 917 915
f 914 918 917
f 914 919 918
f 916 915 920
f 920 915 921
f 921 917 922
f 915 917 921
f 922 918 923
f 917 918 922
f 923 919 924
f 918 919 923
f 925 914 926
f 926 914 927
f 927 914 928
f 928 914 929
f 929 914 930
f 930 914 931
f 931 914 932
f 932 914 933
f 933 914 934
f 934 914 935
f 935 914 936
f 914 916 936
f 925 937 914
f 937 938 914
f 938 939 914
f 939 940 914
f 914 941 919
f 940 942 914
f 914 943 941
f 942 944 914
f 914 945 943
f 944 945 914
f 924 919 946
f 946 941 947
f 919 941 946
f 947 943 948
f 941 943 947
f 948 945 949
f 943 945 948
f 949 944 950
f 945 944 949
f 950 942 951
f 944 942 950
f 951 940 952
f 942 940 951
f 952 939 953
f 940 939 952
f 953 938 954
f 939 938 953
f 954 937 955
f 938 937 954
f 955 925 956
f 937 925 955
f 956 926 957
f 925 926 956
f 957 927 958
f 926 927 957
f 927 928 958
f 958 928 959
f 928 929 959
f 959 929 960
f 929 930 960
f 960 930 961
f 930 931 961
f 961 931 962
f 962 932 963
f 931 932 962
f 963 933 964
f 932 933 963
f 933 934 964
f 965 935 966
f 964 935 965
f 934 935 964
f 966 936 920
f 935 936 966
f 936 916 920
f 960 958 959
f 961 962 960
f 958 956 957
f 963 964 962
f 956 954 955
f 960 953 958
f 962 953 960
f 958 953 956
f 956 953 954
f 965 966 964
f 953 951 952
f 921 922 920
f 923 924 922
f 920 924 966
f 966 924 964
f 922 924 920
f 951 948 950
f 950 948 949
f 962 948 953
f 953 948 951
f 946 947 924
f 964 947 962
f 962 947 948
f 924 947 964
