# Generated from DIP-8_body.step
mtllib DIP-8_body.mtl
v 6.41928 0.94628 0.38000
v 6.41928 -8.56628 0.38000
v 0.94672 -8.56628 0.38000
v 0.94672 0.94628 0.38000
v 6.74300 -7.85000 1.90300
v 6.74300 -8.89000 1.90300
v 6.74300 -6.86000 1.90300
v 6.74300 -3.30000 1.90300
v 6.74300 -0.76000 1.90300
v 6.74300 -1.78000 1.90300
v 6.74300 0.23000 1.90300
v 6.74300 1.27000 1.90300
v 0.62300 1.27000 1.90300
v 0.62300 0.23000 1.90300
v 0.62300 -0.76000 1.90300
v 0.62300 -1.78000 1.90300
v 0.62300 -3.30000 1.90300
v 0.62300 -4.32000 1.90300
v 0.62300 -6.86000 1.90300
v 0.62300 -5.84000 1.90300
v 0.62300 -7.85000 1.90300
v 0.62300 -8.89000 1.90300
v 6.74300 -7.85000 2.15700
v 6.74300 -8.89000 2.15700
v 6.74300 1.27000 2.15700
v 6.74300 0.23000 2.15700
v 7.11200 -7.85000 1.90300
v 7.11200 -6.86000 1.90300
v 7.11200 -0.76000 1.90300
v 7.11200 0.23000 1.90300
v 6.74300 -3.30000 2.15700
v 6.74300 -6.86000 2.15700
v 6.74300 -0.76000 2.15700
v 6.74300 -1.78000 2.15700
v 7.11200 -1.78000 1.90300
v 7.11200 -3.30000 1.90300
v 0.62300 1.27000 2.15700
v 0.62300 0.23000 2.15700
v 0.62300 -8.89000 2.15700
v 0.62300 -7.85000 2.15700
v 0.25400 -0.76000 1.90300
v 0.25400 0.23000 1.90300
v 0.25400 -7.85000 1.90300
v 0.25400 -6.86000 1.90300
v 0.62300 -1.78000 2.15700
v 0.62300 -0.76000 2.15700
v 0.62300 -6.86000 2.15700
v 0.62300 -5.84000 2.15700
v 0.25400 -1.78000 1.90300
v 0.25400 -3.30000 1.90300
v 0.25400 -5.84000 1.90300
v 0.25400 -4.32000 1.90300
v 0.62300 -4.32000 2.15700
v 0.62300 -3.30000 2.15700
v 6.66800 -7.85000 2.15700
v 6.66800 -8.81500 2.15700
v 7.11200 -7.85000 2.15700
v 7.49300 -7.85000 1.77600
v 7.23582 -7.85000 1.80426
v 7.23900 -7.85000 1.77600
v 7.23900 -7.85000 -2.84000
v 7.49300 -7.85000 -2.84000
v 7.48345 -7.85000 1.86078
v 7.19678 -7.85000 2.14745
v 7.14026 -7.85000 1.89982
v 7.16710 -7.85000 1.89042
v 7.27731 -7.85000 2.11927
v 7.45527 -7.85000 1.94131
v 7.22642 -7.85000 1.83110
v 7.34955 -7.85000 2.07388
v 7.19118 -7.85000 1.87529
v 7.40988 -7.85000 2.01355
v 7.21129 -7.85000 1.85518
v 7.23900 0.23000 1.77600
v 7.49300 0.23000 1.77600
v 7.49300 0.23000 -2.84000
v 7.23900 0.23000 -2.84000
v 7.23582 0.23000 1.80426
v 7.48345 0.23000 1.86078
v 7.22642 0.23000 1.83110
v 7.40988 0.23000 2.01355
v 7.45527 0.23000 1.94131
v 7.21129 0.23000 1.85518
v 7.19118 0.23000 1.87529
v 7.34955 0.23000 2.07388
v 7.27731 0.23000 2.11927
v 7.16710 0.23000 1.89042
v 7.14026 0.23000 1.89982
v 7.19678 0.23000 2.14745
v 7.11200 0.23000 2.15700
v 6.66800 0.23000 2.15700
v 6.66800 1.19500 2.15700
v 7.14026 -6.86000 1.89982
v 7.16710 -6.86000 1.89042
v 7.19118 -6.86000 1.87529
v 7.21129 -6.86000 1.85518
v 7.22642 -6.86000 1.83110
v 7.23582 -6.86000 1.80426
v 7.23900 -6.86000 1.77600
v 7.11200 -6.86000 2.15700
v 7.49300 -6.86000 1.77600
v 7.49300 -6.86000 0.00000
v 7.23900 -6.86000 0.00000
v 7.19678 -6.86000 2.14745
v 7.48345 -6.86000 1.86078
v 7.27731 -6.86000 2.11927
v 7.45527 -6.86000 1.94131
v 7.34955 -6.86000 2.07388
v 7.40988 -6.86000 2.01355
v 7.23582 -0.76000 1.80426
v 7.23900 -0.76000 1.77600
v 7.22642 -0.76000 1.83110
v 7.21129 -0.76000 1.85518
v 7.19118 -0.76000 1.87529
v 7.16710 -0.76000 1.89042
v 7.14026 -0.76000 1.89982
v 7.11200 -0.76000 2.15700
v 7.49300 -0.76000 1.77600
v 7.23900 -0.76000 0.00000
v 7.49300 -0.76000 0.00000
v 7.19678 -0.76000 2.14745
v 7.48345 -0.76000 1.86078
v 7.27731 -0.76000 2.11927
v 7.45527 -0.76000 1.94131
v 7.34955 -0.76000 2.07388
v 7.40988 -0.76000 2.01355
v 6.66800 -3.30000 2.15700
v 6.66800 -6.86000 2.15700
v 7.11200 -3.30000 2.15700
v 7.49300 -3.30000 1.77600
v 7.23582 -3.30000 1.80426
v 7.23900 -3.30000 1.77600
v 7.23900 -3.30000 0.00000
v 7.49300 -3.30000 0.00000
v 7.19678 -3.30000 2.14745
v 7.14026 -3.30000 1.89982
v 7.48345 -3.30000 1.86078
v 7.22642 -3.30000 1.83110
v 7.27731 -3.30000 2.11927
v 7.16710 -3.30000 1.89042
v 7.45527 -3.30000 1.94131
v 7.34955 -3.30000 2.07388
v 7.19118 -3.30000 1.87529
v 7.40988 -3.30000 2.01355
v 7.21129 -3.30000 1.85518
v 7.23900 -1.78000 1.77600
v 7.49300 -1.78000 1.77600
v 7.49300 -1.78000 0.00000
v 7.23900 -1.78000 0.00000
v 7.23582 -1.78000 1.80426
v 7.48345 -1.78000 1.86078
v 7.22642 -1.78000 1.83110
v 7.45527 -1.78000 1.94131
v 7.21129 -1.78000 1.85518
v 7.40988 -1.78000 2.01355
v 7.34955 -1.78000 2.07388
v 7.19118 -1.78000 1.87529
v 7.27731 -1.78000 2.11927
v 7.16710 -1.78000 1.89042
v 7.14026 -1.78000 1.89982
v 7.19678 -1.78000 2.14745
v 7.11200 -1.78000 2.15700
v 6.66800 -1.78000 2.15700
v 6.66800 -0.76000 2.15700
v 0.69800 1.19500 2.15700
v 0.69800 0.23000 2.15700
v 0.25400 0.23000 2.15700
v -0.12700 0.23000 1.77600
v 0.12700 0.23000 1.77600
v 0.12700 0.23000 -2.84000
v -0.12700 0.23000 -2.84000
v 0.16922 0.23000 2.14745
v 0.22574 0.23000 1.89982
v -0.11745 0.23000 1.86078
v 0.13018 0.23000 1.80426
v 0.13958 0.23000 1.83110
v 0.08869 0.23000 2.11927
v 0.19890 0.23000 1.89042
v 0.17482 0.23000 1.87529
v -0.08927 0.23000 1.94131
v 0.01645 0.23000 2.07388
v -0.04388 0.23000 2.01355
v 0.15471 0.23000 1.85518
v 0.12700 -7.85000 1.77600
v -0.12700 -7.85000 1.77600
v -0.12700 -7.85000 -2.84000
v 0.12700 -7.85000 -2.84000
v 0.13018 -7.85000 1.80426
v -0.11745 -7.85000 1.86078
v 0.13958 -7.85000 1.83110
v -0.04388 -7.85000 2.01355
v -0.08927 -7.85000 1.94131
v 0.15471 -7.85000 1.85518
v 0.01645 -7.85000 2.07388
v 0.17482 -7.85000 1.87529
v 0.08869 -7.85000 2.11927
v 0.19890 -7.85000 1.89042
v 0.22574 -7.85000 1.89982
v 0.16922 -7.85000 2.14745
v 0.25400 -7.85000 2.15700
v 0.69800 -7.85000 2.15700
v 0.69800 -8.81500 2.15700
v 0.22574 -0.76000 1.89982
v 0.19890 -0.76000 1.89042
v 0.17482 -0.76000 1.87529
v 0.15471 -0.76000 1.85518
v 0.13958 -0.76000 1.83110
v 0.13018 -0.76000 1.80426
v 0.12700 -0.76000 1.77600
v -0.12700 -0.76000 1.77600
v -0.12700 -0.76000 0.00000
v 0.12700 -0.76000 0.00000
v -0.11745 -0.76000 1.86078
v -0.08927 -0.76000 1.94131
v -0.04388 -0.76000 2.01355
v 0.01645 -0.76000 2.07388
v 0.08869 -0.76000 2.11927
v 0.16922 -0.76000 2.14745
v 0.25400 -0.76000 2.15700
v 0.12700 -6.86000 1.77600
v 0.12700 -6.86000 0.00000
v -0.12700 -6.86000 0.00000
v -0.12700 -6.86000 1.77600
v 0.13018 -6.86000 1.80426
v -0.11745 -6.86000 1.86078
v 0.13958 -6.86000 1.83110
v -0.08927 -6.86000 1.94131
v 0.15471 -6.86000 1.85518
v -0.04388 -6.86000 2.01355
v 0.17482 -6.86000 1.87529
v 0.01645 -6.86000 2.07388
v 0.08869 -6.86000 2.11927
v 0.19890 -6.86000 1.89042
v 0.16922 -6.86000 2.14745
v 0.22574 -6.86000 1.89982
v 0.25400 -6.86000 2.15700
v 0.69800 -1.78000 2.15700
v 0.69800 -0.76000 2.15700
v 0.25400 -1.78000 2.15700
v -0.12700 -1.78000 1.77600
v 0.13018 -1.78000 1.80426
v 0.12700 -1.78000 1.77600
v 0.12700 -1.78000 0.00000
v -0.12700 -1.78000 0.00000
v 0.16922 -1.78000 2.14745
v 0.22574 -1.78000 1.89982
v 0.19890 -1.78000 1.89042
v -0.11745 -1.78000 1.86078
v 0.13958 -1.78000 1.83110
v 0.08869 -1.78000 2.11927
v -0.08927 -1.78000 1.94131
v 0.01645 -1.78000 2.07388
v 0.17482 -1.78000 1.87529
v -0.04388 -1.78000 2.01355
v 0.15471 -1.78000 1.85518
v 0.17482 -5.84000 1.87529
v 0.01645 -5.84000 2.07388
v -0.04388 -5.84000 2.01355
v 0.15471 -5.84000 1.85518
v 0.13958 -5.84000 1.83110
v -0.08927 -5.84000 1.94131
v 0.19890 -5.84000 1.89042
v 0.08869 -5.84000 2.11927
v 0.13018 -5.84000 1.80426
v -0.11745 -5.84000 1.86078
v 0.22574 -5.84000 1.89982
v 0.16922 -5.84000 2.14745
v 0.12700 -5.84000 1.77600
v -0.12700 -5.84000 1.77600
v 0.25400 -5.84000 2.15700
v 0.12700 -5.84000 0.00000
v -0.12700 -5.84000 0.00000
v 0.69800 -5.84000 2.15700
v 0.69800 -6.86000 2.15700
v 0.22574 -3.30000 1.89982
v 0.19890 -3.30000 1.89042
v 0.17482 -3.30000 1.87529
v 0.15471 -3.30000 1.85518
v 0.13958 -3.30000 1.83110
v 0.13018 -3.30000 1.80426
v 0.12700 -3.30000 1.77600
v -0.12700 -3.30000 1.77600
v -0.12700 -3.30000 0.00000
v 0.12700 -3.30000 0.00000
v -0.11745 -3.30000 1.86078
v -0.08927 -3.30000 1.94131
v -0.04388 -3.30000 2.01355
v 0.01645 -3.30000 2.07388
v 0.08869 -3.30000 2.11927
v 0.16922 -3.30000 2.14745
v 0.25400 -3.30000 2.15700
v 0.12700 -4.32000 1.77600
v 0.12700 -4.32000 0.00000
v -0.12700 -4.32000 0.00000
v -0.12700 -4.32000 1.77600
v 0.13018 -4.32000 1.80426
v -0.11745 -4.32000 1.86078
v 0.13958 -4.32000 1.83110
v -0.08927 -4.32000 1.94131
v 0.15471 -4.32000 1.85518
v -0.04388 -4.32000 2.01355
v 0.01645 -4.32000 2.07388
v 0.17482 -4.32000 1.87529
v 0.08869 -4.32000 2.11927
v 0.19890 -4.32000 1.89042
v 0.22574 -4.32000 1.89982
v 0.16922 -4.32000 2.14745
v 0.25400 -4.32000 2.15700
v 0.69800 -4.32000 2.15700
v 0.69800 -3.30000 2.15700
v 6.34428 -8.49128 3.68000
v 6.34428 0.87128 3.68000
v 7.49300 -7.39000 0.00000
v 7.49300 -7.39000 -2.84000
v 7.49300 -7.73500 -3.30000
v 7.49300 -7.50500 -3.30000
v 7.23900 -7.73500 -3.30000
v 7.23900 -7.39000 0.00000
v 7.23900 -7.39000 -2.84000
v 7.23900 -7.50500 -3.30000
v 7.23900 -0.23000 0.00000
v 7.23900 -0.23000 -2.84000
v 7.23900 0.11500 -3.30000
v 7.23900 -0.11500 -3.30000
v 7.49300 0.11500 -3.30000
v 7.49300 -0.23000 0.00000
v 7.49300 -0.23000 -2.84000
v 7.49300 -0.11500 -3.30000
v 7.49300 -2.31000 0.00000
v 7.49300 -2.77000 0.00000
v 7.49300 -2.77000 -2.84000
v 7.49300 -2.31000 -2.84000
v 7.49300 -2.65500 -3.30000
v 7.49300 -2.42500 -3.30000
v 7.23900 -2.77000 0.00000
v 7.23900 -2.31000 0.00000
v 7.23900 -2.31000 -2.84000
v 7.23900 -2.77000 -2.84000
v 7.23900 -2.42500 -3.30000
v 7.23900 -2.65500 -3.30000
v 4.43235 0.97755 3.18000
v 4.42924 0.87128 3.68000
v 2.93365 0.97755 3.18000
v 1.02172 0.87128 3.68000
v 2.93676 0.87128 3.68000
v 1.02172 -8.49128 3.68000
v -0.12700 -0.23000 0.00000
v -0.12700 -0.23000 -2.84000
v -0.12700 0.11500 -3.30000
v -0.12700 -0.11500 -3.30000
v 0.12700 0.11500 -3.30000
v 0.12700 -0.23000 0.00000
v 0.12700 -0.23000 -2.84000
v 0.12700 -0.11500 -3.30000
v 0.12700 -7.39000 0.00000
v 0.12700 -7.39000 -2.84000
v 0.12700 -7.73500 -3.30000
v 0.12700 -7.50500 -3.30000
v -0.12700 -7.73500 -3.30000
v -0.12700 -7.39000 0.00000
v -0.12700 -7.39000 -2.84000
v -0.12700 -7.50500 -3.30000
v -0.12700 -2.77000 0.00000
v -0.12700 -2.31000 0.00000
v -0.12700 -2.31000 -2.84000
v -0.12700 -2.77000 -2.84000
v -0.12700 -2.42500 -3.30000
v -0.12700 -2.65500 -3.30000
v 0.12700 -2.31000 0.00000
v 0.12700 -2.77000 0.00000
v 0.12700 -2.77000 -2.84000
v 0.12700 -2.31000 -2.84000
v 0.12700 -2.65500 -3.30000
v 0.12700 -2.42500 -3.30000
v 0.12700 -5.31000 0.00000
v 0.12700 -4.85000 0.00000
v 0.12700 -5.31000 -2.84000
v 0.12700 -4.85000 -2.84000
v 0.12700 -5.19500 -3.30000
v 0.12700 -4.96500 -3.30000
v -0.12700 -5.31000 0.00000
v -0.12700 -4.85000 0.00000
v -0.12700 -4.85000 -2.84000
v -0.12700 -5.31000 -2.84000
v -0.12700 -4.96500 -3.30000
v -0.12700 -5.19500 -3.30000
v 3.32989 0.28460 3.68000
v 3.50101 0.21869 3.68000
v 3.68300 0.19628 3.68000
v 3.17988 0.39006 3.68000
v 3.86499 0.21869 3.68000
v 3.05995 0.52877 3.68000
v 4.03611 0.28460 3.68000
v 2.97726 0.69244 3.68000
v 4.38874 0.69244 3.68000
v 4.30605 0.52877 3.68000
v 4.18612 0.39006 3.68000
v 4.41969 0.80563 3.18000
v 4.36812 0.64114 3.18000
v 4.28035 0.49277 3.18000
v 4.16103 0.36836 3.18000
v 4.01644 0.27448 3.18000
v 3.85425 0.21609 3.18000
v 3.68300 0.19628 3.18000
v 3.51175 0.21609 3.18000
v 3.34956 0.27448 3.18000
v 3.20497 0.36836 3.18000
v 3.08565 0.49277 3.18000
v 2.99788 0.64114 3.18000
v 2.94631 0.80563 3.18000

g Solid_0
usemtl Solid_0
f 1 2 3
f 1 3 4
f 5 6 2
f 7 5 2
f 8 7 2
f 1 9 10
f 1 10 8
f 1 8 2
f 11 9 1
f 12 11 1
f 13 1 4
f 13 12 1
f 14 13 4
f 15 14 4
f 16 15 4
f 17 16 4
f 18 17 4
f 3 19 20
f 3 20 18
f 3 18 4
f 21 19 3
f 22 21 3
f 6 3 2
f 6 22 3
f 23 24 6
f 23 6 5
f 25 26 11
f 25 11 12
f 27 7 28
f 5 7 27
f 29 11 30
f 9 11 29
f 31 32 7
f 31 7 8
f 33 34 10
f 33 10 9
f 8 10 35
f 8 35 36
f 37 12 13
f 37 25 12
f 38 37 13
f 38 13 14
f 39 40 21
f 39 21 22
f 41 14 15
f 41 42 14
f 43 19 21
f 43 44 19
f 45 46 15
f 45 15 16
f 47 48 20
f 47 20 19
f 17 49 16
f 50 49 17
f 51 18 20
f 51 52 18
f 53 54 17
f 53 17 18
f 24 22 6
f 24 39 22
f 55 56 24
f 55 24 23
f 57 23 5
f 57 5 27
f 58 59 60
f 58 60 61
f 58 61 62
f 63 59 58
f 64 65 66
f 64 27 65
f 64 57 27
f 67 64 66
f 68 69 59
f 68 59 63
f 70 66 71
f 70 67 66
f 72 73 69
f 72 71 73
f 72 69 68
f 72 70 71
f 74 75 76
f 74 76 77
f 78 79 75
f 78 75 74
f 80 81 82
f 80 82 79
f 80 79 78
f 83 81 80
f 84 81 83
f 85 81 84
f 86 84 87
f 86 87 88
f 86 85 84
f 89 86 88
f 90 88 30
f 90 89 88
f 26 30 11
f 26 90 30
f 25 91 26
f 92 91 25
f 27 28 65
f 28 93 65
f 65 94 66
f 93 94 65
f 66 95 71
f 94 95 66
f 71 96 73
f 95 96 71
f 73 97 69
f 96 97 73
f 69 98 59
f 97 98 69
f 59 99 60
f 98 99 59
f 100 28 7
f 100 7 32
f 101 102 103
f 101 103 99
f 101 99 98
f 104 93 28
f 104 28 100
f 105 98 97
f 105 101 98
f 106 95 94
f 106 94 93
f 106 93 104
f 107 105 97
f 108 95 106
f 109 97 96
f 109 96 95
f 109 95 108
f 109 107 97
f 74 110 78
f 111 110 74
f 78 112 80
f 110 112 78
f 80 113 83
f 112 113 80
f 83 114 84
f 113 114 83
f 84 115 87
f 114 115 84
f 87 116 88
f 115 116 87
f 88 29 30
f 116 29 88
f 117 33 9
f 117 9 29
f 118 110 111
f 118 111 119
f 118 119 120
f 121 116 115
f 121 29 116
f 121 117 29
f 122 112 110
f 122 110 118
f 123 121 115
f 124 112 122
f 125 115 114
f 125 123 115
f 126 113 112
f 126 114 113
f 126 112 124
f 126 125 114
f 127 128 32
f 127 32 31
f 129 31 8
f 129 8 36
f 130 131 132
f 130 132 133
f 130 133 134
f 135 36 136
f 135 129 36
f 137 138 131
f 137 131 130
f 139 136 140
f 139 135 136
f 141 138 137
f 142 140 143
f 142 139 140
f 144 145 138
f 144 143 145
f 144 138 141
f 144 142 143
f 146 147 148
f 146 148 149
f 150 151 147
f 150 147 146
f 152 153 151
f 152 151 150
f 154 155 153
f 154 153 152
f 156 154 157
f 156 155 154
f 158 157 159
f 158 159 160
f 158 156 157
f 161 158 160
f 162 160 35
f 162 161 160
f 34 35 10
f 34 162 35
f 33 163 34
f 164 163 33
f 35 160 36
f 36 160 136
f 136 159 140
f 160 159 136
f 143 157 145
f 140 157 143
f 159 157 140
f 157 154 145
f 145 152 138
f 154 152 145
f 138 150 131
f 152 150 138
f 131 146 132
f 150 146 131
f 37 92 25
f 165 92 37
f 166 165 37
f 166 37 38
f 167 38 14
f 167 14 42
f 168 169 170
f 168 170 171
f 172 42 173
f 172 167 42
f 174 175 169
f 174 176 175
f 174 169 168
f 177 178 179
f 177 173 178
f 177 172 173
f 180 176 174
f 181 177 179
f 182 183 176
f 182 179 183
f 182 176 180
f 182 181 179
f 184 185 186
f 184 186 187
f 188 189 185
f 188 185 184
f 190 191 192
f 190 192 189
f 190 189 188
f 193 191 190
f 194 193 195
f 194 191 193
f 196 195 197
f 196 197 198
f 196 194 195
f 199 196 198
f 200 198 43
f 200 199 198
f 40 43 21
f 40 200 43
f 39 201 40
f 202 201 39
f 41 203 42
f 42 203 173
f 173 204 178
f 203 204 173
f 178 205 179
f 204 205 178
f 179 206 183
f 205 206 179
f 183 207 176
f 206 207 183
f 176 208 175
f 207 208 176
f 175 209 169
f 208 209 175
f 209 210 211
f 209 211 212
f 208 213 210
f 208 210 209
f 207 214 213
f 207 213 208
f 206 215 214
f 206 214 207
f 205 215 206
f 216 215 205
f 217 205 204
f 217 204 203
f 217 216 205
f 218 217 203
f 219 203 41
f 219 218 203
f 46 41 15
f 46 219 41
f 220 221 222
f 220 222 223
f 224 223 225
f 224 220 223
f 226 225 227
f 226 224 225
f 228 227 229
f 228 226 227
f 230 228 229
f 231 230 229
f 232 233 230
f 232 230 231
f 234 235 233
f 234 233 232
f 236 44 235
f 236 235 234
f 47 19 44
f 47 44 236
f 184 224 188
f 220 224 184
f 188 226 190
f 224 226 188
f 190 228 193
f 226 228 190
f 193 230 195
f 228 230 193
f 195 233 197
f 230 233 195
f 197 235 198
f 233 235 197
f 198 44 43
f 235 44 198
f 237 238 46
f 237 46 45
f 239 45 16
f 239 16 49
f 240 241 242
f 240 242 243
f 240 243 244
f 245 246 247
f 245 49 246
f 245 239 49
f 248 249 241
f 248 241 240
f 250 245 247
f 251 249 248
f 252 247 253
f 252 250 247
f 254 255 249
f 254 253 255
f 254 249 251
f 254 252 253
f 256 257 258
f 256 258 259
f 260 258 261
f 260 259 258
f 262 263 257
f 262 257 256
f 264 261 265
f 264 260 261
f 266 267 263
f 266 263 262
f 268 265 269
f 268 264 265
f 51 270 267
f 51 267 266
f 20 48 270
f 20 270 51
f 271 269 272
f 271 268 269
f 47 273 48
f 274 273 47
f 50 275 49
f 49 275 246
f 246 276 247
f 275 276 246
f 247 277 253
f 276 277 247
f 253 278 255
f 277 278 253
f 255 279 249
f 278 279 255
f 249 280 241
f 279 280 249
f 241 281 242
f 280 281 241
f 281 282 283
f 281 283 284
f 280 285 282
f 280 282 281
f 279 286 285
f 279 285 280
f 278 287 286
f 278 286 279
f 277 287 278
f 288 287 277
f 289 277 276
f 289 276 275
f 289 288 277
f 290 289 275
f 291 275 50
f 291 290 275
f 54 50 17
f 54 291 50
f 292 293 294
f 292 294 295
f 296 295 297
f 296 292 295
f 298 297 299
f 298 296 297
f 300 299 301
f 300 298 299
f 302 303 300
f 302 300 301
f 304 305 303
f 304 306 305
f 304 303 302
f 307 306 304
f 308 52 306
f 308 306 307
f 53 18 52
f 53 52 308
f 51 266 52
f 52 266 306
f 306 262 305
f 266 262 306
f 305 256 303
f 262 256 305
f 303 259 300
f 256 259 303
f 298 260 296
f 300 260 298
f 259 260 300
f 260 264 296
f 296 268 292
f 264 268 296
f 309 310 54
f 309 54 53
f 24 202 39
f 56 202 24
f 311 56 55
f 128 311 55
f 127 311 128
f 312 127 163
f 312 163 164
f 312 164 91
f 312 91 92
f 312 311 127
f 128 55 23
f 128 23 32
f 32 23 57
f 32 57 100
f 63 101 105
f 63 58 101
f 68 105 107
f 68 63 105
f 72 107 109
f 72 68 107
f 70 109 108
f 70 72 109
f 67 108 106
f 67 70 108
f 64 106 104
f 64 67 106
f 57 104 100
f 57 64 104
f 313 102 101
f 313 101 58
f 62 314 313
f 315 316 314
f 315 314 62
f 58 62 313
f 315 62 61
f 315 61 317
f 103 318 99
f 99 318 60
f 319 61 318
f 320 317 319
f 319 317 61
f 61 60 318
f 321 119 111
f 321 111 74
f 77 322 321
f 323 324 322
f 323 322 77
f 74 77 321
f 76 325 77
f 77 325 323
f 120 326 118
f 118 326 75
f 327 76 326
f 328 325 327
f 327 325 76
f 76 75 326
f 122 118 75
f 122 75 79
f 124 79 82
f 124 122 79
f 126 82 81
f 126 124 82
f 125 81 85
f 125 126 81
f 123 85 86
f 123 125 85
f 121 86 89
f 121 123 86
f 117 89 90
f 117 121 89
f 26 33 117
f 26 117 90
f 26 164 33
f 91 164 26
f 102 313 318
f 102 318 103
f 326 120 321
f 321 120 119
f 34 127 31
f 163 127 34
f 34 31 129
f 34 129 162
f 137 147 151
f 137 130 147
f 141 151 153
f 141 137 151
f 144 153 155
f 144 141 153
f 142 155 156
f 142 144 155
f 139 156 158
f 139 142 156
f 135 158 161
f 135 139 158
f 129 161 162
f 129 135 161
f 329 148 147
f 330 147 130
f 330 329 147
f 134 330 130
f 331 332 329
f 331 329 330
f 333 334 332
f 333 332 331
f 330 134 133
f 330 133 335
f 149 336 146
f 146 335 132
f 336 335 146
f 335 133 132
f 337 338 336
f 336 338 335
f 339 340 337
f 337 340 338
f 148 329 336
f 148 336 149
f 341 312 92
f 342 312 341
f 165 343 341
f 165 341 92
f 344 345 343
f 344 343 165
f 344 165 166
f 238 344 166
f 237 344 238
f 310 344 237
f 346 309 273
f 346 273 274
f 346 274 201
f 346 201 202
f 346 344 309
f 309 344 310
f 238 166 38
f 238 38 46
f 174 210 213
f 174 168 210
f 180 213 214
f 180 174 213
f 182 214 215
f 182 180 214
f 181 215 216
f 181 182 215
f 177 216 217
f 177 217 218
f 177 181 216
f 172 177 218
f 167 218 219
f 167 172 218
f 347 211 210
f 347 210 168
f 171 348 347
f 349 350 348
f 349 348 171
f 168 171 347
f 349 171 170
f 349 170 351
f 212 352 209
f 209 352 169
f 353 170 352
f 354 351 353
f 353 351 170
f 170 169 352
f 38 219 46
f 167 219 38
f 225 223 185
f 225 185 189
f 227 189 192
f 227 225 189
f 229 191 194
f 229 192 191
f 229 227 192
f 231 229 194
f 232 194 196
f 232 231 194
f 234 196 199
f 234 232 196
f 236 199 200
f 236 234 199
f 236 200 40
f 236 40 47
f 355 221 220
f 355 220 184
f 187 356 355
f 357 358 356
f 357 356 187
f 184 187 355
f 186 359 187
f 187 359 357
f 222 360 223
f 223 360 185
f 361 186 360
f 362 359 361
f 361 359 186
f 186 185 360
f 40 274 47
f 201 274 40
f 211 347 352
f 211 352 212
f 360 222 355
f 355 222 221
f 310 237 45
f 310 45 54
f 363 283 282
f 364 282 240
f 364 363 282
f 244 364 240
f 365 366 363
f 365 363 364
f 367 368 366
f 367 366 365
f 364 244 243
f 364 243 369
f 284 370 281
f 281 369 242
f 370 369 281
f 369 243 242
f 371 372 370
f 370 372 369
f 373 374 371
f 371 374 372
f 45 291 54
f 239 291 45
f 248 282 285
f 248 240 282
f 251 285 286
f 251 248 285
f 254 286 287
f 254 251 286
f 252 287 288
f 252 254 287
f 250 288 289
f 250 252 288
f 245 289 290
f 245 250 289
f 239 290 291
f 239 245 290
f 297 269 265
f 297 295 269
f 299 265 261
f 299 297 265
f 301 261 258
f 301 299 261
f 302 258 257
f 302 301 258
f 304 257 263
f 304 302 257
f 307 263 267
f 307 304 263
f 308 267 270
f 308 307 267
f 53 270 48
f 308 270 53
f 271 375 268
f 268 376 292
f 375 376 268
f 376 293 292
f 377 378 375
f 375 378 376
f 379 380 377
f 377 380 378
f 272 381 375
f 272 375 271
f 381 272 269
f 382 269 295
f 382 381 269
f 294 382 295
f 383 384 381
f 383 381 382
f 385 386 384
f 385 384 383
f 48 309 53
f 273 309 48
f 283 363 370
f 283 370 284
f 382 294 293
f 382 293 376
f 56 346 202
f 311 346 56
f 346 387 344
f 388 387 346
f 311 389 346
f 346 389 388
f 387 390 344
f 311 391 389
f 390 392 344
f 311 393 391
f 392 394 344
f 394 345 344
f 395 312 342
f 396 312 395
f 397 312 396
f 393 312 397
f 311 312 393
f 313 314 319
f 313 319 318
f 314 316 320
f 314 320 319
f 316 315 317
f 316 317 320
f 327 326 322
f 322 326 321
f 328 327 324
f 324 327 322
f 325 328 323
f 323 328 324
f 331 330 335
f 331 335 338
f 333 331 338
f 333 338 340
f 329 332 337
f 329 337 336
f 334 333 340
f 334 340 339
f 332 334 339
f 332 339 337
f 341 398 342
f 342 398 395
f 395 399 396
f 398 399 395
f 396 400 397
f 399 400 396
f 397 401 393
f 400 401 397
f 393 402 391
f 401 402 393
f 391 403 389
f 402 403 391
f 403 404 389
f 389 405 388
f 404 405 389
f 388 406 387
f 405 406 388
f 387 407 390
f 406 407 387
f 390 408 392
f 407 408 390
f 392 409 394
f 408 409 392
f 394 410 345
f 409 410 394
f 410 343 345
f 341 410 398
f 343 410 341
f 409 408 410
f 410 408 398
f 398 407 399
f 399 407 400
f 400 407 401
f 401 407 402
f 402 407 403
f 403 407 404
f 404 407 405
f 405 407 406
f 408 407 398
f 347 348 353
f 347 353 352
f 348 350 354
f 348 354 353
f 350 349 351
f 350 351 354
f 361 360 356
f 356 360 355
f 362 361 358
f 358 361 356
f 359 362 357
f 357 362 358
f 365 364 369
f 365 369 372
f 367 365 372
f 367 372 374
f 363 366 371
f 363 371 370
f 368 367 374
f 368 374 373
f 366 368 373
f 366 373 371
f 381 384 377
f 381 377 375
f 384 386 379
f 384 379 377
f 383 382 376
f 383 376 378
f 386 385 380
f 386 380 379
f 385 383 378
f 385 378 380
