# Generated from FPC_24pin.step
mtllib FPC_24pin.mtl
v -0.40000 0.80000 2.05000
v -0.60000 0.80000 2.05000
v 0.00000 0.80000 2.56000
v -1.40000 0.80000 2.05000
v -1.60000 0.80000 2.05000
v 0.00000 0.80000 0.00000
v -2.40000 0.80000 2.05000
v -0.40000 0.80000 0.00000
v -2.60000 0.80000 2.05000
v -3.40000 0.80000 2.05000
v -0.60000 0.80000 0.00000
v -1.40000 0.80000 0.00000
v -3.60000 0.80000 2.05000
v -4.40000 0.80000 2.05000
v -1.60000 0.80000 0.00000
v -2.40000 0.80000 0.00000
v -4.60000 0.80000 2.05000
v -5.40000 0.80000 2.05000
v -2.60000 0.80000 0.00000
v -3.40000 0.80000 0.00000
v -5.60000 0.80000 2.05000
v -6.40000 0.80000 2.05000
v -3.60000 0.80000 0.00000
v -4.40000 0.80000 0.00000
v -6.60000 0.80000 2.05000
v -7.40000 0.80000 2.05000
v -4.60000 0.80000 0.00000
v -5.40000 0.80000 0.00000
v -5.60000 0.80000 0.00000
v -6.40000 0.80000 0.00000
v -7.40000 0.80000 0.00000
v -6.60000 0.80000 0.00000
v -7.60000 0.80000 2.05000
v -8.40000 0.80000 0.00000
v -8.40000 0.80000 2.05000
v -7.60000 0.80000 0.00000
v -8.60000 0.80000 2.05000
v -8.60000 0.80000 0.00000
v -9.40000 0.80000 2.05000
v -9.40000 0.80000 0.00000
v -9.60000 0.80000 2.05000
v -9.60000 0.80000 0.00000
v -10.40000 0.80000 2.05000
v -10.40000 0.80000 0.00000
v -10.60000 0.80000 0.00000
v -11.40000 0.80000 0.00000
v -10.60000 0.80000 2.05000
v -11.40000 0.80000 2.05000
v -11.60000 0.80000 2.05000
v -14.93500 0.80000 2.56000
v -11.60000 0.80000 0.00000
v -14.93500 0.80000 0.00000
v -13.24000 0.75000 0.00000
v -14.93500 0.75000 0.00000
v -13.24000 -2.70000 0.00000
v 0.40000 -2.70000 0.00000
v 0.40000 0.80000 0.00000
v 0.60000 0.80000 0.00000
v 0.60000 -2.70000 0.00000
v 1.40000 0.80000 0.00000
v 1.60000 -2.70000 0.00000
v 1.40000 -2.70000 0.00000
v 1.60000 0.80000 0.00000
v 2.40000 0.80000 0.00000
v 2.40000 -2.70000 0.00000
v 2.60000 0.80000 0.00000
v 3.40000 -2.70000 0.00000
v 2.60000 -2.70000 0.00000
v 3.40000 0.80000 0.00000
v 3.60000 0.80000 0.00000
v 4.40000 -2.70000 0.00000
v 3.60000 -2.70000 0.00000
v 4.40000 0.80000 0.00000
v 4.60000 0.80000 0.00000
v 4.60000 -2.70000 0.00000
v 5.40000 0.80000 0.00000
v 5.60000 -2.70000 0.00000
v 5.40000 -2.70000 0.00000
v 5.60000 0.80000 0.00000
v 6.40000 0.80000 0.00000
v 6.60000 -2.70000 0.00000
v 6.40000 -2.70000 0.00000
v 6.60000 0.80000 0.00000
v 7.40000 0.80000 0.00000
v 7.40000 -2.70000 0.00000
v 7.60000 0.80000 0.00000
v 7.60000 -2.70000 0.00000
v 8.40000 0.80000 0.00000
v 8.40000 -2.70000 0.00000
v 8.60000 0.80000 0.00000
v 9.40000 -2.70000 0.00000
v 8.60000 -2.70000 0.00000
v 9.40000 0.80000 0.00000
v 9.60000 0.80000 0.00000
v 10.40000 -2.70000 0.00000
v 9.60000 -2.70000 0.00000
v 10.40000 0.80000 0.00000
v 10.60000 0.80000 0.00000
v 10.60000 -2.70000 0.00000
v 11.40000 0.80000 0.00000
v 11.40000 -2.70000 0.00000
v 11.60000 0.80000 0.00000
v 12.40000 -2.70000 0.00000
v 11.60000 -2.70000 0.00000
v 13.24000 0.75000 0.00000
v 13.24000 -2.70000 -0.00000
v 14.93500 0.80000 -0.00000
v 14.93500 0.75000 -0.00000
v -0.40000 1.94000 0.00000
v -0.40000 1.31000 0.69000
v -0.40000 1.94000 0.69000
v -0.40000 1.31000 2.05000
v -0.60000 1.31000 2.05000
v -0.60000 1.31000 0.69000
v -0.60000 1.94000 0.00000
v -0.60000 1.94000 0.69000
v -1.40000 1.94000 0.00000
v -1.40000 1.31000 0.69000
v -1.40000 1.94000 0.69000
v -1.40000 1.31000 2.05000
v -1.60000 1.31000 2.05000
v -1.60000 1.31000 0.69000
v -1.60000 1.94000 0.00000
v -1.60000 1.94000 0.69000
v -2.40000 1.94000 0.00000
v -2.40000 1.31000 0.69000
v -2.40000 1.94000 0.69000
v -2.40000 1.31000 2.05000
v -2.60000 1.31000 2.05000
v -2.60000 1.31000 0.69000
v -2.60000 1.94000 0.00000
v -2.60000 1.94000 0.69000
v -3.40000 1.94000 0.00000
v -3.40000 1.31000 0.69000
v -3.40000 1.94000 0.69000
v -3.40000 1.31000 2.05000
v -3.60000 1.31000 2.05000
v -3.60000 1.31000 0.69000
v -3.60000 1.94000 0.00000
v -3.60000 1.94000 0.69000
v -4.40000 1.94000 0.00000
v -4.40000 1.31000 0.69000
v -4.40000 1.94000 0.69000
v -4.40000 1.31000 2.05000
v -4.60000 1.31000 2.05000
v -4.60000 1.31000 0.69000
v -4.60000 1.94000 0.00000
v -4.60000 1.94000 0.69000
v -5.40000 1.94000 0.00000
v -5.40000 1.31000 0.69000
v -5.40000 1.94000 0.69000
v -5.40000 1.31000 2.05000
v -5.60000 1.31000 2.05000
v -5.60000 1.31000 0.69000
v -5.60000 1.94000 0.00000
v -5.60000 1.94000 0.69000
v -6.40000 1.94000 0.00000
v -6.40000 1.31000 0.69000
v -6.40000 1.94000 0.69000
v -6.40000 1.31000 2.05000
v -6.60000 1.31000 2.05000
v -6.60000 1.31000 0.69000
v -6.60000 1.94000 0.00000
v -6.60000 1.94000 0.69000
v -7.40000 1.94000 0.00000
v -7.40000 1.31000 0.69000
v -7.40000 1.94000 0.69000
v -7.40000 1.31000 2.05000
v -7.60000 1.31000 2.05000
v -7.60000 1.31000 0.69000
v -7.60000 1.94000 0.00000
v -7.60000 1.94000 0.69000
v -8.40000 1.94000 0.00000
v -8.40000 1.31000 0.69000
v -8.40000 1.94000 0.69000
v -8.40000 1.31000 2.05000
v -8.60000 1.31000 2.05000
v -8.60000 1.31000 0.69000
v -8.60000 1.94000 0.00000
v -8.60000 1.94000 0.69000
v -9.40000 1.94000 0.00000
v -9.40000 1.31000 0.69000
v -9.40000 1.94000 0.69000
v -9.40000 1.31000 2.05000
v -9.60000 1.31000 2.05000
v -9.60000 1.31000 0.69000
v -9.60000 1.94000 0.00000
v -9.60000 1.94000 0.69000
v -10.40000 1.94000 0.00000
v -10.40000 1.31000 0.69000
v -10.40000 1.94000 0.69000
v -10.40000 1.31000 2.05000
v -10.60000 1.31000 2.05000
v -10.60000 1.31000 0.69000
v -10.60000 1.94000 0.00000
v -10.60000 1.94000 0.69000
v -11.40000 1.94000 0.00000
v -11.40000 1.31000 0.69000
v -11.40000 1.94000 0.69000
v -11.40000 1.31000 2.05000
v -11.60000 1.31000 2.05000
v -11.60000 1.31000 0.69000
v -11.60000 1.94000 0.00000
v -11.60000 1.94000 0.69000
v -14.93500 0.75000 0.18000
v -14.93500 -2.70000 2.56000
v -14.93500 -2.70000 0.18000
v -12.59000 -2.70000 2.56000
v -0.00000 -3.65000 2.56000
v -12.59000 -3.65000 2.56000
v 12.59000 -2.70000 2.56000
v 14.93500 0.80000 2.56000
v 12.59000 -3.65000 2.56000
v 14.93500 -2.70000 2.56000
v 0.60000 0.80000 2.05000
v 0.40000 0.80000 2.05000
v 1.40000 0.80000 2.05000
v 1.60000 0.80000 2.05000
v 2.40000 0.80000 2.05000
v 2.60000 0.80000 2.05000
v 3.40000 0.80000 2.05000
v 3.60000 0.80000 2.05000
v 4.40000 0.80000 2.05000
v 4.60000 0.80000 2.05000
v 5.40000 0.80000 2.05000
v 5.60000 0.80000 2.05000
v 6.40000 0.80000 2.05000
v 6.60000 0.80000 2.05000
v 7.40000 0.80000 2.05000
v 7.60000 0.80000 2.05000
v 8.40000 0.80000 2.05000
v 8.60000 0.80000 2.05000
v 9.40000 0.80000 2.05000
v 9.60000 0.80000 2.05000
v 10.40000 0.80000 2.05000
v 10.60000 0.80000 2.05000
v 11.40000 0.80000 2.05000
v 11.60000 0.80000 2.05000
v -15.24000 0.25000 0.00000
v -15.74000 0.75000 0.00000
v -15.74000 0.25000 0.00000
v -15.24000 -0.25000 0.00000
v -15.24000 -0.75000 0.00000
v -15.24000 -1.25000 0.00000
v -15.74000 -0.75000 0.00000
v -15.74000 -0.25000 0.00000
v -15.24000 -1.75000 0.00000
v -13.24000 -2.75000 0.00000
v -15.24000 -2.25000 0.00000
v -15.74000 -1.75000 0.00000
v -15.74000 -1.25000 0.00000
v -15.74000 -2.75000 0.00000
v -15.74000 -2.25000 0.00000
v -0.40000 -2.70000 0.10000
v 0.40000 -2.70000 0.10000
v -0.60000 -2.70000 0.10000
v 0.40000 -2.70000 1.56000
v -0.40000 -2.70000 0.70000
v 0.40000 -2.70000 0.70000
v -0.60000 -2.70000 0.70000
v -1.40000 -2.70000 0.70000
v -1.60000 -2.70000 0.10000
v -1.40000 -2.70000 0.10000
v -1.60000 -2.70000 0.70000
v -2.40000 -2.70000 0.70000
v -2.60000 -2.70000 0.70000
v -2.40000 -2.70000 0.10000
v -2.60000 -2.70000 0.10000
v -3.40000 -2.70000 0.70000
v -3.60000 -2.70000 0.70000
v -3.40000 -2.70000 0.10000
v -3.60000 -2.70000 0.10000
v -4.60000 -2.70000 0.70000
v -4.60000 -2.70000 0.10000
v -4.40000 -2.70000 0.10000
v -4.40000 -2.70000 0.70000
v -5.60000 -2.70000 0.70000
v -5.60000 -2.70000 0.10000
v -5.40000 -2.70000 0.10000
v -5.40000 -2.70000 0.70000
v -6.60000 -2.70000 0.70000
v -6.60000 -2.70000 0.10000
v -6.40000 -2.70000 0.10000
v -6.40000 -2.70000 0.70000
v -7.60000 -2.70000 0.70000
v -7.60000 -2.70000 0.10000
v -7.40000 -2.70000 0.10000
v -7.40000 -2.70000 0.70000
v -8.40000 -2.70000 0.70000
v -8.60000 -2.70000 0.10000
v -8.40000 -2.70000 0.10000
v -8.60000 -2.70000 0.70000
v -9.40000 -2.70000 0.70000
v -9.60000 -2.70000 0.10000
v -9.40000 -2.70000 0.10000
v -9.60000 -2.70000 0.70000
v -10.60000 -2.70000 0.70000
v -10.40000 -2.70000 0.10000
v -10.40000 -2.70000 0.70000
v -10.60000 -2.70000 0.10000
v -11.60000 -2.70000 0.70000
v -11.40000 -2.70000 0.10000
v -11.40000 -2.70000 0.70000
v -11.60000 -2.70000 0.10000
v -12.40000 -2.70000 0.70000
v -12.59000 -2.70000 0.18000
v -12.40000 -2.70000 0.10000
v -13.24000 -2.70000 0.18000
v -12.59000 -2.70000 1.56000
v 0.60000 -2.70000 0.10000
v 1.40000 -2.70000 0.10000
v 1.60000 -2.70000 0.10000
v 2.40000 -2.70000 0.10000
v 2.60000 -2.70000 0.10000
v 3.40000 -2.70000 0.10000
v 3.60000 -2.70000 0.10000
v 4.40000 -2.70000 0.10000
v 4.60000 -2.70000 0.10000
v 5.40000 -2.70000 0.10000
v 5.60000 -2.70000 0.10000
v 6.40000 -2.70000 0.10000
v 6.60000 -2.70000 0.10000
v 7.40000 -2.70000 0.10000
v 7.60000 -2.70000 0.10000
v 8.40000 -2.70000 0.10000
v 8.60000 -2.70000 0.10000
v 9.40000 -2.70000 0.10000
v 9.60000 -2.70000 0.10000
v 10.40000 -2.70000 0.10000
v 10.60000 -2.70000 0.10000
v 11.40000 -2.70000 0.10000
v 11.60000 -2.70000 0.10000
v 12.40000 -2.70000 0.10000
v 13.24000 -2.70000 0.10000
v 15.74000 0.25000 0.00000
v 15.24000 0.25000 0.00000
v 15.74000 0.75000 0.00000
v 15.24000 -0.25000 0.00000
v 15.74000 -0.75000 0.00000
v 15.24000 -0.75000 0.00000
v 15.74000 -0.25000 0.00000
v 15.74000 -1.75000 0.00000
v 15.24000 -1.75000 0.00000
v 15.74000 -1.25000 0.00000
v 15.24000 -1.25000 0.00000
v 15.74000 -2.75000 0.00000
v 15.24000 -2.25000 0.00000
v 15.74000 -2.25000 0.00000
v 13.24000 -2.75000 0.00000
v 14.93500 0.75000 0.18000
v 14.93500 -2.70000 0.70000
v 14.93500 -2.70000 0.18000
v 0.60000 1.94000 0.00000
v 0.40000 1.94000 0.00000
v 1.60000 1.94000 0.00000
v 1.40000 1.94000 0.00000
v 2.60000 1.94000 0.00000
v 2.40000 1.94000 0.00000
v 3.60000 1.94000 0.00000
v 3.40000 1.94000 0.00000
v 4.60000 1.94000 0.00000
v 4.40000 1.94000 0.00000
v 5.60000 1.94000 0.00000
v 5.40000 1.94000 0.00000
v 6.60000 1.94000 0.00000
v 6.40000 1.94000 0.00000
v 7.60000 1.94000 0.00000
v 7.40000 1.94000 0.00000
v 8.60000 1.94000 0.00000
v 8.40000 1.94000 0.00000
v 9.60000 1.94000 0.00000
v 9.40000 1.94000 0.00000
v 10.60000 1.94000 0.00000
v 10.40000 1.94000 0.00000
v 11.60000 1.94000 0.00000
v 11.40000 1.94000 0.00000
v -15.74000 0.75000 0.18000
v -15.24000 0.25000 0.18000
v -15.74000 0.25000 0.18000
v -15.24000 -0.25000 0.18000
v -15.24000 -0.75000 0.18000
v -15.74000 -0.75000 0.18000
v -15.74000 -0.25000 0.18000
v -15.74000 -1.75000 0.18000
v -15.24000 -1.25000 0.18000
v -15.74000 -1.25000 0.18000
v -15.24000 -1.75000 0.18000
v -15.24000 -2.25000 0.18000
v -15.74000 -2.75000 0.18000
v -14.93500 -2.75000 0.18000
v -15.74000 -2.25000 0.18000
v -14.93500 -3.65000 2.56000
v -14.93500 -3.65000 0.18000
v -15.96000 -3.65000 2.56000
v -15.96000 -4.60000 2.56000
v -0.00000 -4.60000 2.56000
v 14.93500 -3.65000 2.56000
v 15.96000 -4.60000 2.56000
v 15.96000 -3.65000 2.56000
v 0.40000 1.31000 0.69000
v 0.40000 1.94000 0.69000
v 0.40000 1.31000 2.05000
v 0.60000 1.31000 2.05000
v 0.60000 1.31000 0.69000
v 0.60000 1.94000 0.69000
v 1.40000 1.31000 0.69000
v 1.40000 1.94000 0.69000
v 1.40000 1.31000 2.05000
v 1.60000 1.31000 2.05000
v 1.60000 1.31000 0.69000
v 1.60000 1.94000 0.69000
v 2.40000 1.31000 0.69000
v 2.40000 1.94000 0.69000
v 2.40000 1.31000 2.05000
v 2.60000 1.31000 2.05000
v 2.60000 1.31000 0.69000
v 2.60000 1.94000 0.69000
v 3.40000 1.31000 0.69000
v 3.40000 1.94000 0.69000
v 3.40000 1.31000 2.05000
v 3.60000 1.31000 2.05000
v 3.60000 1.31000 0.69000
v 3.60000 1.94000 0.69000
v 4.40000 1.31000 0.69000
v 4.40000 1.94000 0.69000
v 4.40000 1.31000 2.05000
v 4.60000 1.31000 2.05000
v 4.60000 1.31000 0.69000
v 4.60000 1.94000 0.69000
v 5.40000 1.31000 0.69000
v 5.40000 1.94000 0.69000
v 5.40000 1.31000 2.05000
v 5.60000 1.31000 2.05000
v 5.60000 1.31000 0.69000
v 5.60000 1.94000 0.69000
v 6.40000 1.31000 0.69000
v 6.40000 1.94000 0.69000
v 6.40000 1.31000 2.05000
v 6.60000 1.31000 2.05000
v 6.60000 1.31000 0.69000
v 6.60000 1.94000 0.69000
v 7.40000 1.31000 0.69000
v 7.40000 1.94000 0.69000
v 7.40000 1.31000 2.05000
v 7.60000 1.31000 2.05000
v 7.60000 1.31000 0.69000
v 7.60000 1.94000 0.69000
v 8.40000 1.31000 0.69000
v 8.40000 1.94000 0.69000
v 8.40000 1.31000 2.05000
v 8.60000 1.31000 2.05000
v 8.60000 1.31000 0.69000
v 8.60000 1.94000 0.69000
v 9.40000 1.31000 0.69000
v 9.40000 1.94000 0.69000
v 9.40000 1.31000 2.05000
v 9.60000 1.31000 2.05000
v 9.60000 1.31000 0.69000
v 9.60000 1.94000 0.69000
v 10.40000 1.31000 0.69000
v 10.40000 1.94000 0.69000
v 10.40000 1.31000 2.05000
v 10.60000 1.31000 2.05000
v 10.60000 1.31000 0.69000
v 10.60000 1.94000 0.69000
v 11.40000 1.31000 0.69000
v 11.40000 1.94000 0.69000
v 11.40000 1.31000 2.05000
v 11.60000 1.31000 2.05000
v 11.60000 1.31000 0.69000
v 11.60000 1.94000 0.69000
v -13.24000 -2.75000 0.18000
v -12.59000 -4.60000 0.18000
v -15.96000 -4.60000 0.18000
v -15.96000 -3.65000 0.18000
v -12.59000 -3.65000 1.56000
v -12.59000 -4.60000 1.56000
v 12.59000 -2.70000 1.56000
v 12.59000 -3.65000 1.56000
v 12.40000 -2.70000 1.56000
v 11.60000 -2.70000 1.56000
v 11.40000 -2.70000 1.56000
v 10.60000 -2.70000 1.56000
v 10.40000 -2.70000 1.56000
v 9.60000 -2.70000 1.56000
v 9.40000 -2.70000 1.56000
v 8.60000 -2.70000 1.56000
v 8.40000 -2.70000 1.56000
v 7.60000 -2.70000 1.56000
v 7.40000 -2.70000 1.56000
v 4.60000 -2.70000 1.56000
v -0.00000 -3.65000 1.56000
v 4.40000 -2.70000 1.56000
v 3.60000 -2.70000 1.56000
v 3.40000 -2.70000 1.56000
v 2.60000 -2.70000 1.56000
v 2.40000 -2.70000 1.56000
v 1.60000 -2.70000 1.56000
v 1.40000 -2.70000 1.56000
v 0.60000 -2.70000 1.56000
v 5.40000 -2.70000 1.56000
v 5.60000 -2.70000 1.56000
v 6.40000 -2.70000 1.56000
v 6.60000 -2.70000 1.56000
v 0.60000 -2.70000 0.70000
v 0.40000 -4.60000 0.70000
v -0.40000 -4.60000 0.70000
v -0.40000 -4.60000 0.10000
v 0.40000 -4.60000 0.10000
v -10.60000 -4.60000 0.10000
v -10.60000 -4.60000 0.70000
v -11.40000 -4.60000 0.10000
v -11.40000 -4.60000 0.70000
v -9.60000 -4.60000 0.10000
v -9.60000 -4.60000 0.70000
v -10.40000 -4.60000 0.10000
v -10.40000 -4.60000 0.70000
v -8.60000 -4.60000 0.10000
v -8.60000 -4.60000 0.70000
v -9.40000 -4.60000 0.10000
v -9.40000 -4.60000 0.70000
v -7.60000 -4.60000 0.10000
v -7.60000 -4.60000 0.70000
v -8.40000 -4.60000 0.10000
v -8.40000 -4.60000 0.70000
v -3.60000 -4.60000 0.10000
v -3.60000 -4.60000 0.70000
v -4.40000 -4.60000 0.10000
v -4.40000 -4.60000 0.70000
v -4.60000 -4.60000 0.10000
v -4.60000 -4.60000 0.70000
v -5.40000 -4.60000 0.10000
v -5.40000 -4.60000 0.70000
v -5.60000 -4.60000 0.10000
v -5.60000 -4.60000 0.70000
v -6.40000 -4.60000 0.10000
v -6.40000 -4.60000 0.70000
v -6.60000 -4.60000 0.10000
v -6.60000 -4.60000 0.70000
v -7.40000 -4.60000 0.10000
v -7.40000 -4.60000 0.70000
v -0.60000 -4.60000 0.10000
v -0.60000 -4.60000 0.70000
v -1.40000 -4.60000 0.10000
v -1.40000 -4.60000 0.70000
v -1.60000 -4.60000 0.10000
v -1.60000 -4.60000 0.70000
v -2.40000 -4.60000 0.10000
v -2.40000 -4.60000 0.70000
v -2.60000 -4.60000 0.10000
v -2.60000 -4.60000 0.70000
v -3.40000 -4.60000 0.10000
v -3.40000 -4.60000 0.70000
v -11.60000 -4.60000 0.10000
v -11.60000 -4.60000 0.70000
v -12.40000 -4.60000 0.10000
v -12.40000 -4.60000 0.70000
v 1.40000 -4.60000 0.10000
v 0.60000 -4.60000 0.10000
v 1.60000 -2.70000 0.70000
v 1.40000 -2.70000 0.70000
v 2.40000 -4.60000 0.10000
v 1.60000 -4.60000 0.10000
v 2.60000 -2.70000 0.70000
v 2.40000 -2.70000 0.70000
v 3.40000 -4.60000 0.10000
v 2.60000 -4.60000 0.10000
v 3.60000 -2.70000 0.70000
v 3.40000 -2.70000 0.70000
v 4.40000 -4.60000 0.10000
v 3.60000 -4.60000 0.10000
v 4.60000 -2.70000 0.70000
v 4.40000 -2.70000 0.70000
v 5.40000 -4.60000 0.10000
v 4.60000 -4.60000 0.10000
v 5.60000 -2.70000 0.70000
v 5.40000 -2.70000 0.70000
v 6.40000 -4.60000 0.10000
v 5.60000 -4.60000 0.10000
v 6.60000 -2.70000 0.70000
v 6.40000 -2.70000 0.70000
v 7.40000 -4.60000 0.10000
v 6.60000 -4.60000 0.10000
v 7.60000 -2.70000 0.70000
v 7.40000 -2.70000 0.70000
v 8.40000 -4.60000 0.10000
v 7.60000 -4.60000 0.10000
v 8.60000 -2.70000 0.70000
v 8.40000 -2.70000 0.70000
v 9.40000 -4.60000 0.10000
v 8.60000 -4.60000 0.10000
v 9.60000 -2.70000 0.70000
v 9.40000 -2.70000 0.70000
v 10.40000 -4.60000 0.10000
v 9.60000 -4.60000 0.10000
v 10.60000 -2.70000 0.70000
v 10.40000 -2.70000 0.70000
v 11.40000 -4.60000 0.10000
v 10.60000 -4.60000 0.10000
v 11.60000 -2.70000 0.70000
v 11.40000 -2.70000 0.70000
v 12.40000 -4.60000 0.10000
v 11.60000 -4.60000 0.10000
v 13.24000 -2.75000 0.18000
v 13.24000 -2.70000 0.18000
v 12.59000 -2.70000 0.18000
v 12.59000 -2.70000 0.70000
v 12.40000 -2.70000 0.70000
v 15.74000 0.75000 0.18000
v 15.74000 0.25000 0.18000
v 15.24000 0.25000 0.18000
v 15.24000 -0.25000 0.18000
v 15.74000 -0.25000 0.18000
v 15.74000 -0.75000 0.18000
v 15.24000 -0.75000 0.18000
v 15.24000 -1.25000 0.18000
v 15.74000 -1.25000 0.18000
v 15.74000 -1.75000 0.18000
v 15.24000 -1.75000 0.18000
v 15.24000 -2.25000 0.18000
v 15.74000 -2.25000 0.18000
v 15.74000 -2.75000 0.18000
v 14.93500 -2.75000 0.18000
v 14.93500 -3.65000 0.18000
v -0.00000 -4.60000 1.56000
v 15.96000 -3.65000 0.18000
v 15.96000 -4.60000 0.18000
v 12.59000 -4.60000 1.56000
v 12.59000 -4.60000 0.18000
v 12.59000 -3.65000 0.18000
v 0.60000 -4.60000 0.70000
v 1.40000 -4.60000 0.70000
v 1.60000 -4.60000 0.70000
v 2.40000 -4.60000 0.70000
v 2.60000 -4.60000 0.70000
v 3.40000 -4.60000 0.70000
v 3.60000 -4.60000 0.70000
v 4.40000 -4.60000 0.70000
v 4.60000 -4.60000 0.70000
v 5.40000 -4.60000 0.70000
v 5.60000 -4.60000 0.70000
v 6.40000 -4.60000 0.70000
v 6.60000 -4.60000 0.70000
v 7.40000 -4.60000 0.70000
v 7.60000 -4.60000 0.70000
v 8.40000 -4.60000 0.70000
v 8.60000 -4.60000 0.70000
v 9.40000 -4.60000 0.70000
v 9.60000 -4.60000 0.70000
v 10.40000 -4.60000 0.70000
v 10.60000 -4.60000 0.70000
v 11.40000 -4.60000 0.70000
v 11.60000 -4.60000 0.70000
v 12.40000 -4.60000 0.70000

g Solid_0
usemtl Solid_0
f 1 2 3
f 2 4 3
f 4 5 3
f 3 6 1
f 5 7 3
f 6 8 1
f 7 9 3
f 9 10 3
f 11 12 2
f 2 12 4
f 10 13 3
f 13 14 3
f 15 16 5
f 5 16 7
f 14 17 3
f 17 18 3
f 19 20 9
f 9 20 10
f 18 21 3
f 21 22 3
f 23 24 13
f 13 24 14
f 22 25 3
f 25 26 3
f 27 28 17
f 17 28 18
f 21 29 22
f 29 30 22
f 25 31 26
f 32 31 25
f 33 34 35
f 36 34 33
f 37 38 39
f 38 40 39
f 41 42 43
f 42 44 43
f 45 46 47
f 47 46 48
f 49 50 48
f 26 50 3
f 47 50 43
f 35 50 33
f 41 50 39
f 37 50 35
f 33 50 26
f 39 50 37
f 43 50 41
f 48 50 47
f 51 52 49
f 49 52 50
f 53 54 52
f 51 55 53
f 46 55 51
f 45 55 46
f 44 55 45
f 42 55 44
f 40 55 42
f 38 55 40
f 34 55 38
f 36 55 34
f 31 55 36
f 32 55 31
f 30 55 32
f 56 55 30
f 56 30 29
f 56 29 28
f 56 28 27
f 56 27 24
f 56 24 23
f 56 23 20
f 19 56 20
f 16 56 19
f 15 56 16
f 12 56 15
f 11 56 12
f 8 56 11
f 6 56 8
f 57 56 6
f 58 56 57
f 58 59 56
f 60 61 62
f 60 62 59
f 60 59 58
f 63 61 60
f 64 65 61
f 64 61 63
f 66 67 68
f 66 68 65
f 66 65 64
f 69 67 66
f 70 71 72
f 70 72 67
f 70 67 69
f 73 71 70
f 74 75 71
f 74 71 73
f 76 77 78
f 76 78 75
f 76 75 74
f 79 77 76
f 80 77 79
f 80 81 82
f 80 82 77
f 83 81 80
f 84 85 81
f 84 81 83
f 86 85 84
f 86 87 85
f 88 87 86
f 88 89 87
f 90 89 88
f 90 91 92
f 90 92 89
f 93 91 90
f 94 91 93
f 94 95 96
f 94 96 91
f 97 95 94
f 98 95 97
f 98 99 95
f 100 101 99
f 100 99 98
f 102 103 104
f 102 104 101
f 102 101 100
f 105 106 103
f 105 103 102
f 107 108 105
f 107 105 102
f 52 51 53
f 109 110 8
f 109 111 110
f 110 1 8
f 110 112 1
f 1 112 113
f 2 1 113
f 114 115 11
f 116 115 114
f 2 114 11
f 113 114 2
f 117 118 12
f 117 119 118
f 118 4 12
f 118 120 4
f 4 120 121
f 5 4 121
f 122 123 15
f 124 123 122
f 5 122 15
f 121 122 5
f 125 126 16
f 125 127 126
f 126 7 16
f 126 128 7
f 7 128 129
f 9 7 129
f 130 131 19
f 132 131 130
f 9 130 19
f 129 130 9
f 133 134 20
f 133 135 134
f 134 10 20
f 134 136 10
f 10 136 137
f 13 10 137
f 138 139 23
f 140 139 138
f 13 138 23
f 137 138 13
f 141 142 24
f 141 143 142
f 142 14 24
f 142 144 14
f 14 144 145
f 17 14 145
f 146 147 27
f 148 147 146
f 17 146 27
f 145 146 17
f 149 150 28
f 149 151 150
f 150 18 28
f 150 152 18
f 18 152 153
f 21 18 153
f 154 155 29
f 156 155 154
f 21 154 29
f 153 154 21
f 157 158 30
f 157 159 158
f 158 22 30
f 158 160 22
f 22 160 161
f 25 22 161
f 162 163 32
f 164 163 162
f 25 162 32
f 161 162 25
f 165 166 31
f 165 167 166
f 166 26 31
f 166 168 26
f 26 168 169
f 33 26 169
f 170 171 36
f 172 171 170
f 33 170 36
f 169 170 33
f 173 174 34
f 173 175 174
f 174 35 34
f 174 176 35
f 35 176 177
f 37 35 177
f 178 179 38
f 180 179 178
f 37 178 38
f 177 178 37
f 181 182 40
f 181 183 182
f 182 39 40
f 182 184 39
f 39 184 185
f 41 39 185
f 186 187 42
f 188 187 186
f 41 186 42
f 185 186 41
f 189 190 44
f 189 191 190
f 190 43 44
f 190 192 43
f 43 192 193
f 47 43 193
f 194 195 45
f 196 195 194
f 47 194 45
f 193 194 47
f 197 198 46
f 197 199 198
f 198 48 46
f 198 200 48
f 48 200 201
f 49 48 201
f 202 203 51
f 204 203 202
f 49 202 51
f 201 202 49
f 52 54 205
f 205 206 50
f 205 207 206
f 50 52 205
f 208 50 206
f 3 50 208
f 209 208 210
f 209 3 208
f 211 212 3
f 211 3 209
f 213 211 209
f 214 212 211
f 215 216 3
f 217 215 3
f 218 217 3
f 6 3 216
f 219 218 3
f 57 6 216
f 220 219 3
f 221 220 3
f 60 58 215
f 60 215 217
f 222 221 3
f 223 222 3
f 64 63 218
f 64 218 219
f 224 223 3
f 66 220 221
f 225 224 3
f 69 66 221
f 226 225 3
f 227 226 3
f 73 70 222
f 73 222 223
f 228 227 3
f 74 224 225
f 229 228 3
f 76 74 225
f 80 226 227
f 80 79 226
f 83 228 229
f 84 83 229
f 88 230 231
f 88 86 230
f 93 90 232
f 93 232 233
f 97 94 234
f 97 234 235
f 100 98 236
f 100 236 237
f 212 238 237
f 212 229 3
f 212 236 235
f 212 231 230
f 212 234 233
f 212 232 231
f 212 233 232
f 212 230 229
f 212 235 234
f 212 237 236
f 107 102 238
f 107 238 212
f 8 11 109
f 109 11 115
f 12 15 117
f 117 15 123
f 16 19 125
f 125 19 131
f 20 23 133
f 133 23 139
f 24 27 141
f 141 27 147
f 28 29 149
f 149 29 155
f 30 32 157
f 157 32 163
f 31 36 165
f 165 36 171
f 34 38 173
f 173 38 179
f 40 42 181
f 181 42 187
f 44 45 189
f 189 45 195
f 46 51 197
f 197 51 203
f 239 240 54
f 239 241 240
f 53 242 54
f 54 242 239
f 55 243 53
f 53 243 242
f 55 244 243
f 242 245 246
f 243 245 242
f 55 247 244
f 248 249 55
f 55 249 247
f 244 250 251
f 247 250 244
f 249 252 253
f 248 252 249
f 254 56 255
f 256 56 254
f 257 258 259
f 260 254 258
f 260 256 254
f 260 258 257
f 261 260 257
f 261 262 263
f 264 261 257
f 264 262 261
f 265 264 257
f 266 267 265
f 266 265 257
f 266 268 267
f 269 266 257
f 270 271 269
f 270 272 271
f 273 274 275
f 273 275 276
f 277 278 279
f 277 279 280
f 281 282 283
f 281 283 284
f 285 286 287
f 285 287 288
f 289 290 291
f 292 290 289
f 293 294 295
f 296 294 293
f 297 298 299
f 297 300 298
f 301 302 303
f 301 304 302
f 305 306 307
f 55 304 307
f 55 307 306
f 308 55 306
f 309 303 297
f 309 299 296
f 309 293 292
f 309 292 289
f 309 296 293
f 309 297 299
f 309 301 303
f 309 305 301
f 55 56 256
f 55 256 263
f 55 263 262
f 55 262 267
f 55 267 268
f 55 268 271
f 55 271 272
f 55 272 275
f 55 275 274
f 55 274 279
f 55 279 278
f 55 278 283
f 55 283 282
f 55 282 287
f 55 287 286
f 55 286 291
f 55 291 290
f 55 290 295
f 55 295 294
f 55 294 298
f 55 298 300
f 55 300 302
f 55 302 304
f 257 309 289
f 257 289 285
f 257 285 288
f 257 288 281
f 257 281 284
f 257 284 277
f 257 277 280
f 257 280 273
f 257 273 276
f 257 276 270
f 257 270 269
f 309 306 305
f 56 59 310
f 56 310 255
f 59 62 311
f 59 311 310
f 62 61 312
f 62 312 311
f 61 65 313
f 61 313 312
f 65 68 314
f 65 314 313
f 68 67 315
f 68 315 314
f 67 72 316
f 67 316 315
f 72 71 317
f 72 317 316
f 71 75 318
f 71 318 317
f 75 78 319
f 75 319 318
f 78 77 320
f 78 320 319
f 77 82 321
f 77 321 320
f 82 81 322
f 82 322 321
f 81 85 323
f 81 323 322
f 85 87 324
f 85 324 323
f 87 89 325
f 87 325 324
f 89 92 326
f 89 326 325
f 92 91 327
f 92 327 326
f 91 96 328
f 91 328 327
f 96 95 329
f 96 329 328
f 95 99 330
f 95 330 329
f 99 101 331
f 99 331 330
f 101 104 332
f 101 332 331
f 104 103 333
f 104 333 332
f 103 106 334
f 103 334 333
f 335 336 337
f 337 336 108
f 336 338 108
f 339 340 341
f 341 340 338
f 340 105 338
f 338 105 108
f 342 343 344
f 344 343 345
f 346 347 348
f 347 106 343
f 345 106 340
f 343 106 345
f 340 106 105
f 347 349 106
f 346 349 347
f 108 107 350
f 351 212 214
f 351 350 212
f 352 350 351
f 107 212 350
f 58 57 353
f 353 57 354
f 63 60 355
f 355 60 356
f 66 64 357
f 357 64 358
f 70 69 359
f 359 69 360
f 74 73 361
f 361 73 362
f 79 76 363
f 363 76 364
f 83 80 365
f 365 80 366
f 86 84 367
f 367 84 368
f 90 88 369
f 369 88 370
f 94 93 371
f 371 93 372
f 98 97 373
f 373 97 374
f 102 100 375
f 375 100 376
f 115 116 109
f 109 116 111
f 114 110 116
f 116 110 111
f 113 112 110
f 113 110 114
f 123 124 117
f 117 124 119
f 122 118 124
f 124 118 119
f 121 120 118
f 121 118 122
f 131 132 125
f 125 132 127
f 130 126 132
f 132 126 127
f 129 128 126
f 129 126 130
f 139 140 133
f 133 140 135
f 138 134 140
f 140 134 135
f 137 136 134
f 137 134 138
f 147 148 141
f 141 148 143
f 146 142 148
f 148 142 143
f 145 144 142
f 145 142 146
f 155 156 149
f 149 156 151
f 154 150 156
f 156 150 151
f 153 152 150
f 153 150 154
f 163 164 157
f 157 164 159
f 162 158 164
f 164 158 159
f 161 160 158
f 161 158 162
f 171 172 165
f 165 172 167
f 170 166 172
f 172 166 167
f 169 168 166
f 169 166 170
f 179 180 173
f 173 180 175
f 178 174 180
f 180 174 175
f 177 176 174
f 177 174 178
f 187 188 181
f 181 188 183
f 186 182 188
f 188 182 183
f 185 184 182
f 185 182 186
f 195 196 189
f 189 196 191
f 194 190 196
f 196 190 191
f 193 192 190
f 193 190 194
f 203 204 197
f 197 204 199
f 202 198 204
f 204 198 199
f 201 200 198
f 201 198 202
f 240 377 54
f 54 377 205
f 378 205 377
f 379 378 377
f 380 205 378
f 381 205 380
f 382 380 383
f 382 381 380
f 384 385 386
f 384 387 385
f 207 387 388
f 207 385 387
f 389 390 207
f 389 388 391
f 389 207 388
f 207 205 385
f 385 205 381
f 207 390 206
f 206 390 392
f 390 393 392
f 392 394 395
f 210 208 206
f 210 206 392
f 210 392 395
f 396 209 210
f 213 209 396
f 397 214 211
f 397 211 213
f 398 399 397
f 398 397 213
f 398 213 396
f 395 396 210
f 400 354 57
f 401 354 400
f 216 400 57
f 402 400 216
f 215 403 402
f 216 215 402
f 353 404 58
f 353 405 404
f 404 215 58
f 404 403 215
f 406 356 60
f 407 356 406
f 217 406 60
f 408 406 217
f 218 409 408
f 217 218 408
f 355 410 63
f 355 411 410
f 410 218 63
f 410 409 218
f 412 358 64
f 413 358 412
f 219 412 64
f 414 412 219
f 220 415 414
f 219 220 414
f 357 416 66
f 357 417 416
f 416 220 66
f 416 415 220
f 418 360 69
f 419 360 418
f 221 418 69
f 420 418 221
f 222 421 420
f 221 222 420
f 359 422 70
f 359 423 422
f 422 222 70
f 422 421 222
f 424 362 73
f 425 362 424
f 223 424 73
f 426 424 223
f 224 427 426
f 223 224 426
f 361 428 74
f 361 429 428
f 428 224 74
f 428 427 224
f 430 364 76
f 431 364 430
f 225 430 76
f 432 430 225
f 226 433 432
f 225 226 432
f 363 434 79
f 363 435 434
f 434 226 79
f 434 433 226
f 436 366 80
f 437 366 436
f 227 436 80
f 438 436 227
f 227 228 439
f 227 439 438
f 365 440 83
f 365 441 440
f 440 228 83
f 440 439 228
f 442 368 84
f 443 368 442
f 229 442 84
f 444 442 229
f 229 230 445
f 229 445 444
f 367 446 86
f 367 447 446
f 446 230 86
f 446 445 230
f 448 370 88
f 449 370 448
f 231 448 88
f 450 448 231
f 231 232 451
f 231 451 450
f 369 452 90
f 369 453 452
f 452 232 90
f 452 451 232
f 454 372 93
f 455 372 454
f 233 454 93
f 456 454 233
f 233 234 457
f 233 457 456
f 371 458 94
f 371 459 458
f 458 234 94
f 458 457 234
f 460 374 97
f 461 374 460
f 235 460 97
f 462 460 235
f 235 236 463
f 235 463 462
f 373 464 98
f 373 465 464
f 464 236 98
f 464 463 236
f 466 376 100
f 467 376 466
f 237 466 100
f 468 466 237
f 237 238 469
f 237 469 468
f 375 470 102
f 375 471 470
f 470 238 102
f 470 469 238
f 390 248 472
f 389 252 390
f 252 248 390
f 391 253 252
f 391 252 389
f 249 253 391
f 249 391 388
f 247 249 388
f 247 388 387
f 250 247 387
f 250 387 384
f 386 251 250
f 386 250 384
f 244 251 386
f 244 386 385
f 243 244 385
f 243 385 381
f 245 243 381
f 245 381 382
f 383 246 245
f 383 245 382
f 242 246 383
f 242 383 380
f 239 242 380
f 239 380 378
f 241 239 378
f 241 378 379
f 377 240 241
f 377 241 379
f 55 308 248
f 248 308 472
f 306 472 308
f 306 473 472
f 472 393 390
f 473 393 472
f 393 474 475
f 473 474 393
f 473 476 477
f 306 309 476
f 306 476 473
f 478 479 480
f 479 481 480
f 479 482 481
f 479 483 482
f 479 484 483
f 479 485 484
f 479 486 485
f 479 487 486
f 479 488 487
f 479 489 488
f 479 490 489
f 491 492 493
f 493 492 494
f 494 492 495
f 495 492 496
f 496 492 497
f 497 492 498
f 498 492 499
f 499 492 500
f 500 492 257
f 492 309 257
f 492 476 309
f 479 492 491
f 479 491 501
f 479 501 502
f 479 502 503
f 479 503 504
f 479 504 490
f 259 505 500
f 259 500 257
f 506 259 258
f 507 506 258
f 258 254 508
f 258 508 507
f 255 509 254
f 509 508 254
f 300 297 510
f 510 297 511
f 300 510 302
f 510 512 302
f 511 297 303
f 513 511 303
f 303 302 512
f 303 512 513
f 294 296 514
f 514 296 515
f 294 514 298
f 514 516 298
f 515 296 299
f 517 515 299
f 299 298 516
f 299 516 517
f 290 292 518
f 518 292 519
f 290 518 295
f 518 520 295
f 519 292 293
f 521 519 293
f 293 295 520
f 293 520 521
f 286 285 522
f 522 285 523
f 286 522 291
f 522 524 291
f 523 285 289
f 525 523 289
f 289 291 524
f 289 524 525
f 272 270 526
f 526 270 527
f 272 526 275
f 526 528 275
f 527 270 276
f 529 527 276
f 276 275 528
f 276 528 529
f 274 273 530
f 530 273 531
f 274 530 279
f 530 532 279
f 531 273 280
f 533 531 280
f 280 279 532
f 280 532 533
f 278 277 534
f 534 277 535
f 278 534 283
f 534 536 283
f 535 277 284
f 537 535 284
f 284 283 536
f 284 536 537
f 282 281 538
f 538 281 539
f 282 538 287
f 538 540 287
f 539 281 288
f 541 539 288
f 288 287 540
f 288 540 541
f 256 260 542
f 542 260 543
f 256 542 263
f 542 544 263
f 543 260 261
f 545 543 261
f 261 263 544
f 261 544 545
f 262 264 546
f 546 264 547
f 262 546 267
f 546 548 267
f 547 264 265
f 549 547 265
f 265 267 548
f 265 548 549
f 268 266 550
f 550 266 551
f 268 550 271
f 550 552 271
f 551 266 269
f 553 551 269
f 269 271 552
f 269 552 553
f 304 301 554
f 554 301 555
f 304 554 307
f 554 556 307
f 555 301 305
f 557 555 305
f 305 307 556
f 305 556 557
f 310 505 259
f 255 310 259
f 311 558 310
f 558 559 310
f 311 312 560
f 311 560 561
f 313 562 312
f 562 563 312
f 313 314 564
f 313 564 565
f 315 566 314
f 566 567 314
f 315 316 568
f 315 568 569
f 317 570 316
f 570 571 316
f 317 318 572
f 317 572 573
f 319 574 318
f 574 575 318
f 319 320 576
f 319 576 577
f 321 578 320
f 578 579 320
f 321 322 580
f 321 580 581
f 323 582 322
f 582 583 322
f 323 324 584
f 323 584 585
f 325 586 324
f 586 587 324
f 325 326 588
f 325 588 589
f 590 591 327
f 327 591 326
f 327 328 592
f 327 592 593
f 329 594 328
f 594 595 328
f 329 330 596
f 329 596 597
f 598 599 331
f 331 599 330
f 331 332 600
f 331 600 601
f 602 603 333
f 333 603 332
f 334 106 349
f 604 334 349
f 605 334 604
f 606 334 605
f 606 607 608
f 333 606 608
f 333 334 606
f 337 609 335
f 335 609 610
f 336 335 610
f 336 610 611
f 338 336 611
f 338 611 612
f 341 338 612
f 341 612 613
f 341 613 339
f 339 613 614
f 340 339 614
f 340 614 615
f 345 340 615
f 345 615 616
f 344 345 616
f 344 616 617
f 344 617 342
f 342 617 618
f 343 342 618
f 343 618 619
f 347 343 619
f 347 619 620
f 348 347 620
f 348 620 621
f 348 621 346
f 346 621 622
f 623 346 622
f 604 349 623
f 349 346 623
f 108 350 337
f 337 350 609
f 611 610 609
f 611 609 350
f 612 611 350
f 615 614 613
f 615 613 612
f 615 612 350
f 619 618 617
f 619 617 616
f 620 622 621
f 352 620 619
f 352 619 616
f 352 622 620
f 623 622 352
f 350 352 616
f 350 616 615
f 351 214 397
f 623 352 351
f 624 351 397
f 624 623 351
f 354 401 353
f 353 401 405
f 356 407 355
f 355 407 411
f 358 413 357
f 357 413 417
f 360 419 359
f 359 419 423
f 362 429 361
f 362 425 429
f 364 435 363
f 364 431 435
f 366 441 365
f 366 437 441
f 368 447 367
f 368 443 447
f 370 453 369
f 370 449 453
f 372 459 371
f 372 455 459
f 374 465 373
f 374 461 465
f 376 471 375
f 376 467 471
f 393 475 392
f 392 475 394
f 475 474 394
f 394 474 395
f 474 477 395
f 474 473 477
f 477 396 395
f 477 625 396
f 626 624 397
f 626 397 399
f 627 626 399
f 627 399 398
f 628 627 398
f 629 627 628
f 396 628 398
f 625 628 396
f 400 404 401
f 401 404 405
f 402 403 404
f 402 404 400
f 406 410 407
f 407 410 411
f 408 409 410
f 408 410 406
f 412 416 413
f 413 416 417
f 414 415 416
f 414 416 412
f 418 422 419
f 419 422 423
f 420 421 422
f 420 422 418
f 424 428 425
f 425 428 429
f 426 427 428
f 426 428 424
f 430 434 431
f 431 434 435
f 432 433 434
f 432 434 430
f 436 440 437
f 437 440 441
f 438 439 440
f 438 440 436
f 442 446 443
f 443 446 447
f 444 445 446
f 444 446 442
f 448 452 449
f 449 452 453
f 450 451 452
f 450 452 448
f 454 458 455
f 455 458 459
f 456 457 458
f 456 458 454
f 460 464 461
f 461 464 465
f 462 463 464
f 462 464 460
f 466 470 467
f 467 470 471
f 468 469 470
f 468 470 466
f 628 625 479
f 479 625 492
f 492 477 476
f 625 477 492
f 607 630 479
f 607 479 478
f 606 630 607
f 499 500 561
f 561 500 505
f 561 560 498
f 561 498 499
f 497 498 565
f 565 498 560
f 565 564 496
f 565 496 497
f 495 496 569
f 569 496 564
f 569 568 494
f 569 494 495
f 493 494 573
f 573 494 568
f 573 572 491
f 573 491 493
f 501 491 577
f 577 491 572
f 577 576 502
f 577 502 501
f 503 502 581
f 581 502 576
f 581 580 504
f 581 504 503
f 490 504 585
f 585 504 580
f 585 584 489
f 585 489 490
f 488 489 589
f 589 489 584
f 589 588 487
f 589 487 488
f 486 487 593
f 593 487 588
f 593 592 485
f 593 485 486
f 484 485 597
f 597 485 592
f 597 596 483
f 597 483 484
f 482 483 601
f 601 483 596
f 601 600 481
f 601 481 482
f 480 481 608
f 608 481 600
f 608 607 478
f 608 478 480
f 255 259 509
f 509 259 506
f 507 508 509
f 507 509 506
f 513 512 510
f 513 510 511
f 517 516 514
f 517 514 515
f 521 520 518
f 521 518 519
f 525 524 522
f 525 522 523
f 529 528 526
f 529 526 527
f 533 532 530
f 533 530 531
f 537 536 534
f 537 534 535
f 541 540 538
f 541 538 539
f 545 544 542
f 545 542 543
f 549 548 546
f 549 546 547
f 553 552 550
f 553 550 551
f 557 556 554
f 557 554 555
f 505 310 559
f 505 559 631
f 311 561 558
f 558 561 632
f 631 559 558
f 631 558 632
f 560 312 563
f 560 563 633
f 313 565 562
f 562 565 634
f 633 563 562
f 633 562 634
f 564 314 567
f 564 567 635
f 315 569 566
f 566 569 636
f 635 567 566
f 635 566 636
f 568 316 571
f 568 571 637
f 317 573 570
f 570 573 638
f 637 571 570
f 637 570 638
f 572 318 575
f 572 575 639
f 319 577 574
f 574 577 640
f 639 575 574
f 639 574 640
f 576 320 579
f 576 579 641
f 321 581 578
f 578 581 642
f 641 579 578
f 641 578 642
f 580 322 583
f 580 583 643
f 323 585 582
f 582 585 644
f 643 583 582
f 643 582 644
f 584 324 587
f 584 587 645
f 325 589 586
f 586 589 646
f 645 587 586
f 645 586 646
f 588 326 591
f 588 591 647
f 327 593 590
f 590 593 648
f 647 591 590
f 647 590 648
f 592 328 595
f 592 595 649
f 329 597 594
f 594 597 650
f 649 595 594
f 649 594 650
f 596 330 599
f 596 599 651
f 331 601 598
f 598 601 652
f 651 599 598
f 651 598 652
f 600 332 603
f 600 603 653
f 333 608 602
f 602 608 654
f 653 603 602
f 653 602 654
f 627 624 626
f 624 604 623
f 604 606 605
f 604 630 606
f 624 630 604
f 627 629 624
f 624 629 630
f 630 629 628
f 630 628 479
f 632 561 505
f 631 632 505
f 634 565 560
f 633 634 560
f 636 569 564
f 635 636 564
f 638 573 568
f 637 638 568
f 640 577 572
f 639 640 572
f 642 581 576
f 641 642 576
f 644 585 580
f 643 644 580
f 646 589 584
f 645 646 584
f 647 648 593
f 647 593 588
f 650 597 592
f 649 650 592
f 651 652 601
f 651 601 596
f 653 654 608
f 653 608 600
