# Generated from Header_1x04.step
mtllib Header_1x04.mtl
v -1.01600 1.27000 0.00000
v -1.27000 1.01600 0.00000
v -1.01600 1.27000 2.54000
v -1.27000 1.01600 2.54000
v 1.01600 1.27000 0.00000
v 1.01600 1.27000 2.54000
v -1.27000 -1.01600 0.00000
v -1.27000 -1.01600 2.54000
v -1.27000 -8.63600 0.00000
v -0.32000 -7.94000 0.00000
v -1.01600 -8.89000 0.00000
v 0.32000 -7.94000 0.00000
v 1.01600 -8.89000 0.00000
v -1.27000 -6.60400 0.00000
v -0.32000 -7.30000 0.00000
v -1.01600 -6.35000 0.00000
v 1.27000 -8.63600 0.00000
v 0.32000 -7.30000 0.00000
v -1.27000 -6.09600 0.00000
v -0.32000 -5.40000 0.00000
v 1.27000 -6.60400 0.00000
v 1.01600 -6.35000 0.00000
v 0.32000 -5.40000 0.00000
v -1.27000 -4.06400 0.00000
v -0.32000 -4.76000 0.00000
v 1.27000 -6.09600 0.00000
v -1.01600 -3.81000 0.00000
v -1.27000 -3.55600 0.00000
v -0.32000 -2.86000 0.00000
v 0.32000 -4.76000 0.00000
v 1.27000 -4.06400 0.00000
v 1.01600 -3.81000 0.00000
v -1.27000 -1.52400 0.00000
v -0.32000 -2.22000 0.00000
v 0.32000 -2.86000 0.00000
v 1.27000 -3.55600 0.00000
v -1.01600 -1.27000 0.00000
v -0.32000 -0.32000 0.00000
v 0.32000 -2.22000 0.00000
v 1.27000 -1.52400 0.00000
v 1.01600 -1.27000 0.00000
v 0.32000 -0.32000 0.00000
v -0.32000 0.32000 0.00000
v 1.27000 -1.01600 0.00000
v 0.32000 0.32000 0.00000
v 1.27000 1.01600 0.00000
v -0.32000 -7.94000 2.54000
v -1.27000 -8.63600 2.54000
v -1.01600 -8.89000 2.54000
v 0.32000 -7.94000 2.54000
v 1.01600 -8.89000 2.54000
v -0.32000 -7.30000 2.54000
v -1.27000 -6.60400 2.54000
v -1.01600 -6.35000 2.54000
v 1.27000 -8.63600 2.54000
v 0.32000 -7.30000 2.54000
v -0.32000 -5.40000 2.54000
v -1.27000 -6.09600 2.54000
v 1.27000 -6.60400 2.54000
v 1.01600 -6.35000 2.54000
v 0.32000 -5.40000 2.54000
v -0.32000 -4.76000 2.54000
v -1.27000 -4.06400 2.54000
v 1.27000 -6.09600 2.54000
v -1.01600 -3.81000 2.54000
v -0.32000 -2.86000 2.54000
v -1.27000 -3.55600 2.54000
v 1.27000 -4.06400 2.54000
v 0.32000 -4.76000 2.54000
v 1.01600 -3.81000 2.54000
v -0.32000 -2.22000 2.54000
v -1.27000 -1.52400 2.54000
v 0.32000 -2.86000 2.54000
v 1.27000 -3.55600 2.54000
v -1.01600 -1.27000 2.54000
v -0.32000 -0.32000 2.54000
v 0.32000 -2.22000 2.54000
v 1.27000 -1.52400 2.54000
v 1.01600 -1.27000 2.54000
v 0.32000 -0.32000 2.54000
v -0.32000 0.32000 2.54000
v 1.27000 -1.01600 2.54000
v 0.32000 0.32000 2.54000
v 1.27000 1.01600 2.54000
v 0.32000 -4.76000 -2.84000
v -0.32000 -4.76000 -2.84000
v -0.32000 -5.40000 -2.84000
v 0.32000 -5.40000 -2.84000
v 0.32000 -7.94000 -2.84000
v 0.32000 -7.30000 -2.84000
v -0.32000 -7.30000 -2.84000
v -0.32000 -7.94000 -2.84000
v 0.32000 -0.32000 -2.84000
v 0.32000 0.32000 -2.84000
v -0.32000 0.32000 -2.84000
v -0.32000 -0.32000 -2.84000
v 0.32000 -2.22000 -2.84000
v -0.32000 -2.22000 -2.84000
v -0.32000 -2.86000 -2.84000
v 0.32000 -2.86000 -2.84000
v 0.32000 -4.76000 8.38000
v -0.32000 -4.76000 8.38000
v -0.32000 -5.40000 8.38000
v 0.32000 -5.40000 8.38000
v 0.32000 -7.94000 8.38000
v 0.32000 -7.30000 8.38000
v -0.32000 -7.30000 8.38000
v -0.32000 -7.94000 8.38000
v 0.32000 -0.32000 8.38000
v 0.32000 0.32000 8.38000
v -0.32000 0.32000 8.38000
v -0.32000 -0.32000 8.38000
v 0.32000 -2.22000 8.38000
v -0.32000 -2.22000 8.38000
v -0.32000 -2.86000 8.38000
v 0.32000 -2.86000 8.38000
v 0.16000 -4.92000 -3.00000
v -0.16000 -4.92000 -3.00000
v -0.16000 -5.24000 -3.00000
v 0.16000 -5.24000 -3.00000
v 0.16000 -7.78000 -3.00000
v 0.16000 -7.46000 -3.00000
v -0.16000 -7.46000 -3.00000
v -0.16000 -7.78000 -3.00000
v 0.16000 -0.16000 -3.00000
v 0.16000 0.16000 -3.00000
v -0.16000 0.16000 -3.00000
v -0.16000 -0.16000 -3.00000
v 0.16000 -2.38000 -3.00000
v -0.16000 -2.38000 -3.00000
v -0.16000 -2.70000 -3.00000
v 0.16000 -2.70000 -3.00000
v -0.16000 -4.92000 8.54000
v 0.16000 -4.92000 8.54000
v -0.16000 -5.24000 8.54000
v 0.16000 -5.24000 8.54000
v 0.16000 -7.78000 8.54000
v 0.16000 -7.46000 8.54000
v -0.16000 -7.46000 8.54000
v -0.16000 -7.78000 8.54000
v 0.16000 0.16000 8.54000
v 0.16000 -0.16000 8.54000
v -0.16000 0.16000 8.54000
v -0.16000 -0.16000 8.54000
v -0.16000 -2.38000 8.54000
v 0.16000 -2.38000 8.54000
v -0.16000 -2.70000 8.54000
v 0.16000 -2.70000 8.54000

g Solid_0
usemtl Solid_0
f 1 2 3
f 3 2 4
f 5 1 6
f 6 1 3
f 2 7 4
f 4 7 8
f 9 10 11
f 11 12 13
f 10 12 11
f 14 15 9
f 9 15 10
f 14 16 15
f 12 17 13
f 12 18 17
f 19 20 16
f 16 20 15
f 18 21 17
f 22 21 18
f 15 23 18
f 20 23 15
f 18 23 22
f 24 25 19
f 19 25 20
f 23 26 22
f 24 27 25
f 28 29 27
f 27 29 25
f 30 31 23
f 23 31 26
f 32 31 30
f 33 34 28
f 28 34 29
f 25 35 30
f 29 35 25
f 30 35 32
f 35 36 32
f 33 37 34
f 7 38 37
f 37 38 34
f 34 38 39
f 35 40 36
f 39 40 35
f 39 41 40
f 7 2 38
f 39 42 41
f 38 42 39
f 2 43 38
f 2 1 43
f 42 44 41
f 1 45 43
f 1 5 45
f 42 46 44
f 5 46 45
f 45 46 42
f 47 48 49
f 50 49 51
f 50 47 49
f 52 53 48
f 52 48 47
f 54 53 52
f 55 50 51
f 56 50 55
f 57 58 54
f 57 54 52
f 59 56 55
f 59 60 56
f 61 52 56
f 61 57 52
f 61 56 60
f 62 63 58
f 62 58 57
f 64 61 60
f 65 63 62
f 66 67 65
f 66 65 62
f 68 69 61
f 68 61 64
f 68 70 69
f 71 72 67
f 71 67 66
f 73 62 69
f 73 66 62
f 73 69 70
f 74 73 70
f 75 72 71
f 76 8 75
f 76 75 71
f 76 71 77
f 78 73 74
f 78 77 73
f 79 77 78
f 4 8 76
f 80 77 79
f 80 76 77
f 81 4 76
f 3 4 81
f 82 80 79
f 83 3 81
f 6 3 83
f 84 80 82
f 84 6 83
f 84 83 80
f 46 5 84
f 84 5 6
f 7 37 8
f 8 37 75
f 44 46 82
f 82 46 84
f 37 33 75
f 75 33 72
f 41 44 79
f 79 44 82
f 33 28 72
f 72 28 67
f 40 41 78
f 78 41 79
f 28 27 67
f 67 27 65
f 36 40 74
f 74 40 78
f 27 24 65
f 65 24 63
f 32 36 70
f 70 36 74
f 24 19 63
f 63 19 58
f 31 32 68
f 68 32 70
f 19 16 58
f 58 16 54
f 26 31 64
f 64 31 68
f 16 14 54
f 54 14 53
f 22 26 60
f 60 26 64
f 14 9 53
f 53 9 48
f 21 22 59
f 59 22 60
f 9 11 48
f 48 11 49
f 17 21 55
f 55 21 59
f 11 13 49
f 49 13 51
f 13 17 51
f 51 17 55
f 30 85 86
f 30 86 25
f 87 20 86
f 86 20 25
f 88 23 87
f 87 23 20
f 23 88 85
f 23 85 30
f 12 89 90
f 12 90 18
f 18 90 91
f 18 91 15
f 92 10 91
f 91 10 15
f 89 12 92
f 92 12 10
f 42 93 94
f 42 94 45
f 45 94 95
f 45 95 43
f 96 38 95
f 95 38 43
f 93 42 96
f 96 42 38
f 39 97 98
f 39 98 34
f 99 29 98
f 98 29 34
f 100 35 99
f 99 35 29
f 35 100 97
f 35 97 39
f 101 69 62
f 101 62 102
f 57 103 62
f 62 103 102
f 61 104 57
f 57 104 103
f 104 61 69
f 104 69 101
f 105 50 56
f 105 56 106
f 106 56 52
f 106 52 107
f 47 108 52
f 52 108 107
f 50 105 47
f 47 105 108
f 109 80 83
f 109 83 110
f 110 83 81
f 110 81 111
f 76 112 81
f 81 112 111
f 80 109 76
f 76 109 112
f 113 77 71
f 113 71 114
f 66 115 71
f 71 115 114
f 73 116 66
f 66 116 115
f 116 73 77
f 116 77 113
f 117 118 85
f 85 118 86
f 118 119 87
f 118 87 86
f 119 120 88
f 119 88 87
f 120 85 88
f 120 117 85
f 121 90 89
f 121 122 90
f 122 123 90
f 90 123 91
f 123 124 92
f 123 92 91
f 124 121 89
f 124 89 92
f 125 126 93
f 93 126 94
f 126 127 94
f 94 127 95
f 127 128 96
f 127 96 95
f 128 125 93
f 128 93 96
f 129 130 97
f 97 130 98
f 130 131 99
f 130 99 98
f 131 132 100
f 131 100 99
f 132 97 100
f 132 129 97
f 133 134 101
f 133 101 102
f 135 133 103
f 103 133 102
f 136 135 104
f 104 135 103
f 101 136 104
f 134 136 101
f 106 137 105
f 138 137 106
f 139 138 106
f 139 106 107
f 140 139 108
f 108 139 107
f 137 140 105
f 105 140 108
f 141 142 109
f 141 109 110
f 143 141 110
f 143 110 111
f 144 143 112
f 112 143 111
f 142 112 109
f 142 144 112
f 145 146 113
f 145 113 114
f 147 145 115
f 115 145 114
f 148 147 116
f 116 147 115
f 113 148 116
f 146 148 113
f 118 117 119
f 119 117 120
f 123 122 124
f 124 122 121
f 127 126 128
f 128 126 125
f 130 129 131
f 131 129 132
f 134 133 135
f 134 135 136
f 138 139 140
f 138 140 137
f 141 143 144
f 141 144 142
f 146 145 147
f 146 147 148
