# Generated from JST_B6B-XH-A_6pin.step
mtllib JST_B6B-XH-A_6pin.mtl
v -6.90000 6.35000 2.87500
v -6.90000 6.35000 2.17500
v -6.86694 6.35369 2.17500
v -6.86662 6.35376 2.87500
v -6.83551 6.36457 2.17500
v -6.83492 6.36485 2.87500
v -6.80725 6.38211 2.17500
v -6.80648 6.38273 2.87500
v -6.78355 6.40546 2.17500
v -6.78273 6.40648 2.87500
v -6.76557 6.43344 2.17500
v -6.76485 6.43492 2.87500
v -6.75421 6.46471 2.17500
v -6.75376 6.46662 2.87500
v -6.75002 6.49771 2.17500
v -6.75000 6.50000 2.87500
v -6.75000 6.50000 2.17632
v 8.70000 7.00000 1.65000
v 8.29000 7.00000 2.46500
v 8.70000 7.00000 2.87500
v 8.29000 7.00000 1.65000
v 6.90000 7.00000 2.87500
v 6.90000 7.00000 2.46500
v -5.60000 7.00000 2.87500
v 5.60000 7.00000 2.87500
v 5.60000 7.00000 2.46500
v -5.60000 7.00000 2.46500
v -6.90000 0.80000 2.87500
v -8.70000 0.00000 2.87500
v -6.90000 0.00000 2.87500
v -4.40000 0.80000 2.87500
v -5.60000 0.80000 2.87500
v -5.60000 0.00000 2.87500
v -4.40000 0.00000 2.87500
v -6.75819 4.24473 2.87500
v -6.65527 4.14181 2.87500
v -6.53202 4.06437 2.87500
v -6.83563 4.36798 2.87500
v -6.39464 4.01630 2.87500
v -6.88370 4.50536 2.87500
v -6.25000 4.00000 2.87500
v -8.70000 7.00000 2.87500
v -6.90000 4.65000 2.87500
v -5.60000 4.00000 2.87500
v -3.10000 0.80000 2.87500
v -1.90000 0.80000 2.87500
v -3.10000 0.00000 2.87500
v -1.90000 0.00000 2.87500
v -6.90000 6.65000 2.87500
v -6.86662 6.64624 2.87500
v -6.75376 6.53338 2.87500
v -6.83492 6.63515 2.87500
v -6.80648 6.61727 2.87500
v -6.76485 6.56508 2.87500
v -6.78273 6.59352 2.87500
v -6.90000 7.00000 2.87500
v -0.60000 0.80000 2.87500
v 0.60000 -0.00000 2.87500
v -0.60000 0.00000 2.87500
v 0.60000 0.80000 2.87500
v 3.10000 -0.00000 2.87500
v 1.90000 0.80000 2.87500
v 1.90000 -0.00000 2.87500
v 3.10000 0.80000 2.87500
v 5.60000 0.80000 2.87500
v 4.40000 0.80000 2.87500
v 4.40000 -0.00000 2.87500
v 5.60000 -0.00000 2.87500
v 8.70000 -0.00000 2.87500
v 6.90000 0.80000 2.87500
v 6.90000 -0.00000 2.87500
v 5.60000 4.00000 2.87500
v 6.25000 4.00000 2.87500
v 6.39464 4.01630 2.87500
v 6.53202 4.06437 2.87500
v 6.65527 4.14181 2.87500
v 6.75819 4.24473 2.87500
v 6.83563 4.36798 2.87500
v 6.88370 4.50536 2.87500
v 6.75975 6.44681 2.87500
v 6.77655 6.41479 2.87500
v 6.80053 6.38772 2.87500
v 6.86410 6.35436 2.87500
v 6.83029 6.36718 2.87500
v 6.90000 6.35000 2.87500
v 6.75109 6.51808 2.87500
v 6.75109 6.48192 2.87500
v 6.80053 6.61228 2.87500
v 6.77655 6.58521 2.87500
v 6.75975 6.55319 2.87500
v 6.83029 6.63282 2.87500
v 6.90000 6.65000 2.87500
v 6.86410 6.64564 2.87500
v 6.90000 4.65000 2.87500
v -8.00000 1.20000 2.17500
v -6.75819 4.24473 2.17500
v -6.65527 4.14181 2.17500
v -6.83563 4.36798 2.17500
v -6.53202 4.06437 2.17500
v -6.88370 4.50536 2.17500
v -6.39464 4.01630 2.17500
v -6.25000 4.00000 2.17500
v -5.60000 4.00000 2.17500
v -8.00000 6.49771 2.17500
v -6.90000 4.65000 2.17500
v 8.00000 1.20000 2.17500
v 5.60000 4.00000 2.17500
v 6.25000 4.00000 2.17500
v 6.39464 4.01630 2.17500
v 6.53202 4.06437 2.17500
v 6.65527 4.14181 2.17500
v 6.75819 4.24473 2.17500
v 6.83563 4.36798 2.17500
v 6.88370 4.50536 2.17500
v -5.60000 6.49771 2.17500
v 5.60000 6.49771 2.17500
v 6.80725 6.38211 2.17500
v 6.86694 6.35369 2.17500
v 6.83551 6.36457 2.17500
v 6.75002 6.49771 2.17500
v 6.90000 6.35000 2.17500
v 6.75421 6.46471 2.17500
v 6.76557 6.43344 2.17500
v 6.78355 6.40546 2.17500
v 8.00000 6.49771 2.17500
v 6.90000 4.65000 2.17500
v -8.29000 7.00000 2.46500
v -6.90000 7.00000 2.46500
v -8.70000 7.00000 1.65000
v -8.29000 7.00000 1.65000
v -5.60000 0.00000 2.17500
v -4.40000 0.00000 2.17500
v -3.10000 0.00000 2.17500
v -1.90000 0.00000 2.17500
v -0.60000 0.00000 2.17500
v 0.60000 -0.00000 2.17500
v 1.90000 -0.00000 2.17500
v 3.10000 -0.00000 2.17500
v 4.40000 -0.00000 2.17500
v 5.60000 -0.00000 2.17500
v 8.00000 -0.00000 2.17500
v 6.90000 -0.00000 2.17500
v 8.00000 -0.00000 -2.17500
v 8.70000 -0.00000 -2.87500
v 6.90000 -0.00000 -2.17500
v 6.90000 -0.00000 -2.87500
v 4.40000 -0.00000 -2.17500
v 4.40000 -0.00000 -2.87500
v 5.60000 -0.00000 -2.17500
v 5.60000 -0.00000 -2.87500
v 1.90000 -0.00000 -2.17500
v 1.90000 -0.00000 -2.87500
v 3.10000 -0.00000 -2.17500
v 3.10000 -0.00000 -2.87500
v -0.60000 0.00000 -2.17500
v -0.60000 0.00000 -2.87500
v 0.60000 -0.00000 -2.17500
v 0.60000 -0.00000 -2.87500
v -3.10000 0.00000 -2.17500
v -3.10000 0.00000 -2.87500
v -1.90000 0.00000 -2.17500
v -1.90000 0.00000 -2.87500
v -4.40000 0.00000 -2.17500
v -5.60000 0.00000 -2.17500
v -4.40000 0.00000 -2.87500
v -5.60000 0.00000 -2.87500
v -3.10000 0.80000 2.17500
v -4.40000 0.50000 2.17500
v -3.10000 0.50000 2.17500
v -4.40000 0.80000 2.17500
v -5.60000 0.80000 2.17500
v -6.90000 0.80000 2.17500
v -5.60000 0.50000 2.17500
v -6.90000 0.50000 2.17500
v 4.40000 0.80000 2.17500
v 3.10000 0.80000 2.17500
v 4.40000 0.50000 2.17500
v 3.10000 0.50000 2.17500
v -6.90000 0.80000 -2.17500
v -5.60000 0.80000 -2.17500
v -6.90000 0.50000 -2.17500
v -5.60000 0.50000 -2.17500
v -0.60000 0.80000 2.17500
v -1.90000 0.50000 2.17500
v -0.60000 0.50000 2.17500
v -1.90000 0.80000 2.17500
v 1.90000 0.80000 2.17500
v 0.60000 0.80000 2.17500
v 1.90000 0.50000 2.17500
v 0.60000 0.50000 2.17500
v 5.60000 0.80000 -2.17500
v 6.90000 0.50000 -2.17500
v 5.60000 0.50000 -2.17500
v 6.90000 0.80000 -2.17500
v 3.10000 0.80000 -2.17500
v 4.40000 0.80000 -2.17500
v 3.10000 0.50000 -2.17500
v 4.40000 0.50000 -2.17500
v 0.60000 0.80000 -2.17500
v 1.90000 0.80000 -2.17500
v 0.60000 0.50000 -2.17500
v 1.90000 0.50000 -2.17500
v 6.90000 0.80000 2.17500
v 5.60000 0.80000 2.17500
v 6.90000 0.50000 2.17500
v 5.60000 0.50000 2.17500
v -1.90000 0.80000 -2.17500
v -0.60000 0.80000 -2.17500
v -1.90000 0.50000 -2.17500
v -0.60000 0.50000 -2.17500
v -4.40000 0.80000 -2.17500
v -3.10000 0.80000 -2.17500
v -4.40000 0.50000 -2.17500
v -3.10000 0.50000 -2.17500
v -8.70000 4.75000 0.65000
v -8.70000 7.00000 -2.87500
v -8.70000 0.00000 -2.87500
v -8.70000 4.75000 1.15000
v -8.70000 4.76254 1.26126
v -8.70000 4.79952 1.36694
v -8.70000 4.85908 1.46174
v -8.70000 4.93826 1.54092
v -8.70000 5.03306 1.60048
v -8.70000 7.00000 0.65000
v -8.70000 5.25000 1.65000
v -8.70000 5.13874 1.63746
v 8.70000 7.00000 -2.87500
v 8.70000 4.75000 0.65000
v 8.70000 4.75000 1.15000
v 8.70000 4.76254 1.26126
v 8.70000 4.79952 1.36694
v 8.70000 4.85908 1.46174
v 8.70000 4.93826 1.54092
v 8.70000 5.03306 1.60048
v 8.70000 7.00000 0.65000
v 8.70000 5.25000 1.65000
v 8.70000 5.13874 1.63746
v -6.90000 0.80000 -2.87500
v -6.90000 0.00000 -2.87500
v -5.60000 0.80000 -2.87500
v -4.40000 0.80000 -2.87500
v -3.10000 0.80000 -2.87500
v -1.90000 0.80000 -2.87500
v -0.60000 0.80000 -2.87500
v 0.60000 0.80000 -2.87500
v 1.90000 0.80000 -2.87500
v 3.10000 0.80000 -2.87500
v 4.40000 0.80000 -2.87500
v 5.60000 0.80000 -2.87500
v 6.90000 0.80000 -2.87500
v 8.29000 7.00000 -2.46500
v 8.29000 7.00000 0.65000
v -8.29000 7.00000 -2.46500
v -8.29000 7.00000 0.65000
v -8.00000 0.00000 2.17500
v -6.90000 0.00000 2.17500
v -6.90000 0.00000 -2.17500
v -8.00000 0.00000 -2.17500
v -8.00000 6.49771 -2.17500
v -8.00000 4.75000 0.65000
v -8.00000 1.20000 -2.17500
v -8.00000 4.75000 1.15000
v -8.00000 4.76254 1.26126
v -8.00000 4.79952 1.36694
v -8.00000 4.85908 1.46174
v -8.00000 4.93826 1.54092
v -8.00000 5.03306 1.60048
v -8.00000 5.13874 1.63746
v -8.00000 6.49771 0.65000
v -8.00000 5.25000 1.65000
v -8.00000 6.49771 1.65000
v 8.00000 1.20000 -2.17500
v 8.00000 6.49771 -2.17500
v 8.00000 4.93826 1.54092
v 8.00000 4.85908 1.46174
v 8.00000 4.79952 1.36694
v 8.00000 5.03306 1.60048
v 8.00000 4.76254 1.26126
v 8.00000 5.13874 1.63746
v 8.00000 4.75000 1.15000
v 8.00000 4.75000 0.65000
v 8.00000 5.25000 1.65000
v 8.00000 6.49771 1.65000
v 8.00000 6.49771 0.65000
v 6.57000 1.20000 0.20500
v 6.57000 1.20000 0.84500
v 5.93000 1.20000 0.84500
v 5.93000 1.20000 0.20500
v 4.07000 1.20000 0.84500
v 4.07000 1.20000 0.20500
v 3.43000 1.20000 0.84500
v 3.43000 1.20000 0.20500
v 1.57000 1.20000 0.84500
v 1.57000 1.20000 0.20500
v 0.93000 1.20000 0.20500
v -0.93000 1.20000 0.20500
v 0.93000 1.20000 0.84500
v -0.93000 1.20000 0.84500
v -3.43000 1.20000 0.20500
v -1.57000 1.20000 0.84500
v -1.57000 1.20000 0.20500
v -3.43000 1.20000 0.84500
v -5.93000 1.20000 0.20500
v -4.07000 1.20000 0.84500
v -4.07000 1.20000 0.20500
v -5.93000 1.20000 0.84500
v -6.57000 1.20000 0.84500
v -6.57000 1.20000 0.20500
v -8.00000 0.50000 2.17500
v 8.00000 0.50000 2.17500
v -8.00000 0.50000 -2.17500
v 8.00000 0.50000 -2.17500
v 6.57000 0.50000 0.20500
v 6.57000 0.50000 0.84500
v 5.93000 0.50000 0.20500
v 4.07000 0.50000 0.20500
v 5.93000 0.50000 0.84500
v 4.07000 0.50000 0.84500
v 3.43000 0.50000 0.20500
v 1.57000 0.50000 0.20500
v 3.43000 0.50000 0.84500
v 1.57000 0.50000 0.84500
v 0.93000 0.50000 0.20500
v -0.93000 0.50000 0.20500
v 0.93000 0.50000 0.84500
v -0.93000 0.50000 0.84500
v -1.57000 0.50000 0.20500
v -3.43000 0.50000 0.20500
v -1.57000 0.50000 0.84500
v -4.07000 0.50000 0.20500
v -3.43000 0.50000 0.84500
v -4.07000 0.50000 0.84500
v -5.93000 0.50000 0.20500
v -5.93000 0.50000 0.84500
v -6.57000 0.50000 0.20500
v -6.57000 0.50000 0.84500
v -6.90000 6.65000 2.26293
v -6.75454 6.53661 2.19746
v -6.76916 6.57336 2.21868
v -6.79105 6.60310 2.23585
v -6.81655 6.62464 2.24829
v -6.84552 6.63976 2.25701
v -6.87308 6.64756 2.26152
v 6.90000 6.65000 2.26293
v 6.87023 6.64702 2.26120
v 6.83986 6.63742 2.25566
v 6.81111 6.62083 2.24608
v 6.78632 6.59786 2.23283
v 6.76742 6.57016 2.21683
v 6.75543 6.53998 2.19941
v 6.75115 6.51852 2.18702
v -6.46081 6.80000 0.31419
v -6.46081 6.80000 0.73581
v -6.03919 6.80000 0.31419
v -6.03919 6.80000 0.73581
v -5.93000 -0.55000 0.84500
v -6.57000 6.50000 0.84500
v -6.57000 -0.55000 0.84500
v -5.93000 6.50000 0.84500
v -6.57000 -0.69875 0.82990
v -6.57000 -0.77121 0.81116
v -5.93000 -0.77121 0.81116
v -5.93000 -0.69875 0.82990
v -6.57000 -0.62476 0.84121
v -5.93000 -0.62476 0.84121
v -6.57000 -1.67011 0.52957
v -5.93000 -1.67011 0.52957
v -6.57000 -1.68990 0.52551
v -5.93000 -1.68990 0.52551
v -6.57000 -1.71010 0.52551
v -5.93000 -1.71010 0.52551
v -6.57000 -1.72989 0.52957
v -5.93000 -1.72989 0.52957
v -6.57000 -2.62879 0.81116
v -5.93000 -2.62879 0.81116
v -6.57000 -2.77524 0.84121
v -6.57000 -2.85000 0.84500
v -5.93000 -2.85000 0.84500
v -5.93000 -2.77524 0.84121
v -6.57000 -2.70125 0.82990
v -5.93000 -2.70125 0.82990
v -5.93000 -3.10000 0.84500
v -6.57000 -3.10000 0.84500
v -6.46081 -3.40000 0.73581
v -6.46081 -3.40000 0.31419
v -6.03919 -3.40000 0.73581
v -6.03919 -3.40000 0.31419
v -6.57000 -2.85000 0.20500
v -5.93000 -2.85000 0.20500
v -6.57000 -3.10000 0.20500
v -5.93000 -3.10000 0.20500
v -6.57000 -2.83990 0.20449
v -5.93000 -2.83990 0.20449
v -6.57000 -2.82990 0.20296
v -5.93000 -2.82990 0.20296
v -6.57000 -2.82011 0.20043
v -5.93000 -2.82011 0.20043
v -6.57000 -1.92121 -0.08116
v -5.93000 -1.92121 -0.08116
v -6.57000 -1.62524 -0.11121
v -6.57000 -1.47879 -0.08116
v -5.93000 -1.47879 -0.08116
v -5.93000 -1.62524 -0.11121
v -6.57000 -1.77476 -0.11121
v -5.93000 -1.77476 -0.11121
v -6.57000 -0.57989 0.20043
v -5.93000 -0.57989 0.20043
v -6.57000 -0.57010 0.20296
v -5.93000 -0.57010 0.20296
v -6.57000 -0.56010 0.20449
v -5.93000 -0.56010 0.20449
v -6.57000 -0.55000 0.20500
v -5.93000 -0.55000 0.20500
v -5.93000 6.50000 0.20500
v -6.57000 6.50000 0.20500
v 6.03919 6.80000 0.31419
v 6.03919 6.80000 0.73581
v 6.46081 6.80000 0.31419
v 6.46081 6.80000 0.73581
v 5.93000 6.50000 0.84500
v 6.57000 -0.55000 0.84500
v 6.57000 6.50000 0.84500
v 5.93000 -0.55000 0.84500
v 6.57000 -0.62476 0.84121
v 5.93000 -0.62476 0.84121
v 6.57000 -0.69875 0.82990
v 5.93000 -0.69875 0.82990
v 5.93000 -0.77121 0.81116
v 6.57000 -0.77121 0.81116
v 5.93000 -1.67011 0.52957
v 6.57000 -1.67011 0.52957
v 6.57000 -1.72989 0.52957
v 6.57000 -1.71010 0.52551
v 5.93000 -1.72989 0.52957
v 5.93000 -1.71010 0.52551
v 6.57000 -1.68990 0.52551
v 5.93000 -1.68990 0.52551
v 5.93000 -2.62879 0.81116
v 6.57000 -2.62879 0.81116
v 6.57000 -2.70125 0.82990
v 5.93000 -2.70125 0.82990
v 6.57000 -2.77524 0.84121
v 5.93000 -2.77524 0.84121
v 5.93000 -2.85000 0.84500
v 6.57000 -2.85000 0.84500
v 5.93000 -3.10000 0.84500
v 6.57000 -3.10000 0.84500
v 6.03919 -3.40000 0.73581
v 6.03919 -3.40000 0.31419
v 6.46081 -3.40000 0.73581
v 6.46081 -3.40000 0.31419
v 6.57000 -3.10000 0.20500
v 5.93000 -3.10000 0.20500
v 6.57000 -2.85000 0.20500
v 5.93000 -2.85000 0.20500
v 6.57000 -2.82011 0.20043
v 6.57000 -2.82990 0.20296
v 5.93000 -2.82011 0.20043
v 5.93000 -2.82990 0.20296
v 6.57000 -2.83990 0.20449
v 5.93000 -2.83990 0.20449
v 5.93000 -1.92121 -0.08116
v 6.57000 -1.92121 -0.08116
v 5.93000 -1.77476 -0.11121
v 6.57000 -1.77476 -0.11121
v 6.57000 -1.62524 -0.11121
v 5.93000 -1.62524 -0.11121
v 6.57000 -1.47879 -0.08116
v 5.93000 -1.47879 -0.08116
v 5.93000 -0.57989 0.20043
v 6.57000 -0.57989 0.20043
v 6.57000 -0.55000 0.20500
v 6.57000 -0.56010 0.20449
v 5.93000 -0.55000 0.20500
v 5.93000 -0.56010 0.20449
v 6.57000 -0.57010 0.20296
v 5.93000 -0.57010 0.20296
v 6.57000 6.50000 0.20500
v 5.93000 6.50000 0.20500
v -4.07000 6.50000 0.20500
v -4.07000 -3.10000 0.20500
v -4.07000 -3.10000 0.84500
v -4.07000 6.50000 0.84500
v -3.43000 6.50000 0.20500
v -3.43000 -3.10000 0.20500
v -3.43000 6.50000 0.84500
v -3.43000 -3.10000 0.84500
v -3.96081 6.80000 0.31419
v -3.53919 6.80000 0.73581
v -3.53919 6.80000 0.31419
v -3.96081 6.80000 0.73581
v -3.96081 -3.40000 0.73581
v -3.96081 -3.40000 0.31419
v -3.53919 -3.40000 0.73581
v -3.53919 -3.40000 0.31419
v -1.57000 6.50000 0.84500
v -1.57000 6.50000 0.20500
v -1.57000 -3.10000 0.20500
v -1.57000 -3.10000 0.84500
v -0.93000 6.50000 0.20500
v -0.93000 -3.10000 0.20500
v -0.93000 6.50000 0.84500
v -0.93000 -3.10000 0.84500
v -1.46081 6.80000 0.31419
v -1.03919 6.80000 0.73581
v -1.03919 6.80000 0.31419
v -1.46081 6.80000 0.73581
v -1.46081 -3.40000 0.73581
v -1.46081 -3.40000 0.31419
v -1.03919 -3.40000 0.73581
v -1.03919 -3.40000 0.31419
v 0.93000 6.50000 0.84500
v 0.93000 6.50000 0.20500
v 0.93000 -3.10000 0.20500
v 0.93000 -3.10000 0.84500
v 1.57000 6.50000 0.20500
v 1.57000 -3.10000 0.20500
v 1.57000 6.50000 0.84500
v 1.57000 -3.10000 0.84500
v 1.03919 6.80000 0.31419
v 1.46081 6.80000 0.73581
v 1.46081 6.80000 0.31419
v 1.03919 6.80000 0.73581
v 1.03919 -3.40000 0.73581
v 1.03919 -3.40000 0.31419
v 1.46081 -3.40000 0.73581
v 1.46081 -3.40000 0.31419
v 3.43000 6.50000 0.20500
v 3.43000 -3.10000 0.20500
v 3.43000 -3.10000 0.84500
v 3.43000 6.50000 0.84500
v 4.07000 6.50000 0.20500
v 4.07000 -3.10000 0.20500
v 4.07000 6.50000 0.84500
v 4.07000 -3.10000 0.84500
v 3.53919 6.80000 0.31419
v 3.96081 6.80000 0.73581
v 3.96081 6.80000 0.31419
v 3.53919 6.80000 0.73581
v 3.53919 -3.40000 0.73581
v 3.53919 -3.40000 0.31419
v 3.96081 -3.40000 0.73581
v 3.96081 -3.40000 0.31419

g Solid_0
usemtl Solid_0
f 1 2 3
f 4 3 5
f 4 1 3
f 6 5 7
f 6 4 5
f 8 7 9
f 8 6 7
f 10 9 11
f 10 8 9
f 12 11 13
f 12 10 11
f 14 13 15
f 14 12 13
f 16 15 17
f 16 14 15
f 18 19 20
f 21 19 18
f 22 20 19
f 23 22 19
f 24 25 26
f 27 24 26
f 28 29 30
f 31 32 33
f 31 33 34
f 35 29 28
f 35 28 36
f 37 36 28
f 38 29 35
f 39 37 28
f 40 29 38
f 41 39 28
f 41 28 32
f 42 40 43
f 42 29 40
f 44 41 32
f 44 31 45
f 44 32 31
f 46 44 45
f 46 45 47
f 46 47 48
f 1 42 43
f 6 1 4
f 12 6 8
f 12 8 10
f 49 42 1
f 16 6 12
f 16 12 14
f 50 1 6
f 50 49 1
f 51 6 16
f 52 50 6
f 53 51 54
f 53 54 55
f 53 6 51
f 53 52 6
f 56 42 49
f 57 44 46
f 58 57 59
f 24 44 57
f 60 57 58
f 61 62 63
f 64 62 61
f 65 66 67
f 65 67 68
f 69 70 71
f 72 60 62
f 72 64 66
f 72 62 64
f 72 66 65
f 73 65 70
f 73 72 65
f 74 73 70
f 75 74 70
f 76 75 70
f 77 70 69
f 77 76 70
f 78 77 69
f 79 78 69
f 25 57 60
f 25 24 57
f 25 60 72
f 80 81 82
f 83 82 84
f 85 80 82
f 85 82 83
f 86 87 80
f 88 86 80
f 88 89 90
f 88 90 86
f 91 88 80
f 92 80 85
f 92 91 80
f 92 93 91
f 20 79 69
f 20 92 85
f 20 22 92
f 20 85 94
f 20 94 79
f 95 96 97
f 95 98 96
f 97 99 95
f 95 100 98
f 99 101 95
f 101 102 95
f 102 103 95
f 100 104 105
f 95 104 100
f 104 2 105
f 2 7 3
f 3 7 5
f 2 9 7
f 9 13 11
f 104 15 2
f 2 15 9
f 9 15 13
f 103 106 95
f 103 107 106
f 107 108 106
f 108 109 106
f 109 110 106
f 110 111 106
f 111 112 106
f 112 113 106
f 113 114 106
f 115 116 103
f 103 116 107
f 117 118 119
f 120 121 122
f 122 121 123
f 123 121 124
f 124 121 117
f 117 121 118
f 121 125 126
f 126 125 114
f 120 125 121
f 114 125 106
f 127 42 56
f 127 56 128
f 129 127 130
f 129 42 127
f 33 131 34
f 34 131 132
f 47 133 48
f 48 133 134
f 59 135 58
f 58 135 136
f 63 137 61
f 61 137 138
f 67 139 68
f 68 139 140
f 69 71 141
f 71 142 141
f 143 144 141
f 141 144 69
f 145 146 143
f 143 146 144
f 147 148 149
f 149 148 150
f 151 152 153
f 153 152 154
f 155 156 157
f 157 156 158
f 159 160 161
f 161 160 162
f 163 164 165
f 164 166 165
f 167 168 169
f 167 170 168
f 171 172 173
f 173 172 174
f 175 176 177
f 177 176 178
f 179 180 181
f 181 180 182
f 183 184 185
f 183 186 184
f 187 188 189
f 189 188 190
f 191 192 193
f 191 194 192
f 195 196 197
f 197 196 198
f 199 200 201
f 201 200 202
f 203 204 205
f 205 204 206
f 207 208 209
f 209 208 210
f 211 212 213
f 213 212 214
f 215 216 217
f 215 217 29
f 218 215 29
f 219 218 29
f 220 219 29
f 221 220 29
f 222 221 29
f 223 222 29
f 224 216 215
f 42 129 225
f 42 225 226
f 42 226 223
f 42 223 29
f 227 228 144
f 144 228 69
f 228 229 69
f 229 230 69
f 230 231 69
f 231 232 69
f 232 233 69
f 233 234 69
f 227 235 228
f 18 20 236
f 236 20 237
f 237 20 234
f 234 20 69
f 217 238 239
f 240 241 166
f 166 241 165
f 238 216 240
f 241 216 242
f 217 216 238
f 240 216 241
f 242 243 160
f 160 243 162
f 216 243 242
f 216 244 243
f 244 158 156
f 244 245 158
f 246 154 152
f 246 247 154
f 248 249 148
f 148 249 150
f 250 144 146
f 245 227 246
f 247 227 248
f 249 227 250
f 216 227 244
f 244 227 245
f 246 227 247
f 248 227 249
f 250 227 144
f 251 252 235
f 251 235 227
f 253 224 254
f 216 253 251
f 216 251 227
f 216 224 253
f 29 255 30
f 30 255 256
f 257 258 239
f 258 217 239
f 29 217 255
f 255 217 258
f 45 169 47
f 47 169 133
f 45 167 169
f 168 34 132
f 170 31 168
f 168 31 34
f 31 170 167
f 31 167 45
f 32 173 33
f 33 173 131
f 32 171 173
f 174 30 256
f 172 28 174
f 174 28 30
f 28 172 171
f 28 171 32
f 66 177 67
f 67 177 139
f 66 175 177
f 178 61 138
f 176 64 178
f 178 64 61
f 64 176 175
f 64 175 66
f 182 166 164
f 180 240 182
f 182 240 166
f 238 181 239
f 239 181 257
f 238 179 181
f 179 238 240
f 179 240 180
f 57 185 59
f 59 185 135
f 57 183 185
f 184 48 134
f 186 46 184
f 184 46 48
f 46 186 183
f 46 183 57
f 62 189 63
f 63 189 137
f 62 187 189
f 190 58 136
f 188 60 190
f 190 60 58
f 60 188 187
f 60 187 62
f 192 146 145
f 194 250 192
f 192 250 146
f 249 193 150
f 150 193 149
f 249 191 193
f 191 249 250
f 191 250 194
f 198 148 147
f 196 248 198
f 198 248 148
f 247 197 154
f 154 197 153
f 247 195 197
f 195 247 248
f 195 248 196
f 202 152 151
f 200 246 202
f 202 246 152
f 245 201 158
f 158 201 157
f 245 199 201
f 199 245 246
f 199 246 200
f 70 205 71
f 71 205 142
f 70 203 205
f 206 68 140
f 204 65 206
f 206 65 68
f 65 204 203
f 65 203 70
f 210 156 155
f 208 244 210
f 210 244 156
f 243 209 162
f 162 209 161
f 243 207 209
f 207 243 244
f 207 244 208
f 214 160 159
f 212 242 214
f 214 242 160
f 241 213 165
f 165 213 163
f 241 211 213
f 211 241 242
f 211 242 212
f 259 260 261
f 261 260 95
f 260 262 95
f 262 263 95
f 263 264 95
f 264 265 95
f 265 266 95
f 266 267 95
f 267 268 95
f 259 269 260
f 270 104 268
f 271 104 270
f 268 104 95
f 272 259 261
f 273 259 272
f 106 274 275
f 275 276 106
f 106 277 274
f 276 278 106
f 106 279 277
f 278 280 106
f 106 281 272
f 280 281 106
f 279 125 282
f 106 125 279
f 125 283 282
f 284 273 281
f 281 273 272
f 285 286 106
f 287 106 286
f 272 288 285
f 272 285 106
f 289 106 287
f 290 287 288
f 290 289 287
f 290 288 272
f 291 106 289
f 292 290 272
f 293 106 291
f 294 291 292
f 294 293 291
f 294 292 272
f 295 294 272
f 296 297 295
f 296 298 297
f 299 300 301
f 299 302 300
f 303 304 305
f 303 306 304
f 95 306 307
f 95 302 304
f 95 300 302
f 95 304 306
f 308 95 307
f 261 308 303
f 261 305 299
f 261 301 296
f 261 296 295
f 261 295 272
f 261 299 301
f 261 303 305
f 261 95 308
f 95 106 298
f 298 106 297
f 297 106 293
f 95 298 300
f 169 184 133
f 133 184 134
f 173 168 131
f 131 168 132
f 309 174 255
f 255 174 256
f 177 206 139
f 139 206 140
f 189 178 137
f 137 178 138
f 185 190 135
f 135 190 136
f 205 310 142
f 142 310 141
f 213 182 163
f 163 182 164
f 181 311 257
f 257 311 258
f 312 192 143
f 143 192 145
f 193 198 149
f 149 198 147
f 197 202 153
f 153 202 151
f 201 210 157
f 157 210 155
f 209 214 161
f 161 214 159
f 311 309 258
f 258 309 255
f 310 312 141
f 141 312 143
f 313 193 192
f 313 192 312
f 310 313 312
f 314 313 310
f 315 198 193
f 315 193 313
f 205 314 310
f 316 197 198
f 316 315 317
f 316 198 315
f 206 317 314
f 206 314 205
f 318 316 317
f 319 202 197
f 319 197 316
f 177 317 206
f 177 318 317
f 320 201 202
f 320 319 321
f 320 202 319
f 178 321 318
f 178 318 177
f 322 320 321
f 323 210 201
f 323 201 320
f 189 322 321
f 189 321 178
f 324 210 323
f 324 209 210
f 324 323 325
f 190 322 189
f 190 325 322
f 326 324 325
f 327 214 209
f 327 209 324
f 185 325 190
f 185 326 325
f 328 214 327
f 328 327 329
f 184 326 185
f 184 329 326
f 330 213 214
f 330 214 328
f 331 328 329
f 169 329 184
f 169 332 331
f 169 331 329
f 333 182 213
f 333 213 330
f 333 330 332
f 168 332 169
f 334 333 332
f 335 311 181
f 335 181 182
f 335 182 333
f 173 336 334
f 173 332 168
f 173 334 332
f 174 336 173
f 309 335 336
f 309 311 335
f 309 336 174
f 236 237 282
f 282 237 279
f 279 234 277
f 237 234 279
f 277 233 274
f 234 233 277
f 274 232 275
f 233 232 274
f 275 231 276
f 232 231 275
f 276 230 278
f 278 230 280
f 231 230 276
f 230 229 280
f 228 280 229
f 281 280 228
f 252 284 235
f 284 228 235
f 284 281 228
f 282 283 236
f 236 283 18
f 283 21 18
f 225 271 270
f 271 129 130
f 225 129 271
f 254 224 269
f 269 215 260
f 224 215 269
f 260 218 262
f 215 218 260
f 270 268 225
f 225 268 226
f 226 267 223
f 268 267 226
f 223 266 222
f 267 266 223
f 222 265 221
f 266 265 222
f 221 264 220
f 265 264 221
f 220 263 219
f 264 263 220
f 219 262 218
f 263 262 219
f 2 1 105
f 105 1 43
f 43 40 105
f 105 40 100
f 100 38 98
f 40 38 100
f 98 35 96
f 38 35 98
f 97 36 99
f 96 36 97
f 35 36 96
f 36 37 99
f 99 39 101
f 37 39 99
f 101 41 102
f 39 41 101
f 102 41 44
f 102 44 103
f 115 103 44
f 24 27 115
f 24 115 44
f 128 49 337
f 128 56 49
f 16 17 338
f 51 16 338
f 54 338 339
f 54 51 338
f 55 339 340
f 55 54 339
f 53 340 341
f 53 55 340
f 52 341 342
f 52 53 341
f 50 342 343
f 50 52 342
f 49 343 337
f 49 50 343
f 92 344 345
f 93 345 346
f 93 92 345
f 91 346 347
f 91 93 346
f 88 347 348
f 88 91 347
f 89 348 349
f 89 88 348
f 90 349 350
f 90 89 349
f 86 350 351
f 86 351 120
f 86 90 350
f 87 120 122
f 87 86 120
f 80 122 123
f 80 87 122
f 81 123 124
f 81 80 123
f 82 124 117
f 82 81 124
f 84 117 119
f 84 82 117
f 83 119 118
f 83 84 119
f 85 118 121
f 85 83 118
f 85 121 126
f 85 126 94
f 108 74 109
f 73 74 108
f 109 75 110
f 74 75 109
f 110 76 111
f 75 76 110
f 111 77 112
f 112 77 113
f 76 77 111
f 77 78 113
f 113 79 114
f 78 79 113
f 114 94 126
f 79 94 114
f 108 107 73
f 73 107 72
f 107 116 72
f 26 25 116
f 116 25 72
f 92 23 344
f 22 23 92
f 288 287 315
f 315 287 317
f 285 288 313
f 313 288 315
f 286 285 314
f 314 285 313
f 287 286 317
f 317 286 314
f 292 291 319
f 319 291 321
f 290 292 316
f 316 292 319
f 289 290 318
f 318 290 316
f 291 289 321
f 321 289 318
f 295 297 323
f 323 297 325
f 294 295 320
f 320 295 323
f 293 294 322
f 322 294 320
f 297 293 325
f 325 293 322
f 301 300 327
f 327 300 329
f 296 301 324
f 324 301 327
f 298 296 326
f 326 296 324
f 300 298 329
f 329 298 326
f 305 304 330
f 330 304 332
f 299 305 328
f 328 305 330
f 302 299 331
f 331 299 328
f 304 302 332
f 332 302 331
f 308 307 335
f 335 307 336
f 303 308 333
f 333 308 335
f 306 303 334
f 334 303 333
f 307 306 336
f 336 306 334
f 337 17 15
f 337 338 17
f 337 339 338
f 337 340 339
f 337 341 340
f 337 342 341
f 337 343 342
f 104 128 337
f 104 337 15
f 127 128 104
f 130 127 104
f 130 104 271
f 115 26 116
f 27 26 115
f 21 283 125
f 19 21 125
f 344 125 120
f 344 120 351
f 350 344 351
f 349 344 350
f 346 345 344
f 348 344 349
f 347 346 344
f 347 344 348
f 23 19 125
f 23 125 344
f 259 254 269
f 253 254 259
f 251 253 259
f 251 259 273
f 252 251 273
f 252 273 284

g Solid_1
usemtl Solid_1
f 352 353 354
f 354 353 355
f 356 357 358
f 359 357 356
f 360 361 362
f 360 362 363
f 364 363 365
f 364 360 363
f 358 365 356
f 358 364 365
f 361 366 362
f 362 366 367
f 366 368 367
f 367 368 369
f 369 370 371
f 368 370 369
f 371 372 373
f 370 372 371
f 372 374 373
f 373 374 375
f 376 377 378
f 376 378 379
f 380 379 381
f 380 376 379
f 374 381 375
f 374 380 381
f 378 377 382
f 382 377 383
f 384 385 386
f 386 385 387
f 388 389 390
f 390 389 391
f 388 392 389
f 389 392 393
f 393 394 395
f 392 394 393
f 395 396 397
f 394 396 395
f 396 398 397
f 397 398 399
f 400 401 402
f 400 402 403
f 404 403 405
f 404 400 403
f 398 405 399
f 398 404 405
f 401 406 402
f 402 406 407
f 406 408 407
f 407 408 409
f 409 410 411
f 408 410 409
f 411 412 413
f 410 412 411
f 412 414 413
f 415 414 412
f 389 378 382
f 389 382 391
f 393 379 378
f 393 378 389
f 395 381 379
f 395 379 393
f 397 375 381
f 397 381 395
f 399 373 375
f 399 375 397
f 405 371 373
f 405 373 399
f 403 367 369
f 403 369 371
f 403 371 405
f 402 367 403
f 407 362 367
f 407 367 402
f 409 363 362
f 409 362 407
f 411 365 363
f 411 363 409
f 413 356 365
f 413 365 411
f 414 359 356
f 414 356 413
f 377 388 383
f 383 388 390
f 376 392 377
f 377 392 388
f 380 394 376
f 376 394 392
f 374 396 380
f 380 396 394
f 372 398 374
f 374 398 396
f 370 404 372
f 372 404 398
f 368 400 370
f 370 400 404
f 366 401 368
f 368 401 400
f 361 406 366
f 366 406 401
f 360 408 361
f 361 408 406
f 364 410 360
f 360 410 408
f 358 412 364
f 364 412 410
f 357 415 358
f 358 415 412
f 387 390 391
f 387 385 390
f 386 387 391
f 386 391 382
f 383 390 384
f 384 390 385
f 386 383 384
f 382 383 386
f 355 353 359
f 359 353 357
f 354 355 359
f 354 359 414
f 415 357 352
f 352 357 353
f 354 415 352
f 414 415 354

g Solid_2
usemtl Solid_2
f 416 417 418
f 418 417 419
f 420 421 422
f 423 421 420
f 424 421 423
f 424 423 425
f 426 425 427
f 426 427 428
f 426 424 425
f 429 426 428
f 428 430 429
f 429 430 431
f 432 433 434
f 434 433 435
f 435 436 437
f 433 436 435
f 437 431 430
f 436 431 437
f 434 438 432
f 432 438 439
f 440 439 438
f 440 438 441
f 442 441 443
f 442 443 444
f 442 440 441
f 445 442 444
f 446 447 444
f 444 447 445
f 448 449 450
f 450 449 451
f 452 453 454
f 454 453 455
f 456 457 458
f 458 457 459
f 459 460 461
f 457 460 459
f 461 454 455
f 460 454 461
f 458 462 456
f 456 462 463
f 463 462 464
f 465 463 464
f 466 464 467
f 466 465 464
f 468 467 469
f 468 466 467
f 469 470 468
f 468 470 471
f 472 473 474
f 474 473 475
f 475 476 477
f 473 476 475
f 477 471 470
f 476 471 477
f 478 474 479
f 472 474 478
f 474 423 420
f 474 420 479
f 475 425 423
f 475 423 474
f 477 427 425
f 477 428 427
f 477 425 475
f 470 428 477
f 469 430 428
f 469 428 470
f 467 437 430
f 467 435 437
f 467 430 469
f 464 435 467
f 462 434 435
f 462 435 464
f 458 438 434
f 458 434 462
f 459 441 438
f 459 443 441
f 459 438 458
f 461 443 459
f 455 444 443
f 455 443 461
f 453 446 444
f 453 444 455
f 421 472 422
f 422 472 478
f 424 473 421
f 421 473 472
f 426 476 424
f 424 476 473
f 429 471 426
f 426 471 476
f 436 468 431
f 431 468 429
f 429 468 471
f 433 466 436
f 436 466 468
f 432 465 433
f 433 465 466
f 439 463 432
f 432 463 465
f 439 456 463
f 440 457 439
f 442 457 440
f 439 457 456
f 442 460 457
f 447 454 445
f 445 454 442
f 442 454 460
f 447 452 454
f 453 452 449
f 449 452 451
f 446 453 449
f 446 449 448
f 450 451 447
f 447 451 452
f 448 447 446
f 448 450 447
f 420 422 417
f 417 422 419
f 479 420 417
f 479 417 416
f 418 419 478
f 478 419 422
f 416 478 479
f 416 418 478

g Solid_3
usemtl Solid_3
f 480 481 482
f 483 480 482
f 480 484 485
f 480 485 481
f 486 487 485
f 484 486 485
f 486 483 482
f 486 482 487
f 488 489 490
f 488 491 489
f 492 493 494
f 494 493 495
f 491 486 489
f 483 486 491
f 486 490 489
f 486 484 490
f 480 491 488
f 480 483 491
f 490 480 488
f 484 480 490
f 481 485 495
f 481 495 493
f 495 487 494
f 485 487 495
f 492 481 493
f 482 481 492
f 487 482 492
f 487 492 494

g Solid_4
usemtl Solid_4
f 496 497 498
f 496 498 499
f 500 501 498
f 497 500 498
f 500 502 503
f 500 503 501
f 496 499 503
f 502 496 503
f 504 505 506
f 504 507 505
f 508 509 510
f 510 509 511
f 507 502 505
f 496 502 507
f 502 506 505
f 502 500 506
f 497 507 504
f 497 496 507
f 506 497 504
f 500 497 506
f 498 501 511
f 498 511 509
f 511 503 510
f 501 503 511
f 508 498 509
f 499 498 508
f 503 499 508
f 503 508 510

g Solid_5
usemtl Solid_5
f 512 513 514
f 512 514 515
f 513 516 517
f 513 517 514
f 516 518 519
f 516 519 517
f 518 512 515
f 518 515 519
f 520 521 522
f 520 523 521
f 524 525 526
f 526 525 527
f 523 518 521
f 512 518 523
f 518 522 521
f 518 516 522
f 513 523 520
f 513 512 523
f 516 520 522
f 516 513 520
f 514 517 527
f 514 527 525
f 527 519 526
f 517 519 527
f 524 514 525
f 515 514 524
f 519 515 524
f 519 524 526

g Solid_6
usemtl Solid_6
f 528 529 530
f 531 528 530
f 528 532 533
f 528 533 529
f 534 535 533
f 532 534 533
f 534 531 530
f 534 530 535
f 536 537 538
f 536 539 537
f 540 541 542
f 542 541 543
f 539 534 537
f 531 534 539
f 534 538 537
f 534 532 538
f 528 539 536
f 528 531 539
f 532 536 538
f 532 528 536
f 529 533 543
f 529 543 541
f 543 535 542
f 533 535 543
f 540 529 541
f 530 529 540
f 535 530 540
f 535 540 542
