# Generated from JST_B3B-XH-A_3pin.step
mtllib JST_B3B-XH-A_3pin.mtl
v -3.15000 6.35000 2.87500
v -3.15000 6.35000 2.17500
v -3.11694 6.35369 2.17500
v -3.11662 6.35376 2.87500
v -3.08551 6.36457 2.17500
v -3.08492 6.36485 2.87500
v -3.05725 6.38211 2.17500
v -3.05648 6.38273 2.87500
v -3.03355 6.40546 2.17500
v -3.03273 6.40648 2.87500
v -3.01557 6.43344 2.17500
v -3.01485 6.43492 2.87500
v -3.00421 6.46471 2.17500
v -3.00376 6.46662 2.87500
v -3.00002 6.49771 2.17500
v -3.00000 6.50000 2.87500
v -3.00000 6.50000 2.17632
v 4.95000 7.00000 1.65000
v 4.54000 7.00000 2.46500
v 4.95000 7.00000 2.87500
v 4.54000 7.00000 1.65000
v 3.15000 7.00000 2.87500
v 3.15000 7.00000 2.46500
v -1.85000 7.00000 2.46500
v 1.85000 7.00000 2.87500
v 1.85000 7.00000 2.46500
v -1.85000 7.00000 2.87500
v -3.15000 0.80000 2.87500
v -4.95000 0.00000 2.87500
v -3.15000 0.00000 2.87500
v -0.65000 0.80000 2.87500
v -1.85000 0.80000 2.87500
v -1.85000 0.00000 2.87500
v -0.65000 0.00000 2.87500
v -3.00819 4.24473 2.87500
v -2.90527 4.14181 2.87500
v -3.08563 4.36798 2.87500
v -2.78202 4.06437 2.87500
v -3.13370 4.50536 2.87500
v -2.64464 4.01630 2.87500
v -2.50000 4.00000 2.87500
v -4.95000 7.00000 2.87500
v -3.15000 4.65000 2.87500
v -1.85000 4.00000 2.87500
v 0.65000 0.80000 2.87500
v 1.85000 0.80000 2.87500
v 0.65000 -0.00000 2.87500
v 1.85000 -0.00000 2.87500
v -3.15000 6.65000 2.87500
v -3.11662 6.64624 2.87500
v -3.01485 6.56508 2.87500
v -3.00376 6.53338 2.87500
v -3.05648 6.61727 2.87500
v -3.08492 6.63515 2.87500
v -3.03273 6.59352 2.87500
v -3.15000 7.00000 2.87500
v 4.95000 -0.00000 2.87500
v 3.15000 0.80000 2.87500
v 3.15000 -0.00000 2.87500
v 1.85000 4.00000 2.87500
v 2.50000 4.00000 2.87500
v 2.64464 4.01630 2.87500
v 2.78202 4.06437 2.87500
v 2.90527 4.14181 2.87500
v 3.00819 4.24473 2.87500
v 3.08563 4.36798 2.87500
v 3.13370 4.50536 2.87500
v 3.11410 6.35436 2.87500
v 3.02655 6.41479 2.87500
v 3.05053 6.38772 2.87500
v 3.08029 6.36718 2.87500
v 3.15000 6.35000 2.87500
v 3.00109 6.48192 2.87500
v 3.00975 6.44681 2.87500
v 3.00109 6.51808 2.87500
v 3.02655 6.58521 2.87500
v 3.00975 6.55319 2.87500
v 3.08029 6.63282 2.87500
v 3.05053 6.61228 2.87500
v 3.15000 6.65000 2.87500
v 3.11410 6.64564 2.87500
v 3.15000 4.65000 2.87500
v -4.25000 1.20000 2.17500
v -3.00819 4.24473 2.17500
v -2.90527 4.14181 2.17500
v -3.08563 4.36798 2.17500
v -2.78202 4.06437 2.17500
v -3.13370 4.50536 2.17500
v -2.64464 4.01630 2.17500
v -2.50000 4.00000 2.17500
v -1.85000 4.00000 2.17500
v -4.25000 6.49771 2.17500
v -3.15000 4.65000 2.17500
v 4.25000 1.20000 2.17500
v 1.85000 4.00000 2.17500
v 2.50000 4.00000 2.17500
v 2.64464 4.01630 2.17500
v 2.78202 4.06437 2.17500
v 2.90527 4.14181 2.17500
v 3.00819 4.24473 2.17500
v 3.08563 4.36798 2.17500
v 3.13370 4.50536 2.17500
v -1.85000 6.49771 2.17500
v 1.85000 6.49771 2.17500
v 3.01557 6.43344 2.17500
v 3.08551 6.36457 2.17500
v 3.03355 6.40546 2.17500
v 3.05725 6.38211 2.17500
v 3.00421 6.46471 2.17500
v 3.00002 6.49771 2.17500
v 3.15000 6.35000 2.17500
v 3.11694 6.35369 2.17500
v 4.25000 6.49771 2.17500
v 3.15000 4.65000 2.17500
v -4.54000 7.00000 2.46500
v -3.15000 7.00000 2.46500
v -4.95000 7.00000 1.65000
v -4.54000 7.00000 1.65000
v -1.85000 0.00000 2.17500
v -0.65000 0.00000 2.17500
v 0.65000 -0.00000 2.17500
v 1.85000 -0.00000 2.17500
v 4.25000 -0.00000 2.17500
v 3.15000 -0.00000 2.17500
v 4.25000 -0.00000 -2.17500
v 4.95000 -0.00000 -2.87500
v 3.15000 -0.00000 -2.17500
v 3.15000 -0.00000 -2.87500
v 0.65000 -0.00000 -2.17500
v 0.65000 -0.00000 -2.87500
v 1.85000 -0.00000 -2.17500
v 1.85000 -0.00000 -2.87500
v -1.85000 0.00000 -2.17500
v -1.85000 0.00000 -2.87500
v -0.65000 0.00000 -2.17500
v -0.65000 0.00000 -2.87500
v 0.65000 0.80000 2.17500
v -0.65000 0.80000 2.17500
v 0.65000 0.50000 2.17500
v -0.65000 0.50000 2.17500
v 1.85000 0.80000 -2.17500
v 3.15000 0.80000 -2.17500
v 1.85000 0.50000 -2.17500
v 3.15000 0.50000 -2.17500
v -0.65000 0.80000 -2.17500
v 0.65000 0.80000 -2.17500
v -0.65000 0.50000 -2.17500
v 0.65000 0.50000 -2.17500
v -3.15000 0.80000 -2.17500
v -1.85000 0.80000 -2.17500
v -3.15000 0.50000 -2.17500
v -1.85000 0.50000 -2.17500
v -1.85000 0.80000 2.17500
v -3.15000 0.80000 2.17500
v -1.85000 0.50000 2.17500
v -3.15000 0.50000 2.17500
v 3.15000 0.80000 2.17500
v 1.85000 0.80000 2.17500
v 3.15000 0.50000 2.17500
v 1.85000 0.50000 2.17500
v -4.95000 4.75000 0.65000
v -4.95000 7.00000 -2.87500
v -4.95000 0.00000 -2.87500
v -4.95000 4.75000 1.15000
v -4.95000 4.76254 1.26126
v -4.95000 4.79952 1.36694
v -4.95000 4.85908 1.46174
v -4.95000 4.93826 1.54092
v -4.95000 5.03306 1.60048
v -4.95000 7.00000 0.65000
v -4.95000 5.25000 1.65000
v -4.95000 5.13874 1.63746
v 4.95000 7.00000 -2.87500
v 4.95000 4.75000 0.65000
v 4.95000 4.75000 1.15000
v 4.95000 4.76254 1.26126
v 4.95000 4.79952 1.36694
v 4.95000 4.85908 1.46174
v 4.95000 4.93826 1.54092
v 4.95000 5.03306 1.60048
v 4.95000 7.00000 0.65000
v 4.95000 5.25000 1.65000
v 4.95000 5.13874 1.63746
v -3.15000 0.80000 -2.87500
v -3.15000 0.00000 -2.87500
v -1.85000 0.80000 -2.87500
v -0.65000 0.80000 -2.87500
v 0.65000 0.80000 -2.87500
v 1.85000 0.80000 -2.87500
v 3.15000 0.80000 -2.87500
v 4.54000 7.00000 -2.46500
v 4.54000 7.00000 0.65000
v -4.54000 7.00000 -2.46500
v -4.54000 7.00000 0.65000
v -4.25000 0.00000 2.17500
v -3.15000 0.00000 2.17500
v -3.15000 0.00000 -2.17500
v -4.25000 0.00000 -2.17500
v -4.25000 6.49771 -2.17500
v -4.25000 4.75000 0.65000
v -4.25000 1.20000 -2.17500
v -4.25000 4.75000 1.15000
v -4.25000 4.76254 1.26126
v -4.25000 4.79952 1.36694
v -4.25000 4.85908 1.46174
v -4.25000 4.93826 1.54092
v -4.25000 5.03306 1.60048
v -4.25000 5.13874 1.63746
v -4.25000 6.49771 0.65000
v -4.25000 5.25000 1.65000
v -4.25000 6.49771 1.65000
v 4.25000 6.49771 -2.17500
v 4.25000 1.20000 -2.17500
v 4.25000 4.93826 1.54092
v 4.25000 4.85908 1.46174
v 4.25000 4.79952 1.36694
v 4.25000 5.03306 1.60048
v 4.25000 4.76254 1.26126
v 4.25000 5.13874 1.63746
v 4.25000 4.75000 1.15000
v 4.25000 4.75000 0.65000
v 4.25000 5.25000 1.65000
v 4.25000 6.49771 1.65000
v 4.25000 6.49771 0.65000
v 2.82000 1.20000 0.20500
v 2.82000 1.20000 0.84500
v 2.18000 1.20000 0.84500
v 2.18000 1.20000 0.20500
v 0.32000 1.20000 0.84500
v 0.32000 1.20000 0.20500
v -2.18000 1.20000 0.20500
v -0.32000 1.20000 0.84500
v -0.32000 1.20000 0.20500
v -2.18000 1.20000 0.84500
v -2.82000 1.20000 0.84500
v -2.82000 1.20000 0.20500
v 4.25000 0.50000 -2.17500
v -4.25000 0.50000 -2.17500
v -4.25000 0.50000 2.17500
v 4.25000 0.50000 2.17500
v 2.82000 0.50000 0.20500
v 2.82000 0.50000 0.84500
v 2.18000 0.50000 0.20500
v 0.32000 0.50000 0.20500
v 2.18000 0.50000 0.84500
v -0.32000 0.50000 0.20500
v 0.32000 0.50000 0.84500
v -2.18000 0.50000 0.20500
v -0.32000 0.50000 0.84500
v -2.18000 0.50000 0.84500
v -2.82000 0.50000 0.20500
v -2.82000 0.50000 0.84500
v -3.15000 6.65000 2.26293
v -3.00454 6.53661 2.19746
v -3.01916 6.57336 2.21868
v -3.04105 6.60310 2.23585
v -3.06655 6.62464 2.24829
v -3.09552 6.63976 2.25701
v -3.12308 6.64756 2.26152
v 3.15000 6.65000 2.26293
v 3.12023 6.64702 2.26120
v 3.08986 6.63742 2.25566
v 3.06111 6.62083 2.24608
v 3.03632 6.59786 2.23283
v 3.01742 6.57016 2.21683
v 3.00543 6.53998 2.19941
v 3.00115 6.51852 2.18702
v -2.71081 6.80000 0.31419
v -2.28919 6.80000 0.73581
v -2.28919 6.80000 0.31419
v -2.71081 6.80000 0.73581
v -2.18000 -0.55000 0.84500
v -2.82000 6.50000 0.84500
v -2.82000 -0.55000 0.84500
v -2.18000 6.50000 0.84500
v -2.82000 -0.69875 0.82990
v -2.82000 -0.77121 0.81116
v -2.18000 -0.77121 0.81116
v -2.18000 -0.69875 0.82990
v -2.82000 -0.62476 0.84121
v -2.18000 -0.62476 0.84121
v -2.82000 -1.67011 0.52957
v -2.18000 -1.67011 0.52957
v -2.82000 -1.68990 0.52551
v -2.18000 -1.68990 0.52551
v -2.82000 -1.71010 0.52551
v -2.18000 -1.71010 0.52551
v -2.82000 -1.72989 0.52957
v -2.18000 -1.72989 0.52957
v -2.82000 -2.62879 0.81116
v -2.18000 -2.62879 0.81116
v -2.82000 -2.85000 0.84500
v -2.18000 -2.85000 0.84500
v -2.18000 -2.77524 0.84121
v -2.82000 -2.77524 0.84121
v -2.82000 -2.70125 0.82990
v -2.18000 -2.70125 0.82990
v -2.18000 -3.10000 0.84500
v -2.82000 -3.10000 0.84500
v -2.71081 -3.40000 0.73581
v -2.71081 -3.40000 0.31419
v -2.28919 -3.40000 0.73581
v -2.28919 -3.40000 0.31419
v -2.82000 -2.85000 0.20500
v -2.18000 -2.85000 0.20500
v -2.82000 -3.10000 0.20500
v -2.18000 -3.10000 0.20500
v -2.82000 -2.83990 0.20449
v -2.18000 -2.83990 0.20449
v -2.82000 -2.82990 0.20296
v -2.18000 -2.82990 0.20296
v -2.82000 -2.82011 0.20043
v -2.18000 -2.82011 0.20043
v -2.82000 -1.92121 -0.08116
v -2.18000 -1.92121 -0.08116
v -2.82000 -1.62524 -0.11121
v -2.82000 -1.47879 -0.08116
v -2.18000 -1.47879 -0.08116
v -2.18000 -1.62524 -0.11121
v -2.82000 -1.77476 -0.11121
v -2.18000 -1.77476 -0.11121
v -2.82000 -0.57989 0.20043
v -2.18000 -0.57989 0.20043
v -2.82000 -0.57010 0.20296
v -2.18000 -0.57010 0.20296
v -2.82000 -0.56010 0.20449
v -2.18000 -0.56010 0.20449
v -2.82000 -0.55000 0.20500
v -2.18000 -0.55000 0.20500
v -2.18000 6.50000 0.20500
v -2.82000 6.50000 0.20500
v 2.28919 6.80000 0.31419
v 2.28919 6.80000 0.73581
v 2.71081 6.80000 0.31419
v 2.71081 6.80000 0.73581
v 2.18000 6.50000 0.84500
v 2.82000 -0.55000 0.84500
v 2.82000 6.50000 0.84500
v 2.18000 -0.55000 0.84500
v 2.82000 -0.62476 0.84121
v 2.18000 -0.62476 0.84121
v 2.82000 -0.69875 0.82990
v 2.18000 -0.69875 0.82990
v 2.18000 -0.77121 0.81116
v 2.82000 -0.77121 0.81116
v 2.18000 -1.67011 0.52957
v 2.82000 -1.67011 0.52957
v 2.82000 -1.72989 0.52957
v 2.82000 -1.71010 0.52551
v 2.18000 -1.72989 0.52957
v 2.18000 -1.71010 0.52551
v 2.82000 -1.68990 0.52551
v 2.18000 -1.68990 0.52551
v 2.18000 -2.62879 0.81116
v 2.82000 -2.62879 0.81116
v 2.82000 -2.70125 0.82990
v 2.18000 -2.70125 0.82990
v 2.82000 -2.77524 0.84121
v 2.18000 -2.77524 0.84121
v 2.82000 -2.85000 0.84500
v 2.18000 -2.85000 0.84500
v 2.18000 -3.10000 0.84500
v 2.82000 -3.10000 0.84500
v 2.28919 -3.40000 0.73581
v 2.28919 -3.40000 0.31419
v 2.71081 -3.40000 0.73581
v 2.71081 -3.40000 0.31419
v 2.82000 -3.10000 0.20500
v 2.18000 -3.10000 0.20500
v 2.82000 -2.85000 0.20500
v 2.18000 -2.85000 0.20500
v 2.82000 -2.82011 0.20043
v 2.82000 -2.82990 0.20296
v 2.18000 -2.82011 0.20043
v 2.18000 -2.82990 0.20296
v 2.82000 -2.83990 0.20449
v 2.18000 -2.83990 0.20449
v 2.18000 -1.92121 -0.08116
v 2.82000 -1.92121 -0.08116
v 2.18000 -1.77476 -0.11121
v 2.82000 -1.77476 -0.11121
v 2.82000 -1.62524 -0.11121
v 2.18000 -1.62524 -0.11121
v 2.82000 -1.47879 -0.08116
v 2.18000 -1.47879 -0.08116
v 2.18000 -0.57989 0.20043
v 2.82000 -0.57989 0.20043
v 2.82000 -0.55000 0.20500
v 2.82000 -0.56010 0.20449
v 2.18000 -0.55000 0.20500
v 2.18000 -0.56010 0.20449
v 2.82000 -0.57010 0.20296
v 2.18000 -0.57010 0.20296
v 2.82000 6.50000 0.20500
v 2.18000 6.50000 0.20500
v -0.32000 6.50000 0.20500
v -0.32000 -3.10000 0.20500
v -0.32000 -3.10000 0.84500
v -0.32000 6.50000 0.84500
v 0.32000 6.50000 0.20500
v 0.32000 -3.10000 0.20500
v 0.32000 6.50000 0.84500
v 0.32000 -3.10000 0.84500
v -0.21081 6.80000 0.31419
v 0.21081 6.80000 0.73581
v 0.21081 6.80000 0.31419
v -0.21081 6.80000 0.73581
v -0.21081 -3.40000 0.73581
v -0.21081 -3.40000 0.31419
v 0.21081 -3.40000 0.73581
v 0.21081 -3.40000 0.31419

g Solid_0
usemtl Solid_0
f 1 2 3
f 4 3 5
f 4 1 3
f 6 5 7
f 6 4 5
f 8 7 9
f 8 6 7
f 10 9 11
f 10 8 9
f 12 11 13
f 12 10 11
f 14 13 15
f 14 12 13
f 16 15 17
f 16 14 15
f 18 19 20
f 21 19 18
f 22 20 19
f 23 22 19
f 24 25 26
f 24 27 25
f 28 29 30
f 31 32 33
f 31 33 34
f 35 29 28
f 36 35 28
f 37 29 35
f 38 36 28
f 39 29 37
f 40 38 28
f 41 28 32
f 41 40 28
f 42 39 43
f 42 29 39
f 44 31 45
f 44 32 31
f 44 41 32
f 46 45 47
f 46 47 48
f 1 42 43
f 8 1 4
f 8 4 6
f 10 1 8
f 49 42 1
f 16 10 12
f 16 12 14
f 50 49 1
f 51 16 52
f 53 54 50
f 55 1 10
f 55 16 51
f 55 50 1
f 55 53 50
f 55 10 16
f 56 42 49
f 57 58 59
f 60 45 46
f 60 44 45
f 61 60 46
f 61 46 58
f 62 61 58
f 63 62 58
f 64 63 58
f 65 58 57
f 65 64 58
f 66 65 57
f 67 66 57
f 25 27 44
f 25 44 60
f 68 69 70
f 68 70 71
f 72 73 74
f 72 74 69
f 72 69 68
f 75 73 72
f 76 77 75
f 76 75 72
f 78 79 76
f 80 81 78
f 80 78 76
f 80 76 72
f 20 22 80
f 20 67 57
f 20 72 82
f 20 82 67
f 20 80 72
f 83 84 85
f 83 86 84
f 85 87 83
f 83 88 86
f 87 89 83
f 89 90 83
f 90 91 83
f 88 92 93
f 83 92 88
f 92 2 93
f 3 7 5
f 7 11 9
f 2 15 3
f 11 15 13
f 92 15 2
f 3 15 7
f 7 15 11
f 91 94 83
f 91 95 94
f 95 96 94
f 96 97 94
f 97 98 94
f 98 99 94
f 99 100 94
f 100 101 94
f 101 102 94
f 103 104 91
f 91 104 95
f 105 106 107
f 107 106 108
f 109 110 105
f 106 111 112
f 105 111 106
f 110 111 105
f 110 113 111
f 111 113 114
f 114 113 102
f 102 113 94
f 115 42 56
f 115 56 116
f 117 115 118
f 117 42 115
f 33 119 34
f 34 119 120
f 47 121 48
f 48 121 122
f 57 59 123
f 59 124 123
f 125 126 123
f 123 126 57
f 127 128 125
f 125 128 126
f 129 130 131
f 131 130 132
f 133 134 135
f 135 134 136
f 137 138 139
f 139 138 140
f 141 142 143
f 143 142 144
f 145 146 147
f 147 146 148
f 149 150 151
f 151 150 152
f 153 154 155
f 155 154 156
f 157 158 159
f 159 158 160
f 161 162 163
f 161 163 29
f 164 161 29
f 165 164 29
f 166 165 29
f 167 166 29
f 168 167 29
f 169 168 29
f 170 162 161
f 42 117 171
f 42 171 172
f 42 172 169
f 42 169 29
f 173 174 126
f 126 174 57
f 174 175 57
f 175 176 57
f 176 177 57
f 177 178 57
f 178 179 57
f 179 180 57
f 173 181 174
f 18 20 182
f 182 20 183
f 183 20 180
f 180 20 57
f 163 184 185
f 186 187 134
f 134 187 136
f 184 162 186
f 163 162 184
f 186 162 187
f 188 189 130
f 130 189 132
f 190 126 128
f 187 173 188
f 189 173 190
f 162 173 187
f 190 173 126
f 188 173 189
f 191 192 181
f 173 191 181
f 193 170 194
f 162 193 191
f 162 191 173
f 162 170 193
f 29 195 30
f 30 195 196
f 197 198 185
f 198 163 185
f 29 163 195
f 195 163 198
f 45 139 47
f 47 139 121
f 45 137 139
f 140 34 120
f 138 31 140
f 140 31 34
f 138 137 45
f 31 138 45
f 144 128 127
f 142 190 144
f 144 190 128
f 189 143 132
f 132 143 131
f 189 141 143
f 189 190 142
f 141 189 142
f 148 130 129
f 146 188 148
f 148 188 130
f 187 147 136
f 136 147 135
f 187 145 147
f 187 188 146
f 145 187 146
f 152 134 133
f 150 186 152
f 152 186 134
f 184 151 185
f 185 151 197
f 184 149 151
f 149 184 186
f 149 186 150
f 32 155 33
f 33 155 119
f 32 153 155
f 156 30 196
f 154 28 156
f 156 28 30
f 154 153 32
f 28 154 32
f 58 159 59
f 59 159 124
f 58 157 159
f 160 48 122
f 158 46 160
f 160 46 48
f 158 157 58
f 46 158 58
f 199 200 201
f 201 200 83
f 200 202 83
f 202 203 83
f 203 204 83
f 204 205 83
f 205 206 83
f 206 207 83
f 207 208 83
f 199 209 200
f 210 92 208
f 211 92 210
f 208 92 83
f 212 201 213
f 212 199 201
f 94 214 215
f 215 216 94
f 94 217 214
f 216 218 94
f 94 219 217
f 218 220 94
f 94 221 213
f 220 221 94
f 219 113 222
f 94 113 219
f 113 223 222
f 224 212 221
f 221 212 213
f 225 226 94
f 227 94 226
f 213 228 225
f 213 225 94
f 229 94 227
f 230 227 228
f 230 229 227
f 230 228 213
f 231 232 233
f 231 234 232
f 83 234 235
f 83 229 232
f 83 232 234
f 83 94 229
f 236 83 235
f 201 236 231
f 201 233 230
f 201 231 233
f 201 230 213
f 201 83 236
f 237 144 125
f 125 144 127
f 143 148 131
f 131 148 129
f 147 152 135
f 135 152 133
f 151 238 197
f 197 238 198
f 139 160 121
f 121 160 122
f 155 140 119
f 119 140 120
f 239 156 195
f 195 156 196
f 159 240 124
f 124 240 123
f 238 239 198
f 198 239 195
f 240 237 123
f 123 237 125
f 241 143 144
f 241 144 237
f 240 241 237
f 242 241 240
f 243 148 143
f 243 143 241
f 159 242 240
f 244 147 148
f 244 243 245
f 244 148 243
f 160 245 242
f 160 242 159
f 246 152 147
f 246 147 244
f 247 244 245
f 139 245 160
f 139 247 245
f 248 246 249
f 248 152 246
f 140 249 247
f 140 247 139
f 250 248 249
f 251 238 151
f 251 151 152
f 251 152 248
f 155 249 140
f 155 250 249
f 156 252 250
f 156 250 155
f 239 251 252
f 239 238 251
f 239 252 156
f 182 183 222
f 222 183 219
f 219 180 217
f 183 180 219
f 217 179 214
f 180 179 217
f 214 178 215
f 179 178 214
f 215 177 216
f 178 177 215
f 216 176 218
f 177 176 216
f 218 175 220
f 176 175 218
f 174 220 175
f 221 220 174
f 192 224 181
f 224 174 181
f 224 221 174
f 222 223 182
f 182 223 18
f 223 21 18
f 171 211 210
f 211 117 118
f 171 117 211
f 194 170 209
f 209 161 200
f 170 161 209
f 200 164 202
f 161 164 200
f 210 208 171
f 171 208 172
f 172 207 169
f 208 207 172
f 169 206 168
f 207 206 169
f 168 205 167
f 206 205 168
f 167 204 166
f 205 204 167
f 166 203 165
f 204 203 166
f 165 202 164
f 203 202 165
f 93 2 43
f 43 2 1
f 43 39 93
f 93 39 88
f 88 37 86
f 39 37 88
f 86 35 84
f 37 35 86
f 84 36 85
f 35 36 84
f 85 38 87
f 36 38 85
f 87 40 89
f 38 40 87
f 89 41 90
f 40 41 89
f 90 41 44
f 90 44 91
f 103 91 44
f 27 24 103
f 27 103 44
f 116 49 253
f 116 56 49
f 16 17 254
f 52 16 254
f 51 254 255
f 51 52 254
f 55 255 256
f 55 51 255
f 53 256 257
f 53 55 256
f 54 257 258
f 54 53 257
f 50 258 259
f 50 54 258
f 49 259 253
f 49 50 259
f 80 260 261
f 81 261 262
f 81 80 261
f 78 262 263
f 78 81 262
f 79 263 264
f 79 78 263
f 76 264 265
f 76 79 264
f 77 265 266
f 77 76 265
f 75 266 267
f 75 267 110
f 75 77 266
f 73 110 109
f 73 75 110
f 74 109 105
f 74 73 109
f 69 105 107
f 69 74 105
f 70 107 108
f 70 69 107
f 71 108 106
f 71 70 108
f 68 106 112
f 68 71 106
f 72 112 111
f 72 68 112
f 72 111 114
f 72 114 82
f 96 62 97
f 61 62 96
f 97 63 98
f 62 63 97
f 98 64 99
f 63 64 98
f 99 65 100
f 64 65 99
f 100 66 101
f 65 66 100
f 101 67 102
f 66 67 101
f 102 82 114
f 67 82 102
f 96 95 61
f 61 95 60
f 95 104 60
f 26 25 104
f 104 25 60
f 80 23 260
f 22 23 80
f 228 227 243
f 243 227 245
f 225 228 241
f 241 228 243
f 226 225 242
f 242 225 241
f 227 226 245
f 245 226 242
f 233 232 246
f 246 232 249
f 230 233 244
f 244 233 246
f 229 230 247
f 247 230 244
f 232 229 249
f 249 229 247
f 236 235 251
f 251 235 252
f 231 236 248
f 248 236 251
f 234 231 250
f 250 231 248
f 235 234 252
f 252 234 250
f 253 17 15
f 253 254 17
f 253 255 254
f 253 256 255
f 253 257 256
f 253 258 257
f 253 259 258
f 92 116 253
f 92 253 15
f 115 116 92
f 118 115 92
f 118 92 211
f 24 26 104
f 24 104 103
f 21 223 113
f 19 21 113
f 260 113 110
f 260 110 267
f 266 260 267
f 265 260 266
f 262 261 260
f 264 260 265
f 263 262 260
f 263 260 264
f 23 19 113
f 23 113 260
f 199 194 209
f 193 194 199
f 191 193 199
f 191 199 212
f 192 191 212
f 192 212 224

g Solid_1
usemtl Solid_1
f 268 269 270
f 268 271 269
f 272 273 274
f 275 273 272
f 276 277 278
f 276 278 279
f 280 281 272
f 280 279 281
f 280 276 279
f 274 280 272
f 277 282 278
f 278 282 283
f 282 284 283
f 283 284 285
f 285 286 287
f 284 286 285
f 287 288 289
f 286 288 287
f 288 290 289
f 289 290 291
f 292 293 294
f 295 292 294
f 296 297 291
f 296 294 297
f 296 295 294
f 290 296 291
f 293 292 298
f 298 292 299
f 300 301 302
f 302 301 303
f 304 305 306
f 306 305 307
f 304 308 305
f 305 308 309
f 309 310 311
f 308 310 309
f 311 312 313
f 310 312 311
f 312 314 313
f 313 314 315
f 316 317 318
f 316 318 319
f 320 319 321
f 320 316 319
f 314 321 315
f 314 320 321
f 317 322 318
f 318 322 323
f 322 324 323
f 323 324 325
f 325 326 327
f 324 326 325
f 327 328 329
f 326 328 327
f 328 330 329
f 331 330 328
f 305 293 298
f 305 298 307
f 309 294 293
f 309 293 305
f 311 297 294
f 311 294 309
f 313 291 297
f 313 297 311
f 315 289 291
f 315 291 313
f 321 287 289
f 321 289 315
f 319 285 287
f 319 287 321
f 318 283 285
f 318 285 319
f 323 278 283
f 323 283 318
f 325 279 278
f 325 278 323
f 327 281 279
f 327 279 325
f 329 272 281
f 329 281 327
f 330 275 272
f 330 272 329
f 292 304 299
f 299 304 306
f 295 308 292
f 292 308 304
f 296 310 295
f 295 310 308
f 290 312 296
f 296 312 310
f 288 314 290
f 290 314 312
f 286 320 288
f 288 320 314
f 284 316 286
f 286 316 320
f 282 317 284
f 284 317 316
f 277 322 282
f 282 322 317
f 276 324 277
f 277 324 322
f 280 326 276
f 276 326 324
f 274 328 280
f 280 328 326
f 273 331 274
f 274 331 328
f 303 301 307
f 307 301 306
f 302 303 307
f 302 307 298
f 299 306 300
f 300 306 301
f 298 300 302
f 298 299 300
f 269 271 275
f 275 271 273
f 270 269 275
f 270 275 330
f 331 273 268
f 268 273 271
f 270 331 268
f 330 331 270

g Solid_2
usemtl Solid_2
f 332 333 334
f 334 333 335
f 336 337 338
f 339 337 336
f 340 337 339
f 340 339 341
f 342 341 343
f 342 343 344
f 342 340 341
f 345 342 344
f 344 346 345
f 345 346 347
f 348 349 350
f 350 349 351
f 351 352 353
f 349 352 351
f 353 347 346
f 352 347 353
f 350 354 348
f 348 354 355
f 356 355 354
f 356 354 357
f 358 357 359
f 358 356 357
f 360 359 361
f 360 358 359
f 362 360 361
f 362 363 360
f 364 365 366
f 366 365 367
f 368 369 370
f 370 369 371
f 372 373 374
f 374 373 375
f 375 376 377
f 373 376 375
f 377 370 371
f 376 370 377
f 374 378 372
f 372 378 379
f 379 378 380
f 381 379 380
f 382 380 383
f 382 381 380
f 384 383 385
f 384 382 383
f 385 386 384
f 384 386 387
f 388 389 390
f 390 389 391
f 391 392 393
f 389 392 391
f 393 387 386
f 392 387 393
f 394 390 395
f 388 390 394
f 390 339 336
f 390 336 395
f 391 341 339
f 391 339 390
f 393 343 341
f 393 341 391
f 386 344 343
f 386 343 393
f 385 346 344
f 385 344 386
f 383 353 346
f 383 351 353
f 383 346 385
f 380 351 383
f 378 350 351
f 378 351 380
f 374 354 350
f 374 350 378
f 375 357 354
f 375 354 374
f 377 359 357
f 377 357 375
f 371 361 359
f 371 359 377
f 369 362 361
f 369 361 371
f 337 388 338
f 338 388 394
f 340 389 337
f 337 389 388
f 342 392 340
f 340 392 389
f 345 387 342
f 342 387 392
f 347 384 345
f 345 384 387
f 352 382 347
f 347 382 384
f 349 381 352
f 348 381 349
f 352 381 382
f 348 379 381
f 355 372 348
f 348 372 379
f 356 373 355
f 358 373 356
f 355 373 372
f 358 376 373
f 360 370 358
f 358 370 376
f 363 368 360
f 360 368 370
f 369 367 365
f 369 368 367
f 362 369 365
f 362 365 364
f 366 367 363
f 363 367 368
f 362 366 363
f 364 366 362
f 336 338 333
f 333 338 335
f 395 336 333
f 395 333 332
f 334 335 394
f 394 335 338
f 395 334 394
f 332 334 395

g Solid_3
usemtl Solid_3
f 396 397 398
f 399 396 398
f 396 400 401
f 396 401 397
f 402 403 401
f 400 402 401
f 402 399 398
f 402 398 403
f 404 405 406
f 404 407 405
f 408 409 410
f 410 409 411
f 407 402 405
f 399 402 407
f 402 406 405
f 402 400 406
f 396 407 404
f 396 399 407
f 406 396 404
f 400 396 406
f 397 401 411
f 397 411 409
f 411 403 410
f 401 403 411
f 408 397 409
f 398 397 408
f 403 398 408
f 403 408 410
