# Generated from Microswitch_Omron_D2F-01L.step
mtllib Microswitch_Omron_D2F-01L.mtl
v -7.17262 -0.87039 2.90000
v -7.35210 -0.69565 2.90000
v -9.65000 -1.50000 2.90000
v -7.48739 -0.48483 2.90000
v -6.95826 -1.00000 2.90000
v -7.57148 -0.24887 2.90000
v -7.60000 0.00000 2.90000
v -7.57148 0.24887 2.90000
v -6.04174 -1.00000 2.90000
v -7.48739 0.48483 2.90000
v -9.65000 5.00000 2.90000
v -7.35210 0.69565 2.90000
v -7.17262 0.87039 2.90000
v -6.95826 1.00000 2.90000
v -6.04174 1.00000 2.90000
v -0.74851 -0.66312 2.90000
v -5.64790 -0.69565 2.90000
v -5.82738 -0.87039 2.90000
v -0.56806 -0.82298 2.90000
v -0.88546 -0.46472 2.90000
v -5.51261 -0.48483 2.90000
v -0.35460 -0.93502 2.90000
v -0.97094 -0.23932 2.90000
v -5.42852 -0.24887 2.90000
v -0.12054 -0.99271 2.90000
v -1.00000 0.00000 2.90000
v -5.42852 0.24887 2.90000
v -5.40000 -0.00000 2.90000
v -0.97094 0.23932 2.90000
v -5.51261 0.48483 2.90000
v -0.88546 0.46472 2.90000
v -5.64790 0.69565 2.90000
v -0.74851 0.66312 2.90000
v -5.82738 0.87039 2.90000
v -0.56806 0.82298 2.90000
v -0.35460 0.93502 2.90000
v 3.15000 -1.50000 2.90000
v 0.88546 0.46472 2.90000
v 0.97094 0.23932 2.90000
v 1.00000 0.00000 2.90000
v 0.97094 -0.23932 2.90000
v 0.88546 -0.46472 2.90000
v 0.74851 -0.66312 2.90000
v 0.56806 -0.82298 2.90000
v 0.35460 -0.93502 2.90000
v 0.12054 -0.99271 2.90000
v 3.15000 5.00000 2.90000
v -0.12054 0.99271 2.90000
v 0.12054 0.99271 2.90000
v 0.35460 0.93502 2.90000
v 0.56806 0.82298 2.90000
v 0.74851 0.66312 2.90000
v -4.61561 5.00000 1.45000
v -5.78439 5.00000 1.45000
v -5.78439 5.00000 -1.45000
v -9.65000 5.00000 -2.90000
v -4.61561 5.00000 -1.45000
v 3.15000 5.00000 -2.90000
v -9.65000 -1.50000 -2.90000
v -7.60000 0.00000 -2.90000
v -7.57148 0.24887 -2.90000
v -7.48739 0.48483 -2.90000
v -7.35210 0.69565 -2.90000
v -7.17262 0.87039 -2.90000
v -6.95826 1.00000 -2.90000
v -1.00000 0.00000 -2.90000
v -0.97094 0.23932 -2.90000
v -0.88546 0.46472 -2.90000
v -0.74851 0.66312 -2.90000
v -0.56806 0.82298 -2.90000
v -0.35460 0.93502 -2.90000
v -0.12054 0.99271 -2.90000
v 0.12054 0.99271 -2.90000
v 0.35460 0.93502 -2.90000
v 0.56806 0.82298 -2.90000
v 0.74851 0.66312 -2.90000
v 0.88546 0.46472 -2.90000
v 0.97094 0.23932 -2.90000
v 1.00000 0.00000 -2.90000
v -6.95826 -1.00000 -2.90000
v -6.04174 -1.00000 -2.90000
v -6.04174 1.00000 -2.90000
v -5.82738 0.87039 -2.90000
v -5.64790 0.69565 -2.90000
v -5.51261 0.48483 -2.90000
v -5.42852 0.24887 -2.90000
v -5.40000 -0.00000 -2.90000
v -5.42852 -0.24887 -2.90000
v -5.51261 -0.48483 -2.90000
v -5.64790 -0.69565 -2.90000
v -5.82738 -0.87039 -2.90000
v 0.97094 -0.23932 -2.90000
v 0.88546 -0.46472 -2.90000
v 0.74851 -0.66312 -2.90000
v 0.56806 -0.82298 -2.90000
v 0.35460 -0.93502 -2.90000
v 0.12054 -0.99271 -2.90000
v -0.12054 -0.99271 -2.90000
v -0.35460 -0.93502 -2.90000
v -0.56806 -0.82298 -2.90000
v -0.74851 -0.66312 -2.90000
v -0.88546 -0.46472 -2.90000
v -0.97094 -0.23932 -2.90000
v 3.15000 -1.50000 -2.90000
v 2.28000 -1.50000 0.20000
v 2.28000 -1.50000 -0.20000
v 1.38000 -1.50000 -0.20000
v 1.38000 -1.50000 0.20000
v -2.80000 -1.50000 -0.20000
v -2.80000 -1.50000 0.20000
v -3.70000 -1.50000 -0.20000
v -7.88000 -1.50000 -0.20000
v -3.70000 -1.50000 0.20000
v -7.88000 -1.50000 0.20000
v -8.78000 -1.50000 -0.20000
v -8.78000 -1.50000 0.20000
v -7.17262 -0.87039 -2.90000
v -7.35210 -0.69565 -2.90000
v -7.48739 -0.48483 -2.90000
v -7.57148 -0.24887 -2.90000
v -4.66577 5.13717 1.45000
v -4.74760 5.25816 1.45000
v -4.85623 5.35580 1.45000
v -4.98524 5.42429 1.45000
v -5.12697 5.45958 1.45000
v -5.73423 5.13717 1.45000
v -5.27303 5.45958 1.45000
v -5.65240 5.25816 1.45000
v -5.41476 5.42429 1.45000
v -5.54377 5.35580 1.45000
v -5.65240 5.25816 -1.45000
v -4.66577 5.13717 -1.45000
v -4.74760 5.25816 -1.45000
v -4.85623 5.35580 -1.45000
v -4.98524 5.42429 -1.45000
v -5.12697 5.45958 -1.45000
v -5.27303 5.45958 -1.45000
v -5.41476 5.42429 -1.45000
v -5.54377 5.35580 -1.45000
v -5.73423 5.13717 -1.45000
v -8.78000 -5.00000 0.20000
v -8.78000 -5.00000 -0.20000
v -2.80000 -5.00000 -0.20000
v -2.80000 -5.00000 0.20000
v -7.88000 -5.00000 0.20000
v -7.88000 -5.00000 -0.20000
v 1.38000 -5.00000 0.20000
v 1.38000 -5.00000 -0.20000
v -3.70000 -5.00000 0.20000
v -3.70000 -5.00000 -0.20000
v 2.28000 -5.00000 -0.20000
v 2.28000 -5.00000 0.20000
v -8.55000 4.99999 1.88500
v -8.55001 5.34999 1.88500
v -8.55001 5.34999 -1.88500
v -8.55000 4.99999 -1.88500
v -8.25000 5.00000 -1.87531
v -8.25000 5.00000 1.87531
v -8.25000 5.14497 -1.87531
v 3.37548 10.00000 -1.49992
v 3.48447 9.72050 -1.49640
v 3.37548 10.00000 1.49992
v -8.25000 5.14497 1.87531
v 3.48447 9.72050 1.49640

g Solid_0
usemtl Solid_0
f 1 2 3
f 4 3 2
f 5 1 3
f 6 3 4
f 7 3 6
f 8 3 7
f 9 5 3
f 10 3 8
f 11 10 12
f 11 12 13
f 11 13 14
f 11 14 15
f 11 3 10
f 16 17 18
f 19 18 9
f 19 16 18
f 20 21 17
f 20 17 16
f 22 19 9
f 23 21 20
f 23 24 21
f 25 22 9
f 26 27 28
f 26 28 24
f 26 24 23
f 29 27 26
f 29 30 27
f 31 32 30
f 31 30 29
f 33 34 32
f 33 32 31
f 35 15 34
f 35 34 33
f 36 15 35
f 37 25 9
f 37 38 39
f 37 39 40
f 37 40 41
f 37 41 42
f 37 42 43
f 37 43 44
f 37 44 45
f 37 45 46
f 37 46 25
f 37 9 3
f 47 15 36
f 47 36 48
f 47 48 49
f 47 49 50
f 47 50 51
f 47 51 52
f 47 52 38
f 47 38 37
f 47 11 15
f 11 53 54
f 11 55 56
f 54 55 11
f 55 57 56
f 53 47 57
f 47 58 57
f 11 47 53
f 58 56 57
f 11 56 3
f 3 56 59
f 60 61 7
f 7 61 8
f 8 62 10
f 61 62 8
f 10 63 12
f 62 63 10
f 12 64 13
f 13 64 14
f 63 64 12
f 64 65 14
f 66 67 26
f 26 67 29
f 29 68 31
f 67 68 29
f 31 69 33
f 68 69 31
f 33 70 35
f 69 70 33
f 35 71 36
f 36 71 48
f 70 71 35
f 71 72 48
f 48 73 49
f 72 73 48
f 49 74 50
f 73 74 49
f 50 75 51
f 51 75 52
f 74 75 50
f 75 76 52
f 52 77 38
f 76 77 52
f 38 78 39
f 77 78 38
f 39 79 40
f 78 79 39
f 5 9 80
f 80 9 81
f 82 83 15
f 15 83 34
f 34 84 32
f 83 84 34
f 32 85 30
f 30 85 27
f 84 85 32
f 85 86 27
f 27 87 28
f 86 87 27
f 28 88 24
f 24 88 21
f 87 88 28
f 21 89 17
f 88 89 21
f 17 90 18
f 89 90 17
f 90 91 18
f 18 81 9
f 91 81 18
f 79 92 40
f 40 92 41
f 41 93 42
f 92 93 41
f 42 94 43
f 93 94 42
f 43 95 44
f 94 95 43
f 44 96 45
f 95 96 44
f 45 97 46
f 96 97 45
f 46 98 25
f 97 98 46
f 25 99 22
f 22 99 19
f 98 99 25
f 99 100 19
f 19 101 16
f 100 101 19
f 16 102 20
f 101 102 16
f 20 103 23
f 102 103 20
f 23 66 26
f 103 66 23
f 65 15 14
f 82 15 65
f 104 58 37
f 58 47 37
f 104 105 106
f 106 107 104
f 105 37 108
f 104 37 105
f 107 109 104
f 108 110 107
f 37 110 108
f 107 110 109
f 111 59 109
f 109 59 104
f 111 112 59
f 113 114 111
f 111 114 112
f 112 115 59
f 115 116 59
f 114 3 116
f 113 3 114
f 116 3 59
f 37 3 110
f 110 3 113
f 80 117 5
f 5 117 1
f 1 118 2
f 117 118 1
f 2 119 4
f 4 119 6
f 118 119 2
f 6 120 7
f 119 120 6
f 120 60 7
f 118 117 59
f 59 119 118
f 117 80 59
f 59 120 119
f 59 60 120
f 59 61 60
f 80 81 59
f 59 62 61
f 62 56 63
f 63 56 64
f 64 56 65
f 65 56 82
f 59 56 62
f 90 101 91
f 101 100 91
f 91 100 81
f 89 102 90
f 90 102 101
f 100 99 81
f 89 103 102
f 88 103 89
f 99 98 81
f 86 66 87
f 87 66 88
f 88 66 103
f 85 67 86
f 86 67 66
f 84 68 85
f 85 68 67
f 83 69 84
f 84 69 68
f 82 70 83
f 83 70 69
f 82 71 70
f 98 104 81
f 79 104 92
f 92 104 93
f 93 104 94
f 94 104 95
f 95 104 96
f 96 104 97
f 97 104 98
f 77 104 78
f 78 104 79
f 81 104 59
f 77 58 104
f 71 58 72
f 72 58 73
f 73 58 74
f 74 58 75
f 75 58 76
f 76 58 77
f 56 58 82
f 82 58 71
f 121 122 53
f 122 123 53
f 123 124 53
f 124 125 53
f 53 126 54
f 127 128 125
f 129 128 127
f 130 128 129
f 125 128 53
f 53 128 126
f 131 132 57
f 131 133 132
f 131 134 133
f 131 135 134
f 131 136 135
f 131 137 136
f 131 138 137
f 131 139 138
f 131 55 140
f 131 57 55
f 140 55 54
f 140 54 126
f 131 126 128
f 131 140 126
f 139 128 130
f 139 131 128
f 138 130 129
f 138 139 130
f 137 127 125
f 137 129 127
f 137 138 129
f 136 125 124
f 136 137 125
f 135 124 123
f 135 136 124
f 134 135 123
f 133 123 122
f 133 134 123
f 132 121 53
f 132 122 121
f 132 133 122
f 57 132 53
f 116 115 141
f 141 115 142
f 109 110 143
f 143 110 144
f 114 116 145
f 145 116 141
f 112 145 146
f 114 145 112
f 147 108 148
f 148 108 107
f 113 111 149
f 149 111 150
f 110 113 144
f 144 113 149
f 106 105 151
f 151 105 152
f 105 108 152
f 152 108 147
f 107 106 148
f 148 106 151
f 111 109 150
f 150 109 143
f 115 112 142
f 142 112 146
f 146 145 142
f 142 145 141
f 143 149 150
f 143 144 149
f 152 147 148
f 151 152 148

g Solid_1
usemtl Solid_1
f 153 154 155
f 153 155 156
f 157 153 156
f 157 158 153
f 159 160 161
f 156 159 157
f 155 159 156
f 155 160 159
f 154 162 160
f 154 160 155
f 163 154 153
f 163 153 158
f 162 163 164
f 162 154 163
f 163 158 157
f 163 157 159
f 161 163 159
f 164 163 161
f 162 164 161
f 162 161 160
