# Generated from Resistor_0805.step
mtllib Resistor_0805.mtl
v -1.00000 -0.60000 0.04500
v -1.00000 -0.60000 0.40500
v -1.00000 0.60000 0.04500
v -1.00000 0.60000 0.40500
v -0.99887 -0.60000 0.03499
v -0.95500 -0.60000 0.04500
v -0.99554 -0.60000 0.02548
v -0.99018 -0.60000 0.01694
v -0.98306 -0.60000 0.00982
v -0.97452 -0.60000 0.00446
v -0.96501 -0.60000 0.00113
v -0.95500 -0.60000 -0.00000
v -0.74500 -0.60000 -0.00000
v -0.70982 -0.60000 0.01694
v -0.70446 -0.60000 0.02548
v -0.71694 -0.60000 0.00982
v -0.70113 -0.60000 0.03499
v -0.70000 -0.60000 0.04500
v -0.72548 -0.60000 0.00446
v -0.73499 -0.60000 0.00113
v -0.95500 -0.60000 0.40500
v -0.99887 -0.60000 0.41501
v -0.99554 -0.60000 0.42452
v -0.99018 -0.60000 0.43306
v -0.98306 -0.60000 0.44018
v -0.97452 -0.60000 0.44554
v -0.96501 -0.60000 0.44887
v -0.95500 -0.60000 0.45000
v -0.70000 -0.60000 0.40500
v -0.74500 -0.60000 0.45000
v -0.70113 -0.60000 0.41501
v -0.70982 -0.60000 0.43306
v -0.70446 -0.60000 0.42452
v -0.72548 -0.60000 0.44554
v -0.71694 -0.60000 0.44018
v -0.73499 -0.60000 0.44887
v -0.96501 0.60000 0.00113
v -0.95500 0.60000 -0.00000
v -0.97452 0.60000 0.00446
v -0.98306 0.60000 0.00982
v -0.99018 0.60000 0.01694
v -0.99554 0.60000 0.02548
v -0.99887 0.60000 0.03499
v -0.99887 0.60000 0.41501
v -0.99554 0.60000 0.42452
v -0.99018 0.60000 0.43306
v -0.98306 0.60000 0.44018
v -0.97452 0.60000 0.44554
v -0.96501 0.60000 0.44887
v -0.95500 0.60000 0.45000
v -0.95500 0.60000 0.04500
v -0.74500 0.60000 -0.00000
v -0.70446 0.60000 0.02548
v -0.70982 0.60000 0.01694
v -0.71694 0.60000 0.00982
v -0.70000 0.60000 0.04500
v -0.70113 0.60000 0.03499
v -0.72548 0.60000 0.00446
v -0.73499 0.60000 0.00113
v -0.95500 0.60000 0.40500
v -0.74500 0.60000 0.45000
v -0.70000 0.60000 0.40500
v -0.70982 0.60000 0.43306
v -0.70113 0.60000 0.41501
v -0.70446 0.60000 0.42452
v -0.72548 0.60000 0.44554
v -0.71694 0.60000 0.44018
v -0.73499 0.60000 0.44887
v 0.70000 -0.60000 0.04500
v 0.70000 -0.60000 0.40500
v 0.95500 -0.60000 0.04500
v 0.95500 -0.60000 0.40500
v 0.70000 0.60000 0.40500
v 0.70000 0.60000 0.04500
v 0.95500 0.60000 0.40500
v 0.95500 0.60000 0.04500
v 0.70446 -0.60000 0.02548
v 0.70113 -0.60000 0.03499
v 0.70982 -0.60000 0.01694
v 0.71694 -0.60000 0.00982
v 0.72548 -0.60000 0.00446
v 0.73499 -0.60000 0.00113
v 0.74500 -0.60000 -0.00000
v 0.95500 -0.60000 -0.00000
v 0.98306 -0.60000 0.00982
v 0.97452 -0.60000 0.00446
v 0.96501 -0.60000 0.00113
v 0.99018 -0.60000 0.01694
v 0.99554 -0.60000 0.02548
v 0.99887 -0.60000 0.03499
v 1.00000 -0.60000 0.04500
v 0.70982 -0.60000 0.43306
v 0.70113 -0.60000 0.41501
v 0.70446 -0.60000 0.42452
v 0.74500 -0.60000 0.45000
v 0.71694 -0.60000 0.44018
v 0.72548 -0.60000 0.44554
v 0.73499 -0.60000 0.44887
v 0.95500 -0.60000 0.45000
v 1.00000 -0.60000 0.40500
v 0.99887 -0.60000 0.41501
v 0.96501 -0.60000 0.44887
v 0.97452 -0.60000 0.44554
v 0.99554 -0.60000 0.42452
v 0.98306 -0.60000 0.44018
v 0.99018 -0.60000 0.43306
v 0.70000 -0.60000 0.45000
v -0.70000 -0.60000 0.45000
v -0.70000 0.60000 0.45000
v 0.70446 0.60000 0.02548
v 0.70113 0.60000 0.03499
v 0.70982 0.60000 0.01694
v 0.71694 0.60000 0.00982
v 0.72548 0.60000 0.00446
v 0.73499 0.60000 0.00113
v 0.74500 0.60000 -0.00000
v 0.95500 0.60000 -0.00000
v 0.98306 0.60000 0.00982
v 0.97452 0.60000 0.00446
v 0.96501 0.60000 0.00113
v 0.99018 0.60000 0.01694
v 0.99554 0.60000 0.02548
v 0.99887 0.60000 0.03499
v 1.00000 0.60000 0.04500
v 0.70982 0.60000 0.43306
v 0.70113 0.60000 0.41501
v 0.70446 0.60000 0.42452
v 0.74500 0.60000 0.45000
v 0.71694 0.60000 0.44018
v 0.72548 0.60000 0.44554
v 0.73499 0.60000 0.44887
v 0.95500 0.60000 0.45000
v 1.00000 0.60000 0.40500
v 0.99887 0.60000 0.41501
v 0.96501 0.60000 0.44887
v 0.97452 0.60000 0.44554
v 0.99554 0.60000 0.42452
v 0.98306 0.60000 0.44018
v 0.99018 0.60000 0.43306
v 0.70000 0.60000 0.45000

g Solid_0
usemtl Solid_0
f 1 2 3
f 3 2 4
f 5 6 1
f 7 6 5
f 8 6 7
f 9 6 8
f 10 6 9
f 11 6 10
f 12 6 11
f 12 13 6
f 14 15 16
f 17 18 15
f 16 18 19
f 19 18 20
f 20 18 13
f 13 18 6
f 15 18 16
f 1 21 2
f 2 21 22
f 22 21 23
f 23 21 24
f 6 21 1
f 21 25 24
f 21 26 25
f 21 27 26
f 21 28 27
f 29 30 21
f 21 30 28
f 31 32 29
f 33 32 31
f 34 32 35
f 36 32 34
f 30 32 36
f 29 32 30
f 37 38 12
f 37 12 11
f 39 11 10
f 39 37 11
f 40 10 9
f 40 39 10
f 41 9 8
f 41 40 9
f 42 8 7
f 42 41 8
f 43 7 5
f 43 42 7
f 3 5 1
f 3 43 5
f 44 2 22
f 44 4 2
f 45 22 23
f 45 44 22
f 46 23 24
f 46 45 23
f 47 24 25
f 47 46 24
f 48 25 26
f 48 47 25
f 49 26 27
f 49 48 26
f 50 27 28
f 50 49 27
f 51 43 3
f 51 42 43
f 51 41 42
f 51 40 41
f 51 39 40
f 51 37 39
f 51 38 37
f 52 38 51
f 53 54 55
f 56 57 53
f 56 55 58
f 56 58 59
f 56 59 52
f 56 52 51
f 56 53 55
f 60 3 4
f 60 4 44
f 60 44 45
f 60 45 46
f 60 51 3
f 47 60 46
f 48 60 47
f 49 60 48
f 50 60 49
f 61 62 60
f 61 60 50
f 63 64 62
f 63 65 64
f 63 66 67
f 63 68 66
f 63 61 68
f 63 62 61
f 38 52 12
f 12 52 13
f 57 18 17
f 57 56 18
f 53 17 15
f 53 57 17
f 54 15 14
f 54 53 15
f 55 14 16
f 55 54 14
f 58 16 19
f 58 55 16
f 59 19 20
f 59 58 19
f 52 20 13
f 52 59 20
f 18 29 6
f 6 29 21
f 69 70 18
f 18 70 29
f 71 72 69
f 69 72 70
f 61 50 28
f 61 28 30
f 68 61 30
f 68 30 36
f 66 36 34
f 66 68 36
f 67 34 35
f 67 66 34
f 63 35 32
f 63 67 35
f 65 32 33
f 65 63 32
f 64 33 31
f 64 65 33
f 62 31 29
f 62 64 31
f 62 56 51
f 62 51 60
f 73 74 56
f 73 56 62
f 75 76 74
f 75 74 73
f 56 74 18
f 18 74 69
f 77 69 78
f 79 69 77
f 80 69 79
f 81 69 80
f 82 69 81
f 83 69 82
f 84 71 83
f 85 71 86
f 86 71 87
f 87 71 84
f 83 71 69
f 85 88 71
f 88 89 71
f 89 90 71
f 90 91 71
f 70 92 93
f 93 92 94
f 92 95 96
f 96 95 97
f 97 95 98
f 70 95 92
f 70 72 95
f 72 99 95
f 71 100 72
f 91 100 71
f 100 101 72
f 72 102 99
f 72 103 102
f 101 104 72
f 72 105 103
f 72 106 105
f 104 106 72
f 70 107 29
f 29 107 108
f 29 108 62
f 62 108 109
f 74 110 111
f 74 112 110
f 74 113 112
f 74 114 113
f 74 115 114
f 74 116 115
f 76 117 116
f 76 118 119
f 76 119 120
f 76 120 117
f 76 116 74
f 121 118 76
f 122 121 76
f 123 122 76
f 124 123 76
f 125 73 126
f 125 126 127
f 128 125 129
f 128 129 130
f 128 130 131
f 128 73 125
f 75 73 128
f 132 75 128
f 133 76 75
f 133 124 76
f 134 133 75
f 135 75 132
f 136 75 135
f 137 134 75
f 138 75 136
f 139 75 138
f 139 137 75
f 140 73 62
f 140 62 109
f 115 116 83
f 115 83 82
f 114 82 81
f 114 115 82
f 113 81 80
f 113 114 81
f 112 80 79
f 112 113 80
f 110 79 77
f 110 112 79
f 111 77 78
f 111 110 77
f 74 78 69
f 74 111 78
f 116 117 83
f 83 117 84
f 123 91 90
f 123 124 91
f 122 90 89
f 122 123 90
f 121 89 88
f 121 122 89
f 118 88 85
f 118 121 88
f 119 85 86
f 119 118 85
f 120 86 87
f 120 119 86
f 117 87 84
f 117 120 87
f 100 91 124
f 100 124 133
f 135 132 99
f 135 99 102
f 136 102 103
f 136 135 102
f 138 103 105
f 138 136 103
f 139 105 106
f 139 138 105
f 137 106 104
f 137 139 106
f 134 104 101
f 134 137 104
f 133 101 100
f 133 134 101
f 132 128 95
f 132 95 99
f 126 70 93
f 126 73 70
f 127 93 94
f 127 126 93
f 125 94 92
f 125 127 94
f 129 92 96
f 129 125 92
f 130 96 97
f 130 129 96
f 131 97 98
f 131 130 97
f 128 98 95
f 128 131 98
f 107 70 73
f 107 73 140
f 140 109 108
f 140 108 107
