# Generated from SS34_SMA.step
mtllib SS34_SMA.mtl
v 2.35333 -0.75000 -0.00000
v 1.14000 0.75000 0.00000
v 2.35333 0.75000 -0.00000
v 1.14000 -0.75000 0.00000
v 2.28000 0.75000 0.22220
v 2.50000 0.75000 0.14667
v 2.49632 0.75000 0.11403
v 2.48548 0.75000 0.08303
v 2.46800 0.75000 0.05522
v 2.44478 0.75000 0.03200
v 2.41697 0.75000 0.01452
v 2.38597 0.75000 0.00368
v 2.22526 0.75000 0.22000
v 2.22541 0.75000 0.22220
v 2.50000 0.75000 0.84234
v 2.46800 0.75000 0.93379
v 2.48548 0.75000 0.90598
v 2.49632 0.75000 0.87498
v 2.44478 0.75000 0.95701
v 2.41697 0.75000 0.97449
v 2.35333 0.75000 0.98901
v 2.38597 0.75000 0.98533
v 2.28000 0.75000 0.98901
v 1.14000 0.75000 0.22000
v 2.38597 -0.75000 0.00368
v 2.41697 -0.75000 0.01452
v 2.44478 -0.75000 0.03200
v 2.46800 -0.75000 0.05522
v 2.48548 -0.75000 0.08303
v 2.49632 -0.75000 0.11403
v 2.50000 -0.75000 0.14667
v 2.44478 -0.75000 0.95701
v 2.41697 -0.75000 0.97449
v 2.38597 -0.75000 0.98533
v 2.46800 -0.75000 0.93379
v 2.35333 -0.75000 0.98901
v 2.50000 -0.75000 0.84234
v 2.49632 -0.75000 0.87498
v 2.48548 -0.75000 0.90598
v 2.28000 -0.75000 0.98901
v 2.22526 -0.75000 0.22000
v 1.14000 -0.75000 0.22000
v 2.28000 -0.75000 0.22220
v 2.22541 -0.75000 0.22220
v 2.22526 -1.29526 0.22000
v 2.28000 -1.35000 0.99900
v 2.22526 1.29526 0.22000
v 2.28000 1.35000 0.99900
v 1.10000 -1.29526 0.22000
v 1.10000 1.29526 0.22000
v -1.10000 -1.29526 0.22000
v -2.28000 -1.35000 0.99900
v -2.22526 -1.29526 0.22000
v 2.19420 1.26420 2.22000
v 2.19420 -1.26420 2.22000
v -2.28000 1.35000 0.99900
v -1.10000 1.29526 0.22000
v -2.22526 1.29526 0.22000
v 1.10000 -1.27980 0.00000
v 1.10000 1.27980 0.00000
v -1.14000 -0.75000 0.22000
v -2.22526 -0.75000 0.22000
v -1.14000 0.75000 0.22000
v -2.22526 0.75000 0.22000
v -2.22541 0.75000 0.22220
v -2.22541 -0.75000 0.22220
v -1.10000 -1.27980 0.00000
v -2.19420 -1.26420 2.22000
v -2.19420 1.26420 2.22000
v -1.50840 -1.17840 2.22000
v -2.10840 -1.17840 2.22000
v -1.50840 1.17840 2.22000
v -2.10840 1.17840 2.22000
v -1.10000 1.27980 0.00000
v -1.14000 0.75000 0.00000
v -2.35333 0.75000 -0.00000
v -2.28000 0.75000 0.22220
v -2.41697 0.75000 0.01452
v -2.44478 0.75000 0.03200
v -2.38597 0.75000 0.00368
v -2.46800 0.75000 0.05522
v -2.48548 0.75000 0.08303
v -2.49632 0.75000 0.11403
v -2.50000 0.75000 0.14667
v -2.50000 0.75000 0.84234
v -2.35333 0.75000 0.98901
v -2.28000 0.75000 0.98901
v -2.38597 0.75000 0.98533
v -2.44478 0.75000 0.95701
v -2.41697 0.75000 0.97449
v -2.46800 0.75000 0.93379
v -2.49632 0.75000 0.87498
v -2.48548 0.75000 0.90598
v -1.14000 -0.75000 0.00000
v -2.50000 -0.75000 0.84234
v -2.48548 -0.75000 0.90598
v -2.49632 -0.75000 0.87498
v -2.46800 -0.75000 0.93379
v -2.35333 -0.75000 0.98901
v -2.44478 -0.75000 0.95701
v -2.41697 -0.75000 0.97449
v -2.38597 -0.75000 0.98533
v -2.28000 -0.75000 0.98901
v -2.28000 -0.75000 0.22220
v -2.50000 -0.75000 0.14667
v -2.49632 -0.75000 0.11403
v -2.48548 -0.75000 0.08303
v -2.46800 -0.75000 0.05522
v -2.44478 -0.75000 0.03200
v -2.41697 -0.75000 0.01452
v -2.38597 -0.75000 0.00368
v -2.35333 -0.75000 -0.00000
v -1.50840 1.17840 2.21780
v -2.10840 1.17840 2.21780
v -1.50840 -1.17840 2.21780
v -2.10840 -1.17840 2.21780

g Solid_0
usemtl Solid_0
f 1 2 3
f 1 4 2
f 5 6 7
f 5 7 8
f 5 8 9
f 5 9 10
f 5 10 11
f 5 11 12
f 5 12 3
f 13 5 3
f 14 5 13
f 15 6 5
f 16 17 18
f 19 18 15
f 19 16 18
f 20 19 15
f 21 22 20
f 21 20 15
f 23 21 15
f 2 13 3
f 24 13 2
f 5 23 15
f 1 3 12
f 25 1 12
f 26 12 11
f 26 25 12
f 27 11 10
f 27 26 11
f 28 10 9
f 28 27 10
f 29 9 8
f 29 28 9
f 30 8 7
f 30 29 8
f 31 7 6
f 31 30 7
f 32 33 34
f 35 34 36
f 35 32 34
f 37 38 39
f 37 39 35
f 37 36 40
f 37 35 36
f 41 42 4
f 43 44 41
f 31 37 43
f 1 41 4
f 1 43 41
f 25 43 1
f 30 31 43
f 29 30 43
f 26 43 25
f 27 43 26
f 28 29 43
f 28 43 27
f 40 43 37
f 2 4 42
f 2 42 24
f 31 6 15
f 31 15 37
f 38 15 18
f 38 37 15
f 39 18 17
f 39 38 18
f 35 17 16
f 35 39 17
f 32 16 19
f 32 35 16
f 33 19 20
f 33 32 19
f 34 20 22
f 34 33 20
f 36 22 21
f 36 34 22
f 36 21 40
f 40 21 23
f 5 43 40
f 5 40 23
f 44 5 14
f 43 5 44
f 44 45 41
f 46 45 44
f 47 14 13
f 48 44 14
f 48 46 44
f 48 14 47
f 42 41 45
f 42 45 49
f 47 13 24
f 50 47 24
f 49 50 42
f 42 50 24
f 51 52 53
f 46 49 45
f 46 52 51
f 46 51 49
f 54 46 48
f 54 55 46
f 50 48 47
f 56 57 58
f 56 48 50
f 56 50 57
f 50 59 60
f 50 49 59
f 61 51 53
f 62 61 53
f 58 63 64
f 58 57 63
f 57 51 61
f 57 61 63
f 65 58 64
f 56 58 65
f 53 66 62
f 52 65 66
f 52 56 65
f 52 66 53
f 49 67 59
f 49 51 67
f 55 52 46
f 55 68 52
f 69 48 56
f 69 54 48
f 70 71 68
f 54 72 55
f 55 72 70
f 71 73 68
f 72 69 73
f 73 69 68
f 68 55 70
f 54 69 72
f 57 60 74
f 57 50 60
f 74 59 67
f 60 59 74
f 64 63 75
f 64 75 76
f 77 78 79
f 77 80 78
f 77 76 80
f 77 65 64
f 77 64 76
f 81 77 79
f 82 77 81
f 83 77 82
f 84 77 83
f 85 77 84
f 86 87 85
f 88 86 85
f 89 90 88
f 91 85 92
f 91 92 93
f 91 88 85
f 91 89 88
f 87 77 85
f 94 75 63
f 94 63 61
f 95 96 97
f 95 98 96
f 99 100 98
f 99 101 100
f 99 102 101
f 99 98 95
f 103 99 95
f 104 95 105
f 104 105 106
f 104 106 107
f 104 107 108
f 109 104 108
f 62 66 104
f 110 104 109
f 111 104 110
f 112 62 104
f 112 104 111
f 94 61 62
f 94 62 112
f 104 103 95
f 51 74 67
f 51 57 74
f 68 56 52
f 68 69 56
f 65 104 66
f 77 104 65
f 113 73 114
f 72 73 113
f 115 72 113
f 70 72 115
f 116 70 115
f 71 70 116
f 114 71 116
f 73 71 114
f 80 76 112
f 80 112 111
f 78 111 110
f 78 80 111
f 79 110 109
f 79 78 110
f 81 109 108
f 81 79 109
f 82 108 107
f 82 81 108
f 83 107 106
f 83 82 107
f 84 106 105
f 84 83 106
f 94 112 76
f 94 76 75
f 104 77 87
f 104 87 103
f 86 99 87
f 87 99 103
f 92 95 97
f 92 85 95
f 93 97 96
f 93 92 97
f 91 96 98
f 91 93 96
f 89 98 100
f 89 91 98
f 90 100 101
f 90 89 100
f 88 101 102
f 88 90 101
f 86 102 99
f 86 88 102
f 84 105 95
f 84 95 85
f 115 113 116
f 116 113 114
