# Generated from Tactile_6mm.step
mtllib Tactile_6mm.mtl
v 0.86597 -4.66149 4.10000
v 0.70727 -4.48236 4.10000
v 0.77574 -4.58156 4.10000
v 0.65000 -4.25000 4.10000
v 0.70727 -4.01764 4.10000
v 0.66453 -4.13034 4.10000
v 0.66453 -4.36966 4.10000
v 1.63547 -4.13034 4.10000
v 0.77574 -3.91844 4.10000
v 1.65000 -4.25000 4.10000
v 1.59273 -4.01764 4.10000
v 1.52426 -3.91844 4.10000
v 1.43403 -3.83851 4.10000
v 1.32730 -3.78249 4.10000
v 1.21027 -3.75365 4.10000
v 1.08973 -3.75365 4.10000
v 0.97270 -3.78249 4.10000
v 0.86597 -3.83851 4.10000
v 0.97270 -4.71751 4.10000
v 1.08973 -4.74635 4.10000
v 1.21027 -4.74635 4.10000
v 1.32730 -4.71751 4.10000
v 1.43403 -4.66149 4.10000
v 1.52426 -4.58156 4.10000
v 1.59273 -4.48236 4.10000
v 1.63547 -4.36966 4.10000
v 1.63547 -4.36966 3.60000
v 1.65000 -4.25000 3.60000
v 1.59273 -4.48236 3.60000
v 1.52426 -4.58156 3.60000
v 1.43403 -4.66149 3.60000
v 1.32730 -4.71751 3.60000
v 1.21027 -4.74635 3.60000
v 1.08973 -4.74635 3.60000
v 0.97270 -4.71751 3.60000
v 0.86597 -4.66149 3.60000
v 0.77574 -4.58156 3.60000
v 0.70727 -4.48236 3.60000
v 0.66453 -4.36966 3.60000
v 0.65000 -4.25000 3.60000
v 0.66453 -4.13034 3.60000
v 0.70727 -4.01764 3.60000
v 0.77574 -3.91844 3.60000
v 0.86597 -3.83851 3.60000
v 0.97270 -3.78249 3.60000
v 1.08973 -3.75365 3.60000
v 1.21027 -3.75365 3.60000
v 1.32730 -3.78249 3.60000
v 1.43403 -3.83851 3.60000
v 1.52426 -3.91844 3.60000
v 1.59273 -4.01764 3.60000
v 1.63547 -4.13034 3.60000
v 6.12029 -5.08016 3.60000
v 6.15000 -4.95000 3.60000
v 6.08455 -5.13705 3.60000
v 6.14248 -5.01676 3.60000
v 5.98017 -5.22029 3.60000
v 5.85000 -5.25000 3.60000
v 5.91676 -5.24248 3.60000
v 6.03705 -5.18455 3.60000
v 5.52426 -4.58156 3.60000
v 5.43403 -4.66149 3.60000
v 5.59273 -4.48236 3.60000
v 5.32730 -4.71751 3.60000
v 5.63547 -4.36966 3.60000
v 5.21027 -4.74635 3.60000
v 5.65000 -4.25000 3.60000
v 5.08973 -4.74635 3.60000
v 5.63547 -4.13034 3.60000
v 4.97270 -4.71751 3.60000
v 5.59273 -4.01764 3.60000
v 4.86597 -3.83851 3.60000
v 4.45989 -3.41046 3.60000
v 4.77574 -3.91844 3.60000
v 4.97270 -3.78249 3.60000
v 4.14411 -3.69022 3.60000
v 4.66453 -4.13034 3.60000
v 4.65000 -4.25000 3.60000
v 4.70727 -4.01764 3.60000
v 4.69955 -3.06327 3.60000
v 5.08973 -3.75365 3.60000
v 5.21027 -3.75365 3.60000
v 4.66453 -4.36966 3.60000
v 3.77056 -3.88628 3.60000
v 4.70727 -4.48236 3.60000
v 5.32730 -3.78249 3.60000
v 4.84915 -2.66880 3.60000
v 5.43403 -3.83851 3.60000
v 3.36094 -3.98724 3.60000
v 4.77574 -4.58156 3.60000
v 4.90000 -2.25000 3.60000
v 5.52426 -3.91844 3.60000
v 2.93906 -3.98724 3.60000
v 5.52426 -0.58156 3.60000
v 4.86597 -4.66149 3.60000
v 5.43403 -0.66149 3.60000
v 4.84915 -1.83120 3.60000
v 5.59273 -0.48236 3.60000
v 2.52944 -3.88628 3.60000
v 5.32730 -0.71751 3.60000
v 5.21027 -0.74635 3.60000
v 4.69955 -1.43673 3.60000
v 2.15589 -3.69022 3.60000
v 5.08973 -0.74635 3.60000
v 0.45000 -5.25000 3.60000
v 6.15000 0.45000 3.60000
v 5.63547 -0.36966 3.60000
v 5.65000 -0.25000 3.60000
v 5.63547 -0.13034 3.60000
v 4.97270 -0.71751 3.60000
v 5.59273 -0.01764 3.60000
v 4.45989 -1.08954 3.60000
v 4.86597 -0.66149 3.60000
v 0.26295 -5.18455 3.60000
v 0.38324 -5.24248 3.60000
v 0.31983 -5.22029 3.60000
v 6.14248 0.51676 3.60000
v 6.08455 0.63705 3.60000
v 6.12029 0.58017 3.60000
v 5.52426 0.08156 3.60000
v 4.77574 -0.58156 3.60000
v 0.17971 -5.08016 3.60000
v 0.21545 -5.13705 3.60000
v 1.84011 -3.41046 3.60000
v 0.15752 -5.01676 3.60000
v 0.15000 -4.95000 3.60000
v 5.85000 0.75000 3.60000
v 6.03705 0.68455 3.60000
v 5.98017 0.72029 3.60000
v 5.91676 0.74248 3.60000
v 5.43403 0.16149 3.60000
v 5.32730 0.21751 3.60000
v 5.21027 0.24635 3.60000
v 4.14411 -0.80978 3.60000
v 4.70727 -0.48236 3.60000
v 4.66453 -0.36966 3.60000
v 4.65000 -0.25000 3.60000
v 5.08973 0.24635 3.60000
v 4.97270 0.21751 3.60000
v 1.60045 -3.06327 3.60000
v 4.66453 -0.13034 3.60000
v 3.77056 -0.61372 3.60000
v 4.70727 -0.01764 3.60000
v 1.45085 -2.66880 3.60000
v 4.77574 0.08156 3.60000
v 3.36094 -0.51276 3.60000
v 1.40000 -2.25000 3.60000
v 2.15589 -0.80978 3.60000
v 1.52426 -0.58156 3.60000
v 1.84011 -1.08954 3.60000
v 1.43403 -0.66149 3.60000
v 1.59273 -0.48236 3.60000
v 1.32730 -0.71751 3.60000
v 1.60045 -1.43673 3.60000
v 1.63547 -0.36966 3.60000
v 1.21027 -0.74635 3.60000
v 1.65000 -0.25000 3.60000
v 2.52944 -0.61372 3.60000
v 1.08973 -0.74635 3.60000
v 1.45085 -1.83120 3.60000
v 1.63547 -0.13034 3.60000
v 0.97270 -0.71751 3.60000
v 2.93906 -0.51276 3.60000
v 1.59273 -0.01764 3.60000
v 0.86597 -0.66149 3.60000
v 1.52426 0.08156 3.60000
v 0.77574 -0.58156 3.60000
v 1.43403 0.16149 3.60000
v 4.86597 0.16149 3.60000
v 0.70727 -0.48236 3.60000
v 0.86597 0.16149 3.60000
v 0.45000 0.75000 3.60000
v 0.77574 0.08156 3.60000
v 0.97270 0.21751 3.60000
v 1.08973 0.24635 3.60000
v 1.21027 0.24635 3.60000
v 1.32730 0.21751 3.60000
v 0.15000 0.45000 3.60000
v 0.66453 -0.36966 3.60000
v 0.65000 -0.25000 3.60000
v 0.66453 -0.13034 3.60000
v 0.70727 -0.01764 3.60000
v 0.15752 0.51676 3.60000
v 0.21545 0.63705 3.60000
v 0.17971 0.58017 3.60000
v 0.38324 0.74248 3.60000
v 0.26295 0.68455 3.60000
v 0.31983 0.72029 3.60000
v 0.45000 -5.25000 3.50000
v 5.85000 -5.25000 3.50000
v 0.15000 -4.95000 3.50000
v 0.15752 -5.01676 3.50000
v 0.17971 -5.08016 3.50000
v 0.21545 -5.13705 3.50000
v 0.26295 -5.18455 3.50000
v 0.31983 -5.22029 3.50000
v 0.38324 -5.24248 3.50000
v 5.91676 -5.24248 3.50000
v 5.98017 -5.22029 3.50000
v 6.03705 -5.18455 3.50000
v 6.08455 -5.13705 3.50000
v 6.12029 -5.08016 3.50000
v 6.14248 -5.01676 3.50000
v 6.15000 -4.95000 3.50000
v 0.15000 0.45000 3.50000
v 6.15000 0.45000 3.50000
v 0.45000 0.75000 3.50000
v 0.38324 0.74248 3.50000
v 0.31983 0.72029 3.50000
v 0.26295 0.68455 3.50000
v 0.21545 0.63705 3.50000
v 0.17971 0.58017 3.50000
v 0.15752 0.51676 3.50000
v 6.14248 0.51676 3.50000
v 6.12029 0.58017 3.50000
v 6.08455 0.63705 3.50000
v 6.03705 0.68455 3.50000
v 5.98017 0.72029 3.50000
v 5.91676 0.74248 3.50000
v 5.85000 0.75000 3.50000
v 5.65000 -4.25000 4.10000
v 5.63547 -4.36966 4.10000
v 5.59273 -4.48236 4.10000
v 5.52426 -4.58156 4.10000
v 5.43403 -4.66149 4.10000
v 5.32730 -4.71751 4.10000
v 5.21027 -4.74635 4.10000
v 5.08973 -4.74635 4.10000
v 4.97270 -4.71751 4.10000
v 4.86597 -4.66149 4.10000
v 4.77574 -4.58156 4.10000
v 4.70727 -4.48236 4.10000
v 4.66453 -4.36966 4.10000
v 4.65000 -4.25000 4.10000
v 4.66453 -4.13034 4.10000
v 4.70727 -4.01764 4.10000
v 4.77574 -3.91844 4.10000
v 4.86597 -3.83851 4.10000
v 4.97270 -3.78249 4.10000
v 5.08973 -3.75365 4.10000
v 5.21027 -3.75365 4.10000
v 5.32730 -3.78249 4.10000
v 5.43403 -3.83851 4.10000
v 5.52426 -3.91844 4.10000
v 5.59273 -4.01764 4.10000
v 5.63547 -4.13034 4.10000
v 4.90000 -2.25000 4.20000
v 4.84915 -2.66880 4.20000
v 4.69955 -3.06327 4.20000
v 4.45989 -3.41046 4.20000
v 4.14411 -3.69022 4.20000
v 3.77056 -3.88628 4.20000
v 3.36094 -3.98724 4.20000
v 2.93906 -3.98724 4.20000
v 2.52944 -3.88628 4.20000
v 2.15589 -3.69022 4.20000
v 1.84011 -3.41046 4.20000
v 1.60045 -3.06327 4.20000
v 1.45085 -2.66880 4.20000
v 1.40000 -2.25000 4.20000
v 1.45085 -1.83120 4.20000
v 1.60045 -1.43673 4.20000
v 1.84011 -1.08954 4.20000
v 2.15589 -0.80978 4.20000
v 2.52944 -0.61372 4.20000
v 2.93906 -0.51276 4.20000
v 3.36094 -0.51276 4.20000
v 3.77056 -0.61372 4.20000
v 4.14411 -0.80978 4.20000
v 4.45989 -1.08954 4.20000
v 4.69955 -1.43673 4.20000
v 4.84915 -1.83120 4.20000
v 1.65000 -0.25000 4.10000
v 1.63547 -0.36966 4.10000
v 1.59273 -0.48236 4.10000
v 1.52426 -0.58156 4.10000
v 1.43403 -0.66149 4.10000
v 1.32730 -0.71751 4.10000
v 1.21027 -0.74635 4.10000
v 1.08973 -0.74635 4.10000
v 0.97270 -0.71751 4.10000
v 0.86597 -0.66149 4.10000
v 0.77574 -0.58156 4.10000
v 0.70727 -0.48236 4.10000
v 0.66453 -0.36966 4.10000
v 0.65000 -0.25000 4.10000
v 0.66453 -0.13034 4.10000
v 0.70727 -0.01764 4.10000
v 0.77574 0.08156 4.10000
v 0.86597 0.16149 4.10000
v 0.97270 0.21751 4.10000
v 1.08973 0.24635 4.10000
v 1.21027 0.24635 4.10000
v 1.32730 0.21751 4.10000
v 1.43403 0.16149 4.10000
v 1.52426 0.08156 4.10000
v 1.59273 -0.01764 4.10000
v 1.63547 -0.13034 4.10000
v 5.65000 -0.25000 4.10000
v 5.63547 -0.36966 4.10000
v 5.59273 -0.48236 4.10000
v 5.52426 -0.58156 4.10000
v 5.43403 -0.66149 4.10000
v 5.32730 -0.71751 4.10000
v 5.21027 -0.74635 4.10000
v 5.08973 -0.74635 4.10000
v 4.97270 -0.71751 4.10000
v 4.86597 -0.66149 4.10000
v 4.77574 -0.58156 4.10000
v 4.70727 -0.48236 4.10000
v 4.66453 -0.36966 4.10000
v 4.65000 -0.25000 4.10000
v 4.66453 -0.13034 4.10000
v 4.70727 -0.01764 4.10000
v 4.77574 0.08156 4.10000
v 4.86597 0.16149 4.10000
v 4.97270 0.21751 4.10000
v 5.08973 0.24635 4.10000
v 5.21027 0.24635 4.10000
v 5.32730 0.21751 4.10000
v 5.43403 0.16149 4.10000
v 5.52426 0.08156 4.10000
v 5.59273 -0.01764 4.10000
v 5.63547 -0.13034 4.10000
v 0.45000 -5.25000 0.00000
v 5.85000 -5.25000 0.00000
v 0.15000 -4.95000 0.00000
v 0.15752 -5.01676 0.00000
v 0.17971 -5.08016 0.00000
v 0.21545 -5.13705 0.00000
v 0.26295 -5.18455 0.00000
v 0.31983 -5.22029 0.00000
v 0.38324 -5.24248 0.00000
v 5.91676 -5.24248 0.00000
v 5.98017 -5.22029 0.00000
v 6.03705 -5.18455 0.00000
v 6.08455 -5.13705 0.00000
v 6.12029 -5.08016 0.00000
v 6.14248 -5.01676 0.00000
v 6.15000 -4.95000 0.00000
v 0.15000 0.35000 1.50000
v 0.15000 -0.35000 1.50000
v 0.15000 0.45000 0.00000
v 0.15000 0.35000 0.00000
v 0.15000 -4.15000 1.50000
v 0.15000 -4.85000 1.50000
v 0.15000 -0.35000 0.00000
v 0.15000 -4.15000 0.00000
v 0.15000 -4.85000 0.00000
v 6.15000 -4.85000 1.50000
v 6.15000 -4.15000 1.50000
v 6.15000 -4.85000 0.00000
v 6.15000 -0.35000 1.50000
v 6.15000 -4.15000 0.00000
v 6.15000 0.35000 1.50000
v 6.15000 -0.35000 0.00000
v 6.15000 0.35000 0.00000
v 6.15000 0.45000 0.00000
v 0.45000 0.75000 0.00000
v 0.38324 0.74248 0.00000
v 0.31983 0.72029 0.00000
v 0.26295 0.68455 0.00000
v 0.21545 0.63705 0.00000
v 0.17971 0.58017 0.00000
v 0.15752 0.51676 0.00000
v 6.14248 0.51676 0.00000
v 6.12029 0.58017 0.00000
v 6.08455 0.63705 0.00000
v 6.03705 0.68455 0.00000
v 5.98017 0.72029 0.00000
v 5.91676 0.74248 0.00000
v 5.85000 0.75000 0.00000
v 4.82225 -2.25000 4.29749
v 4.75205 -1.85513 4.30000
v 4.80000 -2.25000 4.30000
v 4.77366 -2.65020 4.29749
v 4.75205 -2.64487 4.30000
v 4.79418 -2.65525 4.29010
v 4.84339 -2.25000 4.29010
v 4.81259 -2.65979 4.27818
v 4.86235 -2.25000 4.27818
v 4.82797 -2.66358 4.26235
v 4.87818 -2.25000 4.26235
v 4.83953 -2.66643 4.24339
v 4.89010 -2.25000 4.24339
v 4.84671 -2.66820 4.22225
v 4.89749 -2.25000 4.22225
v 4.63071 -3.02713 4.29749
v 4.61100 -3.01679 4.30000
v 4.64942 -3.03696 4.29010
v 4.66621 -3.04577 4.27818
v 4.68023 -3.05313 4.26235
v 4.69078 -3.05866 4.24339
v 4.69733 -3.06210 4.22225
v 4.40170 -3.35891 4.29749
v 4.38504 -3.34415 4.30000
v 4.41752 -3.37292 4.29010
v 4.43171 -3.38550 4.27818
v 4.44356 -3.39600 4.26235
v 4.45248 -3.40390 4.24339
v 4.45802 -3.40880 4.22225
v 4.09995 -3.62624 4.29749
v 4.08731 -3.60792 4.30000
v 4.11195 -3.64363 4.29010
v 4.12273 -3.65924 4.27818
v 4.13172 -3.67227 4.26235
v 4.13849 -3.68207 4.24339
v 4.14269 -3.68816 4.22225
v 3.74299 -3.81358 4.29749
v 3.73510 -3.79278 4.30000
v 3.75048 -3.83335 4.29010
v 3.75721 -3.85107 4.27818
v 3.76282 -3.86588 4.26235
v 3.76705 -3.87702 4.24339
v 3.76967 -3.88393 4.22225
v 3.35157 -3.91006 4.29749
v 3.34889 -3.88797 4.30000
v 3.35412 -3.93104 4.29010
v 3.35640 -3.94986 4.27818
v 3.35831 -3.96558 4.26235
v 3.35975 -3.97741 4.24339
v 3.36064 -3.98475 4.22225
v 2.94843 -3.91006 4.29749
v 2.95111 -3.88797 4.30000
v 2.94588 -3.93104 4.29010
v 2.94360 -3.94986 4.27818
v 2.94169 -3.96558 4.26235
v 2.94025 -3.97741 4.24339
v 2.93936 -3.98475 4.22225
v 2.55701 -3.81358 4.29749
v 2.56490 -3.79278 4.30000
v 2.54952 -3.83335 4.29010
v 2.54279 -3.85107 4.27818
v 2.53718 -3.86588 4.26235
v 2.53295 -3.87702 4.24339
v 2.53033 -3.88393 4.22225
v 2.20005 -3.62624 4.29749
v 2.21269 -3.60792 4.30000
v 2.18805 -3.64363 4.29010
v 2.17727 -3.65924 4.27818
v 2.16828 -3.67227 4.26235
v 2.16151 -3.68207 4.24339
v 2.15731 -3.68816 4.22225
v 1.89830 -3.35891 4.29749
v 1.91496 -3.34415 4.30000
v 1.88248 -3.37292 4.29010
v 1.86829 -3.38550 4.27818
v 1.85644 -3.39600 4.26235
v 1.84752 -3.40390 4.24339
v 1.84198 -3.40880 4.22225
v 1.66929 -3.02713 4.29749
v 1.68900 -3.01679 4.30000
v 1.54795 -2.64487 4.30000
v 1.65058 -3.03696 4.29010
v 1.63379 -3.04577 4.27818
v 1.61977 -3.05313 4.26235
v 1.60922 -3.05866 4.24339
v 1.60267 -3.06210 4.22225
v 1.52634 -2.65020 4.29749
v 1.50582 -2.65525 4.29010
v 1.48741 -2.65979 4.27818
v 1.47203 -2.66358 4.26235
v 1.46047 -2.66643 4.24339
v 1.45329 -2.66820 4.22225
v 1.47775 -2.25000 4.29749
v 1.50000 -2.25000 4.30000
v 1.45661 -2.25000 4.29010
v 1.43765 -2.25000 4.27818
v 1.42182 -2.25000 4.26235
v 1.40990 -2.25000 4.24339
v 1.40251 -2.25000 4.22225
v 1.52634 -1.84980 4.29749
v 1.54795 -1.85513 4.30000
v 1.50582 -1.84475 4.29010
v 1.48741 -1.84021 4.27818
v 1.47203 -1.83642 4.26235
v 1.46047 -1.83357 4.24339
v 1.45329 -1.83180 4.22225
v 1.66929 -1.47287 4.29749
v 1.68900 -1.48321 4.30000
v 1.65058 -1.46304 4.29010
v 1.63379 -1.45423 4.27818
v 1.61977 -1.44687 4.26235
v 1.60922 -1.44134 4.24339
v 1.60267 -1.43790 4.22225
v 1.89830 -1.14109 4.29749
v 1.91496 -1.15585 4.30000
v 2.21269 -0.89208 4.30000
v 1.88248 -1.12708 4.29010
v 1.86829 -1.11450 4.27818
v 1.85644 -1.10400 4.26235
v 1.84752 -1.09610 4.24339
v 1.84198 -1.09120 4.22225
v 2.20005 -0.87376 4.29749
v 2.18805 -0.85637 4.29010
v 2.17727 -0.84076 4.27818
v 2.16828 -0.82773 4.26235
v 2.16151 -0.81793 4.24339
v 2.15731 -0.81184 4.22225
v 2.55701 -0.68642 4.29749
v 2.56490 -0.70722 4.30000
v 2.95111 -0.61203 4.30000
v 2.54952 -0.66665 4.29010
v 2.54279 -0.64893 4.27818
v 2.53718 -0.63412 4.26235
v 2.53295 -0.62298 4.24339
v 2.53033 -0.61607 4.22225
v 2.94843 -0.58994 4.29749
v 2.94588 -0.56896 4.29010
v 2.94360 -0.55014 4.27818
v 2.94169 -0.53442 4.26235
v 2.94025 -0.52259 4.24339
v 2.93936 -0.51525 4.22225
v 3.35157 -0.58994 4.29749
v 3.34889 -0.61203 4.30000
v 3.73510 -0.70722 4.30000
v 3.35412 -0.56896 4.29010
v 3.35640 -0.55014 4.27818
v 3.35831 -0.53442 4.26235
v 3.35975 -0.52259 4.24339
v 3.36064 -0.51525 4.22225
v 3.74299 -0.68642 4.29749
v 4.08731 -0.89208 4.30000
v 3.75048 -0.66665 4.29010
v 3.75721 -0.64893 4.27818
v 3.76282 -0.63412 4.26235
v 3.76705 -0.62298 4.24339
v 3.76967 -0.61607 4.22225
v 4.09995 -0.87376 4.29749
v 4.11195 -0.85637 4.29010
v 4.12273 -0.84076 4.27818
v 4.13172 -0.82773 4.26235
v 4.13849 -0.81793 4.24339
v 4.14269 -0.81184 4.22225
v 4.40170 -1.14109 4.29749
v 4.38504 -1.15585 4.30000
v 4.41752 -1.12708 4.29010
v 4.43171 -1.11450 4.27818
v 4.44356 -1.10400 4.26235
v 4.45248 -1.09610 4.24339
v 4.45802 -1.09120 4.22225
v 4.63071 -1.47287 4.29749
v 4.61100 -1.48321 4.30000
v 4.64942 -1.46304 4.29010
v 4.66621 -1.45423 4.27818
v 4.68023 -1.44687 4.26235
v 4.69078 -1.44134 4.24339
v 4.69733 -1.43790 4.22225
v 4.77366 -1.84980 4.29749
v 4.79418 -1.84475 4.29010
v 4.81259 -1.84021 4.27818
v 4.82797 -1.83642 4.26235
v 4.83953 -1.83357 4.24339
v 4.84671 -1.83180 4.22225
v 0.07547 0.35000 1.49273
v 0.14000 0.35000 1.50000
v 0.01417 0.35000 1.47128
v -0.12128 0.35000 1.33583
v -0.15000 0.35000 1.21000
v -0.14273 0.35000 1.27453
v -0.08673 0.35000 1.39081
v -0.04081 0.35000 1.43673
v -0.15000 0.35000 -0.45744
v 0.15000 0.35000 -0.45744
v 0.14863 0.35000 -0.48557
v 0.14454 0.35000 -0.51343
v -0.15137 0.35000 -0.48557
v -0.15546 0.35000 -0.51343
v 0.13777 0.35000 -0.54077
v -0.16223 0.35000 -0.54077
v -0.12500 0.35000 -1.41667
v -0.42500 0.35000 -1.41667
v -0.13586 0.35000 -1.47187
v -0.43586 0.35000 -1.47187
v -0.43586 0.35000 -1.52813
v -0.13586 0.35000 -1.52813
v -0.42500 0.35000 -1.58333
v -0.12500 0.35000 -1.58333
v -0.16223 0.35000 -2.45923
v -0.15546 0.35000 -2.48657
v 0.13777 0.35000 -2.45923
v -0.15137 0.35000 -2.51443
v 0.14454 0.35000 -2.48657
v -0.15000 0.35000 -2.54256
v 0.14863 0.35000 -2.51443
v 0.15000 0.35000 -2.54256
v 0.15000 0.35000 -3.50000
v -0.15000 0.35000 -3.50000
v 0.14000 -0.35000 1.50000
v 0.07547 -0.35000 1.49273
v 0.01417 -0.35000 1.47128
v -0.15000 -0.35000 1.21000
v -0.12128 -0.35000 1.33583
v -0.14273 -0.35000 1.27453
v -0.08673 -0.35000 1.39081
v -0.04081 -0.35000 1.43673
v -0.15000 -0.35000 -0.45744
v 0.15000 -0.35000 -0.45744
v 0.14863 -0.35000 -0.48557
v 0.14454 -0.35000 -0.51343
v -0.15137 -0.35000 -0.48557
v 0.13777 -0.35000 -0.54077
v -0.15546 -0.35000 -0.51343
v -0.16223 -0.35000 -0.54077
v -0.12500 -0.35000 -1.41667
v -0.42500 -0.35000 -1.41667
v -0.13586 -0.35000 -1.47187
v -0.43586 -0.35000 -1.47187
v -0.43586 -0.35000 -1.52813
v -0.13586 -0.35000 -1.52813
v -0.42500 -0.35000 -1.58333
v -0.12500 -0.35000 -1.58333
v -0.16223 -0.35000 -2.45923
v 0.13777 -0.35000 -2.45923
v -0.15546 -0.35000 -2.48657
v -0.15137 -0.35000 -2.51443
v 0.14454 -0.35000 -2.48657
v -0.15000 -0.35000 -2.54256
v 0.14863 -0.35000 -2.51443
v 0.15000 -0.35000 -2.54256
v 0.15000 -0.35000 -3.50000
v -0.15000 -0.35000 -3.50000
v 0.14000 -4.85000 1.50000
v 0.07547 -4.85000 1.49273
v 0.01417 -4.85000 1.47128
v -0.15000 -4.85000 1.21000
v -0.12128 -4.85000 1.33583
v -0.14273 -4.85000 1.27453
v -0.08673 -4.85000 1.39081
v -0.04081 -4.85000 1.43673
v -0.15000 -4.85000 -0.45744
v 0.15000 -4.85000 -0.45744
v 0.14863 -4.85000 -0.48557
v 0.14454 -4.85000 -0.51343
v -0.15137 -4.85000 -0.48557
v 0.13777 -4.85000 -0.54077
v -0.15546 -4.85000 -0.51343
v -0.16223 -4.85000 -0.54077
v -0.12500 -4.85000 -1.41667
v -0.42500 -4.85000 -1.41667
v -0.13586 -4.85000 -1.47187
v -0.43586 -4.85000 -1.47187
v -0.43586 -4.85000 -1.52813
v -0.13586 -4.85000 -1.52813
v -0.42500 -4.85000 -1.58333
v -0.12500 -4.85000 -1.58333
v -0.16223 -4.85000 -2.45923
v 0.13777 -4.85000 -2.45923
v -0.15546 -4.85000 -2.48657
v -0.15137 -4.85000 -2.51443
v 0.14454 -4.85000 -2.48657
v -0.15000 -4.85000 -2.54256
v 0.14863 -4.85000 -2.51443
v 0.15000 -4.85000 -2.54256
v 0.15000 -4.85000 -3.50000
v -0.15000 -4.85000 -3.50000
v 0.07547 -4.15000 1.49273
v 0.14000 -4.15000 1.50000
v 0.01417 -4.15000 1.47128
v -0.12128 -4.15000 1.33583
v -0.15000 -4.15000 1.21000
v -0.14273 -4.15000 1.27453
v -0.08673 -4.15000 1.39081
v -0.04081 -4.15000 1.43673
v -0.15000 -4.15000 -0.45744
v 0.15000 -4.15000 -0.45744
v 0.14863 -4.15000 -0.48557
v 0.14454 -4.15000 -0.51343
v -0.15137 -4.15000 -0.48557
v -0.15546 -4.15000 -0.51343
v 0.13777 -4.15000 -0.54077
v -0.16223 -4.15000 -0.54077
v -0.12500 -4.15000 -1.41667
v -0.42500 -4.15000 -1.41667
v -0.13586 -4.15000 -1.47187
v -0.43586 -4.15000 -1.47187
v -0.43586 -4.15000 -1.52813
v -0.13586 -4.15000 -1.52813
v -0.42500 -4.15000 -1.58333
v -0.12500 -4.15000 -1.58333
v -0.16223 -4.15000 -2.45923
v -0.15546 -4.15000 -2.48657
v 0.13777 -4.15000 -2.45923
v -0.15137 -4.15000 -2.51443
v 0.14454 -4.15000 -2.48657
v -0.15000 -4.15000 -2.54256
v 0.14863 -4.15000 -2.51443
v 0.15000 -4.15000 -2.54256
v 0.15000 -4.15000 -3.50000
v -0.15000 -4.15000 -3.50000
v 6.45000 -4.85000 -3.50000
v 6.45000 -4.85000 -2.54256
v 6.15000 -4.85000 -3.50000
v 6.15000 -4.85000 -2.54256
v 6.15137 -4.85000 -2.51443
v 6.15546 -4.85000 -2.48657
v 6.45137 -4.85000 -2.51443
v 6.16223 -4.85000 -2.45923
v 6.45546 -4.85000 -2.48657
v 6.46223 -4.85000 -2.45923
v 6.42500 -4.85000 -1.58333
v 6.72500 -4.85000 -1.58333
v 6.43586 -4.85000 -1.52813
v 6.73586 -4.85000 -1.52813
v 6.43586 -4.85000 -1.47187
v 6.73586 -4.85000 -1.47187
v 6.72500 -4.85000 -1.41667
v 6.42500 -4.85000 -1.41667
v 6.46223 -4.85000 -0.54077
v 6.16223 -4.85000 -0.54077
v 6.45546 -4.85000 -0.51343
v 6.45137 -4.85000 -0.48557
v 6.15546 -4.85000 -0.51343
v 6.15137 -4.85000 -0.48557
v 6.45000 -4.85000 -0.45744
v 6.15000 -4.85000 -0.45744
v 6.45000 -4.85000 1.21000
v 6.16000 -4.85000 1.50000
v 6.44273 -4.85000 1.27453
v 6.38673 -4.85000 1.39081
v 6.42128 -4.85000 1.33583
v 6.34081 -4.85000 1.43673
v 6.22453 -4.85000 1.49273
v 6.28583 -4.85000 1.47128
v 6.16000 -4.15000 1.50000
v 6.45000 -4.15000 -2.54256
v 6.45000 -4.15000 -3.50000
v 6.15000 -4.15000 -3.50000
v 6.15000 -4.15000 -2.54256
v 6.15137 -4.15000 -2.51443
v 6.15546 -4.15000 -2.48657
v 6.45137 -4.15000 -2.51443
v 6.16223 -4.15000 -2.45923
v 6.45546 -4.15000 -2.48657
v 6.46223 -4.15000 -2.45923
v 6.42500 -4.15000 -1.58333
v 6.72500 -4.15000 -1.58333
v 6.43586 -4.15000 -1.52813
v 6.73586 -4.15000 -1.52813
v 6.43586 -4.15000 -1.47187
v 6.73586 -4.15000 -1.47187
v 6.72500 -4.15000 -1.41667
v 6.42500 -4.15000 -1.41667
v 6.46223 -4.15000 -0.54077
v 6.16223 -4.15000 -0.54077
v 6.45546 -4.15000 -0.51343
v 6.45137 -4.15000 -0.48557
v 6.15546 -4.15000 -0.51343
v 6.45000 -4.15000 -0.45744
v 6.15137 -4.15000 -0.48557
v 6.15000 -4.15000 -0.45744
v 6.45000 -4.15000 1.21000
v 6.38673 -4.15000 1.39081
v 6.44273 -4.15000 1.27453
v 6.42128 -4.15000 1.33583
v 6.34081 -4.15000 1.43673
v 6.22453 -4.15000 1.49273
v 6.28583 -4.15000 1.47128
v 6.45000 0.35000 -2.54256
v 6.45000 0.35000 -3.50000
v 6.15000 0.35000 -3.50000
v 6.15000 0.35000 -2.54256
v 6.15137 0.35000 -2.51443
v 6.15546 0.35000 -2.48657
v 6.45137 0.35000 -2.51443
v 6.16223 0.35000 -2.45923
v 6.45546 0.35000 -2.48657
v 6.46223 0.35000 -2.45923
v 6.42500 0.35000 -1.58333
v 6.72500 0.35000 -1.58333
v 6.43586 0.35000 -1.52813
v 6.73586 0.35000 -1.52813
v 6.43586 0.35000 -1.47187
v 6.73586 0.35000 -1.47187
v 6.72500 0.35000 -1.41667
v 6.42500 0.35000 -1.41667
v 6.46223 0.35000 -0.54077
v 6.16223 0.35000 -0.54077
v 6.45546 0.35000 -0.51343
v 6.45137 0.35000 -0.48557
v 6.15546 0.35000 -0.51343
v 6.45000 0.35000 -0.45744
v 6.15137 0.35000 -0.48557
v 6.15000 0.35000 -0.45744
v 6.45000 0.35000 1.21000
v 6.16000 0.35000 1.50000
v 6.38673 0.35000 1.39081
v 6.44273 0.35000 1.27453
v 6.42128 0.35000 1.33583
v 6.34081 0.35000 1.43673
v 6.22453 0.35000 1.49273
v 6.28583 0.35000 1.47128
v 6.45000 -0.35000 -3.50000
v 6.45000 -0.35000 -2.54256
v 6.15000 -0.35000 -3.50000
v 6.15000 -0.35000 -2.54256
v 6.15137 -0.35000 -2.51443
v 6.15546 -0.35000 -2.48657
v 6.45137 -0.35000 -2.51443
v 6.16223 -0.35000 -2.45923
v 6.45546 -0.35000 -2.48657
v 6.46223 -0.35000 -2.45923
v 6.42500 -0.35000 -1.58333
v 6.72500 -0.35000 -1.58333
v 6.43586 -0.35000 -1.52813
v 6.73586 -0.35000 -1.52813
v 6.43586 -0.35000 -1.47187
v 6.73586 -0.35000 -1.47187
v 6.72500 -0.35000 -1.41667
v 6.42500 -0.35000 -1.41667
v 6.46223 -0.35000 -0.54077
v 6.16223 -0.35000 -0.54077
v 6.45546 -0.35000 -0.51343
v 6.45137 -0.35000 -0.48557
v 6.15546 -0.35000 -0.51343
v 6.15137 -0.35000 -0.48557
v 6.45000 -0.35000 -0.45744
v 6.15000 -0.35000 -0.45744
v 6.45000 -0.35000 1.21000
v 6.16000 -0.35000 1.50000
v 6.44273 -0.35000 1.27453
v 6.38673 -0.35000 1.39081
v 6.42128 -0.35000 1.33583
v 6.34081 -0.35000 1.43673
v 6.22453 -0.35000 1.49273
v 6.28583 -0.35000 1.47128

g Solid_0
usemtl Solid_0
f 1 2 3
f 4 5 6
f 7 5 4
f 8 9 10
f 11 9 8
f 12 9 11
f 13 9 12
f 14 9 13
f 15 9 14
f 16 9 15
f 17 9 16
f 18 9 17
f 2 9 7
f 19 9 1
f 20 9 19
f 21 9 20
f 22 9 21
f 23 9 22
f 24 9 23
f 25 9 24
f 26 9 25
f 10 9 26
f 1 9 2
f 7 9 5
f 27 28 10
f 27 10 26
f 29 26 25
f 29 27 26
f 30 25 24
f 30 29 25
f 31 24 23
f 31 30 24
f 32 23 22
f 32 31 23
f 33 22 21
f 33 32 22
f 34 21 20
f 34 33 21
f 35 20 19
f 35 34 20
f 36 19 1
f 36 35 19
f 37 1 3
f 37 36 1
f 38 37 3
f 38 3 2
f 39 38 2
f 39 2 7
f 40 39 7
f 40 7 4
f 41 4 6
f 41 40 4
f 42 41 6
f 42 6 5
f 43 5 9
f 43 42 5
f 44 9 18
f 44 43 9
f 45 18 17
f 45 44 18
f 46 17 16
f 46 45 17
f 47 16 15
f 47 46 16
f 48 15 14
f 48 47 15
f 49 14 13
f 49 48 14
f 50 13 12
f 50 49 13
f 51 12 11
f 51 50 12
f 52 11 8
f 52 51 11
f 28 8 10
f 28 52 8
f 53 54 55
f 56 54 53
f 57 58 59
f 60 58 57
f 55 58 60
f 54 58 55
f 54 61 58
f 61 62 58
f 54 63 61
f 62 64 58
f 54 65 63
f 64 66 58
f 54 67 65
f 66 68 58
f 54 69 67
f 68 70 58
f 54 71 69
f 72 73 74
f 75 73 72
f 73 76 74
f 77 76 78
f 79 76 77
f 74 76 79
f 75 80 73
f 81 80 75
f 82 80 81
f 83 84 85
f 78 84 83
f 76 84 78
f 86 87 82
f 88 87 86
f 82 87 80
f 84 89 85
f 85 89 90
f 88 91 87
f 92 91 88
f 89 93 90
f 92 94 91
f 93 30 90
f 30 31 90
f 90 31 95
f 94 96 91
f 91 96 97
f 92 98 94
f 71 98 92
f 93 29 30
f 99 29 93
f 70 32 58
f 31 32 95
f 95 32 70
f 96 100 97
f 99 27 29
f 100 101 97
f 97 101 102
f 99 28 27
f 99 103 28
f 101 104 102
f 103 52 28
f 33 105 32
f 34 105 33
f 32 105 58
f 54 106 71
f 107 106 108
f 98 106 107
f 108 106 109
f 71 106 98
f 34 35 105
f 104 110 102
f 103 51 52
f 106 111 109
f 110 112 102
f 35 36 105
f 110 113 112
f 105 114 115
f 115 114 116
f 117 118 106
f 119 118 117
f 103 50 51
f 106 120 111
f 113 121 112
f 36 37 105
f 105 122 114
f 114 122 123
f 103 124 50
f 50 124 49
f 105 125 122
f 124 48 49
f 105 126 125
f 38 126 37
f 37 126 105
f 106 127 120
f 128 127 118
f 129 127 128
f 130 127 129
f 118 127 106
f 131 127 132
f 120 127 131
f 38 39 126
f 127 133 132
f 121 134 112
f 135 134 121
f 136 134 135
f 136 137 134
f 39 40 126
f 127 138 133
f 40 41 126
f 127 139 138
f 41 42 126
f 47 140 46
f 48 140 47
f 124 140 48
f 141 142 137
f 143 142 141
f 137 142 134
f 45 144 44
f 46 144 45
f 140 144 46
f 145 146 143
f 143 146 142
f 44 147 43
f 144 147 44
f 148 149 150
f 149 151 150
f 148 152 149
f 151 153 150
f 150 153 154
f 148 155 152
f 153 156 154
f 148 157 155
f 158 157 148
f 154 159 160
f 156 159 154
f 158 161 157
f 159 162 160
f 163 164 158
f 158 164 161
f 162 165 160
f 160 165 147
f 163 166 164
f 146 166 163
f 145 166 146
f 165 167 147
f 147 167 43
f 145 168 166
f 169 168 145
f 167 170 43
f 43 170 42
f 42 170 126
f 171 172 173
f 174 172 171
f 175 172 174
f 176 172 175
f 177 172 176
f 170 178 126
f 172 178 173
f 179 178 170
f 180 178 179
f 181 178 180
f 182 178 181
f 173 178 182
f 172 183 178
f 183 184 185
f 186 187 172
f 188 187 186
f 172 187 183
f 183 187 184
f 127 172 177
f 127 177 168
f 127 168 139
f 139 168 169
f 189 190 105
f 105 190 58
f 125 126 191
f 125 191 192
f 122 192 193
f 122 125 192
f 123 193 194
f 123 122 193
f 114 194 195
f 114 123 194
f 116 195 196
f 116 114 195
f 115 196 197
f 115 116 196
f 105 197 189
f 105 115 197
f 59 190 198
f 59 58 190
f 57 198 199
f 57 59 198
f 60 199 200
f 60 57 199
f 55 200 201
f 55 60 200
f 53 201 202
f 53 55 201
f 56 202 203
f 56 53 202
f 54 203 204
f 54 56 203
f 205 191 178
f 178 191 126
f 204 206 54
f 54 206 106
f 186 207 208
f 186 172 207
f 188 208 209
f 188 186 208
f 187 209 210
f 187 188 209
f 184 210 211
f 184 187 210
f 185 211 212
f 185 184 211
f 183 212 213
f 183 185 212
f 178 213 205
f 178 183 213
f 117 206 214
f 117 106 206
f 119 214 215
f 119 117 214
f 118 215 216
f 118 119 215
f 128 216 217
f 128 118 216
f 129 217 218
f 129 128 217
f 130 218 219
f 130 129 218
f 127 219 220
f 127 130 219
f 220 207 127
f 127 207 172
f 65 67 221
f 65 221 222
f 63 222 223
f 63 65 222
f 61 223 224
f 61 63 223
f 62 224 225
f 62 61 224
f 64 225 226
f 64 62 225
f 66 226 227
f 66 64 226
f 68 227 228
f 68 66 227
f 70 228 229
f 70 68 228
f 95 229 230
f 95 70 229
f 90 230 231
f 90 95 230
f 85 90 231
f 85 231 232
f 83 85 232
f 83 232 233
f 78 83 233
f 78 233 234
f 77 234 235
f 77 78 234
f 79 77 235
f 79 235 236
f 74 236 237
f 74 79 236
f 72 237 238
f 72 74 237
f 75 238 239
f 75 72 238
f 81 239 240
f 81 75 239
f 82 240 241
f 82 81 240
f 86 241 242
f 86 82 241
f 88 242 243
f 88 86 242
f 92 243 244
f 92 88 243
f 71 244 245
f 71 92 244
f 69 245 246
f 69 71 245
f 67 246 221
f 67 69 246
f 87 91 247
f 87 247 248
f 80 248 249
f 80 87 248
f 73 249 250
f 73 80 249
f 76 250 251
f 76 73 250
f 84 251 252
f 84 76 251
f 89 252 253
f 89 84 252
f 93 253 254
f 93 89 253
f 99 254 255
f 99 93 254
f 103 255 256
f 103 99 255
f 124 257 258
f 124 256 257
f 124 103 256
f 140 124 258
f 144 140 258
f 144 258 259
f 147 144 259
f 147 259 260
f 160 260 261
f 160 147 260
f 154 160 261
f 154 261 262
f 150 263 264
f 150 262 263
f 150 154 262
f 148 150 264
f 158 264 265
f 158 148 264
f 163 265 266
f 163 158 265
f 146 266 267
f 146 163 266
f 142 267 268
f 142 146 267
f 134 268 269
f 134 142 268
f 112 269 270
f 112 134 269
f 102 270 271
f 102 112 270
f 97 272 247
f 97 271 272
f 97 102 271
f 91 97 247
f 155 157 273
f 155 273 274
f 152 274 275
f 152 155 274
f 149 275 276
f 149 152 275
f 151 276 277
f 151 149 276
f 153 277 278
f 153 151 277
f 156 278 279
f 156 153 278
f 159 279 280
f 159 156 279
f 162 280 281
f 162 159 280
f 165 281 282
f 165 162 281
f 167 282 283
f 167 165 282
f 170 167 283
f 170 283 284
f 179 170 284
f 179 284 285
f 180 179 285
f 180 285 286
f 181 286 287
f 181 180 286
f 182 181 287
f 182 287 288
f 173 288 289
f 173 182 288
f 171 289 290
f 171 173 289
f 174 290 291
f 174 171 290
f 175 291 292
f 175 174 291
f 176 292 293
f 176 175 292
f 177 293 294
f 177 176 293
f 168 294 295
f 168 177 294
f 166 295 296
f 166 168 295
f 164 296 297
f 164 166 296
f 161 297 298
f 161 164 297
f 157 298 273
f 157 161 298
f 107 108 299
f 107 299 300
f 98 300 301
f 98 107 300
f 94 301 302
f 94 98 301
f 96 302 303
f 96 94 302
f 100 303 304
f 100 96 303
f 101 304 305
f 101 100 304
f 104 305 306
f 104 101 305
f 110 306 307
f 110 104 306
f 113 307 308
f 113 110 307
f 121 308 309
f 121 113 308
f 135 121 309
f 135 309 310
f 136 135 310
f 136 310 311
f 137 136 311
f 137 311 312
f 141 312 313
f 141 137 312
f 143 141 313
f 143 313 314
f 145 314 315
f 145 143 314
f 169 315 316
f 169 145 315
f 139 316 317
f 139 169 316
f 138 317 318
f 138 139 317
f 133 318 319
f 133 138 318
f 132 319 320
f 132 133 319
f 131 320 321
f 131 132 320
f 120 321 322
f 120 131 321
f 111 322 323
f 111 120 322
f 109 323 324
f 109 111 323
f 108 324 299
f 108 109 324
f 325 326 189
f 189 326 190
f 192 191 327
f 192 327 328
f 193 328 329
f 193 192 328
f 194 329 330
f 194 193 329
f 195 330 331
f 195 194 330
f 196 332 333
f 196 331 332
f 196 195 331
f 197 196 333
f 189 333 325
f 189 197 333
f 198 326 334
f 198 190 326
f 199 334 335
f 199 198 334
f 200 335 336
f 200 199 335
f 201 336 337
f 201 200 336
f 202 337 338
f 202 338 339
f 202 201 337
f 203 202 339
f 204 339 340
f 204 203 339
f 341 342 205
f 343 344 341
f 205 345 191
f 342 345 205
f 345 346 191
f 347 348 342
f 342 348 345
f 349 327 346
f 205 343 341
f 327 191 346
f 350 351 204
f 340 352 350
f 204 353 206
f 354 353 351
f 351 353 204
f 353 355 206
f 354 356 353
f 357 358 355
f 204 340 350
f 358 206 355
f 208 359 360
f 208 207 359
f 209 360 361
f 209 208 360
f 210 361 362
f 210 209 361
f 211 362 363
f 211 210 362
f 212 363 364
f 212 364 365
f 212 211 363
f 213 212 365
f 205 365 343
f 205 213 365
f 214 358 366
f 214 206 358
f 215 366 367
f 215 214 366
f 216 367 368
f 216 215 367
f 217 368 369
f 217 216 368
f 218 369 370
f 218 370 371
f 218 217 369
f 219 218 371
f 220 371 372
f 220 219 371
f 372 359 220
f 220 359 207
f 229 231 230
f 241 240 242
f 234 236 235
f 239 238 240
f 246 237 221
f 245 237 246
f 244 237 245
f 243 237 244
f 242 237 243
f 233 237 234
f 232 237 233
f 231 237 232
f 228 237 229
f 227 237 228
f 226 237 227
f 225 237 226
f 224 237 225
f 223 237 224
f 222 237 223
f 221 237 222
f 229 237 231
f 234 237 236
f 240 237 242
f 238 237 240
f 373 374 375
f 376 373 375
f 376 375 377
f 378 379 373
f 378 373 376
f 380 381 379
f 380 379 378
f 382 383 381
f 382 381 380
f 384 385 383
f 384 383 382
f 386 248 247
f 386 387 385
f 386 247 387
f 386 385 384
f 388 376 377
f 388 377 389
f 390 376 388
f 390 378 376
f 391 380 378
f 391 378 390
f 392 380 391
f 392 382 380
f 393 384 382
f 393 382 392
f 394 386 384
f 394 249 248
f 394 248 386
f 394 384 393
f 395 389 396
f 395 388 389
f 397 388 395
f 397 390 388
f 398 391 390
f 398 390 397
f 399 391 398
f 399 392 391
f 400 393 392
f 400 392 399
f 401 394 393
f 401 250 249
f 401 393 400
f 401 249 394
f 402 396 403
f 402 395 396
f 404 397 395
f 404 395 402
f 405 398 397
f 405 397 404
f 406 398 405
f 406 399 398
f 407 399 406
f 407 400 399
f 408 251 250
f 408 250 401
f 408 400 407
f 408 401 400
f 409 402 403
f 409 403 410
f 411 404 402
f 411 402 409
f 412 404 411
f 412 405 404
f 413 405 412
f 413 406 405
f 414 406 413
f 414 407 406
f 415 407 414
f 415 252 251
f 415 251 408
f 415 408 407
f 416 409 410
f 416 410 417
f 418 411 409
f 418 409 416
f 419 412 411
f 419 411 418
f 420 413 412
f 420 412 419
f 421 414 413
f 421 413 420
f 422 415 414
f 422 252 415
f 422 253 252
f 422 414 421
f 423 416 417
f 423 417 424
f 425 418 416
f 425 416 423
f 426 419 418
f 426 418 425
f 427 419 426
f 427 420 419
f 428 421 420
f 428 422 421
f 428 420 427
f 429 255 254
f 429 254 253
f 429 253 422
f 429 422 428
f 430 423 424
f 430 424 431
f 432 423 430
f 432 426 425
f 432 425 423
f 433 426 432
f 433 427 426
f 434 427 433
f 435 428 427
f 435 427 434
f 436 255 429
f 436 429 428
f 436 428 435
f 437 431 438
f 437 430 431
f 439 432 430
f 439 430 437
f 440 432 439
f 440 433 432
f 441 434 433
f 441 435 434
f 441 433 440
f 442 435 441
f 443 257 256
f 443 256 255
f 443 255 436
f 443 436 435
f 443 435 442
f 444 438 445
f 444 437 438
f 446 440 439
f 446 439 437
f 446 437 444
f 447 440 446
f 448 441 440
f 448 440 447
f 449 442 441
f 449 441 448
f 450 442 449
f 450 257 443
f 450 443 442
f 451 444 445
f 451 452 453
f 451 445 452
f 451 446 444
f 454 446 451
f 455 446 454
f 455 447 446
f 456 448 447
f 456 449 448
f 456 447 455
f 457 449 456
f 458 257 450
f 458 258 257
f 458 449 457
f 458 450 449
f 459 451 453
f 460 451 459
f 460 454 451
f 461 454 460
f 461 455 454
f 462 456 455
f 462 455 461
f 463 457 456
f 463 456 462
f 464 259 258
f 464 258 458
f 464 458 457
f 464 457 463
f 465 459 453
f 465 453 466
f 467 460 459
f 467 459 465
f 467 461 460
f 468 461 467
f 469 462 461
f 469 461 468
f 470 462 469
f 470 463 462
f 471 260 259
f 471 259 464
f 471 464 463
f 471 463 470
f 472 465 466
f 472 466 473
f 472 467 465
f 474 467 472
f 475 468 467
f 475 467 474
f 476 468 475
f 476 469 468
f 477 470 469
f 477 469 476
f 478 262 261
f 478 261 260
f 478 260 471
f 478 471 470
f 478 470 477
f 479 472 473
f 479 473 480
f 481 474 472
f 481 472 479
f 481 475 474
f 482 475 481
f 483 476 475
f 483 477 476
f 483 475 482
f 484 477 483
f 485 262 478
f 485 478 477
f 485 477 484
f 486 487 488
f 486 480 487
f 486 479 480
f 486 481 479
f 489 481 486
f 490 482 481
f 490 483 482
f 490 481 489
f 491 483 490
f 491 484 483
f 492 484 491
f 493 484 492
f 493 264 263
f 493 263 262
f 493 262 485
f 493 485 484
f 494 486 488
f 495 490 489
f 495 486 494
f 495 489 486
f 496 490 495
f 497 491 490
f 497 490 496
f 498 492 491
f 498 493 492
f 498 491 497
f 499 493 498
f 499 264 493
f 500 494 488
f 500 501 502
f 500 488 501
f 503 495 494
f 503 494 500
f 504 496 495
f 504 497 496
f 504 495 503
f 505 497 504
f 506 497 505
f 506 498 497
f 507 265 264
f 507 499 498
f 507 264 499
f 507 498 506
f 508 503 500
f 508 500 502
f 509 503 508
f 509 504 503
f 510 504 509
f 511 505 504
f 511 506 505
f 511 504 510
f 512 506 511
f 513 266 265
f 513 265 507
f 513 507 506
f 513 506 512
f 514 515 516
f 514 502 515
f 514 508 502
f 517 509 508
f 517 510 509
f 517 508 514
f 518 510 517
f 519 511 510
f 519 510 518
f 520 512 511
f 520 511 519
f 521 267 266
f 521 266 513
f 521 513 512
f 521 512 520
f 522 516 523
f 522 514 516
f 524 514 522
f 524 517 514
f 525 518 517
f 525 517 524
f 525 519 518
f 526 519 525
f 527 520 519
f 527 521 520
f 527 519 526
f 528 269 268
f 528 268 267
f 528 267 521
f 528 521 527
f 529 522 523
f 530 522 529
f 530 524 522
f 531 524 530
f 531 525 524
f 532 525 531
f 532 526 525
f 532 527 526
f 533 527 532
f 534 528 527
f 534 527 533
f 534 269 528
f 535 523 536
f 535 529 523
f 537 530 529
f 537 531 530
f 537 529 535
f 538 531 537
f 539 531 538
f 539 532 531
f 540 532 539
f 540 533 532
f 541 270 269
f 541 269 534
f 541 534 533
f 541 533 540
f 542 535 536
f 542 537 535
f 542 543 374
f 542 536 543
f 544 537 542
f 545 539 538
f 545 538 537
f 545 537 544
f 546 539 545
f 547 539 546
f 547 540 539
f 548 271 270
f 548 270 541
f 548 541 540
f 548 540 547
f 549 542 374
f 549 374 373
f 550 544 542
f 550 542 549
f 550 373 379
f 550 549 373
f 551 545 544
f 551 544 550
f 551 379 381
f 551 550 379
f 552 546 545
f 552 545 551
f 552 381 383
f 552 551 381
f 553 547 546
f 553 383 385
f 553 546 552
f 553 552 383
f 554 247 272
f 554 272 271
f 554 271 548
f 554 548 547
f 554 385 387
f 554 387 247
f 554 547 553
f 554 553 385
f 297 296 298
f 281 283 282
f 298 289 273
f 295 289 296
f 294 289 295
f 293 289 294
f 292 289 293
f 291 289 292
f 290 289 291
f 287 289 288
f 286 289 287
f 285 289 286
f 284 289 285
f 283 289 284
f 280 289 281
f 279 289 280
f 278 289 279
f 277 289 278
f 276 289 277
f 275 289 276
f 274 289 275
f 273 289 274
f 281 289 283
f 296 289 298
f 307 309 308
f 319 318 320
f 312 314 313
f 317 316 318
f 324 315 299
f 323 315 324
f 322 315 323
f 321 315 322
f 320 315 321
f 311 315 312
f 310 315 311
f 309 315 310
f 306 315 307
f 305 315 306
f 304 315 305
f 303 315 304
f 302 315 303
f 301 315 302
f 300 315 301
f 299 315 300
f 312 315 314
f 307 315 309
f 318 315 320
f 316 315 318
f 326 335 334
f 326 336 335
f 326 337 336
f 340 338 337
f 340 339 338
f 340 337 326
f 352 340 326
f 354 352 326
f 331 325 333
f 331 333 332
f 368 366 358
f 368 367 366
f 329 331 330
f 329 325 331
f 328 325 329
f 327 325 328
f 372 369 368
f 372 370 369
f 372 371 370
f 372 358 357
f 372 357 356
f 372 368 358
f 349 325 327
f 348 325 349
f 348 326 325
f 348 354 326
f 347 356 354
f 347 354 348
f 359 356 347
f 359 347 344
f 359 372 356
f 343 359 344
f 361 359 343
f 361 360 359
f 361 343 365
f 363 365 364
f 362 361 365
f 362 365 363
f 555 556 557
f 558 559 560
f 561 559 558
f 562 559 561
f 557 559 562
f 556 559 557
f 556 341 559
f 341 344 559
f 344 563 559
f 344 564 563
f 564 565 563
f 563 566 567
f 565 566 563
f 568 569 570
f 567 569 568
f 566 569 567
f 570 571 572
f 569 571 570
f 572 573 574
f 574 573 575
f 571 573 572
f 575 576 577
f 573 576 575
f 576 578 577
f 578 579 577
f 580 581 582
f 579 581 580
f 578 581 579
f 582 583 584
f 581 583 582
f 583 585 584
f 585 586 584
f 586 587 584
f 584 587 588
f 589 342 556
f 556 342 341
f 589 590 591
f 592 593 594
f 592 595 593
f 592 596 595
f 592 591 596
f 592 589 591
f 342 589 592
f 347 342 592
f 597 347 592
f 598 347 597
f 599 598 597
f 600 597 601
f 600 599 597
f 602 603 604
f 602 601 603
f 602 600 601
f 605 604 606
f 605 602 604
f 607 606 608
f 607 608 609
f 607 605 606
f 610 609 611
f 610 607 609
f 612 610 611
f 613 612 611
f 614 615 616
f 614 613 615
f 614 612 613
f 617 616 618
f 617 614 616
f 619 617 618
f 620 619 618
f 621 620 618
f 621 618 622
f 623 624 625
f 626 627 628
f 626 629 627
f 626 630 629
f 626 625 630
f 626 623 625
f 346 623 626
f 349 346 626
f 631 349 626
f 632 349 631
f 633 632 631
f 634 631 635
f 634 633 631
f 636 637 638
f 636 635 637
f 636 634 635
f 639 638 640
f 639 636 638
f 641 640 642
f 641 642 643
f 641 639 640
f 644 643 645
f 644 641 643
f 646 644 645
f 647 646 645
f 648 649 650
f 648 647 649
f 648 646 647
f 651 650 652
f 651 648 650
f 653 651 652
f 654 653 652
f 655 654 652
f 655 652 656
f 657 658 659
f 660 661 662
f 663 661 660
f 664 661 663
f 659 661 664
f 658 661 659
f 658 345 661
f 345 348 661
f 348 665 661
f 348 666 665
f 666 667 665
f 665 668 669
f 667 668 665
f 670 671 672
f 669 671 670
f 668 671 669
f 672 673 674
f 671 673 672
f 674 675 676
f 676 675 677
f 673 675 674
f 677 678 679
f 675 678 677
f 678 680 679
f 680 681 679
f 682 683 684
f 681 683 682
f 680 683 681
f 684 685 686
f 683 685 684
f 685 687 686
f 687 688 686
f 688 689 686
f 686 689 690
f 623 346 658
f 658 346 345
f 691 692 693
f 693 692 694
f 695 692 696
f 694 692 695
f 696 697 698
f 692 697 696
f 697 699 698
f 699 700 698
f 700 701 698
f 701 702 703
f 700 702 701
f 703 704 705
f 702 704 703
f 704 706 705
f 705 707 708
f 706 707 705
f 708 709 710
f 707 709 708
f 709 711 710
f 710 712 713
f 711 712 710
f 714 715 716
f 713 715 714
f 712 715 713
f 715 352 716
f 352 717 350
f 715 717 352
f 717 718 350
f 719 720 717
f 721 720 719
f 720 722 717
f 723 722 724
f 718 722 723
f 717 722 718
f 350 718 725
f 350 725 351
f 726 727 728
f 726 728 729
f 726 730 731
f 726 729 730
f 732 731 733
f 732 726 731
f 734 732 733
f 735 734 733
f 736 735 733
f 737 736 738
f 737 735 736
f 739 738 740
f 739 737 738
f 741 739 740
f 742 740 743
f 742 741 740
f 744 743 745
f 744 742 743
f 746 744 745
f 747 745 748
f 747 746 745
f 749 750 751
f 749 748 750
f 749 747 748
f 354 749 751
f 752 354 351
f 752 749 354
f 725 752 351
f 753 754 752
f 753 755 754
f 756 753 752
f 756 757 758
f 756 725 757
f 756 752 725
f 759 760 761
f 759 761 762
f 759 763 764
f 759 762 763
f 765 764 766
f 765 759 764
f 767 765 766
f 768 767 766
f 769 768 766
f 770 769 771
f 770 768 769
f 772 771 773
f 772 770 771
f 774 772 773
f 775 773 776
f 775 774 773
f 777 776 778
f 777 775 776
f 779 777 778
f 780 778 781
f 780 779 778
f 782 783 784
f 782 781 783
f 782 780 781
f 357 782 784
f 785 357 355
f 785 782 357
f 786 785 355
f 787 788 785
f 787 789 788
f 790 787 785
f 790 791 792
f 790 786 791
f 790 785 786
f 793 794 795
f 795 794 796
f 797 794 798
f 796 794 797
f 798 799 800
f 794 799 798
f 799 801 800
f 801 802 800
f 802 803 800
f 803 804 805
f 802 804 803
f 805 806 807
f 804 806 805
f 806 808 807
f 807 809 810
f 808 809 807
f 810 811 812
f 809 811 810
f 811 813 812
f 812 814 815
f 813 814 812
f 816 817 818
f 815 817 816
f 814 817 815
f 817 356 818
f 356 819 353
f 817 819 356
f 819 820 353
f 821 822 819
f 823 822 821
f 822 824 819
f 825 824 826
f 820 824 825
f 819 824 820
f 353 820 786
f 353 786 355
f 396 389 403
f 403 417 410
f 417 431 424
f 374 543 375
f 375 543 377
f 431 445 438
f 536 516 543
f 523 516 536
f 377 516 389
f 389 516 403
f 543 516 377
f 445 453 452
f 515 502 516
f 516 502 403
f 453 473 466
f 403 501 417
f 417 501 431
f 431 501 445
f 502 501 403
f 488 487 501
f 473 487 480
f 453 487 473
f 445 487 453
f 501 487 445
f 348 349 666
f 349 632 666
f 352 354 751
f 716 352 751
f 344 347 564
f 347 598 564
f 356 357 784
f 818 356 784
f 606 604 570
f 606 570 572
f 563 567 597
f 597 567 601
f 601 568 603
f 567 568 601
f 603 570 604
f 568 570 603
f 575 577 611
f 575 611 609
f 574 609 608
f 574 575 609
f 572 608 606
f 572 574 608
f 597 592 563
f 563 592 559
f 613 611 577
f 613 577 579
f 560 592 594
f 560 559 592
f 558 594 593
f 558 560 594
f 561 593 595
f 561 558 593
f 562 595 596
f 562 561 595
f 557 596 591
f 557 562 596
f 555 591 590
f 555 557 591
f 556 590 589
f 556 555 590
f 579 580 613
f 613 580 615
f 615 582 616
f 580 582 615
f 616 584 618
f 582 584 616
f 622 618 588
f 588 618 584
f 621 622 587
f 587 622 588
f 620 621 586
f 586 621 587
f 565 598 599
f 565 564 598
f 566 599 600
f 566 565 599
f 569 600 602
f 569 566 600
f 583 614 617
f 583 581 614
f 585 617 619
f 585 583 617
f 586 619 620
f 586 585 619
f 602 605 571
f 602 571 569
f 612 614 581
f 612 581 578
f 578 576 612
f 612 576 610
f 610 573 607
f 576 573 610
f 607 571 605
f 573 571 607
f 640 638 672
f 640 672 674
f 665 669 631
f 631 669 635
f 635 670 637
f 669 670 635
f 637 672 638
f 670 672 637
f 677 679 645
f 677 645 643
f 676 643 642
f 676 677 643
f 674 642 640
f 674 676 642
f 631 626 665
f 665 626 661
f 647 645 679
f 647 679 681
f 662 626 628
f 662 661 626
f 660 628 627
f 660 662 628
f 663 627 629
f 663 629 630
f 663 660 627
f 664 663 630
f 659 630 625
f 659 625 624
f 659 664 630
f 657 659 624
f 658 624 623
f 658 657 624
f 681 682 647
f 647 682 649
f 649 684 650
f 682 684 649
f 650 686 652
f 684 686 650
f 656 652 690
f 690 652 686
f 655 656 689
f 689 656 690
f 654 655 688
f 688 655 689
f 667 632 633
f 667 666 632
f 668 633 634
f 668 667 633
f 671 634 636
f 671 668 634
f 685 648 651
f 685 683 648
f 687 651 653
f 687 685 651
f 688 653 654
f 688 687 653
f 636 639 673
f 636 673 671
f 646 648 683
f 646 683 680
f 680 678 646
f 646 678 644
f 644 675 641
f 678 675 644
f 641 673 639
f 675 673 641
f 709 707 744
f 744 707 742
f 709 746 711
f 744 746 709
f 711 747 712
f 746 747 711
f 712 749 715
f 747 749 712
f 741 707 706
f 741 742 707
f 739 706 704
f 739 741 706
f 737 704 702
f 737 739 704
f 717 715 749
f 717 749 752
f 702 700 737
f 737 700 735
f 757 725 718
f 757 718 723
f 758 723 724
f 758 757 723
f 756 724 722
f 756 758 724
f 753 722 720
f 753 756 722
f 755 720 721
f 755 753 720
f 754 721 719
f 754 755 721
f 752 719 717
f 752 754 719
f 692 732 697
f 726 732 692
f 697 734 699
f 732 734 697
f 699 735 700
f 734 735 699
f 692 691 727
f 692 727 726
f 691 693 728
f 691 728 727
f 693 694 729
f 693 729 728
f 748 745 710
f 748 710 713
f 750 713 714
f 750 748 713
f 751 714 716
f 751 750 714
f 730 729 694
f 730 694 695
f 731 695 696
f 731 730 695
f 733 696 698
f 733 731 696
f 708 710 743
f 743 710 745
f 698 701 733
f 733 701 736
f 708 740 705
f 743 740 708
f 705 738 703
f 740 738 705
f 703 736 701
f 738 736 703
f 811 809 777
f 777 809 775
f 811 779 813
f 777 779 811
f 813 780 814
f 779 780 813
f 814 782 817
f 780 782 814
f 774 809 808
f 774 775 809
f 772 808 806
f 772 774 808
f 770 806 804
f 770 772 806
f 819 817 782
f 819 782 785
f 804 802 770
f 770 802 768
f 791 786 820
f 791 820 825
f 792 825 826
f 792 791 825
f 790 826 824
f 790 792 826
f 787 824 822
f 787 790 824
f 789 822 823
f 789 787 822
f 788 823 821
f 788 789 823
f 785 821 819
f 785 788 821
f 794 765 799
f 759 765 794
f 799 767 801
f 765 767 799
f 801 768 802
f 767 768 801
f 794 793 760
f 794 760 759
f 793 795 761
f 793 761 760
f 795 796 762
f 795 762 761
f 781 778 812
f 781 812 815
f 783 815 816
f 783 781 815
f 784 816 818
f 784 783 816
f 763 762 796
f 763 796 797
f 764 797 798
f 764 763 797
f 766 798 800
f 766 764 798
f 810 812 776
f 776 812 778
f 800 803 766
f 766 803 769
f 810 773 807
f 776 773 810
f 807 771 805
f 773 771 807
f 805 769 803
f 771 769 805
