# Generated from WS2812B.step
mtllib WS2812B.mtl
v 1.11719 1.61853 1.60000
v 1.47207 1.30414 1.60000
v 2.42500 2.42500 1.60000
v 1.74140 0.91396 1.60000
v 0.69739 1.83887 1.60000
v 1.90952 0.47065 1.60000
v 0.23706 1.95233 1.60000
v 1.96667 0.00000 1.60000
v -0.23706 1.95233 1.60000
v 2.42500 -1.43340 1.60000
v 1.90952 -0.47065 1.60000
v 1.74140 -0.91396 1.60000
v 1.47207 -1.30414 1.60000
v -2.42500 2.42500 1.60000
v -1.11719 1.61853 1.60000
v -0.69739 1.83887 1.60000
v -1.47207 1.30414 1.60000
v -1.74140 0.91396 1.60000
v 1.43340 -2.42500 1.60000
v 1.11719 -1.61853 1.60000
v 0.69739 -1.83887 1.60000
v -1.90952 0.47065 1.60000
v 0.23706 -1.95233 1.60000
v -1.96667 0.00000 1.60000
v -0.23706 -1.95233 1.60000
v -2.42500 -2.42500 1.60000
v -0.69739 -1.83887 1.60000
v -1.11719 -1.61853 1.60000
v -1.47207 -1.30414 1.60000
v -1.74140 -0.91396 1.60000
v -1.90952 -0.47065 1.60000
v -1.66667 0.00000 1.30000
v -1.61824 -0.39886 1.30000
v -1.47576 -0.77454 1.30000
v -1.24752 -1.10520 1.30000
v -0.94677 -1.37164 1.30000
v -0.59101 -1.55836 1.30000
v -0.20089 -1.65451 1.30000
v 0.20089 -1.65451 1.30000
v 0.59101 -1.55836 1.30000
v 0.94677 -1.37164 1.30000
v 1.24752 -1.10520 1.30000
v 1.47576 -0.77454 1.30000
v 1.61824 -0.39886 1.30000
v 1.66667 0.00000 1.30000
v 1.61824 0.39886 1.30000
v 1.47576 0.77454 1.30000
v 1.24752 1.10520 1.30000
v 0.94677 1.37164 1.30000
v 0.59101 1.55836 1.30000
v 0.20089 1.65451 1.30000
v -0.20089 1.65451 1.30000
v -0.59101 1.55836 1.30000
v -0.94677 1.37164 1.30000
v -1.24752 1.10520 1.30000
v -1.47576 0.77454 1.30000
v -1.61824 0.39886 1.30000
v 2.44441 -1.44144 1.59744
v 1.44144 -2.44441 1.59744
v 2.46250 -1.44893 1.58995
v 1.44893 -2.46250 1.58995
v 2.47663 -1.45478 1.57940
v 1.45478 -2.47663 1.57940
v 1.45959 -2.48822 1.56535
v 2.48822 -1.45959 1.56535
v 2.49637 -1.46296 1.54805
v 1.46296 -2.49637 1.54805
v 2.49909 -1.46409 1.53667
v 1.46409 -2.49909 1.53667
v 1.46447 -2.50000 1.52500
v 2.50000 -1.46447 1.52500
v -2.44042 -2.44042 1.59840
v -2.45518 -2.45518 1.59366
v -2.47308 -2.47308 1.58256
v -2.48503 -2.48503 1.56996
v -2.49387 -2.49387 1.55471
v -2.49845 -2.49845 1.54017
v -2.50000 -2.50000 1.52500
v 2.44042 2.44042 1.59840
v 2.45518 2.45518 1.59366
v 2.47308 2.47308 1.58256
v 2.48503 2.48503 1.56996
v 2.49387 2.49387 1.55471
v 2.49845 2.49845 1.54017
v 2.50000 2.50000 1.52500
v -2.44042 2.44042 1.59840
v -2.45518 2.45518 1.59366
v -2.47308 2.47308 1.58256
v -2.48503 2.48503 1.56996
v -2.49387 2.49387 1.55471
v -2.49845 2.49845 1.54017
v -2.50000 2.50000 1.52500
v -1.66667 0.00000 1.22500
v -1.61824 0.39886 1.22500
v -1.47576 0.77454 1.22500
v -1.24752 1.10520 1.22500
v -0.94677 1.37164 1.22500
v -0.59101 1.55836 1.22500
v -0.20089 1.65451 1.22500
v 0.20089 1.65451 1.22500
v 0.59101 1.55836 1.22500
v 0.94677 1.37164 1.22500
v 1.24752 1.10520 1.22500
v 1.47576 0.77454 1.22500
v 1.61824 0.39886 1.22500
v 1.66667 -0.00000 1.22500
v 1.61824 -0.39886 1.22500
v 1.47576 -0.77454 1.22500
v 1.24752 -1.10520 1.22500
v 0.94677 -1.37164 1.22500
v 0.59101 -1.55836 1.22500
v 0.20089 -1.65451 1.22500
v -0.20089 -1.65451 1.22500
v -0.59101 -1.55836 1.22500
v -0.94677 -1.37164 1.22500
v -1.24752 -1.10520 1.22500
v -1.47576 -0.77454 1.22500
v -1.61824 -0.39886 1.22500
v 1.46447 -2.50000 1.30000
v 2.50000 -1.46447 1.30000
v -2.50000 -2.50000 0.10000
v 2.50000 -2.50000 0.10000
v 2.50000 -2.50000 1.30000
v 2.50000 -2.10000 0.90000
v 2.50000 -2.10000 1.00000
v 2.50000 -1.20000 1.00000
v 2.50000 -2.10000 0.10000
v 2.50000 -1.20000 0.10000
v 2.50000 -1.20000 0.90000
v 2.50000 1.20000 1.00000
v 2.50000 1.20000 0.90000
v 2.50000 2.10000 1.00000
v 2.50000 1.20000 0.10000
v 2.50000 2.10000 0.90000
v 2.50000 2.10000 0.10000
v 2.50000 2.50000 0.10000
v -2.50000 2.10000 0.90000
v -2.50000 2.10000 1.00000
v -2.50000 2.50000 0.10000
v -2.50000 1.20000 1.00000
v -2.50000 2.10000 0.10000
v -2.50000 1.20000 0.10000
v -2.50000 1.20000 0.90000
v -2.50000 -1.20000 0.90000
v -2.50000 -1.20000 1.00000
v -2.50000 -2.10000 1.00000
v -2.50000 -1.20000 0.10000
v -2.50000 -2.10000 0.90000
v -2.50000 -2.10000 0.10000
v 1.95000 2.10000 0.10000
v 1.80000 2.10000 0.10000
v 1.95000 -1.20000 0.10000
v 1.95000 1.20000 0.10000
v 1.80000 -1.20000 0.10000
v 1.80000 1.20000 0.10000
v -1.80000 2.10000 0.10000
v -1.95000 2.10000 0.10000
v 1.95000 -2.10000 0.10000
v 1.80000 -2.10000 0.10000
v -1.80000 1.20000 0.10000
v -1.80000 -1.20000 0.10000
v -1.95000 -1.20000 0.10000
v -1.95000 1.20000 0.10000
v -1.80000 -2.10000 0.10000
v -1.95000 -2.10000 0.10000
v 2.55000 1.20000 0.10000
v 2.55000 2.10000 0.10000
v 2.55000 -2.10000 0.10000
v 2.55000 -1.20000 0.10000
v 2.55000 1.20000 0.90000
v 2.55000 2.10000 0.90000
v 2.56113 1.20000 0.89875
v 2.65000 1.20000 1.00000
v 2.57169 1.20000 0.89505
v 2.58117 1.20000 0.88909
v 2.66113 1.20000 0.99875
v 2.68117 1.20000 0.98909
v 2.67169 1.20000 0.99505
v 2.69505 1.20000 0.97169
v 2.68909 1.20000 0.98117
v 2.58909 1.20000 0.88117
v 2.70000 1.20000 0.95000
v 2.59505 1.20000 0.87169
v 2.59875 1.20000 0.86113
v 2.60000 1.20000 0.85000
v 2.69875 1.20000 0.96113
v 1.80000 1.20000 0.00000
v 2.60000 1.20000 0.15000
v 2.65000 1.20000 -0.00000
v 2.57169 1.20000 0.10495
v 2.58117 1.20000 0.11091
v 2.56113 1.20000 0.10125
v 2.59875 1.20000 0.13887
v 2.70000 1.20000 0.05000
v 2.59505 1.20000 0.12831
v 2.58909 1.20000 0.11883
v 2.66113 1.20000 0.00125
v 2.67169 1.20000 0.00495
v 2.68909 1.20000 0.01883
v 2.69875 1.20000 0.03887
v 2.69505 1.20000 0.02831
v 2.68117 1.20000 0.01091
v 2.65000 2.10000 1.00000
v 2.70000 2.10000 0.95000
v 2.69875 2.10000 0.96113
v 2.69505 2.10000 0.97169
v 2.68909 2.10000 0.98117
v 2.68117 2.10000 0.98909
v 2.67169 2.10000 0.99505
v 2.66113 2.10000 0.99875
v 2.58117 2.10000 0.88909
v 2.58909 2.10000 0.88117
v 2.59505 2.10000 0.87169
v 2.57169 2.10000 0.89505
v 2.59875 2.10000 0.86113
v 2.56113 2.10000 0.89875
v 2.60000 2.10000 0.85000
v 2.70000 2.10000 0.05000
v 2.60000 2.10000 0.15000
v 2.59875 2.10000 0.13887
v 2.69875 2.10000 0.03887
v 2.69505 2.10000 0.02831
v 2.59505 2.10000 0.12831
v 2.58909 2.10000 0.11883
v 2.68909 2.10000 0.01883
v 2.68117 2.10000 0.01091
v 2.58117 2.10000 0.11091
v 2.67169 2.10000 0.00495
v 2.66113 2.10000 0.00125
v 2.65000 2.10000 -0.00000
v 2.57169 2.10000 0.10495
v 2.56113 2.10000 0.10125
v 1.80000 2.10000 0.00000
v 2.65000 -2.10000 1.00000
v 2.65000 -1.20000 1.00000
v 2.70000 -1.20000 0.95000
v 2.69875 -1.20000 0.96113
v 2.69505 -1.20000 0.97169
v 2.68909 -1.20000 0.98117
v 2.68117 -1.20000 0.98909
v 2.67169 -1.20000 0.99505
v 2.66113 -1.20000 0.99875
v 2.58117 -1.20000 0.88909
v 2.58909 -1.20000 0.88117
v 2.59505 -1.20000 0.87169
v 2.57169 -1.20000 0.89505
v 2.59875 -1.20000 0.86113
v 2.56113 -1.20000 0.89875
v 2.60000 -1.20000 0.85000
v 2.55000 -1.20000 0.90000
v 2.70000 -1.20000 0.05000
v 2.60000 -1.20000 0.15000
v 2.59875 -1.20000 0.13887
v 2.69875 -1.20000 0.03887
v 2.69505 -1.20000 0.02831
v 2.59505 -1.20000 0.12831
v 2.58909 -1.20000 0.11883
v 2.68909 -1.20000 0.01883
v 2.68117 -1.20000 0.01091
v 2.58117 -1.20000 0.11091
v 2.67169 -1.20000 0.00495
v 2.66113 -1.20000 0.00125
v 2.65000 -1.20000 -0.00000
v 2.57169 -1.20000 0.10495
v 2.56113 -1.20000 0.10125
v 1.80000 -1.20000 0.00000
v 2.55000 -2.10000 0.90000
v 2.56113 -2.10000 0.89875
v 2.57169 -2.10000 0.89505
v 2.58117 -2.10000 0.88909
v 2.66113 -2.10000 0.99875
v 2.68117 -2.10000 0.98909
v 2.67169 -2.10000 0.99505
v 2.69505 -2.10000 0.97169
v 2.68909 -2.10000 0.98117
v 2.58909 -2.10000 0.88117
v 2.70000 -2.10000 0.95000
v 2.59505 -2.10000 0.87169
v 2.59875 -2.10000 0.86113
v 2.60000 -2.10000 0.85000
v 2.69875 -2.10000 0.96113
v 1.80000 -2.10000 0.00000
v 2.60000 -2.10000 0.15000
v 2.65000 -2.10000 -0.00000
v 2.57169 -2.10000 0.10495
v 2.58117 -2.10000 0.11091
v 2.56113 -2.10000 0.10125
v 2.59875 -2.10000 0.13887
v 2.70000 -2.10000 0.05000
v 2.59505 -2.10000 0.12831
v 2.58909 -2.10000 0.11883
v 2.66113 -2.10000 0.00125
v 2.67169 -2.10000 0.00495
v 2.68909 -2.10000 0.01883
v 2.69875 -2.10000 0.03887
v 2.69505 -2.10000 0.02831
v 2.68117 -2.10000 0.01091
v -2.55000 1.20000 0.10000
v -2.55000 2.10000 0.10000
v -2.55000 -2.10000 0.10000
v -2.55000 -1.20000 0.10000
v -2.65000 -2.10000 1.00000
v -2.65000 -1.20000 1.00000
v -2.67169 -2.10000 0.99505
v -2.66113 -2.10000 0.99875
v -2.68117 -2.10000 0.98909
v -2.68909 -2.10000 0.98117
v -2.69505 -2.10000 0.97169
v -2.69875 -2.10000 0.96113
v -2.70000 -2.10000 0.95000
v -2.58117 -2.10000 0.88909
v -2.58909 -2.10000 0.88117
v -2.59505 -2.10000 0.87169
v -2.57169 -2.10000 0.89505
v -2.59875 -2.10000 0.86113
v -2.56113 -2.10000 0.89875
v -2.60000 -2.10000 0.85000
v -2.55000 -2.10000 0.90000
v -2.70000 -2.10000 0.05000
v -2.60000 -2.10000 0.15000
v -2.59875 -2.10000 0.13887
v -2.69875 -2.10000 0.03887
v -2.69505 -2.10000 0.02831
v -2.59505 -2.10000 0.12831
v -2.58909 -2.10000 0.11883
v -2.68909 -2.10000 0.01883
v -2.68117 -2.10000 0.01091
v -2.58117 -2.10000 0.11091
v -2.67169 -2.10000 0.00495
v -2.66113 -2.10000 0.00125
v -2.65000 -2.10000 -0.00000
v -2.57169 -2.10000 0.10495
v -2.56113 -2.10000 0.10125
v -1.80000 -2.10000 0.00000
v -2.55000 -1.20000 0.90000
v -2.56113 -1.20000 0.89875
v -2.57169 -1.20000 0.89505
v -2.58117 -1.20000 0.88909
v -2.68117 -1.20000 0.98909
v -2.66113 -1.20000 0.99875
v -2.67169 -1.20000 0.99505
v -2.69505 -1.20000 0.97169
v -2.68909 -1.20000 0.98117
v -2.58909 -1.20000 0.88117
v -2.70000 -1.20000 0.95000
v -2.59505 -1.20000 0.87169
v -2.59875 -1.20000 0.86113
v -2.60000 -1.20000 0.85000
v -2.69875 -1.20000 0.96113
v -1.80000 -1.20000 0.00000
v -2.60000 -1.20000 0.15000
v -2.65000 -1.20000 -0.00000
v -2.57169 -1.20000 0.10495
v -2.58117 -1.20000 0.11091
v -2.56113 -1.20000 0.10125
v -2.59875 -1.20000 0.13887
v -2.70000 -1.20000 0.05000
v -2.59505 -1.20000 0.12831
v -2.58909 -1.20000 0.11883
v -2.66113 -1.20000 0.00125
v -2.67169 -1.20000 0.00495
v -2.68909 -1.20000 0.01883
v -2.69875 -1.20000 0.03887
v -2.69505 -1.20000 0.02831
v -2.68117 -1.20000 0.01091
v -2.65000 1.20000 1.00000
v -2.65000 2.10000 1.00000
v -2.67169 1.20000 0.99505
v -2.66113 1.20000 0.99875
v -2.68117 1.20000 0.98909
v -2.68909 1.20000 0.98117
v -2.69505 1.20000 0.97169
v -2.69875 1.20000 0.96113
v -2.70000 1.20000 0.95000
v -2.58117 1.20000 0.88909
v -2.58909 1.20000 0.88117
v -2.59505 1.20000 0.87169
v -2.57169 1.20000 0.89505
v -2.59875 1.20000 0.86113
v -2.56113 1.20000 0.89875
v -2.60000 1.20000 0.85000
v -2.55000 1.20000 0.90000
v -2.70000 1.20000 0.05000
v -2.60000 1.20000 0.15000
v -2.59875 1.20000 0.13887
v -2.69875 1.20000 0.03887
v -2.69505 1.20000 0.02831
v -2.59505 1.20000 0.12831
v -2.58909 1.20000 0.11883
v -2.68909 1.20000 0.01883
v -2.68117 1.20000 0.01091
v -2.58117 1.20000 0.11091
v -2.67169 1.20000 0.00495
v -2.66113 1.20000 0.00125
v -2.65000 1.20000 -0.00000
v -2.57169 1.20000 0.10495
v -2.56113 1.20000 0.10125
v -1.80000 1.20000 0.00000
v -2.55000 2.10000 0.90000
v -2.56113 2.10000 0.89875
v -2.57169 2.10000 0.89505
v -2.58117 2.10000 0.88909
v -2.68117 2.10000 0.98909
v -2.66113 2.10000 0.99875
v -2.67169 2.10000 0.99505
v -2.69505 2.10000 0.97169
v -2.68909 2.10000 0.98117
v -2.58909 2.10000 0.88117
v -2.70000 2.10000 0.95000
v -2.59505 2.10000 0.87169
v -2.59875 2.10000 0.86113
v -2.60000 2.10000 0.85000
v -2.69875 2.10000 0.96113
v -1.80000 2.10000 0.00000
v -2.60000 2.10000 0.15000
v -2.65000 2.10000 -0.00000
v -2.57169 2.10000 0.10495
v -2.58117 2.10000 0.11091
v -2.56113 2.10000 0.10125
v -2.59875 2.10000 0.13887
v -2.70000 2.10000 0.05000
v -2.59505 2.10000 0.12831
v -2.58909 2.10000 0.11883
v -2.66113 2.10000 0.00125
v -2.67169 2.10000 0.00495
v -2.68909 2.10000 0.01883
v -2.69875 2.10000 0.03887
v -2.69505 2.10000 0.02831
v -2.68117 2.10000 0.01091

g Solid_0
usemtl Solid_0
f 1 2 3
f 4 3 2
f 5 1 3
f 6 3 4
f 7 5 3
f 8 3 6
f 9 7 3
f 10 8 11
f 10 3 8
f 12 10 11
f 13 10 12
f 14 15 16
f 14 16 9
f 14 9 3
f 17 15 14
f 18 17 14
f 19 13 20
f 19 10 13
f 21 19 20
f 22 18 14
f 23 19 21
f 24 22 14
f 25 19 23
f 26 25 27
f 26 27 28
f 26 28 29
f 26 29 30
f 26 30 31
f 26 31 24
f 26 24 14
f 26 19 25
f 24 31 32
f 32 31 33
f 33 30 34
f 31 30 33
f 34 29 35
f 30 29 34
f 35 28 36
f 29 28 35
f 36 27 37
f 28 27 36
f 37 25 38
f 27 25 37
f 38 23 39
f 25 23 38
f 39 21 40
f 23 21 39
f 40 20 41
f 21 20 40
f 20 42 41
f 20 13 42
f 13 12 42
f 42 12 43
f 12 11 43
f 43 11 44
f 11 45 44
f 11 8 45
f 8 6 45
f 45 6 46
f 6 4 46
f 46 4 47
f 4 2 47
f 47 2 48
f 2 1 48
f 48 1 49
f 1 5 49
f 49 5 50
f 5 7 50
f 50 7 51
f 51 9 52
f 7 9 51
f 9 53 52
f 9 16 53
f 16 54 53
f 16 15 54
f 54 17 55
f 15 17 54
f 17 56 55
f 17 18 56
f 56 22 57
f 18 22 56
f 22 32 57
f 22 24 32
f 58 19 59
f 58 10 19
f 60 59 61
f 60 58 59
f 62 61 63
f 62 63 64
f 62 60 61
f 65 62 64
f 66 64 67
f 66 65 64
f 68 67 69
f 68 69 70
f 68 66 67
f 71 68 70
f 19 26 72
f 59 72 73
f 59 19 72
f 61 73 74
f 61 59 73
f 63 74 75
f 63 61 74
f 64 75 76
f 64 63 75
f 67 76 77
f 67 64 76
f 69 77 78
f 69 67 77
f 70 69 78
f 79 3 10
f 79 10 58
f 80 58 60
f 80 79 58
f 81 60 62
f 81 80 60
f 82 62 65
f 82 81 62
f 83 65 66
f 83 82 65
f 84 66 68
f 84 83 66
f 85 68 71
f 85 84 68
f 72 26 14
f 72 14 86
f 73 86 87
f 73 72 86
f 74 87 88
f 74 73 87
f 75 88 89
f 75 74 88
f 76 89 90
f 76 75 89
f 77 90 91
f 77 76 90
f 78 91 92
f 78 77 91
f 86 14 3
f 86 3 79
f 87 79 80
f 87 86 79
f 88 80 81
f 88 87 80
f 89 81 82
f 89 88 81
f 90 82 83
f 90 89 82
f 91 83 84
f 91 90 83
f 92 84 85
f 92 91 84
f 93 94 32
f 32 94 57
f 57 95 56
f 94 95 57
f 56 96 55
f 95 96 56
f 55 97 54
f 96 97 55
f 54 98 53
f 97 98 54
f 53 99 52
f 98 99 53
f 52 100 51
f 99 100 52
f 51 101 50
f 100 101 51
f 50 102 49
f 101 102 50
f 49 103 48
f 102 103 49
f 48 104 47
f 103 104 48
f 104 105 47
f 47 105 46
f 105 106 46
f 46 106 45
f 45 107 44
f 106 107 45
f 44 108 43
f 107 108 44
f 43 109 42
f 108 109 43
f 42 110 41
f 109 110 42
f 41 111 40
f 110 111 41
f 40 112 39
f 39 112 38
f 111 112 40
f 112 113 38
f 38 114 37
f 113 114 38
f 37 115 36
f 36 115 35
f 114 115 37
f 115 116 35
f 35 117 34
f 116 117 35
f 34 118 33
f 117 118 34
f 33 93 32
f 118 93 33
f 119 120 71
f 119 71 70
f 121 119 78
f 78 119 70
f 119 122 123
f 121 122 119
f 123 124 125
f 123 122 124
f 120 126 71
f 122 127 124
f 124 128 129
f 127 128 124
f 126 130 71
f 129 131 126
f 126 131 130
f 130 85 71
f 130 132 85
f 128 133 129
f 129 133 131
f 132 134 85
f 131 135 134
f 133 135 131
f 135 136 134
f 134 136 85
f 120 123 125
f 120 125 126
f 92 137 138
f 92 139 137
f 138 140 92
f 139 141 137
f 137 142 143
f 141 142 137
f 143 144 140
f 140 144 145
f 145 78 140
f 140 78 92
f 145 146 78
f 142 147 143
f 143 147 144
f 146 148 78
f 144 149 148
f 147 149 144
f 148 121 78
f 149 121 148
f 136 139 85
f 85 139 92
f 101 103 102
f 107 106 105
f 107 105 104
f 97 99 98
f 109 108 107
f 94 97 96
f 94 96 95
f 112 111 110
f 112 110 109
f 112 107 104
f 112 109 107
f 118 94 93
f 114 113 112
f 114 104 103
f 114 112 104
f 117 94 118
f 116 115 114
f 116 101 100
f 116 100 99
f 116 103 101
f 116 99 97
f 116 97 94
f 116 114 103
f 116 94 117
f 123 120 119
f 135 150 136
f 150 151 136
f 128 152 133
f 133 152 153
f 153 154 155
f 152 154 153
f 151 156 136
f 157 139 156
f 156 139 136
f 122 158 127
f 122 159 158
f 157 141 139
f 155 160 151
f 151 160 156
f 154 161 155
f 155 161 160
f 160 162 163
f 161 162 160
f 163 147 142
f 162 147 163
f 159 164 154
f 154 164 161
f 164 121 165
f 165 121 149
f 122 121 164
f 122 164 159
f 166 167 135
f 133 166 135
f 127 168 169
f 127 169 128
f 170 131 171
f 171 131 134
f 131 170 130
f 130 172 173
f 170 172 130
f 172 174 173
f 174 175 173
f 176 177 178
f 173 177 176
f 177 179 180
f 181 182 175
f 183 182 181
f 184 182 183
f 185 182 184
f 179 182 186
f 175 182 173
f 173 182 177
f 177 182 179
f 187 153 155
f 185 188 182
f 133 189 166
f 190 189 191
f 192 189 190
f 166 189 192
f 193 194 188
f 195 194 193
f 196 194 195
f 191 194 196
f 188 194 182
f 189 194 191
f 197 198 189
f 189 199 194
f 194 199 200
f 200 199 201
f 202 199 198
f 198 199 189
f 187 189 153
f 153 189 133
f 130 173 203
f 130 203 132
f 204 203 205
f 205 203 206
f 206 203 207
f 207 203 208
f 208 203 209
f 209 203 210
f 204 211 203
f 212 211 204
f 204 213 212
f 211 214 203
f 204 215 213
f 203 216 132
f 214 216 203
f 204 217 215
f 216 171 132
f 171 134 132
f 218 219 204
f 204 219 217
f 218 220 219
f 221 222 218
f 218 223 220
f 218 224 223
f 225 226 222
f 218 227 224
f 228 229 226
f 229 230 226
f 227 230 231
f 231 230 232
f 222 230 218
f 226 230 222
f 218 230 227
f 230 167 232
f 230 135 167
f 150 233 151
f 230 233 135
f 135 233 150
f 125 234 235
f 125 235 126
f 236 235 237
f 237 235 238
f 238 235 239
f 239 235 240
f 240 235 241
f 241 235 242
f 236 243 235
f 244 243 236
f 236 245 244
f 243 246 235
f 236 247 245
f 235 248 126
f 246 248 235
f 236 249 247
f 248 250 126
f 250 129 126
f 251 252 236
f 236 252 249
f 251 253 252
f 254 255 251
f 251 256 253
f 251 257 256
f 258 259 255
f 251 260 257
f 261 262 259
f 262 263 259
f 260 263 264
f 264 263 265
f 255 263 251
f 259 263 255
f 251 263 260
f 263 169 265
f 263 128 169
f 152 266 154
f 263 266 128
f 128 266 152
f 267 124 250
f 250 124 129
f 124 267 125
f 125 268 234
f 267 268 125
f 268 269 234
f 269 270 234
f 271 272 273
f 234 272 271
f 272 274 275
f 276 277 270
f 278 277 276
f 279 277 278
f 280 277 279
f 274 277 281
f 270 277 234
f 234 277 272
f 272 277 274
f 282 158 159
f 280 283 277
f 127 284 168
f 285 284 286
f 287 284 285
f 168 284 287
f 288 289 283
f 290 289 288
f 291 289 290
f 286 289 291
f 283 289 277
f 284 289 286
f 292 293 284
f 284 294 289
f 289 294 295
f 295 294 296
f 297 294 293
f 293 294 284
f 282 284 158
f 158 284 127
f 298 142 141
f 298 141 299
f 300 149 147
f 300 147 301
f 302 146 145
f 302 145 303
f 304 302 305
f 306 302 304
f 307 302 306
f 308 302 307
f 309 302 308
f 310 302 309
f 310 311 302
f 312 311 310
f 310 313 312
f 311 314 302
f 310 315 313
f 302 316 146
f 314 316 302
f 310 317 315
f 316 318 146
f 318 148 146
f 319 320 310
f 310 320 317
f 319 321 320
f 322 323 319
f 319 324 321
f 319 325 324
f 326 327 323
f 319 328 325
f 329 330 327
f 330 331 327
f 328 331 332
f 332 331 333
f 323 331 319
f 327 331 323
f 319 331 328
f 331 300 333
f 331 149 300
f 165 334 164
f 331 334 149
f 149 334 165
f 148 318 144
f 144 318 335
f 144 335 145
f 145 336 303
f 335 336 145
f 336 337 303
f 337 338 303
f 303 339 340
f 340 339 341
f 339 342 343
f 344 345 338
f 346 345 344
f 347 345 346
f 348 345 347
f 342 345 349
f 303 345 339
f 338 345 303
f 339 345 342
f 350 162 161
f 348 351 345
f 147 352 301
f 353 352 354
f 355 352 353
f 301 352 355
f 356 357 351
f 358 357 356
f 359 357 358
f 354 357 359
f 351 357 345
f 352 357 354
f 360 361 352
f 352 362 357
f 357 362 363
f 363 362 364
f 365 362 361
f 361 362 352
f 350 352 162
f 162 352 147
f 366 140 138
f 366 138 367
f 368 366 369
f 370 366 368
f 371 366 370
f 372 366 371
f 373 366 372
f 374 366 373
f 374 375 366
f 376 375 374
f 374 377 376
f 375 378 366
f 374 379 377
f 366 380 140
f 378 380 366
f 374 381 379
f 380 382 140
f 382 143 140
f 383 384 374
f 374 384 381
f 383 385 384
f 386 387 383
f 383 388 385
f 383 389 388
f 390 391 387
f 383 392 389
f 393 394 391
f 394 395 391
f 392 395 396
f 396 395 397
f 387 395 383
f 391 395 387
f 383 395 392
f 395 298 397
f 395 142 298
f 163 398 160
f 395 398 142
f 142 398 163
f 143 382 137
f 137 382 399
f 137 399 138
f 138 400 367
f 399 400 138
f 400 401 367
f 401 402 367
f 367 403 404
f 404 403 405
f 403 406 407
f 408 409 402
f 410 409 408
f 411 409 410
f 412 409 411
f 406 409 413
f 367 409 403
f 402 409 367
f 403 409 406
f 414 157 156
f 412 415 409
f 141 416 299
f 417 416 418
f 419 416 417
f 299 416 419
f 420 421 415
f 422 421 420
f 423 421 422
f 418 421 423
f 415 421 409
f 416 421 418
f 424 425 416
f 416 426 421
f 421 426 427
f 427 426 428
f 429 426 425
f 425 426 416
f 414 416 157
f 157 416 141
f 233 187 151
f 151 187 155
f 266 282 154
f 154 282 159
f 334 350 164
f 164 350 161
f 398 414 160
f 160 414 156
f 188 220 193
f 219 220 188
f 193 223 195
f 220 223 193
f 195 224 196
f 223 224 195
f 196 227 191
f 224 227 196
f 191 231 190
f 227 231 191
f 190 232 192
f 231 232 190
f 192 167 166
f 232 167 192
f 283 253 288
f 252 253 283
f 288 256 290
f 253 256 288
f 290 257 291
f 256 257 290
f 291 260 286
f 257 260 291
f 286 264 285
f 260 264 286
f 285 265 287
f 264 265 285
f 287 169 168
f 265 169 287
f 171 216 170
f 170 216 172
f 172 214 174
f 216 214 172
f 174 211 175
f 214 211 174
f 175 212 181
f 211 212 175
f 181 213 183
f 212 213 181
f 183 215 184
f 213 215 183
f 184 217 185
f 215 217 184
f 194 218 182
f 182 218 204
f 210 203 173
f 210 173 176
f 209 176 178
f 209 210 176
f 208 178 177
f 208 209 178
f 207 177 180
f 207 208 177
f 206 180 179
f 206 207 180
f 205 179 186
f 205 206 179
f 204 186 182
f 204 205 186
f 219 188 185
f 219 185 217
f 230 187 233
f 189 187 230
f 221 194 200
f 221 218 194
f 222 200 201
f 222 221 200
f 225 201 199
f 225 222 201
f 226 199 202
f 226 225 199
f 228 202 198
f 228 226 202
f 229 198 197
f 229 228 198
f 230 197 189
f 230 229 197
f 242 235 234
f 242 234 271
f 241 271 273
f 241 242 271
f 240 273 272
f 240 241 273
f 239 272 275
f 239 240 272
f 238 275 274
f 238 239 275
f 237 274 281
f 237 238 274
f 236 281 277
f 236 237 281
f 254 289 295
f 254 251 289
f 255 295 296
f 255 254 295
f 258 296 294
f 258 255 296
f 259 294 297
f 259 258 294
f 261 297 293
f 261 259 297
f 262 293 292
f 262 261 293
f 263 292 284
f 263 262 292
f 263 282 266
f 284 282 263
f 252 283 280
f 252 280 249
f 250 248 267
f 267 248 268
f 268 246 269
f 248 246 268
f 269 243 270
f 246 243 269
f 270 244 276
f 243 244 270
f 276 245 278
f 244 245 276
f 278 247 279
f 245 247 278
f 279 249 280
f 247 249 279
f 289 251 277
f 277 251 236
f 384 385 415
f 415 385 420
f 420 388 422
f 385 388 420
f 422 389 423
f 388 389 422
f 423 392 418
f 389 392 423
f 418 396 417
f 392 396 418
f 417 397 419
f 396 397 417
f 419 298 299
f 397 298 419
f 320 321 351
f 351 321 356
f 356 324 358
f 321 324 356
f 358 325 359
f 324 325 358
f 359 328 354
f 325 328 359
f 354 332 353
f 328 332 354
f 353 333 355
f 332 333 353
f 355 300 301
f 333 300 355
f 305 303 340
f 305 302 303
f 304 340 341
f 304 305 340
f 306 341 339
f 306 304 341
f 307 339 343
f 307 306 339
f 308 343 342
f 308 307 343
f 309 342 349
f 309 308 342
f 310 349 345
f 310 309 349
f 322 357 363
f 322 319 357
f 323 363 364
f 323 322 363
f 326 364 362
f 326 323 364
f 327 362 365
f 327 326 362
f 329 365 361
f 329 327 365
f 330 361 360
f 330 329 361
f 331 360 352
f 331 330 360
f 350 331 352
f 334 331 350
f 320 351 348
f 320 348 317
f 318 316 335
f 335 316 336
f 336 314 337
f 316 314 336
f 337 311 338
f 314 311 337
f 338 312 344
f 311 312 338
f 344 313 346
f 312 313 344
f 346 315 347
f 313 315 346
f 347 317 348
f 315 317 347
f 357 319 345
f 345 319 310
f 369 367 404
f 369 366 367
f 368 404 405
f 368 369 404
f 370 405 403
f 370 368 405
f 371 403 407
f 371 370 403
f 372 407 406
f 372 371 407
f 373 406 413
f 373 372 406
f 374 413 409
f 374 373 413
f 386 421 427
f 386 383 421
f 387 427 428
f 387 386 427
f 390 428 426
f 390 387 428
f 391 426 429
f 391 390 426
f 393 429 425
f 393 391 429
f 394 425 424
f 394 393 425
f 395 424 416
f 395 394 424
f 414 395 416
f 398 395 414
f 384 415 412
f 384 412 381
f 382 380 399
f 399 380 400
f 400 378 401
f 380 378 400
f 401 375 402
f 378 375 401
f 402 376 408
f 375 376 402
f 408 377 410
f 376 377 408
f 410 379 411
f 377 379 410
f 411 381 412
f 379 381 411
f 421 383 409
f 409 383 374
