<?xml version="1.0" encoding="UTF-8"?>
<svg xmlns="http://www.w3.org/2000/svg" viewBox="0 0 1100 850" width="1100" height="850">
<style>
  text { font-family: 'Helvetica Neue', Arial, sans-serif; }
  .title { font-size: 22px; font-weight: bold; fill: #1a1a2e; }
  .subtitle { font-size: 14px; fill: #0f3460; }
  .comp-label { font-size: 11px; font-weight: bold; fill: #2c3e50; }
  .pin-label { font-size: 9px; fill: #555; }
  .wire-label { font-size: 9px; font-weight: bold; }
  .note { font-size: 10px; fill: #666; font-style: italic; }
  .ic-label { font-size: 12px; font-weight: bold; fill: #ffffff; }
  .ic-pin { font-size: 8px; fill: #ffffff; }
  .ref { font-size: 9px; font-weight: bold; fill: #c0392b; }
  .value { font-size: 9px; fill: #27ae60; }
  .section-title { font-size: 16px; font-weight: bold; fill: #0f3460; }
  .warning { font-size: 10px; font-weight: bold; fill: #e74c3c; }
  .info { font-size: 10px; fill: #2980b9; }
</style>
<rect width="1100" height="850" fill="#fefefe" rx="8"/>
<text x="550" y="35" text-anchor="middle" class="title">LayIt Laser - Complete System Wiring Diagram</text>
<text x="550" y="58" text-anchor="middle" class="subtitle">Every connection in one view. Wire colors match the assembly guide.</text>
<rect x="30" y="100" width="60" height="54" fill="#ecf0f1" stroke="#2c3e50" stroke-width="2" rx="3"/>
<text x="60" y="94" text-anchor="middle" class="comp-label">12V DC IN</text>
<text x="60" y="82" text-anchor="middle" class="ref">J1</text>
<circle cx="102" cy="116" r="4" fill="#2c3e50"/>
<line x1="90" y1="116" x2="102" y2="116" stroke="#2c3e50" stroke-width="2"/>
<text x="84" y="119" text-anchor="end" class="pin-label">+12V</text>
<circle cx="102" cy="138" r="4" fill="#2c3e50"/>
<line x1="90" y1="138" x2="102" y2="138" stroke="#2c3e50" stroke-width="2"/>
<text x="84" y="141" text-anchor="end" class="pin-label">GND</text>
<text x="140" y="100" class="ref">D1 (SS34)</text>
<polygon points="130,116 160,108 160,124" fill="none" stroke="#2c3e50" stroke-width="2"/>
<line x1="160" y1="108" x2="160" y2="124" stroke="#2c3e50" stroke-width="3"/>
<line x1="102" y1="116" x2="130" y2="116" stroke="#e74c3c" stroke-width="2.5" stroke-linecap="round"/>
<line x1="160" y1="116" x2="190" y2="116" stroke="#e74c3c" stroke-width="2.5" stroke-linecap="round"/>
<rect x="190" y="106" width="50" height="20" fill="#ffe4b5" stroke="#2c3e50" stroke-width="1.5" rx="3"/>
<text x="215" y="120" text-anchor="middle" class="comp-label">3A</text>
<text x="215" y="102" text-anchor="middle" class="ref">F1</text>
<text x="215" y="138" text-anchor="middle" class="value">PTC Fuse</text>
<line x1="240" y1="116" x2="280" y2="116" stroke="#e74c3c" stroke-width="2.5" stroke-linecap="round"/>
<text x="260.0" y="110.0" text-anchor="middle" class="wire-label" fill="#e74c3c">+12V RAIL</text>
<line x1="102" y1="138" x2="280" y2="138" stroke="#2c3e50" stroke-width="2.5" stroke-linecap="round"/>
<text x="191.0" y="132.0" text-anchor="middle" class="wire-label" fill="#2c3e50">GND RAIL</text>
<line x1="280" y1="116" x2="1050" y2="116" stroke="#e74c3c" stroke-width="2.5" stroke-linecap="round"/>
<text x="660" y="108" class="wire-label" fill="#e74c3c">+12V RAIL</text>
<line x1="280" y1="790" x2="1050" y2="790" stroke="#2c3e50" stroke-width="2.5" stroke-linecap="round"/>
<text x="660" y="808" class="wire-label" fill="#2c3e50">GND RAIL</text>
<line x1="280" y1="138" x2="280" y2="790" stroke="#2c3e50" stroke-width="2.5" stroke-linecap="round"/>
<rect x="320" y="170" width="70" height="40" fill="#555" stroke="#2c3e50" stroke-width="2" rx="3"/>
<rect x="325" y="162" width="60" height="10" fill="#777" stroke="#2c3e50" stroke-width="1" rx="2"/>
<text x="355" y="194" text-anchor="middle" class="ic-label" style="font-size:10px">AMS1117</text>
<text x="355" y="156" text-anchor="middle" class="ref">U1</text>
<line x1="305" y1="183" x2="320" y2="183" stroke="#2c3e50" stroke-width="2"/>
<circle cx="305" cy="183" r="3" fill="#2c3e50"/>
<text x="302" y="180" text-anchor="end" class="pin-label">12V</text>
<line x1="355" y1="210" x2="355" y2="225" stroke="#2c3e50" stroke-width="2"/>
<circle cx="355" cy="225" r="3" fill="#2c3e50"/>
<text x="365" y="225" class="pin-label">GND</text>
<line x1="390" y1="183" x2="405" y2="183" stroke="#2c3e50" stroke-width="2"/>
<circle cx="405" cy="183" r="3" fill="#2c3e50"/>
<text x="408" y="180" class="pin-label">5V</text>
<line x1="320" y1="116" x2="320" y2="183" stroke="#e74c3c" stroke-width="2.5" stroke-linecap="round"/>
<line x1="305" y1="183" x2="320" y2="183" stroke="#e74c3c" stroke-width="2.5" stroke-linecap="round"/>
<line x1="355" y1="225" x2="355" y2="790" stroke="#2c3e50" stroke-width="2.5" stroke-linecap="round"/>
<line x1="405" y1="183" x2="450" y2="183" stroke="#aaaaaa" stroke-width="2.5" stroke-linecap="round"/>
<text x="430" y="175" class="wire-label" fill="#aaaaaa">+5V</text>
<line x1="450" y1="183" x2="450" y2="300" stroke="#aaaaaa" stroke-width="2.5" stroke-linecap="round"/>
<rect x="320" y="260" width="70" height="40" fill="#555" stroke="#2c3e50" stroke-width="2" rx="3"/>
<rect x="325" y="252" width="60" height="10" fill="#777" stroke="#2c3e50" stroke-width="1" rx="2"/>
<text x="355" y="284" text-anchor="middle" class="ic-label" style="font-size:10px">AMS1117</text>
<text x="355" y="246" text-anchor="middle" class="ref">U2</text>
<line x1="305" y1="273" x2="320" y2="273" stroke="#2c3e50" stroke-width="2"/>
<circle cx="305" cy="273" r="3" fill="#2c3e50"/>
<text x="302" y="270" text-anchor="end" class="pin-label">5V</text>
<line x1="355" y1="300" x2="355" y2="315" stroke="#2c3e50" stroke-width="2"/>
<circle cx="355" cy="315" r="3" fill="#2c3e50"/>
<text x="365" y="315" class="pin-label">GND</text>
<line x1="390" y1="273" x2="405" y2="273" stroke="#2c3e50" stroke-width="2"/>
<circle cx="405" cy="273" r="3" fill="#2c3e50"/>
<text x="408" y="270" class="pin-label">3.3V</text>
<line x1="450" y1="273" x2="405" y2="273" stroke="#aaaaaa" stroke-width="2.5" stroke-linecap="round"/>
<line x1="355" y1="315" x2="355" y2="790" stroke="#2c3e50" stroke-width="2.5" stroke-linecap="round"/>
<line x1="305" y1="273" x2="280" y2="273" stroke="#aaaaaa" stroke-width="2.5" stroke-linecap="round"/>
<line x1="280" y1="183" x2="280" y2="273" stroke="#aaaaaa" stroke-width="2.5" stroke-linecap="round"/>
<line x1="430" y1="203" x2="430" y2="215" stroke="#2c3e50" stroke-width="2"/>
<line x1="420" y1="215" x2="440" y2="215" stroke="#2c3e50" stroke-width="2.5"/>
<line x1="420" y1="221" x2="440" y2="221" stroke="#2c3e50" stroke-width="2.5"/>
<line x1="430" y1="221" x2="430" y2="233" stroke="#2c3e50" stroke-width="2"/>
<circle cx="430" cy="203" r="3" fill="#2c3e50"/>
<circle cx="430" cy="233" r="3" fill="#2c3e50"/>
<text x="446" y="210" class="ref">C3</text>
<text x="446" y="226" class="value">22uF</text>
<line x1="460" y1="203" x2="460" y2="215" stroke="#2c3e50" stroke-width="2"/>
<line x1="450" y1="215" x2="470" y2="215" stroke="#2c3e50" stroke-width="2.5"/>
<line x1="450" y1="221" x2="470" y2="221" stroke="#2c3e50" stroke-width="2.5"/>
<line x1="460" y1="221" x2="460" y2="233" stroke="#2c3e50" stroke-width="2"/>
<circle cx="460" cy="203" r="3" fill="#2c3e50"/>
<circle cx="460" cy="233" r="3" fill="#2c3e50"/>
<text x="476" y="210" class="ref">C4</text>
<text x="476" y="226" class="value">100nF</text>
<line x1="430" y1="293" x2="430" y2="305" stroke="#2c3e50" stroke-width="2"/>
<line x1="420" y1="305" x2="440" y2="305" stroke="#2c3e50" stroke-width="2.5"/>
<line x1="420" y1="311" x2="440" y2="311" stroke="#2c3e50" stroke-width="2.5"/>
<line x1="430" y1="311" x2="430" y2="323" stroke="#2c3e50" stroke-width="2"/>
<circle cx="430" cy="293" r="3" fill="#2c3e50"/>
<circle cx="430" cy="323" r="3" fill="#2c3e50"/>
<text x="446" y="300" class="ref">C5</text>
<text x="446" y="316" class="value">22uF</text>
<line x1="460" y1="293" x2="460" y2="305" stroke="#2c3e50" stroke-width="2"/>
<line x1="450" y1="305" x2="470" y2="305" stroke="#2c3e50" stroke-width="2.5"/>
<line x1="450" y1="311" x2="470" y2="311" stroke="#2c3e50" stroke-width="2.5"/>
<line x1="460" y1="311" x2="460" y2="323" stroke="#2c3e50" stroke-width="2"/>
<circle cx="460" cy="293" r="3" fill="#2c3e50"/>
<circle cx="460" cy="323" r="3" fill="#2c3e50"/>
<text x="476" y="300" class="ref">C6</text>
<text x="476" y="316" class="value">100nF</text>
<line x1="405" y1="273" x2="500" y2="273" stroke="#f1c40f" stroke-width="2.5" stroke-linecap="round"/>
<text x="470" y="265" class="wire-label" fill="#f1c40f">+3.3V</text>
<line x1="500" y1="273" x2="500" y2="700" stroke="#f1c40f" stroke-width="2.5" stroke-linecap="round"/>
<rect x="530" y="350" width="180" height="300" fill="#34495e" stroke="#2c3e50" stroke-width="2" rx="4"/>
<text x="620" y="504" text-anchor="middle" class="ic-label">ESP32-S3</text>
<text x="620" y="344" text-anchor="middle" class="ref">U3</text>
<circle cx="542" cy="358" r="4" fill="#555" stroke="#777"/>
<line x1="515" y1="377.27272727272725" x2="530" y2="377.27272727272725" stroke="#2c3e50" stroke-width="2"/>
<text x="536" y="380.27272727272725" class="ic-pin">GPIO0</text>
<circle cx="515" cy="377.27272727272725" r="3" fill="#2c3e50"/>
<line x1="515" y1="404.54545454545456" x2="530" y2="404.54545454545456" stroke="#2c3e50" stroke-width="2"/>
<text x="536" y="407.54545454545456" class="ic-pin">GPIO1</text>
<circle cx="515" cy="404.54545454545456" r="3" fill="#2c3e50"/>
<line x1="515" y1="431.8181818181818" x2="530" y2="431.8181818181818" stroke="#2c3e50" stroke-width="2"/>
<text x="536" y="434.8181818181818" class="ic-pin">GPIO2</text>
<circle cx="515" cy="431.8181818181818" r="3" fill="#2c3e50"/>
<line x1="515" y1="459.0909090909091" x2="530" y2="459.0909090909091" stroke="#2c3e50" stroke-width="2"/>
<text x="536" y="462.0909090909091" class="ic-pin">GPIO10</text>
<circle cx="515" cy="459.0909090909091" r="3" fill="#2c3e50"/>
<line x1="515" y1="486.3636363636364" x2="530" y2="486.3636363636364" stroke="#2c3e50" stroke-width="2"/>
<text x="536" y="489.3636363636364" class="ic-pin">GPIO11</text>
<circle cx="515" cy="486.3636363636364" r="3" fill="#2c3e50"/>
<line x1="515" y1="513.6363636363636" x2="530" y2="513.6363636363636" stroke="#2c3e50" stroke-width="2"/>
<text x="536" y="516.6363636363636" class="ic-pin">GPIO12</text>
<circle cx="515" cy="513.6363636363636" r="3" fill="#2c3e50"/>
<line x1="515" y1="540.9090909090909" x2="530" y2="540.9090909090909" stroke="#2c3e50" stroke-width="2"/>
<text x="536" y="543.9090909090909" class="ic-pin">GPIO13</text>
<circle cx="515" cy="540.9090909090909" r="3" fill="#2c3e50"/>
<line x1="515" y1="568.1818181818182" x2="530" y2="568.1818181818182" stroke="#2c3e50" stroke-width="2"/>
<text x="536" y="571.1818181818182" class="ic-pin">GPIO14</text>
<circle cx="515" cy="568.1818181818182" r="3" fill="#2c3e50"/>
<line x1="515" y1="595.4545454545455" x2="530" y2="595.4545454545455" stroke="#2c3e50" stroke-width="2"/>
<text x="536" y="598.4545454545455" class="ic-pin">GPIO47</text>
<circle cx="515" cy="595.4545454545455" r="3" fill="#2c3e50"/>
<line x1="515" y1="622.7272727272727" x2="530" y2="622.7272727272727" stroke="#2c3e50" stroke-width="2"/>
<text x="536" y="625.7272727272727" class="ic-pin">GPIO48</text>
<circle cx="515" cy="622.7272727272727" r="3" fill="#2c3e50"/>
<line x1="710" y1="377.27272727272725" x2="725" y2="377.27272727272725" stroke="#2c3e50" stroke-width="2"/>
<text x="704" y="380.27272727272725" text-anchor="end" class="ic-pin">GPIO4</text>
<circle cx="725" cy="377.27272727272725" r="3" fill="#2c3e50"/>
<line x1="710" y1="404.54545454545456" x2="725" y2="404.54545454545456" stroke="#2c3e50" stroke-width="2"/>
<text x="704" y="407.54545454545456" text-anchor="end" class="ic-pin">GPIO5</text>
<circle cx="725" cy="404.54545454545456" r="3" fill="#2c3e50"/>
<line x1="710" y1="431.8181818181818" x2="725" y2="431.8181818181818" stroke="#2c3e50" stroke-width="2"/>
<text x="704" y="434.8181818181818" text-anchor="end" class="ic-pin">GPIO6</text>
<circle cx="725" cy="431.8181818181818" r="3" fill="#2c3e50"/>
<line x1="710" y1="459.0909090909091" x2="725" y2="459.0909090909091" stroke="#2c3e50" stroke-width="2"/>
<text x="704" y="462.0909090909091" text-anchor="end" class="ic-pin">GPIO7</text>
<circle cx="725" cy="459.0909090909091" r="3" fill="#2c3e50"/>
<line x1="710" y1="486.3636363636364" x2="725" y2="486.3636363636364" stroke="#2c3e50" stroke-width="2"/>
<text x="704" y="489.3636363636364" text-anchor="end" class="ic-pin">GPIO8/9</text>
<circle cx="725" cy="486.3636363636364" r="3" fill="#2c3e50"/>
<line x1="710" y1="513.6363636363636" x2="725" y2="513.6363636363636" stroke="#2c3e50" stroke-width="2"/>
<text x="704" y="516.6363636363636" text-anchor="end" class="ic-pin">GPIO15-18</text>
<circle cx="725" cy="513.6363636363636" r="3" fill="#2c3e50"/>
<line x1="710" y1="540.9090909090909" x2="725" y2="540.9090909090909" stroke="#2c3e50" stroke-width="2"/>
<text x="704" y="543.9090909090909" text-anchor="end" class="ic-pin">GPIO45/46</text>
<circle cx="725" cy="540.9090909090909" r="3" fill="#2c3e50"/>
<line x1="710" y1="568.1818181818182" x2="725" y2="568.1818181818182" stroke="#2c3e50" stroke-width="2"/>
<text x="704" y="571.1818181818182" text-anchor="end" class="ic-pin">GPIO19</text>
<circle cx="725" cy="568.1818181818182" r="3" fill="#2c3e50"/>
<line x1="710" y1="595.4545454545455" x2="725" y2="595.4545454545455" stroke="#2c3e50" stroke-width="2"/>
<text x="704" y="598.4545454545455" text-anchor="end" class="ic-pin">GPIO20</text>
<circle cx="725" cy="595.4545454545455" r="3" fill="#2c3e50"/>
<line x1="710" y1="622.7272727272727" x2="725" y2="622.7272727272727" stroke="#2c3e50" stroke-width="2"/>
<text x="704" y="625.7272727272727" text-anchor="end" class="ic-pin">3V3/GND</text>
<circle cx="725" cy="622.7272727272727" r="3" fill="#2c3e50"/>
<line x1="500" y1="400" x2="530" y2="400" stroke="#f1c40f" stroke-width="2.5" stroke-linecap="round"/>
<line x1="505" y1="415" x2="505" y2="427" stroke="#2c3e50" stroke-width="2"/>
<line x1="495" y1="427" x2="515" y2="427" stroke="#2c3e50" stroke-width="2.5"/>
<line x1="495" y1="433" x2="515" y2="433" stroke="#2c3e50" stroke-width="2.5"/>
<line x1="505" y1="433" x2="505" y2="445" stroke="#2c3e50" stroke-width="2"/>
<circle cx="505" cy="415" r="3" fill="#2c3e50"/>
<circle cx="505" cy="445" r="3" fill="#2c3e50"/>
<text x="521" y="422" class="ref">C7</text>
<text x="521" y="438" class="value">10uF</text>
<line x1="505" y1="455" x2="505" y2="467" stroke="#2c3e50" stroke-width="2"/>
<line x1="495" y1="467" x2="515" y2="467" stroke="#2c3e50" stroke-width="2.5"/>
<line x1="495" y1="473" x2="515" y2="473" stroke="#2c3e50" stroke-width="2.5"/>
<line x1="505" y1="473" x2="505" y2="485" stroke="#2c3e50" stroke-width="2"/>
<circle cx="505" cy="455" r="3" fill="#2c3e50"/>
<circle cx="505" cy="485" r="3" fill="#2c3e50"/>
<text x="521" y="462" class="ref">C8</text>
<text x="521" y="478" class="value">100nF</text>
<rect x="300" y="420" width="100" height="140" fill="#34495e" stroke="#2c3e50" stroke-width="2" rx="4"/>
<text x="350" y="494" text-anchor="middle" class="ic-label">MCP4822</text>
<text x="350" y="414" text-anchor="middle" class="ref">U4</text>
<circle cx="312" cy="428" r="4" fill="#555" stroke="#777"/>
<line x1="285" y1="448.0" x2="300" y2="448.0" stroke="#2c3e50" stroke-width="2"/>
<text x="306" y="451.0" class="ic-pin">VDD</text>
<circle cx="285" cy="448.0" r="3" fill="#2c3e50"/>
<line x1="285" y1="476.0" x2="300" y2="476.0" stroke="#2c3e50" stroke-width="2"/>
<text x="306" y="479.0" class="ic-pin">/CS</text>
<circle cx="285" cy="476.0" r="3" fill="#2c3e50"/>
<line x1="285" y1="504.0" x2="300" y2="504.0" stroke="#2c3e50" stroke-width="2"/>
<text x="306" y="507.0" class="ic-pin">SCK</text>
<circle cx="285" cy="504.0" r="3" fill="#2c3e50"/>
<line x1="285" y1="532.0" x2="300" y2="532.0" stroke="#2c3e50" stroke-width="2"/>
<text x="306" y="535.0" class="ic-pin">SDI</text>
<circle cx="285" cy="532.0" r="3" fill="#2c3e50"/>
<line x1="400" y1="448.0" x2="415" y2="448.0" stroke="#2c3e50" stroke-width="2"/>
<text x="394" y="451.0" text-anchor="end" class="ic-pin">VOUTA</text>
<circle cx="415" cy="448.0" r="3" fill="#2c3e50"/>
<line x1="400" y1="476.0" x2="415" y2="476.0" stroke="#2c3e50" stroke-width="2"/>
<text x="394" y="479.0" text-anchor="end" class="ic-pin">VOUTB</text>
<circle cx="415" cy="476.0" r="3" fill="#2c3e50"/>
<line x1="400" y1="504.0" x2="415" y2="504.0" stroke="#2c3e50" stroke-width="2"/>
<text x="394" y="507.0" text-anchor="end" class="ic-pin">/LDAC</text>
<circle cx="415" cy="504.0" r="3" fill="#2c3e50"/>
<line x1="400" y1="532.0" x2="415" y2="532.0" stroke="#2c3e50" stroke-width="2"/>
<text x="394" y="535.0" text-anchor="end" class="ic-pin">VSS</text>
<circle cx="415" cy="532.0" r="3" fill="#2c3e50"/>
<line x1="515" y1="430" x2="415" y2="430" stroke="#3498db" stroke-width="2.5" stroke-linecap="round"/>
<line x1="515" y1="465" x2="400" y2="465" stroke="#3498db" stroke-width="2.5" stroke-linecap="round"/>
<line x1="400" y1="465" x2="400" y2="500" stroke="#3498db" stroke-width="2.5" stroke-linecap="round"/>
<line x1="400" y1="500" x2="415" y2="500" stroke="#3498db" stroke-width="2.5" stroke-linecap="round"/>
<line x1="515" y1="500" x2="420" y2="525" stroke="#3498db" stroke-width="2.5" stroke-linecap="round"/>
<text x="460" y="425" class="wire-label" fill="#3498db">SPI Bus</text>
<line x1="285" y1="455" x2="300" y2="455" stroke="#aaaaaa" stroke-width="2.5" stroke-linecap="round"/>
<line x1="270" y1="440" x2="270" y2="452" stroke="#2c3e50" stroke-width="2"/>
<line x1="260" y1="452" x2="280" y2="452" stroke="#2c3e50" stroke-width="2.5"/>
<line x1="260" y1="458" x2="280" y2="458" stroke="#2c3e50" stroke-width="2.5"/>
<line x1="270" y1="458" x2="270" y2="470" stroke="#2c3e50" stroke-width="2"/>
<circle cx="270" cy="440" r="3" fill="#2c3e50"/>
<circle cx="270" cy="470" r="3" fill="#2c3e50"/>
<text x="286" y="447" class="ref">C10</text>
<text x="286" y="463" class="value">100nF</text>
<rect x="100" y="420" width="100" height="120" fill="#34495e" stroke="#2c3e50" stroke-width="2" rx="4"/>
<text x="150" y="484" text-anchor="middle" class="ic-label">TL072</text>
<text x="150" y="414" text-anchor="middle" class="ref">U5</text>
<circle cx="112" cy="428" r="4" fill="#555" stroke="#777"/>
<line x1="85" y1="444.0" x2="100" y2="444.0" stroke="#2c3e50" stroke-width="2"/>
<text x="106" y="447.0" class="ic-pin">OUT A</text>
<circle cx="85" cy="444.0" r="3" fill="#2c3e50"/>
<line x1="85" y1="468.0" x2="100" y2="468.0" stroke="#2c3e50" stroke-width="2"/>
<text x="106" y="471.0" class="ic-pin">IN- A</text>
<circle cx="85" cy="468.0" r="3" fill="#2c3e50"/>
<line x1="85" y1="492.0" x2="100" y2="492.0" stroke="#2c3e50" stroke-width="2"/>
<text x="106" y="495.0" class="ic-pin">IN+ A</text>
<circle cx="85" cy="492.0" r="3" fill="#2c3e50"/>
<line x1="85" y1="516.0" x2="100" y2="516.0" stroke="#2c3e50" stroke-width="2"/>
<text x="106" y="519.0" class="ic-pin">V-</text>
<circle cx="85" cy="516.0" r="3" fill="#2c3e50"/>
<line x1="200" y1="444.0" x2="215" y2="444.0" stroke="#2c3e50" stroke-width="2"/>
<text x="194" y="447.0" text-anchor="end" class="ic-pin">V+</text>
<circle cx="215" cy="444.0" r="3" fill="#2c3e50"/>
<line x1="200" y1="468.0" x2="215" y2="468.0" stroke="#2c3e50" stroke-width="2"/>
<text x="194" y="471.0" text-anchor="end" class="ic-pin">IN+ B</text>
<circle cx="215" cy="468.0" r="3" fill="#2c3e50"/>
<line x1="200" y1="492.0" x2="215" y2="492.0" stroke="#2c3e50" stroke-width="2"/>
<text x="194" y="495.0" text-anchor="end" class="ic-pin">IN- B</text>
<circle cx="215" cy="492.0" r="3" fill="#2c3e50"/>
<line x1="200" y1="516.0" x2="215" y2="516.0" stroke="#2c3e50" stroke-width="2"/>
<text x="194" y="519.0" text-anchor="end" class="ic-pin">OUT B</text>
<circle cx="215" cy="516.0" r="3" fill="#2c3e50"/>
<line x1="285" y1="460" x2="250" y2="460" stroke="#3498db" stroke-width="2.5" stroke-linecap="round"/>
<line x1="215" y1="460" x2="225" y2="460" stroke="#2c3e50" stroke-width="2"/>
<rect x="225" y="454" width="30" height="12" fill="#ffe4b5" stroke="#2c3e50" stroke-width="1.5" rx="2"/>
<line x1="255" y1="460" x2="265" y2="460" stroke="#2c3e50" stroke-width="2"/>
<circle cx="215" cy="460" r="3" fill="#2c3e50"/>
<circle cx="265" cy="460" r="3" fill="#2c3e50"/>
<text x="240" y="450" text-anchor="middle" class="ref">R5</text>
<text x="240" y="463" text-anchor="middle" class="value" style="font-size:8px">10K</text>
<line x1="215" y1="460" x2="215" y2="480" stroke="#3498db" stroke-width="2.5" stroke-linecap="round"/>
<line x1="285" y1="495" x2="250" y2="495" stroke="#3498db" stroke-width="2.5" stroke-linecap="round"/>
<line x1="215" y1="495" x2="225" y2="495" stroke="#2c3e50" stroke-width="2"/>
<rect x="225" y="489" width="30" height="12" fill="#ffe4b5" stroke="#2c3e50" stroke-width="1.5" rx="2"/>
<line x1="255" y1="495" x2="265" y2="495" stroke="#2c3e50" stroke-width="2"/>
<circle cx="215" cy="495" r="3" fill="#2c3e50"/>
<circle cx="265" cy="495" r="3" fill="#2c3e50"/>
<text x="240" y="485" text-anchor="middle" class="ref">R7</text>
<text x="240" y="498" text-anchor="middle" class="value" style="font-size:8px">10K</text>
<text x="60" y="450" class="comp-label" fill="#3498db">To Galvo X</text>
<text x="230" y="525" class="comp-label" fill="#3498db">To Galvo Y</text>
<rect x="20" y="560" width="60" height="142" fill="#ecf0f1" stroke="#2c3e50" stroke-width="2" rx="3"/>
<text x="50" y="554" text-anchor="middle" class="comp-label">GALVO</text>
<text x="50" y="542" text-anchor="middle" class="ref">J4</text>
<circle cx="92" cy="576" r="4" fill="#2c3e50"/>
<line x1="80" y1="576" x2="92" y2="576" stroke="#2c3e50" stroke-width="2"/>
<text x="74" y="579" text-anchor="end" class="pin-label">X+</text>
<circle cx="92" cy="598" r="4" fill="#2c3e50"/>
<line x1="80" y1="598" x2="92" y2="598" stroke="#2c3e50" stroke-width="2"/>
<text x="74" y="601" text-anchor="end" class="pin-label">X-</text>
<circle cx="92" cy="620" r="4" fill="#2c3e50"/>
<line x1="80" y1="620" x2="92" y2="620" stroke="#2c3e50" stroke-width="2"/>
<text x="74" y="623" text-anchor="end" class="pin-label">Y+</text>
<circle cx="92" cy="642" r="4" fill="#2c3e50"/>
<line x1="80" y1="642" x2="92" y2="642" stroke="#2c3e50" stroke-width="2"/>
<text x="74" y="645" text-anchor="end" class="pin-label">Y-</text>
<circle cx="92" cy="664" r="4" fill="#2c3e50"/>
<line x1="80" y1="664" x2="92" y2="664" stroke="#2c3e50" stroke-width="2"/>
<text x="74" y="667" text-anchor="end" class="pin-label">+12V</text>
<circle cx="92" cy="686" r="4" fill="#2c3e50"/>
<line x1="80" y1="686" x2="92" y2="686" stroke="#2c3e50" stroke-width="2"/>
<text x="74" y="689" text-anchor="end" class="pin-label">GND</text>
<line x1="92" y1="576" x2="85" y2="455" stroke="#3498db" stroke-width="2.5" stroke-linecap="round"/>
<text x="850" y="200" class="section-title">Laser Driver</text>
<rect x="850" y="220" width="60" height="35" fill="#ddd" stroke="#2c3e50" stroke-width="1.5" rx="3"/>
<text x="880" y="241" text-anchor="middle" class="comp-label">2N7000</text>
<text x="880" y="216" text-anchor="middle" class="ref">Q1</text>
<text x="880" y="275" class="pin-label">S    G    D</text>
<line x1="770" y1="238" x2="780" y2="238" stroke="#2c3e50" stroke-width="2"/>
<rect x="780" y="232" width="30" height="12" fill="#ffe4b5" stroke="#2c3e50" stroke-width="1.5" rx="2"/>
<line x1="810" y1="238" x2="820" y2="238" stroke="#2c3e50" stroke-width="2"/>
<circle cx="770" cy="238" r="3" fill="#2c3e50"/>
<circle cx="820" cy="238" r="3" fill="#2c3e50"/>
<text x="795" y="228" text-anchor="middle" class="ref">R10</text>
<text x="795" y="241" text-anchor="middle" class="value" style="font-size:8px">100R</text>
<line x1="930" y1="220" x2="940" y2="220" stroke="#2c3e50" stroke-width="2"/>
<rect x="940" y="214" width="30" height="12" fill="#ffe4b5" stroke="#2c3e50" stroke-width="1.5" rx="2"/>
<line x1="970" y1="220" x2="980" y2="220" stroke="#2c3e50" stroke-width="2"/>
<circle cx="930" cy="220" r="3" fill="#2c3e50"/>
<circle cx="980" cy="220" r="3" fill="#2c3e50"/>
<text x="955" y="210" text-anchor="middle" class="ref">R9</text>
<text x="955" y="223" text-anchor="middle" class="value" style="font-size:8px">4.7K</text>
<line x1="515" y1="570" x2="480" y2="570" stroke="#e74c3c" stroke-width="2.5" stroke-linecap="round"/>
<line x1="480" y1="570" x2="480" y2="238" stroke="#e74c3c" stroke-width="2.5" stroke-linecap="round"/>
<line x1="480" y1="238" x2="770" y2="238" stroke="#e74c3c" stroke-width="2.5" stroke-linecap="round"/>
<text x="600" y="232" class="wire-label" fill="#e74c3c">GPIO14 (Laser TTL)</text>
<rect x="980" y="210" width="60" height="76" fill="#ecf0f1" stroke="#2c3e50" stroke-width="2" rx="3"/>
<text x="1010" y="204" text-anchor="middle" class="comp-label">LASER</text>
<text x="1010" y="192" text-anchor="middle" class="ref">J3</text>
<circle cx="968" cy="226" r="4" fill="#2c3e50"/>
<line x1="968" y1="226" x2="980" y2="226" stroke="#2c3e50" stroke-width="2"/>
<text x="986" y="229" class="pin-label">+12V</text>
<circle cx="968" cy="248" r="4" fill="#2c3e50"/>
<line x1="968" y1="248" x2="980" y2="248" stroke="#2c3e50" stroke-width="2"/>
<text x="986" y="251" class="pin-label">TTL</text>
<circle cx="968" cy="270" r="4" fill="#2c3e50"/>
<line x1="968" y1="270" x2="980" y2="270" stroke="#2c3e50" stroke-width="2"/>
<text x="986" y="273" class="pin-label">GND</text>
<text x="850" y="380" class="section-title">Camera (DVP)</text>
<rect x="830" y="400" width="120" height="80" fill="#d5e8d4" stroke="#2c3e50" stroke-width="1.5" rx="3"/>
<text x="890" y="444" text-anchor="middle" class="comp-label">OV5640
5MP 160deg</text>
<text x="890" y="396" text-anchor="middle" class="ref">J5</text>
<line x1="725" y1="430" x2="830" y2="430" stroke="#27ae60" stroke-width="2.5" stroke-linecap="round"/>
<line x1="725" y1="460" x2="830" y2="460" stroke="#27ae60" stroke-width="2.5" stroke-linecap="round"/>
<text x="770" y="425" class="wire-label" fill="#27ae60">8-bit DVP</text>
<text x="770" y="475" class="wire-label" fill="#27ae60">I2C (SDA/SCL)</text>
<line x1="770" y1="500" x2="780" y2="500" stroke="#2c3e50" stroke-width="2"/>
<rect x="780" y="494" width="30" height="12" fill="#ffe4b5" stroke="#2c3e50" stroke-width="1.5" rx="2"/>
<line x1="810" y1="500" x2="820" y2="500" stroke="#2c3e50" stroke-width="2"/>
<circle cx="770" cy="500" r="3" fill="#2c3e50"/>
<circle cx="820" cy="500" r="3" fill="#2c3e50"/>
<text x="795" y="490" text-anchor="middle" class="ref">R11</text>
<text x="795" y="503" text-anchor="middle" class="value" style="font-size:8px">4.7K</text>
<line x1="770" y1="520" x2="780" y2="520" stroke="#2c3e50" stroke-width="2"/>
<rect x="780" y="514" width="30" height="12" fill="#ffe4b5" stroke="#2c3e50" stroke-width="1.5" rx="2"/>
<line x1="810" y1="520" x2="820" y2="520" stroke="#2c3e50" stroke-width="2"/>
<circle cx="770" cy="520" r="3" fill="#2c3e50"/>
<circle cx="820" cy="520" r="3" fill="#2c3e50"/>
<text x="795" y="510" text-anchor="middle" class="ref">R12</text>
<text x="795" y="523" text-anchor="middle" class="value" style="font-size:8px">4.7K</text>
<text x="850" y="540" class="section-title">Safety</text>
<rect x="850" y="560" width="80" height="35" fill="#fadbd8" stroke="#2c3e50" stroke-width="1.5" rx="3"/>
<text x="890" y="581" text-anchor="middle" class="comp-label">SW3</text>
<text x="890" y="607" text-anchor="middle" class="value">Lid Switch</text>
<line x1="725" y1="605" x2="850" y2="605" stroke="#27ae60" stroke-width="2.5" stroke-linecap="round"/>
<line x1="850" y1="578" x2="850" y2="605" stroke="#27ae60" stroke-width="2.5" stroke-linecap="round"/>
<line x1="790" y1="560" x2="800" y2="560" stroke="#2c3e50" stroke-width="2"/>
<rect x="800" y="554" width="30" height="12" fill="#ffe4b5" stroke="#2c3e50" stroke-width="1.5" rx="2"/>
<line x1="830" y1="560" x2="840" y2="560" stroke="#2c3e50" stroke-width="2"/>
<circle cx="790" cy="560" r="3" fill="#2c3e50"/>
<circle cx="840" cy="560" r="3" fill="#2c3e50"/>
<text x="815" y="550" text-anchor="middle" class="ref">R15</text>
<text x="815" y="563" text-anchor="middle" class="value" style="font-size:8px">10K</text>
<text x="790" y="548" class="info">GPIO47</text>
<text x="850" y="640" class="section-title">Status LED</text>
<rect x="860" y="660" width="30" height="30" fill="#27ae60" stroke="#2c3e50" stroke-width="2" rx="2"/>
<text x="875" y="680" text-anchor="middle" class="ic-label" style="font-size:8px">LED</text>
<text x="875" y="700" text-anchor="middle" class="ref">LED1</text>
<text x="875" y="712" text-anchor="middle" class="value">WS2812B</text>
<line x1="725" y1="640" x2="860" y2="640" stroke="#27ae60" stroke-width="2.5" stroke-linecap="round"/>
<line x1="860" y1="640" x2="860" y2="660" stroke="#27ae60" stroke-width="2.5" stroke-linecap="round"/>
<text x="790" y="635" class="info">GPIO48</text>
<line x1="310" y1="130" x2="310" y2="142" stroke="#2c3e50" stroke-width="2"/>
<line x1="300" y1="142" x2="320" y2="142" stroke="#2c3e50" stroke-width="2.5"/>
<line x1="300" y1="148" x2="320" y2="148" stroke="#2c3e50" stroke-width="2.5"/>
<line x1="310" y1="148" x2="310" y2="160" stroke="#2c3e50" stroke-width="2"/>
<circle cx="310" cy="130" r="3" fill="#2c3e50"/>
<circle cx="310" cy="160" r="3" fill="#2c3e50"/>
<text x="322" y="139" class="warning" style="font-size:12px">+</text>
<text x="326" y="137" class="ref">C1</text>
<text x="326" y="153" class="value">470uF</text>
<rect x="30" y="720" width="240" height="115" fill="white" stroke="#ccc" stroke-width="1" rx="4"/>
<text x="40" y="738" class="comp-label">WIRE COLOR LEGEND</text>
<line x1="40" y1="755" x2="70" y2="755" stroke="#e74c3c" stroke-width="3"/>
<text x="78" y="759" class="pin-label">RED wire → +12V Power</text>
<line x1="40" y1="767" x2="70" y2="767" stroke="#aaaaaa" stroke-width="3"/>
<text x="78" y="771" class="pin-label">WHITE wire → +5V Power</text>
<line x1="40" y1="779" x2="70" y2="779" stroke="#f1c40f" stroke-width="3"/>
<text x="78" y="783" class="pin-label">YELLOW wire → +3.3V Power</text>
<line x1="40" y1="791" x2="70" y2="791" stroke="#2c3e50" stroke-width="3"/>
<text x="78" y="795" class="pin-label">BLACK wire → Ground (GND)</text>
<line x1="40" y1="803" x2="70" y2="803" stroke="#3498db" stroke-width="3"/>
<text x="78" y="807" class="pin-label">BLUE wire → SPI / Analog Signals</text>
<line x1="40" y1="815" x2="70" y2="815" stroke="#27ae60" stroke-width="3"/>
<text x="78" y="819" class="pin-label">GREEN wire → Digital / I2C / Safety</text>
</svg>
