<?xml version="1.0" encoding="UTF-8"?>
<svg xmlns="http://www.w3.org/2000/svg" viewBox="0 0 900 500" width="900" height="500">
<style>
  text { font-family: 'Helvetica Neue', Arial, sans-serif; }
  .title { font-size: 22px; font-weight: bold; fill: #1a1a2e; }
  .subtitle { font-size: 14px; fill: #0f3460; }
  .comp-label { font-size: 11px; font-weight: bold; fill: #2c3e50; }
  .pin-label { font-size: 9px; fill: #555; }
  .wire-label { font-size: 9px; font-weight: bold; }
  .note { font-size: 10px; fill: #666; font-style: italic; }
  .ic-label { font-size: 12px; font-weight: bold; fill: #ffffff; }
  .ic-pin { font-size: 8px; fill: #ffffff; }
  .ref { font-size: 9px; font-weight: bold; fill: #c0392b; }
  .value { font-size: 9px; fill: #27ae60; }
  .section-title { font-size: 16px; font-weight: bold; fill: #0f3460; }
  .warning { font-size: 10px; font-weight: bold; fill: #e74c3c; }
  .info { font-size: 10px; fill: #2980b9; }
</style>
<rect width="900" height="500" fill="#fefefe" rx="8"/>
<text x="450" y="35" text-anchor="middle" class="title">DAC + Op-Amp + Galvo Signal Path</text>
<text x="450" y="58" text-anchor="middle" class="subtitle">SPI from ESP32 to DAC, amplified by op-amp, drives galvo motors</text>
<rect x="30" y="140" width="120" height="160" fill="#34495e" stroke="#2c3e50" stroke-width="2" rx="4"/>
<text x="90" y="200" text-anchor="middle" class="ic-label">ESP32-S3</text>
<text x="90" y="130" text-anchor="middle" class="ref">U3</text>
<text x="140" y="173" class="pin-label">GPIO10</text>
<line x1="150" y1="170" x2="260" y2="170" stroke="#3498db" stroke-width="2.5" stroke-linecap="round"/>
<text x="200" y="165" class="wire-label" fill="#3498db">/CS</text>
<text x="140" y="203" class="pin-label">GPIO11</text>
<line x1="150" y1="200" x2="260" y2="200" stroke="#3498db" stroke-width="2.5" stroke-linecap="round"/>
<text x="200" y="195" class="wire-label" fill="#3498db">MOSI</text>
<text x="140" y="233" class="pin-label">GPIO12</text>
<line x1="150" y1="230" x2="260" y2="230" stroke="#3498db" stroke-width="2.5" stroke-linecap="round"/>
<text x="200" y="225" class="wire-label" fill="#3498db">CLK</text>
<text x="140" y="263" class="pin-label">GPIO13</text>
<line x1="150" y1="260" x2="260" y2="260" stroke="#3498db" stroke-width="2.5" stroke-linecap="round"/>
<text x="200" y="255" class="wire-label" fill="#3498db">/LDAC</text>
<rect x="260" y="140" width="120" height="180" fill="#34495e" stroke="#2c3e50" stroke-width="2" rx="4"/>
<text x="320" y="234" text-anchor="middle" class="ic-label">MCP4822</text>
<text x="320" y="134" text-anchor="middle" class="ref">U4</text>
<circle cx="272" cy="148" r="4" fill="#555" stroke="#777"/>
<line x1="245" y1="176.0" x2="260" y2="176.0" stroke="#2c3e50" stroke-width="2"/>
<text x="266" y="179.0" class="ic-pin">VDD</text>
<circle cx="245" cy="176.0" r="3" fill="#2c3e50"/>
<line x1="245" y1="212.0" x2="260" y2="212.0" stroke="#2c3e50" stroke-width="2"/>
<text x="266" y="215.0" class="ic-pin">/CS</text>
<circle cx="245" cy="212.0" r="3" fill="#2c3e50"/>
<line x1="245" y1="248.0" x2="260" y2="248.0" stroke="#2c3e50" stroke-width="2"/>
<text x="266" y="251.0" class="ic-pin">SCK</text>
<circle cx="245" cy="248.0" r="3" fill="#2c3e50"/>
<line x1="245" y1="284.0" x2="260" y2="284.0" stroke="#2c3e50" stroke-width="2"/>
<text x="266" y="287.0" class="ic-pin">SDI</text>
<circle cx="245" cy="284.0" r="3" fill="#2c3e50"/>
<line x1="380" y1="176.0" x2="395" y2="176.0" stroke="#2c3e50" stroke-width="2"/>
<text x="374" y="179.0" text-anchor="end" class="ic-pin">VOUTA</text>
<circle cx="395" cy="176.0" r="3" fill="#2c3e50"/>
<line x1="380" y1="212.0" x2="395" y2="212.0" stroke="#2c3e50" stroke-width="2"/>
<text x="374" y="215.0" text-anchor="end" class="ic-pin">VOUTB</text>
<circle cx="395" cy="212.0" r="3" fill="#2c3e50"/>
<line x1="380" y1="248.0" x2="395" y2="248.0" stroke="#2c3e50" stroke-width="2"/>
<text x="374" y="251.0" text-anchor="end" class="ic-pin">/LDAC</text>
<circle cx="395" cy="248.0" r="3" fill="#2c3e50"/>
<line x1="380" y1="284.0" x2="395" y2="284.0" stroke="#2c3e50" stroke-width="2"/>
<text x="374" y="287.0" text-anchor="end" class="ic-pin">VSS</text>
<circle cx="395" cy="284.0" r="3" fill="#2c3e50"/>
<line x1="240" y1="115" x2="240" y2="127" stroke="#2c3e50" stroke-width="2"/>
<line x1="230" y1="127" x2="250" y2="127" stroke="#2c3e50" stroke-width="2.5"/>
<line x1="230" y1="133" x2="250" y2="133" stroke="#2c3e50" stroke-width="2.5"/>
<line x1="240" y1="133" x2="240" y2="145" stroke="#2c3e50" stroke-width="2"/>
<circle cx="240" cy="115" r="3" fill="#2c3e50"/>
<circle cx="240" cy="145" r="3" fill="#2c3e50"/>
<text x="256" y="122" class="ref">C10</text>
<text x="256" y="138" class="value">100nF</text>
<line x1="395" y1="175" x2="440" y2="175" stroke="#3498db" stroke-width="2.5" stroke-linecap="round"/>
<text x="420" y="168" class="wire-label" fill="#3498db">Ch A (X)</text>
<line x1="395" y1="215" x2="440" y2="215" stroke="#3498db" stroke-width="2.5" stroke-linecap="round"/>
<text x="420" y="208" class="wire-label" fill="#3498db">Ch B (Y)</text>
<line x1="440" y1="175" x2="450" y2="175" stroke="#2c3e50" stroke-width="2"/>
<rect x="450" y="169" width="30" height="12" fill="#ffe4b5" stroke="#2c3e50" stroke-width="1.5" rx="2"/>
<line x1="480" y1="175" x2="490" y2="175" stroke="#2c3e50" stroke-width="2"/>
<circle cx="440" cy="175" r="3" fill="#2c3e50"/>
<circle cx="490" cy="175" r="3" fill="#2c3e50"/>
<text x="465" y="165" text-anchor="middle" class="ref">R5</text>
<text x="465" y="178" text-anchor="middle" class="value" style="font-size:8px">10K</text>
<line x1="440" y1="215" x2="450" y2="215" stroke="#2c3e50" stroke-width="2"/>
<rect x="450" y="209" width="30" height="12" fill="#ffe4b5" stroke="#2c3e50" stroke-width="1.5" rx="2"/>
<line x1="480" y1="215" x2="490" y2="215" stroke="#2c3e50" stroke-width="2"/>
<circle cx="440" cy="215" r="3" fill="#2c3e50"/>
<circle cx="490" cy="215" r="3" fill="#2c3e50"/>
<text x="465" y="205" text-anchor="middle" class="ref">R7</text>
<text x="465" y="218" text-anchor="middle" class="value" style="font-size:8px">10K</text>
<rect x="520" y="140" width="120" height="180" fill="#34495e" stroke="#2c3e50" stroke-width="2" rx="4"/>
<text x="580" y="234" text-anchor="middle" class="ic-label">TL072</text>
<text x="580" y="134" text-anchor="middle" class="ref">U5</text>
<circle cx="532" cy="148" r="4" fill="#555" stroke="#777"/>
<line x1="505" y1="176.0" x2="520" y2="176.0" stroke="#2c3e50" stroke-width="2"/>
<text x="526" y="179.0" class="ic-pin">OUT A</text>
<circle cx="505" cy="176.0" r="3" fill="#2c3e50"/>
<line x1="505" y1="212.0" x2="520" y2="212.0" stroke="#2c3e50" stroke-width="2"/>
<text x="526" y="215.0" class="ic-pin">IN- A</text>
<circle cx="505" cy="212.0" r="3" fill="#2c3e50"/>
<line x1="505" y1="248.0" x2="520" y2="248.0" stroke="#2c3e50" stroke-width="2"/>
<text x="526" y="251.0" class="ic-pin">IN+ A</text>
<circle cx="505" cy="248.0" r="3" fill="#2c3e50"/>
<line x1="505" y1="284.0" x2="520" y2="284.0" stroke="#2c3e50" stroke-width="2"/>
<text x="526" y="287.0" class="ic-pin">V-</text>
<circle cx="505" cy="284.0" r="3" fill="#2c3e50"/>
<line x1="640" y1="176.0" x2="655" y2="176.0" stroke="#2c3e50" stroke-width="2"/>
<text x="634" y="179.0" text-anchor="end" class="ic-pin">V+</text>
<circle cx="655" cy="176.0" r="3" fill="#2c3e50"/>
<line x1="640" y1="212.0" x2="655" y2="212.0" stroke="#2c3e50" stroke-width="2"/>
<text x="634" y="215.0" text-anchor="end" class="ic-pin">IN+ B</text>
<circle cx="655" cy="212.0" r="3" fill="#2c3e50"/>
<line x1="640" y1="248.0" x2="655" y2="248.0" stroke="#2c3e50" stroke-width="2"/>
<text x="634" y="251.0" text-anchor="end" class="ic-pin">IN- B</text>
<circle cx="655" cy="248.0" r="3" fill="#2c3e50"/>
<line x1="640" y1="284.0" x2="655" y2="284.0" stroke="#2c3e50" stroke-width="2"/>
<text x="634" y="287.0" text-anchor="end" class="ic-pin">OUT B</text>
<circle cx="655" cy="284.0" r="3" fill="#2c3e50"/>
<line x1="530" y1="115" x2="540" y2="115" stroke="#2c3e50" stroke-width="2"/>
<rect x="540" y="109" width="30" height="12" fill="#ffe4b5" stroke="#2c3e50" stroke-width="1.5" rx="2"/>
<line x1="570" y1="115" x2="580" y2="115" stroke="#2c3e50" stroke-width="2"/>
<circle cx="530" cy="115" r="3" fill="#2c3e50"/>
<circle cx="580" cy="115" r="3" fill="#2c3e50"/>
<text x="555" y="105" text-anchor="middle" class="ref">R6</text>
<text x="555" y="118" text-anchor="middle" class="value" style="font-size:8px">24K</text>
<line x1="530" y1="340" x2="540" y2="340" stroke="#2c3e50" stroke-width="2"/>
<rect x="540" y="334" width="30" height="12" fill="#ffe4b5" stroke="#2c3e50" stroke-width="1.5" rx="2"/>
<line x1="570" y1="340" x2="580" y2="340" stroke="#2c3e50" stroke-width="2"/>
<circle cx="530" cy="340" r="3" fill="#2c3e50"/>
<circle cx="580" cy="340" r="3" fill="#2c3e50"/>
<text x="555" y="330" text-anchor="middle" class="ref">R8</text>
<text x="555" y="343" text-anchor="middle" class="value" style="font-size:8px">24K</text>
<text x="555" y="105" class="note">Gain = 1 + 24K/10K = 3.4x</text>
<line x1="505" y1="175" x2="480" y2="175" stroke="#3498db" stroke-width="2.5" stroke-linecap="round"/>
<line x1="480" y1="175" x2="480" y2="380" stroke="#3498db" stroke-width="2.5" stroke-linecap="round"/>
<line x1="480" y1="380" x2="700" y2="380" stroke="#3498db" stroke-width="2.5" stroke-linecap="round"/>
<text x="580" y="373" class="wire-label" fill="#3498db">Galvo X Signal</text>
<line x1="655" y1="295" x2="680" y2="295" stroke="#3498db" stroke-width="2.5" stroke-linecap="round"/>
<line x1="680" y1="295" x2="680" y2="402" stroke="#3498db" stroke-width="2.5" stroke-linecap="round"/>
<line x1="680" y1="402" x2="700" y2="402" stroke="#3498db" stroke-width="2.5" stroke-linecap="round"/>
<text x="690" y="415" class="wire-label" fill="#3498db">Galvo Y Signal</text>
<rect x="700" y="350" width="60" height="142" fill="#ecf0f1" stroke="#2c3e50" stroke-width="2" rx="3"/>
<text x="730" y="344" text-anchor="middle" class="comp-label">GALVO
DRIVER</text>
<text x="730" y="332" text-anchor="middle" class="ref">J4</text>
<circle cx="772" cy="366" r="4" fill="#2c3e50"/>
<line x1="760" y1="366" x2="772" y2="366" stroke="#2c3e50" stroke-width="2"/>
<text x="754" y="369" text-anchor="end" class="pin-label">X+</text>
<circle cx="772" cy="388" r="4" fill="#2c3e50"/>
<line x1="760" y1="388" x2="772" y2="388" stroke="#2c3e50" stroke-width="2"/>
<text x="754" y="391" text-anchor="end" class="pin-label">X-</text>
<circle cx="772" cy="410" r="4" fill="#2c3e50"/>
<line x1="760" y1="410" x2="772" y2="410" stroke="#2c3e50" stroke-width="2"/>
<text x="754" y="413" text-anchor="end" class="pin-label">Y+</text>
<circle cx="772" cy="432" r="4" fill="#2c3e50"/>
<line x1="760" y1="432" x2="772" y2="432" stroke="#2c3e50" stroke-width="2"/>
<text x="754" y="435" text-anchor="end" class="pin-label">Y-</text>
<circle cx="772" cy="454" r="4" fill="#2c3e50"/>
<line x1="760" y1="454" x2="772" y2="454" stroke="#2c3e50" stroke-width="2"/>
<text x="754" y="457" text-anchor="end" class="pin-label">+12V</text>
<circle cx="772" cy="476" r="4" fill="#2c3e50"/>
<line x1="760" y1="476" x2="772" y2="476" stroke="#2c3e50" stroke-width="2"/>
<text x="754" y="479" text-anchor="end" class="pin-label">GND</text>
<line x1="762" y1="460" x2="800" y2="460" stroke="#e74c3c" stroke-width="2.5" stroke-linecap="round"/>
<text x="800" y="455" class="wire-label" fill="#e74c3c">+12V</text>
<line x1="762" y1="482" x2="800" y2="482" stroke="#2c3e50" stroke-width="2.5" stroke-linecap="round"/>
<text x="800" y="477" class="wire-label" fill="#2c3e50">GND</text>
</svg>
